<?xml version="1.0" encoding="UTF-8"?>
<svg xmlns="http://www.w3.org/2000/svg"
     xmlns:xlink="http://www.w3.org/1999/xlink"
     version="1.2"
     width="110mm" height="110mm" viewBox="0 0 110 110"
     stroke="none"
     fill="#000000"
     stroke-width="0.3"
     font-size="3.88"
>
<defs>
  <marker id="arrow" markerWidth="15" markerHeight="7" refX="5" refY="3.5" orient="auto" markerUnits="strokeWidth">
    <path d="M0,0 L15,3.5 L0,7 z" stroke="context-stroke" fill="context-stroke"/>
  </marker>
</defs>
<g stroke-width="1.13" fill="#000000" fill-opacity="0.000" stroke="#D3D3D3" id="img-a59e270e-1">
  <g transform="translate(60.39,81.22)">
    <path fill="none" d="M-6.62,-11.79 L 6.62 11.79" class="primitive"/>
  </g>
  <g transform="translate(49.09,48.77)">
    <path fill="none" d="M1.91,12.6 L -1.91 -12.6" class="primitive"/>
  </g>
  <g transform="translate(84.98,98.81)">
    <path fill="none" d="M-11.56,-1.48 L 11.56 1.48" class="primitive"/>
  </g>
  <g transform="translate(30.41,72.11)">
    <path fill="none" d="M-17.1,5.2 L 17.1 -5.2" class="primitive"/>
  </g>
  <g transform="translate(38.68,20.53)">
    <path fill="none" d="M5.4,7.8 L -5.4 -7.8" class="primitive"/>
  </g>
  <g transform="translate(71.88,59.07)">
    <path fill="none" d="M16.11,-5.24 L -16.11 5.24" class="primitive"/>
  </g>
</g>
<g stroke-width="1.13" stroke="#D3D3D3" id="img-a59e270e-2">
  <g transform="translate(65.6,90.5)">
    <path fill="none" d="M0.66,-2.02 L 1.41 2.5 -2.07 -0.48" class="primitive"/>
  </g>
  <g transform="translate(47.62,39.01)">
    <path fill="none" d="M-1.33,1.65 L -0.43 -2.84 1.76 1.18" class="primitive"/>
  </g>
  <g transform="translate(93.69,99.92)">
    <path fill="none" d="M-1.23,-1.74 L 2.85 0.36 -1.62 1.37" class="primitive"/>
  </g>
  <g transform="translate(44.76,67.74)">
    <path fill="none" d="M-1.83,-1.08 L 2.75 -0.84 -0.92 1.92" class="primitive"/>
  </g>
  <g transform="translate(34.91,15.09)">
    <path fill="none" d="M-0.47,2.07 L -1.63 -2.36 2.11 0.29" class="primitive"/>
  </g>
  <g transform="translate(58.5,63.42)">
    <path fill="none" d="M1.85,1.05 L -2.73 0.89 0.88 -1.93" class="primitive"/>
  </g>
</g>
<g font-size="4" stroke="#000000" stroke-opacity="0.000" fill="#000000" id="img-a59e270e-3">
  <g transform="translate(64.76,89)">
    <g class="primitive">
      <text text-anchor="middle" dy="0.35em">{1}</text>
    </g>
  </g>
  <g transform="translate(47.82,40.33)">
    <g class="primitive">
      <text text-anchor="middle" dy="0.35em">{2}</text>
    </g>
  </g>
  <g transform="translate(92.91,99.82)">
    <g class="primitive">
      <text text-anchor="middle" dy="0.35em">{1}</text>
    </g>
  </g>
  <g transform="translate(41.03,68.88)">
    <g class="primitive">
      <text text-anchor="middle" dy="0.35em">{1}</text>
    </g>
  </g>
  <g transform="translate(34.74,14.85)">
    <g class="primitive">
      <text text-anchor="middle" dy="0.35em">{2}</text>
    </g>
  </g>
  <g transform="translate(61.76,62.36)">
    <g class="primitive">
      <text text-anchor="middle" dy="0.35em">{2}</text>
    </g>
  </g>
</g>
<g stroke-width="0" stroke="#000000" stroke-opacity="0.000" fill="#40E0D0" id="img-a59e270e-4">
  <g transform="translate(51.65,65.65)">
    <circle cx="0" cy="0" r="4.16" class="primitive"/>
  </g>
  <g transform="translate(69.12,96.78)">
    <circle cx="0" cy="0" r="4.16" class="primitive"/>
  </g>
  <g transform="translate(9.17,78.58)">
    <circle cx="0" cy="0" r="4.16" class="primitive"/>
  </g>
  <g transform="translate(100.83,100.83)">
    <circle cx="0" cy="0" r="4.16" class="primitive"/>
  </g>
  <g transform="translate(46.54,31.89)">
    <circle cx="0" cy="0" r="4.16" class="primitive"/>
  </g>
  <g transform="translate(30.81,9.17)">
    <circle cx="0" cy="0" r="4.16" class="primitive"/>
  </g>
  <g transform="translate(92.1,52.49)">
    <circle cx="0" cy="0" r="4.16" class="primitive"/>
  </g>
</g>
<g font-size="4" stroke="#000000" stroke-opacity="0.000" fill="#000000" id="img-a59e270e-5">
  <g transform="translate(51.65,65.65)">
    <g class="primitive">
      <text text-anchor="middle" dy="0.35em">(alg = "alg1",)</text>
    </g>
  </g>
  <g transform="translate(69.12,96.78)">
    <g class="primitive">
      <text text-anchor="middle" dy="0.35em">(x = [10.0, 20.0, 30.0],)</text>
    </g>
  </g>
  <g transform="translate(9.17,78.58)">
    <g class="primitive">
      <text text-anchor="middle" dy="0.35em">(P = 1,)</text>
    </g>
  </g>
  <g transform="translate(100.83,100.83)">
    <g class="primitive">
      <text text-anchor="middle" dy="0.35em">(r = [12.0, 22.0, 32.0],)</text>
    </g>
  </g>
  <g transform="translate(46.54,31.89)">
    <g class="primitive">
      <text text-anchor="middle" dy="0.35em">(x = [20.0, 40.0, 60.0],)</text>
    </g>
  </g>
  <g transform="translate(30.81,9.17)">
    <g class="primitive">
      <text text-anchor="middle" dy="0.35em">(r = [24.0, 44.0, 64.0],)</text>
    </g>
  </g>
  <g transform="translate(92.1,52.49)">
    <g class="primitive">
      <text text-anchor="middle" dy="0.35em">(P = 2,)</text>
    </g>
  </g>
</g>
</svg>
