<?xml version="1.0" encoding="UTF-8"?>
<svg xmlns="http://www.w3.org/2000/svg"
     xmlns:xlink="http://www.w3.org/1999/xlink"
     version="1.2"
     width="120mm" height="100mm" viewBox="0 0 120 100"
     stroke="none"
     fill="#000000"
     stroke-width="0.3"
     font-size="3.88"
>
<defs>
  <marker id="arrow" markerWidth="15" markerHeight="7" refX="5" refY="3.5" orient="auto" markerUnits="strokeWidth">
    <path d="M0,0 L15,3.5 L0,7 z" stroke="context-stroke" fill="context-stroke"/>
  </marker>
</defs>
<g stroke-width="0.8" fill="#000000" fill-opacity="0.000" stroke="#D3D3D3" id="img-48a46f41-1">
  <g transform="translate(80.82,73.56)">
    <path fill="none" d="M9.26,15.61 L -9.26 -15.61" class="primitive"/>
  </g>
  <g transform="translate(87.54,40.35)">
    <path fill="none" d="M-15.14,13.09 L 15.14 -13.09" class="primitive"/>
  </g>
  <g transform="translate(52.65,54.1)">
    <path fill="none" d="M14.1,1.09 L -14.1 -1.09" class="primitive"/>
  </g>
  <g transform="translate(84.45,59.98)">
    <path fill="none" d="M-11.25,-3.54 L 11.25 3.54" class="primitive"/>
  </g>
  <g transform="translate(56.23,71.41)">
    <path fill="none" d="M11.89,-13.7 L -11.89 13.7" class="primitive"/>
  </g>
  <g transform="translate(50.15,44.93)">
    <path fill="none" d="M17.11,9.03 L -17.11 -9.03" class="primitive"/>
  </g>
  <g transform="translate(107.5,32.81)">
    <path fill="none" d="M-1.61,-4.87 L 1.61 4.87" class="primitive"/>
  </g>
  <g transform="translate(36.11,30.54)">
    <path fill="none" d="M-0.78,19.43 L 0.78 -19.43" class="primitive"/>
  </g>
  <g transform="translate(25.45,69.51)">
    <path fill="none" d="M8.31,-14.25 L -8.31 14.25" class="primitive"/>
  </g>
  <g transform="translate(85,53.45)">
    <path fill="none" d="M11.42,9.12 L -11.42 -9.12" class="primitive"/>
  </g>
  <g transform="translate(75.36,34.16)">
    <path fill="none" d="M4.61,-18.57 L -4.61 18.57" class="primitive"/>
  </g>
  <g transform="translate(26.19,80.16)">
    <path fill="none" d="M13.25,5.9 L -13.25 -5.9" class="primitive"/>
  </g>
  <g transform="translate(25.61,24.54)">
    <path fill="none" d="M3.4,7.28 L -3.4 -7.28" class="primitive"/>
  </g>
</g>
<g stroke-width="0.8" stroke="#D3D3D3" id="img-48a46f41-2">
  <g transform="translate(72.95,60.29)">
    <path fill="none" d="M-0.84,1.8 L -1.39 -2.34 2.23 0.54" class="primitive"/>
  </g>
  <g transform="translate(100.51,29.14)">
    <path fill="none" d="M-2.32,-0.05 L 2.17 -1.88 0.14 1.93" class="primitive"/>
  </g>
  <g transform="translate(41.67,53.25)">
    <path fill="none" d="M1.4,1.54 L -3.12 -0.24 1.72 -1.3" class="primitive"/>
  </g>
  <g transform="translate(92.77,62.6)">
    <path fill="none" d="M-0.86,-1.79 L 2.93 0.92 -2.07 0.87" class="primitive"/>
  </g>
  <g transform="translate(46.18,83)">
    <path fill="none" d="M2.3,-0.22 L -1.84 2.12 -0.47 -1.89" class="primitive"/>
  </g>
  <g transform="translate(35.69,37.3)">
    <path fill="none" d="M0.41,1.9 L -2.65 -1.4 2.24 -0.51" class="primitive"/>
  </g>
  <g transform="translate(108.28,35.16)">
    <path fill="none" d="M1.23,-1.64 L 0.83 2.52 -2.06 -0.88" class="primitive"/>
  </g>
  <g transform="translate(36.78,13.72)">
    <path fill="none" d="M-1.76,1.26 L 0.1 -2.61 1.66 1.35" class="primitive"/>
  </g>
  <g transform="translate(18.51,81.42)">
    <path fill="none" d="M2.22,-0.55 L -1.37 2.35 -0.85 -1.8" class="primitive"/>
  </g>
  <g transform="translate(75.84,46.14)">
    <path fill="none" d="M-0.05,1.93 L -2.26 -1.81 2.31 -0.13" class="primitive"/>
  </g>
  <g transform="translate(71.39,50.17)">
    <path fill="none" d="M1.99,-0.99 L -0.63 2.56 -1.36 -1.57" class="primitive"/>
  </g>
  <g transform="translate(15.71,75.49)">
    <path fill="none" d="M0.58,1.87 L -2.76 -1.23 2.19 -0.64" class="primitive"/>
  </g>
  <g transform="translate(23.35,19.7)">
    <path fill="none" d="M-1.03,1.73 L -1.14 -2.43 2.16 0.7" class="primitive"/>
  </g>
</g>
<g font-size="4" stroke="#000000" stroke-opacity="0.000" fill="#000000" id="img-48a46f41-3">
  <g transform="translate(77.12,65.9)">
    <g class="primitive">
      <text text-anchor="middle" dy="0.35em">[1, 2, 3]</text>
    </g>
  </g>
  <g transform="translate(97.94,34.2)">
    <g class="primitive">
      <text text-anchor="middle" dy="0.35em">[1]</text>
    </g>
  </g>
  <g transform="translate(45.61,54.82)">
    <g class="primitive">
      <text text-anchor="middle" dy="0.35em">[2, 4]</text>
    </g>
  </g>
  <g transform="translate(93.31,63.63)">
    <g class="primitive">
      <text text-anchor="middle" dy="0.35em">[3]</text>
    </g>
  </g>
  <g transform="translate(50.98,80.78)">
    <g class="primitive">
      <text text-anchor="middle" dy="0.35em">[5]</text>
    </g>
  </g>
  <g transform="translate(41.86,41.06)">
    <g class="primitive">
      <text text-anchor="middle" dy="0.35em">[6]</text>
    </g>
  </g>
  <g transform="translate(110.42,37.98)">
    <g class="primitive">
      <text text-anchor="middle" dy="0.35em">[1]</text>
    </g>
  </g>
  <g transform="translate(38.22,20.83)">
    <g class="primitive">
      <text text-anchor="middle" dy="0.35em">[2]</text>
    </g>
  </g>
  <g transform="translate(22.23,79.28)">
    <g class="primitive">
      <text text-anchor="middle" dy="0.35em">[4]</text>
    </g>
  </g>
  <g transform="translate(79.75,49.32)">
    <g class="primitive">
      <text text-anchor="middle" dy="0.35em">[3]</text>
    </g>
  </g>
  <g transform="translate(74.39,46.2)">
    <g class="primitive">
      <text text-anchor="middle" dy="0.35em">[4, 5, 6]</text>
    </g>
  </g>
  <g transform="translate(19.77,77.95)">
    <g class="primitive">
      <text text-anchor="middle" dy="0.35em">[5]</text>
    </g>
  </g>
  <g transform="translate(24.98,21)">
    <g class="primitive">
      <text text-anchor="middle" dy="0.35em">[6]</text>
    </g>
  </g>
</g>
<g stroke-width="0" stroke="#000000" stroke-opacity="0.000" fill="#40E0D0" id="img-48a46f41-4">
  <g transform="translate(91.55,91.67)">
    <circle cx="0" cy="0" r="3.21" class="primitive"/>
  </g>
  <g transform="translate(70.08,55.45)">
    <circle cx="0" cy="0" r="3.21" class="primitive"/>
  </g>
  <g transform="translate(105.01,25.26)">
    <circle cx="0" cy="0" r="3.21" class="primitive"/>
  </g>
  <g transform="translate(35.22,52.75)">
    <circle cx="0" cy="0" r="3.21" class="primitive"/>
  </g>
  <g transform="translate(98.83,64.5)">
    <circle cx="0" cy="0" r="3.21" class="primitive"/>
  </g>
  <g transform="translate(110,40.36)">
    <circle cx="0" cy="0" r="3.21" class="primitive"/>
  </g>
  <g transform="translate(37,8.33)">
    <circle cx="0" cy="0" r="3.21" class="primitive"/>
  </g>
  <g transform="translate(71.17,42.4)">
    <circle cx="0" cy="0" r="3.21" class="primitive"/>
  </g>
  <g transform="translate(15.68,86.27)">
    <circle cx="0" cy="0" r="3.21" class="primitive"/>
  </g>
  <g transform="translate(80.65,12.87)">
    <circle cx="0" cy="0" r="3.21" class="primitive"/>
  </g>
  <g transform="translate(42.38,87.37)">
    <circle cx="0" cy="0" r="3.21" class="primitive"/>
  </g>
  <g transform="translate(10,72.95)">
    <circle cx="0" cy="0" r="3.21" class="primitive"/>
  </g>
  <g transform="translate(30.22,34.41)">
    <circle cx="0" cy="0" r="3.21" class="primitive"/>
  </g>
  <g transform="translate(21,14.67)">
    <circle cx="0" cy="0" r="3.21" class="primitive"/>
  </g>
</g>
<g font-size="4" stroke="#000000" stroke-opacity="0.000" fill="#000000" id="img-48a46f41-5">
  <g transform="translate(91.55,91.67)">
    <g class="primitive">
      <text text-anchor="middle" dy="0.35em">(P = 1,)</text>
    </g>
  </g>
  <g transform="translate(70.08,55.45)">
    <g class="primitive">
      <text text-anchor="middle" dy="0.35em">(alg = "alg1",)</text>
    </g>
  </g>
  <g transform="translate(105.01,25.26)">
    <g class="primitive">
      <text text-anchor="middle" dy="0.35em">(x = 10.0,)</text>
    </g>
  </g>
  <g transform="translate(35.22,52.75)">
    <g class="primitive">
      <text text-anchor="middle" dy="0.35em">(x = 20.0,)</text>
    </g>
  </g>
  <g transform="translate(98.83,64.5)">
    <g class="primitive">
      <text text-anchor="middle" dy="0.35em">(x = 30.0,)</text>
    </g>
  </g>
  <g transform="translate(110,40.36)">
    <g class="primitive">
      <text text-anchor="middle" dy="0.35em">(r = 12.0,)</text>
    </g>
  </g>
  <g transform="translate(37,8.33)">
    <g class="primitive">
      <text text-anchor="middle" dy="0.35em">(r = 22.0,)</text>
    </g>
  </g>
  <g transform="translate(71.17,42.4)">
    <g class="primitive">
      <text text-anchor="middle" dy="0.35em">(r = 32.0,)</text>
    </g>
  </g>
  <g transform="translate(15.68,86.27)">
    <g class="primitive">
      <text text-anchor="middle" dy="0.35em">(r = 24.0,)</text>
    </g>
  </g>
  <g transform="translate(80.65,12.87)">
    <g class="primitive">
      <text text-anchor="middle" dy="0.35em">(P = 2,)</text>
    </g>
  </g>
  <g transform="translate(42.38,87.37)">
    <g class="primitive">
      <text text-anchor="middle" dy="0.35em">(x = 40.0,)</text>
    </g>
  </g>
  <g transform="translate(10,72.95)">
    <g class="primitive">
      <text text-anchor="middle" dy="0.35em">(r = 44.0,)</text>
    </g>
  </g>
  <g transform="translate(30.22,34.41)">
    <g class="primitive">
      <text text-anchor="middle" dy="0.35em">(x = 60.0,)</text>
    </g>
  </g>
  <g transform="translate(21,14.67)">
    <g class="primitive">
      <text text-anchor="middle" dy="0.35em">(r = 64.0,)</text>
    </g>
  </g>
</g>
</svg>
