<?xml version="1.0" encoding="UTF-8"?>
<svg xmlns="http://www.w3.org/2000/svg"
     xmlns:xlink="http://www.w3.org/1999/xlink"
     version="1.2"
     width="110mm" height="110mm" viewBox="0 0 110 110"
     stroke="none"
     fill="#000000"
     stroke-width="0.3"
     font-size="3.88"
>
<defs>
  <marker id="arrow" markerWidth="15" markerHeight="7" refX="5" refY="3.5" orient="auto" markerUnits="strokeWidth">
    <path d="M0,0 L15,3.5 L0,7 z" stroke="context-stroke" fill="context-stroke"/>
  </marker>
</defs>
<g stroke-width="0.8" fill="#000000" fill-opacity="0.000" stroke="#D3D3D3" id="img-a59e270e-1">
  <g transform="translate(49.43,32.72)">
    <path fill="none" d="M0.16,-10.88 L -0.16 10.88" class="primitive"/>
  </g>
  <g transform="translate(38.96,36.32)">
    <path fill="none" d="M8.11,8.17 L -8.11 -8.17" class="primitive"/>
  </g>
  <g transform="translate(62.79,49.96)">
    <path fill="none" d="M-10.59,-2.57 L 10.59 2.57" class="primitive"/>
  </g>
  <g transform="translate(49.08,58.6)">
    <path fill="none" d="M0.11,-8.88 L -0.11 8.88" class="primitive"/>
  </g>
  <g transform="translate(53.28,62.73)">
    <path fill="none" d="M-3.3,-13.1 L 3.3 13.1" class="primitive"/>
  </g>
  <g transform="translate(35.39,52.8)">
    <path fill="none" d="M11.03,-4.9 L -11.03 4.9" class="primitive"/>
  </g>
  <g transform="translate(25.38,17.57)">
    <path fill="none" d="M2.19,5.55 L -2.19 -5.55" class="primitive"/>
  </g>
  <g transform="translate(88.59,57.45)">
    <path fill="none" d="M-9.34,-3.2 L 9.34 3.2" class="primitive"/>
  </g>
  <g transform="translate(80.13,45.7)">
    <path fill="none" d="M-2.41,4.82 L 2.41 -4.82" class="primitive"/>
  </g>
  <g transform="translate(46,83.91)">
    <path fill="none" d="M2.27,-10.37 L -2.27 10.37" class="primitive"/>
  </g>
  <g transform="translate(58.09,35.06)">
    <path fill="none" d="M7,-9.17 L -7 9.17" class="primitive"/>
  </g>
  <g transform="translate(63.67,89.82)">
    <path fill="none" d="M-4.82,-8.36 L 4.82 8.36" class="primitive"/>
  </g>
  <g transform="translate(15.36,67.6)">
    <path fill="none" d="M4.42,-6.18 L -4.42 6.18" class="primitive"/>
  </g>
</g>
<g stroke-width="0.8" stroke="#D3D3D3" id="img-a59e270e-2">
  <g transform="translate(49.32,40.73)">
    <path fill="none" d="M1.59,-1.41 L -0.04 2.87 -1.55 -1.46" class="primitive"/>
  </g>
  <g transform="translate(32.87,30.19)">
    <path fill="none" d="M-0.1,2.12 L -2.02 -2.04 2.12 -0.09" class="primitive"/>
  </g>
  <g transform="translate(70.59,51.85)">
    <path fill="none" d="M-1.02,-1.86 L 2.79 0.68 -1.77 1.18" class="primitive"/>
  </g>
  <g transform="translate(49,64.61)">
    <path fill="none" d="M1.59,-1.42 L -0.04 2.87 -1.55 -1.46" class="primitive"/>
  </g>
  <g transform="translate(55.88,73.05)">
    <path fill="none" d="M1.17,-1.78 L 0.7 2.78 -1.87 -1.01" class="primitive"/>
  </g>
  <g transform="translate(26.98,56.53)">
    <path fill="none" d="M1.95,0.85 L -2.62 1.16 0.68 -2.02" class="primitive"/>
  </g>
  <g transform="translate(24.24,14.69)">
    <path fill="none" d="M-0.93,1.91 L -1.05 -2.67 1.98 0.76" class="primitive"/>
  </g>
  <g transform="translate(95.22,59.72)">
    <path fill="none" d="M-0.85,-1.95 L 2.72 0.93 -1.87 1.02" class="primitive"/>
  </g>
  <g transform="translate(81.25,43.45)">
    <path fill="none" d="M-2.04,0.58 L 1.28 -2.57 0.76 1.98" class="primitive"/>
  </g>
  <g transform="translate(44.34,91.47)">
    <path fill="none" d="M1.84,-1.07 L -0.62 2.8 -1.22 -1.74" class="primitive"/>
  </g>
  <g transform="translate(52.83,41.95)">
    <path fill="none" d="M2.12,-0.19 L -1.74 2.28 -0.37 -2.09" class="primitive"/>
  </g>
  <g transform="translate(67.05,95.69)">
    <path fill="none" d="M0.64,-2.03 L 1.43 2.49 -2.07 -0.46" class="primitive"/>
  </g>
  <g transform="translate(12.62,71.44)">
    <path fill="none" d="M2.11,-0.26 L -1.67 2.34 -0.44 -2.08" class="primitive"/>
  </g>
</g>
<g font-size="4" stroke="#000000" stroke-opacity="0.000" fill="#000000" id="img-a59e270e-3">
  <g transform="translate(49.33,39.69)">
    <g class="primitive">
      <text text-anchor="middle" dy="0.35em">{2, 3, 1}</text>
    </g>
  </g>
  <g transform="translate(33.82,31.15)">
    <g class="primitive">
      <text text-anchor="middle" dy="0.35em">{1}</text>
    </g>
  </g>
  <g transform="translate(69.57,51.61)">
    <g class="primitive">
      <text text-anchor="middle" dy="0.35em">{4, 2}</text>
    </g>
  </g>
  <g transform="translate(49,64.57)">
    <g class="primitive">
      <text text-anchor="middle" dy="0.35em">{3}</text>
    </g>
  </g>
  <g transform="translate(55.3,70.77)">
    <g class="primitive">
      <text text-anchor="middle" dy="0.35em">{5}</text>
    </g>
  </g>
  <g transform="translate(28.48,55.87)">
    <g class="primitive">
      <text text-anchor="middle" dy="0.35em">{6}</text>
    </g>
  </g>
  <g transform="translate(23.72,13.37)">
    <g class="primitive">
      <text text-anchor="middle" dy="0.35em">{1}</text>
    </g>
  </g>
  <g transform="translate(94.71,59.55)">
    <g class="primitive">
      <text text-anchor="middle" dy="0.35em">{2}</text>
    </g>
  </g>
  <g transform="translate(82.02,41.92)">
    <g class="primitive">
      <text text-anchor="middle" dy="0.35em">{4}</text>
    </g>
  </g>
  <g transform="translate(44.53,90.59)">
    <g class="primitive">
      <text text-anchor="middle" dy="0.35em">{3}</text>
    </g>
  </g>
  <g transform="translate(53.66,40.86)">
    <g class="primitive">
      <text text-anchor="middle" dy="0.35em">{4, 5, 6}</text>
    </g>
  </g>
  <g transform="translate(66.84,95.33)">
    <g class="primitive">
      <text text-anchor="middle" dy="0.35em">{5}</text>
    </g>
  </g>
  <g transform="translate(12.26,71.94)">
    <g class="primitive">
      <text text-anchor="middle" dy="0.35em">{6}</text>
    </g>
  </g>
</g>
<g stroke-width="0" stroke="#000000" stroke-opacity="0.000" fill="#40E0D0" id="img-a59e270e-4">
  <g transform="translate(49.64,18.78)">
    <circle cx="0" cy="0" r="2.94" class="primitive"/>
  </g>
  <g transform="translate(49.23,46.66)">
    <circle cx="0" cy="0" r="2.94" class="primitive"/>
  </g>
  <g transform="translate(28.69,25.97)">
    <circle cx="0" cy="0" r="2.94" class="primitive"/>
  </g>
  <g transform="translate(76.35,53.26)">
    <circle cx="0" cy="0" r="2.94" class="primitive"/>
  </g>
  <g transform="translate(48.93,70.54)">
    <circle cx="0" cy="0" r="2.94" class="primitive"/>
  </g>
  <g transform="translate(22.07,9.17)">
    <circle cx="0" cy="0" r="2.94" class="primitive"/>
  </g>
  <g transform="translate(100.83,61.64)">
    <circle cx="0" cy="0" r="2.94" class="primitive"/>
  </g>
  <g transform="translate(43.07,97.27)">
    <circle cx="0" cy="0" r="2.94" class="primitive"/>
  </g>
  <g transform="translate(66.95,23.45)">
    <circle cx="0" cy="0" r="2.94" class="primitive"/>
  </g>
  <g transform="translate(57.33,78.81)">
    <circle cx="0" cy="0" r="2.94" class="primitive"/>
  </g>
  <g transform="translate(21.56,58.94)">
    <circle cx="0" cy="0" r="2.94" class="primitive"/>
  </g>
  <g transform="translate(83.91,38.14)">
    <circle cx="0" cy="0" r="2.94" class="primitive"/>
  </g>
  <g transform="translate(70.01,100.83)">
    <circle cx="0" cy="0" r="2.94" class="primitive"/>
  </g>
  <g transform="translate(9.17,76.27)">
    <circle cx="0" cy="0" r="2.94" class="primitive"/>
  </g>
</g>
<g font-size="4" stroke="#000000" stroke-opacity="0.000" fill="#000000" id="img-a59e270e-5">
  <g transform="translate(49.64,18.78)">
    <g class="primitive">
      <text text-anchor="middle" dy="0.35em">(P = 1,)</text>
    </g>
  </g>
  <g transform="translate(49.23,46.66)">
    <g class="primitive">
      <text text-anchor="middle" dy="0.35em">(alg = "alg1",)</text>
    </g>
  </g>
  <g transform="translate(28.69,25.97)">
    <g class="primitive">
      <text text-anchor="middle" dy="0.35em">(x = 10.0,)</text>
    </g>
  </g>
  <g transform="translate(76.35,53.26)">
    <g class="primitive">
      <text text-anchor="middle" dy="0.35em">(x = 20.0,)</text>
    </g>
  </g>
  <g transform="translate(48.93,70.54)">
    <g class="primitive">
      <text text-anchor="middle" dy="0.35em">(x = 30.0,)</text>
    </g>
  </g>
  <g transform="translate(22.07,9.17)">
    <g class="primitive">
      <text text-anchor="middle" dy="0.35em">(r = 12.0,)</text>
    </g>
  </g>
  <g transform="translate(100.83,61.64)">
    <g class="primitive">
      <text text-anchor="middle" dy="0.35em">(r = 22.0,)</text>
    </g>
  </g>
  <g transform="translate(43.07,97.27)">
    <g class="primitive">
      <text text-anchor="middle" dy="0.35em">(r = 32.0,)</text>
    </g>
  </g>
  <g transform="translate(66.95,23.45)">
    <g class="primitive">
      <text text-anchor="middle" dy="0.35em">(P = 2,)</text>
    </g>
  </g>
  <g transform="translate(57.33,78.81)">
    <g class="primitive">
      <text text-anchor="middle" dy="0.35em">(x = 40.0,)</text>
    </g>
  </g>
  <g transform="translate(21.56,58.94)">
    <g class="primitive">
      <text text-anchor="middle" dy="0.35em">(x = 60.0,)</text>
    </g>
  </g>
  <g transform="translate(83.91,38.14)">
    <g class="primitive">
      <text text-anchor="middle" dy="0.35em">(r = 24.0,)</text>
    </g>
  </g>
  <g transform="translate(70.01,100.83)">
    <g class="primitive">
      <text text-anchor="middle" dy="0.35em">(r = 44.0,)</text>
    </g>
  </g>
  <g transform="translate(9.17,76.27)">
    <g class="primitive">
      <text text-anchor="middle" dy="0.35em">(r = 64.0,)</text>
    </g>
  </g>
</g>
</svg>
