<?xml version="1.0" encoding="UTF-8"?>
<svg xmlns="http://www.w3.org/2000/svg"
     xmlns:xlink="http://www.w3.org/1999/xlink"
     version="1.2"
     width="110mm" height="110mm" viewBox="0 0 110 110"
     stroke="none"
     fill="#000000"
     stroke-width="0.3"
     font-size="3.88"
>
<defs>
  <marker id="arrow" markerWidth="15" markerHeight="7" refX="5" refY="3.5" orient="auto" markerUnits="strokeWidth">
    <path d="M0,0 L15,3.5 L0,7 z" stroke="context-stroke" fill="context-stroke"/>
  </marker>
</defs>
<g stroke-width="0.8" fill="#000000" fill-opacity="0.000" stroke="#D3D3D3" id="img-a59e270e-1">
  <g transform="translate(39.93,65.69)">
    <path fill="none" d="M-8.47,0.97 L 8.47 -0.97" class="primitive"/>
  </g>
  <g transform="translate(63.78,60.82)">
    <path fill="none" d="M-9.39,2.71 L 9.39 -2.71" class="primitive"/>
  </g>
  <g transform="translate(40.1,52.17)">
    <path fill="none" d="M9.26,9.96 L -9.26 -9.96" class="primitive"/>
  </g>
  <g transform="translate(57.64,48.83)">
    <path fill="none" d="M-5.06,12.7 L 5.06 -12.7" class="primitive"/>
  </g>
  <g transform="translate(44.81,75.76)">
    <path fill="none" d="M5.09,-8.74 L -5.09 8.74" class="primitive"/>
  </g>
  <g transform="translate(63.78,70.92)">
    <path fill="none" d="M-9.63,-5.11 L 9.63 5.11" class="primitive"/>
  </g>
  <g transform="translate(88.47,52.82)">
    <path fill="none" d="M-9.48,3.41 L 9.48 -3.41" class="primitive"/>
  </g>
  <g transform="translate(32.23,31.59)">
    <path fill="none" d="M-2.29,5.54 L 2.29 -5.54" class="primitive"/>
  </g>
  <g transform="translate(18.97,32.74)">
    <path fill="none" d="M7.33,5.41 L -7.33 -5.41" class="primitive"/>
  </g>
  <g transform="translate(68.79,21.22)">
    <path fill="none" d="M-3.8,9.23 L 3.8 -9.23" class="primitive"/>
  </g>
  <g transform="translate(49.81,79.88)">
    <path fill="none" d="M-1.31,12.45 L 1.31 -12.45" class="primitive"/>
  </g>
  <g transform="translate(30.39,93.99)">
    <path fill="none" d="M5.49,-4.82 L -5.49 4.82" class="primitive"/>
  </g>
  <g transform="translate(85.87,74.82)">
    <path fill="none" d="M-6.8,1.85 L 6.8 -1.85" class="primitive"/>
  </g>
</g>
<g stroke-width="0.8" stroke="#D3D3D3" id="img-a59e270e-2">
  <g transform="translate(45.55,65.05)">
    <path fill="none" d="M-1.6,-1.39 L 2.85 -0.33 -1.25 1.72" class="primitive"/>
  </g>
  <g transform="translate(70.41,58.91)">
    <path fill="none" d="M-1.81,-1.11 L 2.76 -0.8 -0.95 1.9" class="primitive"/>
  </g>
  <g transform="translate(32.8,44.31)">
    <path fill="none" d="M-0.17,2.12 L -1.95 -2.1 2.13 -0.02" class="primitive"/>
  </g>
  <g transform="translate(61.64,38.79)">
    <path fill="none" d="M-1.99,0.75 L 1.06 -2.67 0.92 1.91" class="primitive"/>
  </g>
  <g transform="translate(41.16,82.03)">
    <path fill="none" d="M2.08,-0.45 L -1.45 2.48 -0.63 -2.03" class="primitive"/>
  </g>
  <g transform="translate(70.87,74.69)">
    <path fill="none" d="M-0.53,-2.06 L 2.54 1.35 -2 0.71" class="primitive"/>
  </g>
  <g transform="translate(95.25,50.38)">
    <path fill="none" d="M-1.88,-0.99 L 2.7 -0.97 -0.82 1.96" class="primitive"/>
  </g>
  <g transform="translate(33.42,28.7)">
    <path fill="none" d="M-2,0.73 L 1.1 -2.65 0.9 1.93" class="primitive"/>
  </g>
  <g transform="translate(13.94,29.04)">
    <path fill="none" d="M0.23,2.11 L -2.31 -1.7 2.09 -0.41" class="primitive"/>
  </g>
  <g transform="translate(71.5,14.65)">
    <path fill="none" d="M-2,0.73 L 1.09 -2.66 0.9 1.92" class="primitive"/>
  </g>
  <g transform="translate(50.82,70.28)">
    <path fill="none" d="M-1.71,1.26 L 0.3 -2.86 1.41 1.59" class="primitive"/>
  </g>
  <g transform="translate(27.05,96.92)">
    <path fill="none" d="M2.11,0.23 L -2.16 1.89 0.04 -2.13" class="primitive"/>
  </g>
  <g transform="translate(89.9,73.72)">
    <path fill="none" d="M-1.8,-1.14 L 2.77 -0.75 -0.97 1.89" class="primitive"/>
  </g>
</g>
<g font-size="4" stroke="#000000" stroke-opacity="0.000" fill="#000000" id="img-a59e270e-3">
  <g transform="translate(45.69,65.03)">
    <g class="primitive">
      <text text-anchor="middle" dy="0.35em">{2, 3, 1}</text>
    </g>
  </g>
  <g transform="translate(69.94,59.04)">
    <g class="primitive">
      <text text-anchor="middle" dy="0.35em">{1}</text>
    </g>
  </g>
  <g transform="translate(34.43,46.07)">
    <g class="primitive">
      <text text-anchor="middle" dy="0.35em">{4, 2}</text>
    </g>
  </g>
  <g transform="translate(60.74,41.06)">
    <g class="primitive">
      <text text-anchor="middle" dy="0.35em">{3}</text>
    </g>
  </g>
  <g transform="translate(41.49,81.46)">
    <g class="primitive">
      <text text-anchor="middle" dy="0.35em">{5}</text>
    </g>
  </g>
  <g transform="translate(69.94,74.2)">
    <g class="primitive">
      <text text-anchor="middle" dy="0.35em">{6}</text>
    </g>
  </g>
  <g transform="translate(94.65,50.6)">
    <g class="primitive">
      <text text-anchor="middle" dy="0.35em">{1}</text>
    </g>
  </g>
  <g transform="translate(33.96,27.4)">
    <g class="primitive">
      <text text-anchor="middle" dy="0.35em">{2}</text>
    </g>
  </g>
  <g transform="translate(14.07,29.13)">
    <g class="primitive">
      <text text-anchor="middle" dy="0.35em">{4}</text>
    </g>
  </g>
  <g transform="translate(71.27,15.2)">
    <g class="primitive">
      <text text-anchor="middle" dy="0.35em">{3}</text>
    </g>
  </g>
  <g transform="translate(50.62,72.13)">
    <g class="primitive">
      <text text-anchor="middle" dy="0.35em">{4, 5, 6}</text>
    </g>
  </g>
  <g transform="translate(26.49,97.41)">
    <g class="primitive">
      <text text-anchor="middle" dy="0.35em">{5}</text>
    </g>
  </g>
  <g transform="translate(90.75,73.49)">
    <g class="primitive">
      <text text-anchor="middle" dy="0.35em">{6}</text>
    </g>
  </g>
</g>
<g stroke-width="0" stroke="#000000" stroke-opacity="0.000" fill="#40E0D0" id="img-a59e270e-4">
  <g transform="translate(28.42,67)">
    <circle cx="0" cy="0" r="2.94" class="primitive"/>
  </g>
  <g transform="translate(51.44,64.38)">
    <circle cx="0" cy="0" r="2.94" class="primitive"/>
  </g>
  <g transform="translate(76.11,57.27)">
    <circle cx="0" cy="0" r="2.94" class="primitive"/>
  </g>
  <g transform="translate(28.76,39.96)">
    <circle cx="0" cy="0" r="2.94" class="primitive"/>
  </g>
  <g transform="translate(63.83,33.28)">
    <circle cx="0" cy="0" r="2.94" class="primitive"/>
  </g>
  <g transform="translate(100.83,48.38)">
    <circle cx="0" cy="0" r="2.94" class="primitive"/>
  </g>
  <g transform="translate(35.69,23.22)">
    <circle cx="0" cy="0" r="2.94" class="primitive"/>
  </g>
  <g transform="translate(73.75,9.17)">
    <circle cx="0" cy="0" r="2.94" class="primitive"/>
  </g>
  <g transform="translate(48.17,95.38)">
    <circle cx="0" cy="0" r="2.94" class="primitive"/>
  </g>
  <g transform="translate(38.18,87.15)">
    <circle cx="0" cy="0" r="2.94" class="primitive"/>
  </g>
  <g transform="translate(76.11,77.47)">
    <circle cx="0" cy="0" r="2.94" class="primitive"/>
  </g>
  <g transform="translate(9.17,25.52)">
    <circle cx="0" cy="0" r="2.94" class="primitive"/>
  </g>
  <g transform="translate(22.59,100.83)">
    <circle cx="0" cy="0" r="2.94" class="primitive"/>
  </g>
  <g transform="translate(95.63,72.16)">
    <circle cx="0" cy="0" r="2.94" class="primitive"/>
  </g>
</g>
<g font-size="4" stroke="#000000" stroke-opacity="0.000" fill="#000000" id="img-a59e270e-5">
  <g transform="translate(28.42,67)">
    <g class="primitive">
      <text text-anchor="middle" dy="0.35em">(P = 1,)</text>
    </g>
  </g>
  <g transform="translate(51.44,64.38)">
    <g class="primitive">
      <text text-anchor="middle" dy="0.35em">(alg = "alg1",)</text>
    </g>
  </g>
  <g transform="translate(76.11,57.27)">
    <g class="primitive">
      <text text-anchor="middle" dy="0.35em">(x = 10.0,)</text>
    </g>
  </g>
  <g transform="translate(28.76,39.96)">
    <g class="primitive">
      <text text-anchor="middle" dy="0.35em">(x = 20.0,)</text>
    </g>
  </g>
  <g transform="translate(63.83,33.28)">
    <g class="primitive">
      <text text-anchor="middle" dy="0.35em">(x = 30.0,)</text>
    </g>
  </g>
  <g transform="translate(100.83,48.38)">
    <g class="primitive">
      <text text-anchor="middle" dy="0.35em">(r = 12.0,)</text>
    </g>
  </g>
  <g transform="translate(35.69,23.22)">
    <g class="primitive">
      <text text-anchor="middle" dy="0.35em">(r = 22.0,)</text>
    </g>
  </g>
  <g transform="translate(73.75,9.17)">
    <g class="primitive">
      <text text-anchor="middle" dy="0.35em">(r = 32.0,)</text>
    </g>
  </g>
  <g transform="translate(48.17,95.38)">
    <g class="primitive">
      <text text-anchor="middle" dy="0.35em">(P = 2,)</text>
    </g>
  </g>
  <g transform="translate(38.18,87.15)">
    <g class="primitive">
      <text text-anchor="middle" dy="0.35em">(x = 40.0,)</text>
    </g>
  </g>
  <g transform="translate(76.11,77.47)">
    <g class="primitive">
      <text text-anchor="middle" dy="0.35em">(x = 60.0,)</text>
    </g>
  </g>
  <g transform="translate(9.17,25.52)">
    <g class="primitive">
      <text text-anchor="middle" dy="0.35em">(r = 24.0,)</text>
    </g>
  </g>
  <g transform="translate(22.59,100.83)">
    <g class="primitive">
      <text text-anchor="middle" dy="0.35em">(r = 44.0,)</text>
    </g>
  </g>
  <g transform="translate(95.63,72.16)">
    <g class="primitive">
      <text text-anchor="middle" dy="0.35em">(r = 64.0,)</text>
    </g>
  </g>
</g>
</svg>
