<?xml version="1.0" encoding="UTF-8"?>
<svg xmlns="http://www.w3.org/2000/svg"
     xmlns:xlink="http://www.w3.org/1999/xlink"
     version="1.2"
     width="110mm" height="110mm" viewBox="0 0 110 110"
     stroke="none"
     fill="#000000"
     stroke-width="0.3"
     font-size="3.88"
>
<defs>
  <marker id="arrow" markerWidth="15" markerHeight="7" refX="5" refY="3.5" orient="auto" markerUnits="strokeWidth">
    <path d="M0,0 L15,3.5 L0,7 z" stroke="context-stroke" fill="context-stroke"/>
  </marker>
</defs>
<g stroke-width="0.8" fill="#000000" fill-opacity="0.000" stroke="#D3D3D3" id="img-142d1ca5-1">
  <g transform="translate(56.25,82.15)">
    <path fill="none" d="M0.51,12.85 L -0.51 -12.85" class="primitive"/>
  </g>
  <g transform="translate(66.93,54.62)">
    <path fill="none" d="M-9.17,9.42 L 9.17 -9.42" class="primitive"/>
  </g>
  <g transform="translate(44.48,51.21)">
    <path fill="none" d="M9.32,12.57 L -9.32 -12.57" class="primitive"/>
  </g>
  <g transform="translate(41.79,63.43)">
    <path fill="none" d="M10.84,2.2 L -10.84 -2.2" class="primitive"/>
  </g>
  <g transform="translate(48.82,77.5)">
    <path fill="none" d="M5.22,-8.64 L -5.22 8.64" class="primitive"/>
  </g>
  <g transform="translate(69.52,68.26)">
    <path fill="none" d="M-10.86,-1.58 L 10.86 1.58" class="primitive"/>
  </g>
  <g transform="translate(87.8,36)">
    <path fill="none" d="M-7.08,5.19 L 7.08 -5.19" class="primitive"/>
  </g>
  <g transform="translate(32.24,22.67)">
    <path fill="none" d="M0.85,10.45 L -0.85 -10.45" class="primitive"/>
  </g>
  <g transform="translate(22.64,27.97)">
    <path fill="none" d="M8.26,6.34 L -8.26 -6.34" class="primitive"/>
  </g>
  <g transform="translate(18.56,54.93)">
    <path fill="none" d="M6.77,4.11 L -6.77 -4.11" class="primitive"/>
  </g>
  <g transform="translate(63.21,75.88)">
    <path fill="none" d="M5.69,7.23 L -5.69 -7.23" class="primitive"/>
  </g>
  <g transform="translate(36.02,94.8)">
    <path fill="none" d="M3.84,-3.87 L -3.84 3.87" class="primitive"/>
  </g>
  <g transform="translate(92.12,74.28)">
    <path fill="none" d="M-5.93,-2.73 L 5.93 2.73" class="primitive"/>
  </g>
</g>
<g stroke-width="0.8" stroke="#D3D3D3" id="img-142d1ca5-2">
  <g transform="translate(55.86,72.17)">
    <path fill="none" d="M-1.51,1.5 L -0.11 -2.87 1.62 1.37" class="primitive"/>
  </g>
  <g transform="translate(74.11,47.26)">
    <path fill="none" d="M-2.12,-0.06 L 2 -2.06 0.12 2.12" class="primitive"/>
  </g>
  <g transform="translate(36.87,40.94)">
    <path fill="none" d="M-0.4,2.09 L -1.71 -2.31 2.11 0.22" class="primitive"/>
  </g>
  <g transform="translate(33.76,61.8)">
    <path fill="none" d="M1.1,1.82 L -2.81 -0.57 1.72 -1.25" class="primitive"/>
  </g>
  <g transform="translate(45.09,83.68)">
    <path fill="none" d="M2.08,-0.42 L -1.48 2.46 -0.6 -2.04" class="primitive"/>
  </g>
  <g transform="translate(77.54,69.42)">
    <path fill="none" d="M-1.2,-1.76 L 2.84 0.41 -1.65 1.34" class="primitive"/>
  </g>
  <g transform="translate(92.57,32.51)">
    <path fill="none" d="M-2.08,-0.42 L 2.32 -1.7 -0.23 2.11" class="primitive"/>
  </g>
  <g transform="translate(31.62,15.08)">
    <path fill="none" d="M-1.45,1.56 L -0.23 -2.86 1.68 1.3" class="primitive"/>
  </g>
  <g transform="translate(16.66,23.39)">
    <path fill="none" d="M0.18,2.12 L -2.28 -1.75 2.09 -0.37" class="primitive"/>
  </g>
  <g transform="translate(14.24,52.31)">
    <path fill="none" d="M0.41,2.08 L -2.45 -1.49 2.04 -0.6" class="primitive"/>
  </g>
  <g transform="translate(59.29,70.9)">
    <path fill="none" d="M-0.34,2.1 L -1.78 -2.26 2.12 0.16" class="primitive"/>
  </g>
  <g transform="translate(34.2,96.62)">
    <path fill="none" d="M2.12,0.09 L -2.02 2.04 -0.1 -2.12" class="primitive"/>
  </g>
  <g transform="translate(95.44,75.81)">
    <path fill="none" d="M-0.65,-2.02 L 2.61 1.2 -1.96 0.82" class="primitive"/>
  </g>
</g>
<g font-size="4" stroke="#000000" stroke-opacity="0.000" fill="#000000" id="img-142d1ca5-3">
  <g transform="translate(55.94,74.19)">
    <g class="primitive">
      <text text-anchor="middle" dy="0.35em">{2, 3, 1}</text>
    </g>
  </g>
  <g transform="translate(72.59,48.81)">
    <g class="primitive">
      <text text-anchor="middle" dy="0.35em">{1}</text>
    </g>
  </g>
  <g transform="translate(38.9,43.69)">
    <g class="primitive">
      <text text-anchor="middle" dy="0.35em">{4, 2}</text>
    </g>
  </g>
  <g transform="translate(34.87,62.03)">
    <g class="primitive">
      <text text-anchor="middle" dy="0.35em">{3}</text>
    </g>
  </g>
  <g transform="translate(45.42,83.13)">
    <g class="primitive">
      <text text-anchor="middle" dy="0.35em">{5}</text>
    </g>
  </g>
  <g transform="translate(76.46,69.27)">
    <g class="primitive">
      <text text-anchor="middle" dy="0.35em">{6}</text>
    </g>
  </g>
  <g transform="translate(92.58,32.5)">
    <g class="primitive">
      <text text-anchor="middle" dy="0.35em">{1}</text>
    </g>
  </g>
  <g transform="translate(31.69,15.92)">
    <g class="primitive">
      <text text-anchor="middle" dy="0.35em">{2}</text>
    </g>
  </g>
  <g transform="translate(17.3,23.87)">
    <g class="primitive">
      <text text-anchor="middle" dy="0.35em">{4}</text>
    </g>
  </g>
  <g transform="translate(13.86,52.08)">
    <g class="primitive">
      <text text-anchor="middle" dy="0.35em">{3}</text>
    </g>
  </g>
  <g transform="translate(59.42,71.06)">
    <g class="primitive">
      <text text-anchor="middle" dy="0.35em">{4, 5, 6}</text>
    </g>
  </g>
  <g transform="translate(33.02,97.81)">
    <g class="primitive">
      <text text-anchor="middle" dy="0.35em">{5}</text>
    </g>
  </g>
  <g transform="translate(96.48,76.29)">
    <g class="primitive">
      <text text-anchor="middle" dy="0.35em">{6}</text>
    </g>
  </g>
</g>
<g stroke-width="0" stroke="#000000" stroke-opacity="0.000" fill="#40E0D0" id="img-142d1ca5-4">
  <g transform="translate(56.88,98.05)">
    <circle cx="0" cy="0" r="2.94" class="primitive"/>
  </g>
  <g transform="translate(55.62,66.24)">
    <circle cx="0" cy="0" r="2.94" class="primitive"/>
  </g>
  <g transform="translate(78.25,43.01)">
    <circle cx="0" cy="0" r="2.94" class="primitive"/>
  </g>
  <g transform="translate(33.33,36.17)">
    <circle cx="0" cy="0" r="2.94" class="primitive"/>
  </g>
  <g transform="translate(27.95,60.62)">
    <circle cx="0" cy="0" r="2.94" class="primitive"/>
  </g>
  <g transform="translate(97.36,29)">
    <circle cx="0" cy="0" r="2.94" class="primitive"/>
  </g>
  <g transform="translate(31.14,9.17)">
    <circle cx="0" cy="0" r="2.94" class="primitive"/>
  </g>
  <g transform="translate(9.17,49.23)">
    <circle cx="0" cy="0" r="2.94" class="primitive"/>
  </g>
  <g transform="translate(70.79,85.51)">
    <circle cx="0" cy="0" r="2.94" class="primitive"/>
  </g>
  <g transform="translate(42.02,88.76)">
    <circle cx="0" cy="0" r="2.94" class="primitive"/>
  </g>
  <g transform="translate(83.41,70.27)">
    <circle cx="0" cy="0" r="2.94" class="primitive"/>
  </g>
  <g transform="translate(11.96,19.77)">
    <circle cx="0" cy="0" r="2.94" class="primitive"/>
  </g>
  <g transform="translate(30.02,100.83)">
    <circle cx="0" cy="0" r="2.94" class="primitive"/>
  </g>
  <g transform="translate(100.83,78.3)">
    <circle cx="0" cy="0" r="2.94" class="primitive"/>
  </g>
</g>
<g font-size="4" stroke="#000000" stroke-opacity="0.000" fill="#000000" id="img-142d1ca5-5">
  <g transform="translate(56.88,98.05)">
    <g class="primitive">
      <text text-anchor="middle" dy="0.35em">(P = 1,)</text>
    </g>
  </g>
  <g transform="translate(55.62,66.24)">
    <g class="primitive">
      <text text-anchor="middle" dy="0.35em">(alg = "alg1",)</text>
    </g>
  </g>
  <g transform="translate(78.25,43.01)">
    <g class="primitive">
      <text text-anchor="middle" dy="0.35em">(x = 10.0,)</text>
    </g>
  </g>
  <g transform="translate(33.33,36.17)">
    <g class="primitive">
      <text text-anchor="middle" dy="0.35em">(x = 20.0,)</text>
    </g>
  </g>
  <g transform="translate(27.95,60.62)">
    <g class="primitive">
      <text text-anchor="middle" dy="0.35em">(x = 30.0,)</text>
    </g>
  </g>
  <g transform="translate(97.36,29)">
    <g class="primitive">
      <text text-anchor="middle" dy="0.35em">(r = 12.0,)</text>
    </g>
  </g>
  <g transform="translate(31.14,9.17)">
    <g class="primitive">
      <text text-anchor="middle" dy="0.35em">(r = 22.0,)</text>
    </g>
  </g>
  <g transform="translate(9.17,49.23)">
    <g class="primitive">
      <text text-anchor="middle" dy="0.35em">(r = 32.0,)</text>
    </g>
  </g>
  <g transform="translate(70.79,85.51)">
    <g class="primitive">
      <text text-anchor="middle" dy="0.35em">(P = 2,)</text>
    </g>
  </g>
  <g transform="translate(42.02,88.76)">
    <g class="primitive">
      <text text-anchor="middle" dy="0.35em">(x = 40.0,)</text>
    </g>
  </g>
  <g transform="translate(83.41,70.27)">
    <g class="primitive">
      <text text-anchor="middle" dy="0.35em">(x = 60.0,)</text>
    </g>
  </g>
  <g transform="translate(11.96,19.77)">
    <g class="primitive">
      <text text-anchor="middle" dy="0.35em">(r = 24.0,)</text>
    </g>
  </g>
  <g transform="translate(30.02,100.83)">
    <g class="primitive">
      <text text-anchor="middle" dy="0.35em">(r = 44.0,)</text>
    </g>
  </g>
  <g transform="translate(100.83,78.3)">
    <g class="primitive">
      <text text-anchor="middle" dy="0.35em">(r = 64.0,)</text>
    </g>
  </g>
</g>
</svg>
