<?xml version="1.0" encoding="UTF-8"?>
<svg xmlns="http://www.w3.org/2000/svg"
     xmlns:xlink="http://www.w3.org/1999/xlink"
     version="1.2"
     width="110mm" height="110mm" viewBox="0 0 110 110"
     stroke="none"
     fill="#000000"
     stroke-width="0.3"
     font-size="3.88"
>
<defs>
  <marker id="arrow" markerWidth="15" markerHeight="7" refX="5" refY="3.5" orient="auto" markerUnits="strokeWidth">
    <path d="M0,0 L15,3.5 L0,7 z" stroke="context-stroke" fill="context-stroke"/>
  </marker>
</defs>
<g stroke-width="1.13" fill="#000000" fill-opacity="0.000" stroke="#D3D3D3" id="img-086fc501-1">
  <g transform="translate(60.69,34)">
    <path fill="none" d="M-6.97,9.56 L 6.97 -9.56" class="primitive"/>
  </g>
  <g transform="translate(40.75,63.41)">
    <path fill="none" d="M8.09,-12.71 L -8.09 12.71" class="primitive"/>
  </g>
  <g transform="translate(85.52,16.73)">
    <path fill="none" d="M-11.14,3.06 L 11.14 -3.06" class="primitive"/>
  </g>
  <g transform="translate(44.07,28.11)">
    <path fill="none" d="M-5.58,-14.89 L 5.58 14.89" class="primitive"/>
  </g>
  <g transform="translate(19.75,90.3)">
    <path fill="none" d="M7.51,-7.48 L -7.51 7.48" class="primitive"/>
  </g>
  <g transform="translate(66.8,59.5)">
    <path fill="none" d="M12.25,9.75 L -12.25 -9.75" class="primitive"/>
  </g>
</g>
<g stroke-width="1.13" stroke="#D3D3D3" id="img-086fc501-2">
  <g transform="translate(65.97,26.76)">
    <path fill="none" d="M-2.11,0.24 L 1.69 -2.32 0.42 2.08" class="primitive"/>
  </g>
  <g transform="translate(34.2,73.69)">
    <path fill="none" d="M2.09,-0.37 L -1.54 2.42 -0.55 -2.05" class="primitive"/>
  </g>
  <g transform="translate(93.89,14.43)">
    <path fill="none" d="M-1.8,-1.13 L 2.77 -0.76 -0.97 1.89" class="primitive"/>
  </g>
  <g transform="translate(48.64,40.31)">
    <path fill="none" d="M0.96,-1.89 L 1.01 2.69 -1.97 -0.79" class="primitive"/>
  </g>
  <g transform="translate(14.27,95.75)">
    <path fill="none" d="M2.12,0.1 L -2.03 2.03 -0.09 -2.12" class="primitive"/>
  </g>
  <g transform="translate(56.8,51.54)">
    <path fill="none" d="M0.15,2.12 L -2.25 -1.79 2.1 -0.33" class="primitive"/>
  </g>
</g>
<g font-size="4" stroke="#000000" stroke-opacity="0.000" fill="#000000" id="img-086fc501-3">
  <g transform="translate(65.45,27.47)">
    <g class="primitive">
      <text text-anchor="middle" dy="0.35em">{1}</text>
    </g>
  </g>
  <g transform="translate(35.54,71.59)">
    <g class="primitive">
      <text text-anchor="middle" dy="0.35em">{2}</text>
    </g>
  </g>
  <g transform="translate(93.18,14.62)">
    <g class="primitive">
      <text text-anchor="middle" dy="0.35em">{1}</text>
    </g>
  </g>
  <g transform="translate(47.62,37.58)">
    <g class="primitive">
      <text text-anchor="middle" dy="0.35em">{1}</text>
    </g>
  </g>
  <g transform="translate(14.46,95.57)">
    <g class="primitive">
      <text text-anchor="middle" dy="0.35em">{2}</text>
    </g>
  </g>
  <g transform="translate(58.98,53.27)">
    <g class="primitive">
      <text text-anchor="middle" dy="0.35em">{2}</text>
    </g>
  </g>
</g>
<g stroke-width="0" stroke="#000000" stroke-opacity="0.000" fill="#40E0D0" id="img-086fc501-4">
  <g transform="translate(51.16,47.05)">
    <circle cx="0" cy="0" r="4.16" class="primitive"/>
  </g>
  <g transform="translate(70.21,20.94)">
    <circle cx="0" cy="0" r="4.16" class="primitive"/>
  </g>
  <g transform="translate(36.97,9.17)">
    <circle cx="0" cy="0" r="4.16" class="primitive"/>
  </g>
  <g transform="translate(100.83,12.52)">
    <circle cx="0" cy="0" r="4.16" class="primitive"/>
  </g>
  <g transform="translate(30.33,79.77)">
    <circle cx="0" cy="0" r="4.16" class="primitive"/>
  </g>
  <g transform="translate(9.17,100.83)">
    <circle cx="0" cy="0" r="4.16" class="primitive"/>
  </g>
  <g transform="translate(82.44,71.94)">
    <circle cx="0" cy="0" r="4.16" class="primitive"/>
  </g>
</g>
<g font-size="4" stroke="#000000" stroke-opacity="0.000" fill="#000000" id="img-086fc501-5">
  <g transform="translate(51.16,47.05)">
    <g class="primitive">
      <text text-anchor="middle" dy="0.35em">(alg = "alg1",)</text>
    </g>
  </g>
  <g transform="translate(70.21,20.94)">
    <g class="primitive">
      <text text-anchor="middle" dy="0.35em">(x = [10.0, 20.0, 30.0],)</text>
    </g>
  </g>
  <g transform="translate(36.97,9.17)">
    <g class="primitive">
      <text text-anchor="middle" dy="0.35em">(P = 1,)</text>
    </g>
  </g>
  <g transform="translate(100.83,12.52)">
    <g class="primitive">
      <text text-anchor="middle" dy="0.35em">(r = [12.0, 22.0, 32.0],)</text>
    </g>
  </g>
  <g transform="translate(30.33,79.77)">
    <g class="primitive">
      <text text-anchor="middle" dy="0.35em">(x = [20.0, 40.0, 60.0],)</text>
    </g>
  </g>
  <g transform="translate(9.17,100.83)">
    <g class="primitive">
      <text text-anchor="middle" dy="0.35em">(r = [24.0, 44.0, 64.0],)</text>
    </g>
  </g>
  <g transform="translate(82.44,71.94)">
    <g class="primitive">
      <text text-anchor="middle" dy="0.35em">(P = 2,)</text>
    </g>
  </g>
</g>
</svg>
