<?xml version="1.0" encoding="UTF-8"?>
<svg xmlns="http://www.w3.org/2000/svg"
     xmlns:xlink="http://www.w3.org/1999/xlink"
     version="1.2"
     width="110mm" height="110mm" viewBox="0 0 110 110"
     stroke="none"
     fill="#000000"
     stroke-width="0.3"
     font-size="3.88"
>
<defs>
  <marker id="arrow" markerWidth="15" markerHeight="7" refX="5" refY="3.5" orient="auto" markerUnits="strokeWidth">
    <path d="M0,0 L15,3.5 L0,7 z" stroke="context-stroke" fill="context-stroke"/>
  </marker>
</defs>
<g stroke-width="0.8" fill="#000000" fill-opacity="0.000" stroke="#D3D3D3" id="img-87176fe4-1">
  <g transform="translate(63.55,52.28)">
    <path fill="none" d="M5.88,-6.47 L -5.88 6.47" class="primitive"/>
  </g>
  <g transform="translate(57.78,74.51)">
    <path fill="none" d="M-1.68,-10.47 L 1.68 10.47" class="primitive"/>
  </g>
  <g transform="translate(43.73,48.57)">
    <path fill="none" d="M9.76,10.23 L -9.76 -10.23" class="primitive"/>
  </g>
  <g transform="translate(53.22,48.82)">
    <path fill="none" d="M1.8,9.19 L -1.8 -9.19" class="primitive"/>
  </g>
  <g transform="translate(68.16,61.86)">
    <path fill="none" d="M-9.49,-0.64 L 9.49 0.64" class="primitive"/>
  </g>
  <g transform="translate(44.3,71.1)">
    <path fill="none" d="M9.02,-8.04 L -9.02 8.04" class="primitive"/>
  </g>
  <g transform="translate(65.98,94.42)">
    <path fill="none" d="M-3.94,-4.19 L 3.94 4.19" class="primitive"/>
  </g>
  <g transform="translate(34.59,22.64)">
    <path fill="none" d="M-2.13,10.47 L 2.13 -10.47" class="primitive"/>
  </g>
  <g transform="translate(20.51,34.8)">
    <path fill="none" d="M8.3,0.96 L -8.3 -0.96" class="primitive"/>
  </g>
  <g transform="translate(45.77,28.14)">
    <path fill="none" d="M3.5,5.86 L -3.5 -5.86" class="primitive"/>
  </g>
  <g transform="translate(66.44,68.96)">
    <path fill="none" d="M8.36,6.14 L -8.36 -6.14" class="primitive"/>
  </g>
  <g transform="translate(90.77,60.61)">
    <path fill="none" d="M-7.06,1.46 L 7.06 -1.46" class="primitive"/>
  </g>
  <g transform="translate(25.22,88.73)">
    <path fill="none" d="M5.57,-5.42 L -5.57 5.42" class="primitive"/>
  </g>
</g>
<g stroke-width="0.8" stroke="#D3D3D3" id="img-87176fe4-2">
  <g transform="translate(59.6,56.63)">
    <path fill="none" d="M2.13,-0.01 L -1.93 2.13 -0.19 -2.12" class="primitive"/>
  </g>
  <g transform="translate(59,82.14)">
    <path fill="none" d="M1.32,-1.67 L 0.46 2.83 -1.78 -1.17" class="primitive"/>
  </g>
  <g transform="translate(35.95,40.41)">
    <path fill="none" d="M-0.14,2.12 L -1.98 -2.08 2.13 -0.04" class="primitive"/>
  </g>
  <g transform="translate(51.97,42.45)">
    <path fill="none" d="M-1.26,1.71 L -0.55 -2.82 1.81 1.11" class="primitive"/>
  </g>
  <g transform="translate(74.79,62.3)">
    <path fill="none" d="M-1.33,-1.66 L 2.86 0.19 -1.54 1.47" class="primitive"/>
  </g>
  <g transform="translate(37.42,77.23)">
    <path fill="none" d="M2.11,0.21 L -2.14 1.91 0.03 -2.13" class="primitive"/>
  </g>
  <g transform="translate(67.95,96.51)">
    <path fill="none" d="M0.16,-2.12 L 1.97 2.09 -2.13 0.03" class="primitive"/>
  </g>
  <g transform="translate(36.15,14.98)">
    <path fill="none" d="M-1.82,1.1 L 0.57 -2.81 1.25 1.72" class="primitive"/>
  </g>
  <g transform="translate(15.06,34.18)">
    <path fill="none" d="M1.25,1.72 L -2.85 -0.33 1.61 -1.39" class="primitive"/>
  </g>
  <g transform="translate(43.74,24.74)">
    <path fill="none" d="M-0.61,2.04 L -1.47 -2.47 2.08 0.43" class="primitive"/>
  </g>
  <g transform="translate(60.39,64.53)">
    <path fill="none" d="M0.23,2.11 L -2.32 -1.7 2.08 -0.41" class="primitive"/>
  </g>
  <g transform="translate(95.02,59.73)">
    <path fill="none" d="M-1.72,-1.24 L 2.81 -0.58 -1.09 1.83" class="primitive"/>
  </g>
  <g transform="translate(21.7,92.15)">
    <path fill="none" d="M2.12,0.12 L -2.06 2 -0.06 -2.12" class="primitive"/>
  </g>
</g>
<g font-size="4" stroke="#000000" stroke-opacity="0.000" fill="#000000" id="img-87176fe4-3">
  <g transform="translate(59.58,56.65)">
    <g class="primitive">
      <text text-anchor="middle" dy="0.35em">Set([2, 3, 1])</text>
    </g>
  </g>
  <g transform="translate(58.86,81.26)">
    <g class="primitive">
      <text text-anchor="middle" dy="0.35em">Set([1])</text>
    </g>
  </g>
  <g transform="translate(37.8,42.34)">
    <g class="primitive">
      <text text-anchor="middle" dy="0.35em">Set([4, 2])</text>
    </g>
  </g>
  <g transform="translate(52.03,42.72)">
    <g class="primitive">
      <text text-anchor="middle" dy="0.35em">Set([3])</text>
    </g>
  </g>
  <g transform="translate(74.43,62.28)">
    <g class="primitive">
      <text text-anchor="middle" dy="0.35em">Set([5])</text>
    </g>
  </g>
  <g transform="translate(38.64,76.14)">
    <g class="primitive">
      <text text-anchor="middle" dy="0.35em">Set([6])</text>
    </g>
  </g>
  <g transform="translate(69,97.63)">
    <g class="primitive">
      <text text-anchor="middle" dy="0.35em">Set([1])</text>
    </g>
  </g>
  <g transform="translate(35.96,15.9)">
    <g class="primitive">
      <text text-anchor="middle" dy="0.35em">Set([2])</text>
    </g>
  </g>
  <g transform="translate(14.84,34.15)">
    <g class="primitive">
      <text text-anchor="middle" dy="0.35em">Set([4])</text>
    </g>
  </g>
  <g transform="translate(43.23,23.89)">
    <g class="primitive">
      <text text-anchor="middle" dy="0.35em">Set([3])</text>
    </g>
  </g>
  <g transform="translate(61.03,64.99)">
    <g class="primitive">
      <text text-anchor="middle" dy="0.35em">Set([4, 5, 6])</text>
    </g>
  </g>
  <g transform="translate(95.8,59.57)">
    <g class="primitive">
      <text text-anchor="middle" dy="0.35em">Set([5])</text>
    </g>
  </g>
  <g transform="translate(21.33,92.51)">
    <g class="primitive">
      <text text-anchor="middle" dy="0.35em">Set([6])</text>
    </g>
  </g>
</g>
<g stroke-width="0" stroke="#000000" stroke-opacity="0.000" fill="#40E0D0" id="img-87176fe4-4">
  <g transform="translate(71.48,43.54)">
    <circle cx="0" cy="0" r="2.94" class="primitive"/>
  </g>
  <g transform="translate(55.61,61.02)">
    <circle cx="0" cy="0" r="2.94" class="primitive"/>
  </g>
  <g transform="translate(59.94,88)">
    <circle cx="0" cy="0" r="2.94" class="primitive"/>
  </g>
  <g transform="translate(31.86,36.12)">
    <circle cx="0" cy="0" r="2.94" class="primitive"/>
  </g>
  <g transform="translate(50.83,36.63)">
    <circle cx="0" cy="0" r="2.94" class="primitive"/>
  </g>
  <g transform="translate(72.02,100.83)">
    <circle cx="0" cy="0" r="2.94" class="primitive"/>
  </g>
  <g transform="translate(37.33,9.17)">
    <circle cx="0" cy="0" r="2.94" class="primitive"/>
  </g>
  <g transform="translate(40.7,19.65)">
    <circle cx="0" cy="0" r="2.94" class="primitive"/>
  </g>
  <g transform="translate(9.17,33.49)">
    <circle cx="0" cy="0" r="2.94" class="primitive"/>
  </g>
  <g transform="translate(77.28,76.91)">
    <circle cx="0" cy="0" r="2.94" class="primitive"/>
  </g>
  <g transform="translate(80.71,62.7)">
    <circle cx="0" cy="0" r="2.94" class="primitive"/>
  </g>
  <g transform="translate(100.83,58.53)">
    <circle cx="0" cy="0" r="2.94" class="primitive"/>
  </g>
  <g transform="translate(32.99,81.18)">
    <circle cx="0" cy="0" r="2.94" class="primitive"/>
  </g>
  <g transform="translate(17.45,96.28)">
    <circle cx="0" cy="0" r="2.94" class="primitive"/>
  </g>
</g>
<g font-size="4" stroke="#000000" stroke-opacity="0.000" fill="#000000" id="img-87176fe4-5">
  <g transform="translate(71.48,43.54)">
    <g class="primitive">
      <text text-anchor="middle" dy="0.35em">(P = 1,)</text>
    </g>
  </g>
  <g transform="translate(55.61,61.02)">
    <g class="primitive">
      <text text-anchor="middle" dy="0.35em">(alg = "alg1",)</text>
    </g>
  </g>
  <g transform="translate(59.94,88)">
    <g class="primitive">
      <text text-anchor="middle" dy="0.35em">(x = 10.0,)</text>
    </g>
  </g>
  <g transform="translate(31.86,36.12)">
    <g class="primitive">
      <text text-anchor="middle" dy="0.35em">(x = 20.0,)</text>
    </g>
  </g>
  <g transform="translate(50.83,36.63)">
    <g class="primitive">
      <text text-anchor="middle" dy="0.35em">(x = 30.0,)</text>
    </g>
  </g>
  <g transform="translate(72.02,100.83)">
    <g class="primitive">
      <text text-anchor="middle" dy="0.35em">(r = 12.0,)</text>
    </g>
  </g>
  <g transform="translate(37.33,9.17)">
    <g class="primitive">
      <text text-anchor="middle" dy="0.35em">(r = 22.0,)</text>
    </g>
  </g>
  <g transform="translate(40.7,19.65)">
    <g class="primitive">
      <text text-anchor="middle" dy="0.35em">(r = 32.0,)</text>
    </g>
  </g>
  <g transform="translate(9.17,33.49)">
    <g class="primitive">
      <text text-anchor="middle" dy="0.35em">(r = 24.0,)</text>
    </g>
  </g>
  <g transform="translate(77.28,76.91)">
    <g class="primitive">
      <text text-anchor="middle" dy="0.35em">(P = 2,)</text>
    </g>
  </g>
  <g transform="translate(80.71,62.7)">
    <g class="primitive">
      <text text-anchor="middle" dy="0.35em">(x = 40.0,)</text>
    </g>
  </g>
  <g transform="translate(100.83,58.53)">
    <g class="primitive">
      <text text-anchor="middle" dy="0.35em">(r = 44.0,)</text>
    </g>
  </g>
  <g transform="translate(32.99,81.18)">
    <g class="primitive">
      <text text-anchor="middle" dy="0.35em">(x = 60.0,)</text>
    </g>
  </g>
  <g transform="translate(17.45,96.28)">
    <g class="primitive">
      <text text-anchor="middle" dy="0.35em">(r = 64.0,)</text>
    </g>
  </g>
</g>
</svg>
