<?xml version="1.0" encoding="UTF-8"?>
<svg xmlns="http://www.w3.org/2000/svg"
     xmlns:xlink="http://www.w3.org/1999/xlink"
     version="1.2"
     width="110mm" height="110mm" viewBox="0 0 110 110"
     stroke="none"
     fill="#000000"
     stroke-width="0.3"
     font-size="3.88"
>
<defs>
  <marker id="arrow" markerWidth="15" markerHeight="7" refX="5" refY="3.5" orient="auto" markerUnits="strokeWidth">
    <path d="M0,0 L15,3.5 L0,7 z" stroke="context-stroke" fill="context-stroke"/>
  </marker>
</defs>
<g stroke-width="0.8" fill="#000000" fill-opacity="0.000" stroke="#D3D3D3" id="img-c0168326-1">
  <g transform="translate(66.4,43.32)">
    <path fill="none" d="M4.31,-6.77 L -4.31 6.77" class="primitive"/>
  </g>
  <g transform="translate(55.59,43.07)">
    <path fill="none" d="M3.47,6.87 L -3.47 -6.87" class="primitive"/>
  </g>
  <g transform="translate(45.7,43.01)">
    <path fill="none" d="M12.2,7.99 L -12.2 -7.99" class="primitive"/>
  </g>
  <g transform="translate(59.11,65.99)">
    <path fill="none" d="M1.04,-10.27 L -1.04 10.27" class="primitive"/>
  </g>
  <g transform="translate(74.31,47.18)">
    <path fill="none" d="M-11.01,4.36 L 11.01 -4.36" class="primitive"/>
  </g>
  <g transform="translate(54.89,65.46)">
    <path fill="none" d="M4.34,-9.98 L -4.34 9.98" class="primitive"/>
  </g>
  <g transform="translate(51.37,21.32)">
    <path fill="none" d="M-0.47,9.1 L 0.47 -9.1" class="primitive"/>
  </g>
  <g transform="translate(20.05,31.86)">
    <path fill="none" d="M7.85,1.07 L -7.85 -1.07" class="primitive"/>
  </g>
  <g transform="translate(28.63,21.46)">
    <path fill="none" d="M1.72,8.88 L -1.72 -8.88" class="primitive"/>
  </g>
  <g transform="translate(53.95,88.32)">
    <path fill="none" d="M2.62,-6.19 L -2.62 6.19" class="primitive"/>
  </g>
  <g transform="translate(71.16,59.32)">
    <path fill="none" d="M8.11,5.03 L -8.11 -5.03" class="primitive"/>
  </g>
  <g transform="translate(94.5,34.38)">
    <path fill="none" d="M-4.33,5 L 4.33 -5" class="primitive"/>
  </g>
  <g transform="translate(56.17,89.54)">
    <path fill="none" d="M-5.25,-8.67 L 5.25 8.67" class="primitive"/>
  </g>
</g>
<g stroke-width="0.8" stroke="#D3D3D3" id="img-c0168326-2">
  <g transform="translate(63.64,47.67)">
    <path fill="none" d="M2.09,-0.37 L -1.54 2.42 -0.55 -2.05" class="primitive"/>
  </g>
  <g transform="translate(53.42,38.77)">
    <path fill="none" d="M-0.75,1.99 L -1.3 -2.56 2.05 0.57" class="primitive"/>
  </g>
  <g transform="translate(35.9,36.59)">
    <path fill="none" d="M0.34,2.1 L -2.4 -1.57 2.06 -0.52" class="primitive"/>
  </g>
  <g transform="translate(58.36,73.4)">
    <path fill="none" d="M1.7,-1.27 L -0.29 2.86 -1.42 -1.59" class="primitive"/>
  </g>
  <g transform="translate(82.65,43.88)">
    <path fill="none" d="M-1.91,-0.93 L 2.67 -1.06 -0.76 1.99" class="primitive"/>
  </g>
  <g transform="translate(51.7,72.81)">
    <path fill="none" d="M2.01,-0.69 L -1.14 2.63 -0.87 -1.94" class="primitive"/>
  </g>
  <g transform="translate(51.69,15.09)">
    <path fill="none" d="M-1.64,1.35 L 0.15 -2.87 1.49 1.52" class="primitive"/>
  </g>
  <g transform="translate(15.05,31.17)">
    <path fill="none" d="M1.21,1.75 L -2.84 -0.39 1.63 -1.36" class="primitive"/>
  </g>
  <g transform="translate(27.46,15.4)">
    <path fill="none" d="M-1.27,1.71 L -0.55 -2.82 1.81 1.11" class="primitive"/>
  </g>
  <g transform="translate(52.45,91.87)">
    <path fill="none" d="M2,-0.71 L -1.12 2.64 -0.88 -1.93" class="primitive"/>
  </g>
  <g transform="translate(65.49,55.8)">
    <path fill="none" d="M0.39,2.09 L -2.44 -1.51 2.05 -0.58" class="primitive"/>
  </g>
  <g transform="translate(96.95,31.55)">
    <path fill="none" d="M-2.12,0.06 L 1.88 -2.17 0.24 2.11" class="primitive"/>
  </g>
  <g transform="translate(59.93,95.76)">
    <path fill="none" d="M0.6,-2.04 L 1.49 2.46 -2.08 -0.42" class="primitive"/>
  </g>
</g>
<g font-size="4" stroke="#000000" stroke-opacity="0.000" fill="#000000" id="img-c0168326-3">
  <g transform="translate(63.43,48)">
    <g class="primitive">
      <text text-anchor="middle" dy="0.35em">[1, 2, 3]</text>
    </g>
  </g>
  <g transform="translate(53.17,38.27)">
    <g class="primitive">
      <text text-anchor="middle" dy="0.35em">[1]</text>
    </g>
  </g>
  <g transform="translate(38.32,38.17)">
    <g class="primitive">
      <text text-anchor="middle" dy="0.35em">[2, 4]</text>
    </g>
  </g>
  <g transform="translate(58.43,72.65)">
    <g class="primitive">
      <text text-anchor="middle" dy="0.35em">[3]</text>
    </g>
  </g>
  <g transform="translate(81.23,44.44)">
    <g class="primitive">
      <text text-anchor="middle" dy="0.35em">[5]</text>
    </g>
  </g>
  <g transform="translate(52.11,71.86)">
    <g class="primitive">
      <text text-anchor="middle" dy="0.35em">[6]</text>
    </g>
  </g>
  <g transform="translate(51.69,15.24)">
    <g class="primitive">
      <text text-anchor="middle" dy="0.35em">[1]</text>
    </g>
  </g>
  <g transform="translate(14.61,31.11)">
    <g class="primitive">
      <text text-anchor="middle" dy="0.35em">[2]</text>
    </g>
  </g>
  <g transform="translate(27.48,15.51)">
    <g class="primitive">
      <text text-anchor="middle" dy="0.35em">[4]</text>
    </g>
  </g>
  <g transform="translate(52.04,92.83)">
    <g class="primitive">
      <text text-anchor="middle" dy="0.35em">[3]</text>
    </g>
  </g>
  <g transform="translate(65.81,56)">
    <g class="primitive">
      <text text-anchor="middle" dy="0.35em">[4, 5, 6]</text>
    </g>
  </g>
  <g transform="translate(97.67,30.73)">
    <g class="primitive">
      <text text-anchor="middle" dy="0.35em">[5]</text>
    </g>
  </g>
  <g transform="translate(59.58,95.19)">
    <g class="primitive">
      <text text-anchor="middle" dy="0.35em">[6]</text>
    </g>
  </g>
</g>
<g stroke-width="0" stroke="#000000" stroke-opacity="0.000" fill="#40E0D0" id="img-c0168326-4">
  <g transform="translate(72.35,33.96)">
    <circle cx="0" cy="0" r="2.94" class="primitive"/>
  </g>
  <g transform="translate(60.45,52.67)">
    <circle cx="0" cy="0" r="2.94" class="primitive"/>
  </g>
  <g transform="translate(50.74,33.48)">
    <circle cx="0" cy="0" r="2.94" class="primitive"/>
  </g>
  <g transform="translate(30.94,33.34)">
    <circle cx="0" cy="0" r="2.94" class="primitive"/>
  </g>
  <g transform="translate(57.76,79.31)">
    <circle cx="0" cy="0" r="2.94" class="primitive"/>
  </g>
  <g transform="translate(52,9.17)">
    <circle cx="0" cy="0" r="2.94" class="primitive"/>
  </g>
  <g transform="translate(9.17,30.37)">
    <circle cx="0" cy="0" r="2.94" class="primitive"/>
  </g>
  <g transform="translate(50.14,97.34)">
    <circle cx="0" cy="0" r="2.94" class="primitive"/>
  </g>
  <g transform="translate(26.33,9.57)">
    <circle cx="0" cy="0" r="2.94" class="primitive"/>
  </g>
  <g transform="translate(81.88,65.97)">
    <circle cx="0" cy="0" r="2.94" class="primitive"/>
  </g>
  <g transform="translate(88.16,41.7)">
    <circle cx="0" cy="0" r="2.94" class="primitive"/>
  </g>
  <g transform="translate(100.83,27.07)">
    <circle cx="0" cy="0" r="2.94" class="primitive"/>
  </g>
  <g transform="translate(49.33,78.25)">
    <circle cx="0" cy="0" r="2.94" class="primitive"/>
  </g>
  <g transform="translate(63,100.83)">
    <circle cx="0" cy="0" r="2.94" class="primitive"/>
  </g>
</g>
<g font-size="4" stroke="#000000" stroke-opacity="0.000" fill="#000000" id="img-c0168326-5">
  <g transform="translate(72.35,33.96)">
    <g class="primitive">
      <text text-anchor="middle" dy="0.35em">(P = 1,)</text>
    </g>
  </g>
  <g transform="translate(60.45,52.67)">
    <g class="primitive">
      <text text-anchor="middle" dy="0.35em">(alg = "alg1",)</text>
    </g>
  </g>
  <g transform="translate(50.74,33.48)">
    <g class="primitive">
      <text text-anchor="middle" dy="0.35em">(x = 10.0,)</text>
    </g>
  </g>
  <g transform="translate(30.94,33.34)">
    <g class="primitive">
      <text text-anchor="middle" dy="0.35em">(x = 20.0,)</text>
    </g>
  </g>
  <g transform="translate(57.76,79.31)">
    <g class="primitive">
      <text text-anchor="middle" dy="0.35em">(x = 30.0,)</text>
    </g>
  </g>
  <g transform="translate(52,9.17)">
    <g class="primitive">
      <text text-anchor="middle" dy="0.35em">(r = 12.0,)</text>
    </g>
  </g>
  <g transform="translate(9.17,30.37)">
    <g class="primitive">
      <text text-anchor="middle" dy="0.35em">(r = 22.0,)</text>
    </g>
  </g>
  <g transform="translate(50.14,97.34)">
    <g class="primitive">
      <text text-anchor="middle" dy="0.35em">(r = 32.0,)</text>
    </g>
  </g>
  <g transform="translate(26.33,9.57)">
    <g class="primitive">
      <text text-anchor="middle" dy="0.35em">(r = 24.0,)</text>
    </g>
  </g>
  <g transform="translate(81.88,65.97)">
    <g class="primitive">
      <text text-anchor="middle" dy="0.35em">(P = 2,)</text>
    </g>
  </g>
  <g transform="translate(88.16,41.7)">
    <g class="primitive">
      <text text-anchor="middle" dy="0.35em">(x = 40.0,)</text>
    </g>
  </g>
  <g transform="translate(100.83,27.07)">
    <g class="primitive">
      <text text-anchor="middle" dy="0.35em">(r = 44.0,)</text>
    </g>
  </g>
  <g transform="translate(49.33,78.25)">
    <g class="primitive">
      <text text-anchor="middle" dy="0.35em">(x = 60.0,)</text>
    </g>
  </g>
  <g transform="translate(63,100.83)">
    <g class="primitive">
      <text text-anchor="middle" dy="0.35em">(r = 64.0,)</text>
    </g>
  </g>
</g>
</svg>
