<?xml version="1.0" encoding="UTF-8"?>
<svg xmlns="http://www.w3.org/2000/svg"
     xmlns:xlink="http://www.w3.org/1999/xlink"
     version="1.2"
     width="110mm" height="110mm" viewBox="0 0 110 110"
     stroke="none"
     fill="#000000"
     stroke-width="0.3"
     font-size="3.88"
>
<defs>
  <marker id="arrow" markerWidth="15" markerHeight="7" refX="5" refY="3.5" orient="auto" markerUnits="strokeWidth">
    <path d="M0,0 L15,3.5 L0,7 z" stroke="context-stroke" fill="context-stroke"/>
  </marker>
</defs>
<g stroke-width="0.8" fill="#000000" fill-opacity="0.000" stroke="#D3D3D3" id="img-87176fe4-1">
  <g transform="translate(56.67,60.8)">
    <path fill="none" d="M3.86,5.17 L -3.86 -5.17" class="primitive"/>
  </g>
  <g transform="translate(39.68,64.31)">
    <path fill="none" d="M9.12,-8.98 L -9.12 8.98" class="primitive"/>
  </g>
  <g transform="translate(65.87,53.37)">
    <path fill="none" d="M-11.82,-0.15 L 11.82 0.15" class="primitive"/>
  </g>
  <g transform="translate(53.67,68.2)">
    <path fill="none" d="M-2.15,-12 L 2.15 12" class="primitive"/>
  </g>
  <g transform="translate(48.68,39.87)">
    <path fill="none" d="M1.79,10.29 L -1.79 -10.29" class="primitive"/>
  </g>
  <g transform="translate(38.82,45.01)">
    <path fill="none" d="M9.62,6.46 L -9.62 -6.46" class="primitive"/>
  </g>
  <g transform="translate(22.8,85.33)">
    <path fill="none" d="M4.08,-7.22 L -4.08 7.22" class="primitive"/>
  </g>
  <g transform="translate(90.79,56.22)">
    <path fill="none" d="M-7.08,-1.88 L 7.08 1.88" class="primitive"/>
  </g>
  <g transform="translate(77.01,46.61)">
    <path fill="none" d="M2.29,4.25 L -2.29 -4.25" class="primitive"/>
  </g>
  <g transform="translate(61.07,92.02)">
    <path fill="none" d="M-3.27,-6.11 L 3.27 6.11" class="primitive"/>
  </g>
  <g transform="translate(59.43,41.07)">
    <path fill="none" d="M6.7,-9.59 L -6.7 9.59" class="primitive"/>
  </g>
  <g transform="translate(49.1,17.87)">
    <path fill="none" d="M-1.82,5.78 L 1.82 -5.78" class="primitive"/>
  </g>
  <g transform="translate(17.91,32.08)">
    <path fill="none" d="M6.06,3.3 L -6.06 -3.3" class="primitive"/>
  </g>
</g>
<g stroke-width="0.8" stroke="#D3D3D3" id="img-87176fe4-2">
  <g transform="translate(54.53,57.94)">
    <path fill="none" d="M-0.4,2.09 L -1.72 -2.3 2.11 0.21" class="primitive"/>
  </g>
  <g transform="translate(32.6,71.28)">
    <path fill="none" d="M2.12,0.11 L -2.05 2.01 -0.08 -2.12" class="primitive"/>
  </g>
  <g transform="translate(74.81,53.48)">
    <path fill="none" d="M-1.42,-1.59 L 2.87 0.04 -1.46 1.55" class="primitive"/>
  </g>
  <g transform="translate(55.31,77.37)">
    <path fill="none" d="M1.29,-1.69 L 0.51 2.83 -1.8 -1.14" class="primitive"/>
  </g>
  <g transform="translate(47.38,32.41)">
    <path fill="none" d="M-1.3,1.68 L -0.49 -2.83 1.79 1.15" class="primitive"/>
  </g>
  <g transform="translate(31.59,40.15)">
    <path fill="none" d="M0.32,2.1 L -2.38 -1.6 2.07 -0.5" class="primitive"/>
  </g>
  <g transform="translate(20.13,90.05)">
    <path fill="none" d="M2.07,-0.48 L -1.41 2.5 -0.66 -2.02" class="primitive"/>
  </g>
  <g transform="translate(95.1,57.36)">
    <path fill="none" d="M-0.99,-1.88 L 2.78 0.74 -1.79 1.15" class="primitive"/>
  </g>
  <g transform="translate(76.09,44.88)">
    <path fill="none" d="M-0.7,2.01 L -1.36 -2.53 2.06 0.52" class="primitive"/>
  </g>
  <g transform="translate(62.99,95.6)">
    <path fill="none" d="M0.7,-2.01 L 1.36 2.53 -2.06 -0.53" class="primitive"/>
  </g>
  <g transform="translate(54.38,48.31)">
    <path fill="none" d="M2.11,-0.28 L -1.64 2.35 -0.46 -2.07" class="primitive"/>
  </g>
  <g transform="translate(50.06,14.83)">
    <path fill="none" d="M-1.93,0.9 L 0.86 -2.74 1.06 1.84" class="primitive"/>
  </g>
  <g transform="translate(14.38,30.15)">
    <path fill="none" d="M0.51,2.06 L -2.52 -1.37 2.01 -0.69" class="primitive"/>
  </g>
</g>
<g font-size="4" stroke="#000000" stroke-opacity="0.000" fill="#000000" id="img-87176fe4-3">
  <g transform="translate(53.83,56.99)">
    <g class="primitive">
      <text text-anchor="middle" dy="0.35em">{2, 3, 1}</text>
    </g>
  </g>
  <g transform="translate(34.03,69.88)">
    <g class="primitive">
      <text text-anchor="middle" dy="0.35em">{1}</text>
    </g>
  </g>
  <g transform="translate(73.31,53.46)">
    <g class="primitive">
      <text text-anchor="middle" dy="0.35em">{4, 2}</text>
    </g>
  </g>
  <g transform="translate(55.01,75.71)">
    <g class="primitive">
      <text text-anchor="middle" dy="0.35em">{3}</text>
    </g>
  </g>
  <g transform="translate(47.52,33.22)">
    <g class="primitive">
      <text text-anchor="middle" dy="0.35em">{5}</text>
    </g>
  </g>
  <g transform="translate(32.74,40.93)">
    <g class="primitive">
      <text text-anchor="middle" dy="0.35em">{6}</text>
    </g>
  </g>
  <g transform="translate(20.01,90.28)">
    <g class="primitive">
      <text text-anchor="middle" dy="0.35em">{1}</text>
    </g>
  </g>
  <g transform="translate(95.81,57.55)">
    <g class="primitive">
      <text text-anchor="middle" dy="0.35em">{2}</text>
    </g>
  </g>
  <g transform="translate(75.14,43.13)">
    <g class="primitive">
      <text text-anchor="middle" dy="0.35em">{4}</text>
    </g>
  </g>
  <g transform="translate(63.43,96.43)">
    <g class="primitive">
      <text text-anchor="middle" dy="0.35em">{3}</text>
    </g>
  </g>
  <g transform="translate(55.21,47.13)">
    <g class="primitive">
      <text text-anchor="middle" dy="0.35em">{4, 5, 6}</text>
    </g>
  </g>
  <g transform="translate(50.47,13.52)">
    <g class="primitive">
      <text text-anchor="middle" dy="0.35em">{5}</text>
    </g>
  </g>
  <g transform="translate(13.54,29.7)">
    <g class="primitive">
      <text text-anchor="middle" dy="0.35em">{6}</text>
    </g>
  </g>
</g>
<g stroke-width="0" stroke="#000000" stroke-opacity="0.000" fill="#40E0D0" id="img-87176fe4-4">
  <g transform="translate(62.36,68.43)">
    <circle cx="0" cy="0" r="2.94" class="primitive"/>
  </g>
  <g transform="translate(50.99,53.18)">
    <circle cx="0" cy="0" r="2.94" class="primitive"/>
  </g>
  <g transform="translate(28.38,75.44)">
    <circle cx="0" cy="0" r="2.94" class="primitive"/>
  </g>
  <g transform="translate(80.75,53.56)">
    <circle cx="0" cy="0" r="2.94" class="primitive"/>
  </g>
  <g transform="translate(56.36,83.21)">
    <circle cx="0" cy="0" r="2.94" class="primitive"/>
  </g>
  <g transform="translate(17.22,95.22)">
    <circle cx="0" cy="0" r="2.94" class="primitive"/>
  </g>
  <g transform="translate(100.83,58.88)">
    <circle cx="0" cy="0" r="2.94" class="primitive"/>
  </g>
  <g transform="translate(65.79,100.83)">
    <circle cx="0" cy="0" r="2.94" class="primitive"/>
  </g>
  <g transform="translate(67.88,28.97)">
    <circle cx="0" cy="0" r="2.94" class="primitive"/>
  </g>
  <g transform="translate(46.36,26.57)">
    <circle cx="0" cy="0" r="2.94" class="primitive"/>
  </g>
  <g transform="translate(26.66,36.84)">
    <circle cx="0" cy="0" r="2.94" class="primitive"/>
  </g>
  <g transform="translate(73.28,39.66)">
    <circle cx="0" cy="0" r="2.94" class="primitive"/>
  </g>
  <g transform="translate(51.84,9.17)">
    <circle cx="0" cy="0" r="2.94" class="primitive"/>
  </g>
  <g transform="translate(9.17,27.31)">
    <circle cx="0" cy="0" r="2.94" class="primitive"/>
  </g>
</g>
<g font-size="4" stroke="#000000" stroke-opacity="0.000" fill="#000000" id="img-87176fe4-5">
  <g transform="translate(62.36,68.43)">
    <g class="primitive">
      <text text-anchor="middle" dy="0.35em">(P = 1,)</text>
    </g>
  </g>
  <g transform="translate(50.99,53.18)">
    <g class="primitive">
      <text text-anchor="middle" dy="0.35em">(alg = "alg1",)</text>
    </g>
  </g>
  <g transform="translate(28.38,75.44)">
    <g class="primitive">
      <text text-anchor="middle" dy="0.35em">(x = 10.0,)</text>
    </g>
  </g>
  <g transform="translate(80.75,53.56)">
    <g class="primitive">
      <text text-anchor="middle" dy="0.35em">(x = 20.0,)</text>
    </g>
  </g>
  <g transform="translate(56.36,83.21)">
    <g class="primitive">
      <text text-anchor="middle" dy="0.35em">(x = 30.0,)</text>
    </g>
  </g>
  <g transform="translate(17.22,95.22)">
    <g class="primitive">
      <text text-anchor="middle" dy="0.35em">(r = 12.0,)</text>
    </g>
  </g>
  <g transform="translate(100.83,58.88)">
    <g class="primitive">
      <text text-anchor="middle" dy="0.35em">(r = 22.0,)</text>
    </g>
  </g>
  <g transform="translate(65.79,100.83)">
    <g class="primitive">
      <text text-anchor="middle" dy="0.35em">(r = 32.0,)</text>
    </g>
  </g>
  <g transform="translate(67.88,28.97)">
    <g class="primitive">
      <text text-anchor="middle" dy="0.35em">(P = 2,)</text>
    </g>
  </g>
  <g transform="translate(46.36,26.57)">
    <g class="primitive">
      <text text-anchor="middle" dy="0.35em">(x = 40.0,)</text>
    </g>
  </g>
  <g transform="translate(26.66,36.84)">
    <g class="primitive">
      <text text-anchor="middle" dy="0.35em">(x = 60.0,)</text>
    </g>
  </g>
  <g transform="translate(73.28,39.66)">
    <g class="primitive">
      <text text-anchor="middle" dy="0.35em">(r = 24.0,)</text>
    </g>
  </g>
  <g transform="translate(51.84,9.17)">
    <g class="primitive">
      <text text-anchor="middle" dy="0.35em">(r = 44.0,)</text>
    </g>
  </g>
  <g transform="translate(9.17,27.31)">
    <g class="primitive">
      <text text-anchor="middle" dy="0.35em">(r = 64.0,)</text>
    </g>
  </g>
</g>
</svg>
