<?xml version="1.0" encoding="UTF-8"?>
<svg xmlns="http://www.w3.org/2000/svg"
     xmlns:xlink="http://www.w3.org/1999/xlink"
     version="1.2"
     width="120mm" height="100mm" viewBox="0 0 120 100"
     stroke="none"
     fill="#000000"
     stroke-width="0.3"
     font-size="3.88"
>
<defs>
  <marker id="arrow" markerWidth="15" markerHeight="7" refX="5" refY="3.5" orient="auto" markerUnits="strokeWidth">
    <path d="M0,0 L15,3.5 L0,7 z" stroke="context-stroke" fill="context-stroke"/>
  </marker>
</defs>
<g stroke-width="0.8" fill="#000000" fill-opacity="0.000" stroke="#D3D3D3" id="img-48a46f41-1">
  <g transform="translate(38.95,66.23)">
    <path fill="none" d="M-13.63,13.43 L 13.63 -13.43" class="primitive"/>
  </g>
  <g transform="translate(61.71,29.5)">
    <path fill="none" d="M-6.09,18.48 L 6.09 -18.48" class="primitive"/>
  </g>
  <g transform="translate(76.04,51.77)">
    <path fill="none" d="M-17.97,-0.93 L 17.97 0.93" class="primitive"/>
  </g>
  <g transform="translate(41.09,53.33)">
    <path fill="none" d="M10.39,-2.03 L -10.39 2.03" class="primitive"/>
  </g>
  <g transform="translate(50.06,32.77)">
    <path fill="none" d="M3.97,15.18 L -3.97 -15.18" class="primitive"/>
  </g>
  <g transform="translate(53.18,39.84)">
    <path fill="none" d="M1.16,8.06 L -1.16 -8.06" class="primitive"/>
  </g>
  <g transform="translate(85.62,16.86)">
    <path fill="none" d="M-14.07,-7.08 L 14.07 7.08" class="primitive"/>
  </g>
  <g transform="translate(90.61,47.47)">
    <path fill="none" d="M4.33,3.47 L -4.33 -3.47" class="primitive"/>
  </g>
  <g transform="translate(103.67,61.22)">
    <path fill="none" d="M-4.54,-6 L 4.54 6" class="primitive"/>
  </g>
  <g transform="translate(39.59,67.64)">
    <path fill="none" d="M-9.96,-9.55 L 9.96 9.55" class="primitive"/>
  </g>
  <g transform="translate(53.03,71.17)">
    <path fill="none" d="M-1.48,17.72 L 1.48 -17.72" class="primitive"/>
  </g>
  <g transform="translate(39.75,26.1)">
    <path fill="none" d="M4.35,-8.66 L -4.35 8.66" class="primitive"/>
  </g>
  <g transform="translate(30.81,36.7)">
    <path fill="none" d="M17.76,-6.55 L -17.76 6.55" class="primitive"/>
  </g>
</g>
<g stroke-width="0.8" stroke="#D3D3D3" id="img-48a46f41-2">
  <g transform="translate(50.56,54.79)">
    <path fill="none" d="M-2.32,0.08 L 2.02 -1.99 0.29 1.92" class="primitive"/>
  </g>
  <g transform="translate(66.97,13.54)">
    <path fill="none" d="M-2.06,0.88 L 0.83 -2.52 1.23 1.64" class="primitive"/>
  </g>
  <g transform="translate(90.89,52.53)">
    <path fill="none" d="M-1.46,-1.5 L 3.13 0.16 -1.67 1.34" class="primitive"/>
  </g>
  <g transform="translate(33.75,54.76)">
    <path fill="none" d="M1.91,1.09 L -3.05 0.59 1.14 -1.68" class="primitive"/>
  </g>
  <g transform="translate(46.76,20.14)">
    <path fill="none" d="M-1.34,1.58 L -0.67 -2.55 2 0.97" class="primitive"/>
  </g>
  <g transform="translate(52.4,34.37)">
    <path fill="none" d="M-1.51,1.47 L -0.37 -2.59 1.88 1.13" class="primitive"/>
  </g>
  <g transform="translate(97.01,22.59)">
    <path fill="none" d="M-0.46,-1.89 L 2.68 1.35 -2.22 0.54" class="primitive"/>
  </g>
  <g transform="translate(88.54,45.81)">
    <path fill="none" d="M-0.06,1.93 L -2.26 -1.81 2.31 -0.12" class="primitive"/>
  </g>
  <g transform="translate(106.54,65.01)">
    <path fill="none" d="M0.61,-1.86 L 1.67 2.21 -2.28 -0.34" class="primitive"/>
  </g>
  <g transform="translate(47.49,75.22)">
    <path fill="none" d="M0.26,-1.92 L 2.05 1.97 -2.32 -0.05" class="primitive"/>
  </g>
  <g transform="translate(54.29,56.05)">
    <path fill="none" d="M-1.81,1.2 L 0.22 -2.6 1.6 1.4" class="primitive"/>
  </g>
  <g transform="translate(36.6,32.35)">
    <path fill="none" d="M2.18,-0.65 L -1.21 2.41 -0.97 -1.75" class="primitive"/>
  </g>
  <g transform="translate(15.92,42.19)">
    <path fill="none" d="M2.12,0.77 L -2.86 1.06 0.74 -1.83" class="primitive"/>
  </g>
</g>
<g font-size="4" stroke="#000000" stroke-opacity="0.000" fill="#000000" id="img-48a46f41-3">
  <g transform="translate(48.51,59.84)">
    <g class="primitive">
      <text text-anchor="middle" dy="0.35em">[1, 2, 3]</text>
    </g>
  </g>
  <g transform="translate(66.87,20.31)">
    <g class="primitive">
      <text text-anchor="middle" dy="0.35em">[1]</text>
    </g>
  </g>
  <g transform="translate(88.37,53.71)">
    <g class="primitive">
      <text text-anchor="middle" dy="0.35em">[2, 4]</text>
    </g>
  </g>
  <g transform="translate(35.94,56.05)">
    <g class="primitive">
      <text text-anchor="middle" dy="0.35em">[3]</text>
    </g>
  </g>
  <g transform="translate(49.39,25.21)">
    <g class="primitive">
      <text text-anchor="middle" dy="0.35em">[5]</text>
    </g>
  </g>
  <g transform="translate(54.07,35.82)">
    <g class="primitive">
      <text text-anchor="middle" dy="0.35em">[6]</text>
    </g>
  </g>
  <g transform="translate(95.76,22.51)">
    <g class="primitive">
      <text text-anchor="middle" dy="0.35em">[1]</text>
    </g>
  </g>
  <g transform="translate(88.91,46.16)">
    <g class="primitive">
      <text text-anchor="middle" dy="0.35em">[2]</text>
    </g>
  </g>
  <g transform="translate(108.51,66.79)">
    <g class="primitive">
      <text text-anchor="middle" dy="0.35em">[4]</text>
    </g>
  </g>
  <g transform="translate(47.34,74.86)">
    <g class="primitive">
      <text text-anchor="middle" dy="0.35em">[3]</text>
    </g>
  </g>
  <g transform="translate(55.55,62.31)">
    <g class="primitive">
      <text text-anchor="middle" dy="0.35em">[4, 5, 6]</text>
    </g>
  </g>
  <g transform="translate(38.6,33.11)">
    <g class="primitive">
      <text text-anchor="middle" dy="0.35em">[5]</text>
    </g>
  </g>
  <g transform="translate(22.08,41.93)">
    <g class="primitive">
      <text text-anchor="middle" dy="0.35em">[6]</text>
    </g>
  </g>
</g>
<g stroke-width="0" stroke="#000000" stroke-opacity="0.000" fill="#40E0D0" id="img-48a46f41-4">
  <g transform="translate(23.16,81.79)">
    <circle cx="0" cy="0" r="3.21" class="primitive"/>
  </g>
  <g transform="translate(54.74,50.67)">
    <circle cx="0" cy="0" r="3.21" class="primitive"/>
  </g>
  <g transform="translate(68.69,8.33)">
    <circle cx="0" cy="0" r="3.21" class="primitive"/>
  </g>
  <g transform="translate(97.35,52.87)">
    <circle cx="0" cy="0" r="3.21" class="primitive"/>
  </g>
  <g transform="translate(27.44,55.99)">
    <circle cx="0" cy="0" r="3.21" class="primitive"/>
  </g>
  <g transform="translate(102.55,25.38)">
    <circle cx="0" cy="0" r="3.21" class="primitive"/>
  </g>
  <g transform="translate(83.88,42.07)">
    <circle cx="0" cy="0" r="3.21" class="primitive"/>
  </g>
  <g transform="translate(51.74,79.29)">
    <circle cx="0" cy="0" r="3.21" class="primitive"/>
  </g>
  <g transform="translate(110,69.57)">
    <circle cx="0" cy="0" r="3.21" class="primitive"/>
  </g>
  <g transform="translate(51.32,91.67)">
    <circle cx="0" cy="0" r="3.21" class="primitive"/>
  </g>
  <g transform="translate(45.38,14.87)">
    <circle cx="0" cy="0" r="3.21" class="primitive"/>
  </g>
  <g transform="translate(34.11,37.33)">
    <circle cx="0" cy="0" r="3.21" class="primitive"/>
  </g>
  <g transform="translate(51.63,29.02)">
    <circle cx="0" cy="0" r="3.21" class="primitive"/>
  </g>
  <g transform="translate(10,44.38)">
    <circle cx="0" cy="0" r="3.21" class="primitive"/>
  </g>
</g>
<g font-size="4" stroke="#000000" stroke-opacity="0.000" fill="#000000" id="img-48a46f41-5">
  <g transform="translate(23.16,81.79)">
    <g class="primitive">
      <text text-anchor="middle" dy="0.35em">(P = 1,)</text>
    </g>
  </g>
  <g transform="translate(54.74,50.67)">
    <g class="primitive">
      <text text-anchor="middle" dy="0.35em">(alg = "alg1",)</text>
    </g>
  </g>
  <g transform="translate(68.69,8.33)">
    <g class="primitive">
      <text text-anchor="middle" dy="0.35em">(x = 10.0,)</text>
    </g>
  </g>
  <g transform="translate(97.35,52.87)">
    <g class="primitive">
      <text text-anchor="middle" dy="0.35em">(x = 20.0,)</text>
    </g>
  </g>
  <g transform="translate(27.44,55.99)">
    <g class="primitive">
      <text text-anchor="middle" dy="0.35em">(x = 30.0,)</text>
    </g>
  </g>
  <g transform="translate(102.55,25.38)">
    <g class="primitive">
      <text text-anchor="middle" dy="0.35em">(r = 12.0,)</text>
    </g>
  </g>
  <g transform="translate(83.88,42.07)">
    <g class="primitive">
      <text text-anchor="middle" dy="0.35em">(r = 22.0,)</text>
    </g>
  </g>
  <g transform="translate(51.74,79.29)">
    <g class="primitive">
      <text text-anchor="middle" dy="0.35em">(r = 32.0,)</text>
    </g>
  </g>
  <g transform="translate(110,69.57)">
    <g class="primitive">
      <text text-anchor="middle" dy="0.35em">(r = 24.0,)</text>
    </g>
  </g>
  <g transform="translate(51.32,91.67)">
    <g class="primitive">
      <text text-anchor="middle" dy="0.35em">(P = 2,)</text>
    </g>
  </g>
  <g transform="translate(45.38,14.87)">
    <g class="primitive">
      <text text-anchor="middle" dy="0.35em">(x = 40.0,)</text>
    </g>
  </g>
  <g transform="translate(34.11,37.33)">
    <g class="primitive">
      <text text-anchor="middle" dy="0.35em">(r = 44.0,)</text>
    </g>
  </g>
  <g transform="translate(51.63,29.02)">
    <g class="primitive">
      <text text-anchor="middle" dy="0.35em">(x = 60.0,)</text>
    </g>
  </g>
  <g transform="translate(10,44.38)">
    <g class="primitive">
      <text text-anchor="middle" dy="0.35em">(r = 64.0,)</text>
    </g>
  </g>
</g>
</svg>
