<?xml version="1.0" encoding="UTF-8"?>
<svg xmlns="http://www.w3.org/2000/svg"
     xmlns:xlink="http://www.w3.org/1999/xlink"
     version="1.2"
     width="110mm" height="110mm" viewBox="0 0 110 110"
     stroke="none"
     fill="#000000"
     stroke-width="0.3"
     font-size="3.88"
>
<defs>
  <marker id="arrow" markerWidth="15" markerHeight="7" refX="5" refY="3.5" orient="auto" markerUnits="strokeWidth">
    <path d="M0,0 L15,3.5 L0,7 z" stroke="context-stroke" fill="context-stroke"/>
  </marker>
</defs>
<g stroke-width="0.8" fill="#000000" fill-opacity="0.000" stroke="#D3D3D3" id="img-a59e270e-1">
  <g transform="translate(42.69,25.86)">
    <path fill="none" d="M-6.17,-13.89 L 6.17 13.89" class="primitive"/>
  </g>
  <g transform="translate(64.67,48.31)">
    <path fill="none" d="M-11.73,-4.64 L 11.73 4.64" class="primitive"/>
  </g>
  <g transform="translate(60.58,54.16)">
    <path fill="none" d="M-8.43,-9.34 L 8.43 9.34" class="primitive"/>
  </g>
  <g transform="translate(37.82,35.39)">
    <path fill="none" d="M9.63,5.62 L -9.63 -5.62" class="primitive"/>
  </g>
  <g transform="translate(49.49,59.45)">
    <path fill="none" d="M0.5,-13.84 L -0.5 13.84" class="primitive"/>
  </g>
  <g transform="translate(38.52,54.5)">
    <path fill="none" d="M9.44,-9.75 L -9.44 9.75" class="primitive"/>
  </g>
  <g transform="translate(85.78,71.23)">
    <path fill="none" d="M-5.43,-14.29 L 5.43 14.29" class="primitive"/>
  </g>
  <g transform="translate(79.2,68.88)">
    <path fill="none" d="M-5.27,-2.02 L 5.27 2.02" class="primitive"/>
  </g>
  <g transform="translate(85.95,69.3)">
    <path fill="none" d="M-11.9,-2.82 L 11.9 2.82" class="primitive"/>
  </g>
  <g transform="translate(17.36,30)">
    <path fill="none" d="M5.2,-1.13 L -5.2 1.13" class="primitive"/>
  </g>
  <g transform="translate(57.62,27.67)">
    <path fill="none" d="M6.14,-12.15 L -6.14 12.15" class="primitive"/>
  </g>
  <g transform="translate(53.02,88.59)">
    <path fill="none" d="M-3.16,-9.34 L 3.16 9.34" class="primitive"/>
  </g>
  <g transform="translate(24.63,79.45)">
    <path fill="none" d="M1.79,-9.98 L -1.79 9.98" class="primitive"/>
  </g>
</g>
<g stroke-width="0.8" stroke="#D3D3D3" id="img-a59e270e-2">
  <g transform="translate(47.69,37.13)">
    <path fill="none" d="M0.85,-1.95 L 1.16 2.62 -2.02 -0.68" class="primitive"/>
  </g>
  <g transform="translate(73.74,51.89)">
    <path fill="none" d="M-0.76,-1.99 L 2.67 1.06 -1.91 0.93" class="primitive"/>
  </g>
  <g transform="translate(67.09,61.37)">
    <path fill="none" d="M0.2,-2.12 L 1.92 2.13 -2.13 -0.01" class="primitive"/>
  </g>
  <g transform="translate(30.67,31.21)">
    <path fill="none" d="M0.45,2.08 L -2.48 -1.45 2.03 -0.63" class="primitive"/>
  </g>
  <g transform="translate(49.09,70.41)">
    <path fill="none" d="M1.62,-1.38 L -0.1 2.87 -1.51 -1.49" class="primitive"/>
  </g>
  <g transform="translate(31.08,62.19)">
    <path fill="none" d="M2.12,0.06 L -2 2.06 -0.13 -2.12" class="primitive"/>
  </g>
  <g transform="translate(90.19,82.83)">
    <path fill="none" d="M0.95,-1.9 L 1.02 2.68 -1.98 -0.78" class="primitive"/>
  </g>
  <g transform="translate(81.78,69.87)">
    <path fill="none" d="M-0.78,-1.98 L 2.68 1.03 -1.9 0.95" class="primitive"/>
  </g>
  <g transform="translate(95.06,71.46)">
    <path fill="none" d="M-1.04,-1.86 L 2.79 0.66 -1.76 1.19" class="primitive"/>
  </g>
  <g transform="translate(14.97,30.52)">
    <path fill="none" d="M1.74,1.23 L -2.81 0.61 1.07 -1.84" class="primitive"/>
  </g>
  <g transform="translate(52.77,37.25)">
    <path fill="none" d="M2.05,-0.57 L -1.3 2.56 -0.75 -1.99" class="primitive"/>
  </g>
  <g transform="translate(55.25,95.21)">
    <path fill="none" d="M1.03,-1.86 L 0.92 2.72 -1.94 -0.86" class="primitive"/>
  </g>
  <g transform="translate(23.35,86.61)">
    <path fill="none" d="M1.8,-1.14 L -0.51 2.83 -1.29 -1.69" class="primitive"/>
  </g>
</g>
<g font-size="4" stroke="#000000" stroke-opacity="0.000" fill="#000000" id="img-a59e270e-3">
  <g transform="translate(46.39,34.2)">
    <g class="primitive">
      <text text-anchor="middle" dy="0.35em">{2, 3, 1}</text>
    </g>
  </g>
  <g transform="translate(71.96,51.19)">
    <g class="primitive">
      <text text-anchor="middle" dy="0.35em">{1}</text>
    </g>
  </g>
  <g transform="translate(65.82,59.96)">
    <g class="primitive">
      <text text-anchor="middle" dy="0.35em">{4, 2}</text>
    </g>
  </g>
  <g transform="translate(31.69,31.8)">
    <g class="primitive">
      <text text-anchor="middle" dy="0.35em">{3}</text>
    </g>
  </g>
  <g transform="translate(49.18,67.89)">
    <g class="primitive">
      <text text-anchor="middle" dy="0.35em">{5}</text>
    </g>
  </g>
  <g transform="translate(32.74,60.48)">
    <g class="primitive">
      <text text-anchor="middle" dy="0.35em">{6}</text>
    </g>
  </g>
  <g transform="translate(89.04,79.8)">
    <g class="primitive">
      <text text-anchor="middle" dy="0.35em">{1}</text>
    </g>
  </g>
  <g transform="translate(83.26,70.44)">
    <g class="primitive">
      <text text-anchor="middle" dy="0.35em">{2}</text>
    </g>
  </g>
  <g transform="translate(93.39,71.06)">
    <g class="primitive">
      <text text-anchor="middle" dy="0.35em">{4}</text>
    </g>
  </g>
  <g transform="translate(13.26,30.89)">
    <g class="primitive">
      <text text-anchor="middle" dy="0.35em">{3}</text>
    </g>
  </g>
  <g transform="translate(53.86,35.11)">
    <g class="primitive">
      <text text-anchor="middle" dy="0.35em">{4, 5, 6}</text>
    </g>
  </g>
  <g transform="translate(55.08,94.71)">
    <g class="primitive">
      <text text-anchor="middle" dy="0.35em">{5}</text>
    </g>
  </g>
  <g transform="translate(23.46,85.95)">
    <g class="primitive">
      <text text-anchor="middle" dy="0.35em">{6}</text>
    </g>
  </g>
</g>
<g stroke-width="0" stroke="#000000" stroke-opacity="0.000" fill="#40E0D0" id="img-a59e270e-4">
  <g transform="translate(35.28,9.17)">
    <circle cx="0" cy="0" r="2.94" class="primitive"/>
  </g>
  <g transform="translate(50.09,42.55)">
    <circle cx="0" cy="0" r="2.94" class="primitive"/>
  </g>
  <g transform="translate(79.25,54.08)">
    <circle cx="0" cy="0" r="2.94" class="primitive"/>
  </g>
  <g transform="translate(71.07,65.77)">
    <circle cx="0" cy="0" r="2.94" class="primitive"/>
  </g>
  <g transform="translate(25.55,28.22)">
    <circle cx="0" cy="0" r="2.94" class="primitive"/>
  </g>
  <g transform="translate(92.3,88.38)">
    <circle cx="0" cy="0" r="2.94" class="primitive"/>
  </g>
  <g transform="translate(87.33,72)">
    <circle cx="0" cy="0" r="2.94" class="primitive"/>
  </g>
  <g transform="translate(9.17,31.77)">
    <circle cx="0" cy="0" r="2.94" class="primitive"/>
  </g>
  <g transform="translate(65.14,12.79)">
    <circle cx="0" cy="0" r="2.94" class="primitive"/>
  </g>
  <g transform="translate(48.88,76.34)">
    <circle cx="0" cy="0" r="2.94" class="primitive"/>
  </g>
  <g transform="translate(26.95,66.46)">
    <circle cx="0" cy="0" r="2.94" class="primitive"/>
  </g>
  <g transform="translate(100.83,72.83)">
    <circle cx="0" cy="0" r="2.94" class="primitive"/>
  </g>
  <g transform="translate(57.15,100.83)">
    <circle cx="0" cy="0" r="2.94" class="primitive"/>
  </g>
  <g transform="translate(22.3,92.45)">
    <circle cx="0" cy="0" r="2.94" class="primitive"/>
  </g>
</g>
<g font-size="4" stroke="#000000" stroke-opacity="0.000" fill="#000000" id="img-a59e270e-5">
  <g transform="translate(35.28,9.17)">
    <g class="primitive">
      <text text-anchor="middle" dy="0.35em">(P = 1,)</text>
    </g>
  </g>
  <g transform="translate(50.09,42.55)">
    <g class="primitive">
      <text text-anchor="middle" dy="0.35em">(alg = "alg1",)</text>
    </g>
  </g>
  <g transform="translate(79.25,54.08)">
    <g class="primitive">
      <text text-anchor="middle" dy="0.35em">(x = 10.0,)</text>
    </g>
  </g>
  <g transform="translate(71.07,65.77)">
    <g class="primitive">
      <text text-anchor="middle" dy="0.35em">(x = 20.0,)</text>
    </g>
  </g>
  <g transform="translate(25.55,28.22)">
    <g class="primitive">
      <text text-anchor="middle" dy="0.35em">(x = 30.0,)</text>
    </g>
  </g>
  <g transform="translate(92.3,88.38)">
    <g class="primitive">
      <text text-anchor="middle" dy="0.35em">(r = 12.0,)</text>
    </g>
  </g>
  <g transform="translate(87.33,72)">
    <g class="primitive">
      <text text-anchor="middle" dy="0.35em">(r = 22.0,)</text>
    </g>
  </g>
  <g transform="translate(9.17,31.77)">
    <g class="primitive">
      <text text-anchor="middle" dy="0.35em">(r = 32.0,)</text>
    </g>
  </g>
  <g transform="translate(65.14,12.79)">
    <g class="primitive">
      <text text-anchor="middle" dy="0.35em">(P = 2,)</text>
    </g>
  </g>
  <g transform="translate(48.88,76.34)">
    <g class="primitive">
      <text text-anchor="middle" dy="0.35em">(x = 40.0,)</text>
    </g>
  </g>
  <g transform="translate(26.95,66.46)">
    <g class="primitive">
      <text text-anchor="middle" dy="0.35em">(x = 60.0,)</text>
    </g>
  </g>
  <g transform="translate(100.83,72.83)">
    <g class="primitive">
      <text text-anchor="middle" dy="0.35em">(r = 24.0,)</text>
    </g>
  </g>
  <g transform="translate(57.15,100.83)">
    <g class="primitive">
      <text text-anchor="middle" dy="0.35em">(r = 44.0,)</text>
    </g>
  </g>
  <g transform="translate(22.3,92.45)">
    <g class="primitive">
      <text text-anchor="middle" dy="0.35em">(r = 64.0,)</text>
    </g>
  </g>
</g>
</svg>
