<?xml version="1.0" encoding="UTF-8"?>
<svg xmlns="http://www.w3.org/2000/svg"
     xmlns:xlink="http://www.w3.org/1999/xlink"
     version="1.2"
     width="120mm" height="100mm" viewBox="0 0 120 100"
     stroke="none"
     fill="#000000"
     stroke-width="0.3"
     font-size="3.88"
>
<defs>
  <marker id="arrow" markerWidth="15" markerHeight="7" refX="5" refY="3.5" orient="auto" markerUnits="strokeWidth">
    <path d="M0,0 L15,3.5 L0,7 z" stroke="context-stroke" fill="context-stroke"/>
  </marker>
</defs>
<g stroke-width="0.8" fill="#000000" fill-opacity="0.000" stroke="#D3D3D3" id="img-48a46f41-1">
  <g transform="translate(28.8,32.93)">
    <path fill="none" d="M-16.23,-11.13 L 16.23 11.13" class="primitive"/>
  </g>
  <g transform="translate(38.69,34.65)">
    <path fill="none" d="M7.07,8.86 L -7.07 -8.86" class="primitive"/>
  </g>
  <g transform="translate(45.76,64.54)">
    <path fill="none" d="M1.57,-15.94 L -1.57 15.94" class="primitive"/>
  </g>
  <g transform="translate(55.73,49.02)">
    <path fill="none" d="M-5.1,-2 L 5.1 2" class="primitive"/>
  </g>
  <g transform="translate(70.77,42.32)">
    <path fill="none" d="M-19.88,3.01 L 19.88 -3.01" class="primitive"/>
  </g>
  <g transform="translate(32.61,38.47)">
    <path fill="none" d="M12.12,5.95 L -12.12 -5.95" class="primitive"/>
  </g>
  <g transform="translate(21.12,34.74)">
    <path fill="none" d="M6.85,-8.92 L -6.85 8.92" class="primitive"/>
  </g>
  <g transform="translate(30.6,82.97)">
    <path fill="none" d="M9.98,0.21 L -9.98 -0.21" class="primitive"/>
  </g>
  <g transform="translate(58.93,87.46)">
    <path fill="none" d="M-11.85,-3.32 L 11.85 3.32" class="primitive"/>
  </g>
  <g transform="translate(76.65,36.18)">
    <path fill="none" d="M-10.94,13.71 L 10.94 -13.71" class="primitive"/>
  </g>
  <g transform="translate(65.14,57.04)">
    <path fill="none" d="M14.88,9.52 L -14.88 -9.52" class="primitive"/>
  </g>
  <g transform="translate(101.97,45.6)">
    <path fill="none" d="M-5.68,-4.8 L 5.68 4.8" class="primitive"/>
  </g>
  <g transform="translate(30.75,19.72)">
    <path fill="none" d="M-10.82,9.38 L 10.82 -9.38" class="primitive"/>
  </g>
</g>
<g stroke-width="0.8" stroke="#D3D3D3" id="img-48a46f41-2">
  <g transform="translate(42.61,42.4)">
    <path fill="none" d="M-0.12,-1.93 L 2.42 1.66 -2.3 0.27" class="primitive"/>
  </g>
  <g transform="translate(33.36,27.97)">
    <path fill="none" d="M-0.56,1.88 L -1.73 -2.17 2.29 0.3" class="primitive"/>
  </g>
  <g transform="translate(44.44,77.88)">
    <path fill="none" d="M1.83,-1.18 L -0.26 2.6 -1.58 -1.42" class="primitive"/>
  </g>
  <g transform="translate(58,49.91)">
    <path fill="none" d="M-0.69,-1.85 L 2.83 1.11 -2.15 0.73" class="primitive"/>
  </g>
  <g transform="translate(87.57,39.78)">
    <path fill="none" d="M-1.85,-1.17 L 3.08 -0.47 -1.24 1.64" class="primitive"/>
  </g>
  <g transform="translate(23.19,33.85)">
    <path fill="none" d="M0.48,1.89 L -2.7 -1.32 2.22 -0.57" class="primitive"/>
  </g>
  <g transform="translate(15.96,41.46)">
    <path fill="none" d="M2.28,-0.33 L -1.69 2.2 -0.6 -1.87" class="primitive"/>
  </g>
  <g transform="translate(23.75,82.82)">
    <path fill="none" d="M1.52,1.46 L -3.13 -0.07 1.61 -1.39" class="primitive"/>
  </g>
  <g transform="translate(67.82,89.95)">
    <path fill="none" d="M-0.94,-1.77 L 2.97 0.83 -2.03 0.94" class="primitive"/>
  </g>
  <g transform="translate(85.86,24.64)">
    <path fill="none" d="M-2.29,0.3 L 1.73 -2.17 0.56 1.88" class="primitive"/>
  </g>
  <g transform="translate(52.74,49.11)">
    <path fill="none" d="M0.2,1.93 L -2.48 -1.59 2.28 -0.34" class="primitive"/>
  </g>
  <g transform="translate(105.45,48.55)">
    <path fill="none" d="M0.12,-1.93 L 2.2 1.86 -2.32 0.07" class="primitive"/>
  </g>
  <g transform="translate(39.4,12.22)">
    <path fill="none" d="M-2.32,-0.05 L 2.17 -1.88 0.15 1.93" class="primitive"/>
  </g>
</g>
<g font-size="4" stroke="#000000" stroke-opacity="0.000" fill="#000000" id="img-48a46f41-3">
  <g transform="translate(39.88,40.77)">
    <g class="primitive">
      <text text-anchor="middle" dy="0.35em">[1, 2, 3]</text>
    </g>
  </g>
  <g transform="translate(35.9,30.46)">
    <g class="primitive">
      <text text-anchor="middle" dy="0.35em">[1]</text>
    </g>
  </g>
  <g transform="translate(46.51,75.29)">
    <g class="primitive">
      <text text-anchor="middle" dy="0.35em">[2, 4]</text>
    </g>
  </g>
  <g transform="translate(61.47,52.01)">
    <g class="primitive">
      <text text-anchor="middle" dy="0.35em">[3]</text>
    </g>
  </g>
  <g transform="translate(84.03,41.96)">
    <g class="primitive">
      <text text-anchor="middle" dy="0.35em">[5]</text>
    </g>
  </g>
  <g transform="translate(26.78,36.18)">
    <g class="primitive">
      <text text-anchor="middle" dy="0.35em">[6]</text>
    </g>
  </g>
  <g transform="translate(18.47,41.76)">
    <g class="primitive">
      <text text-anchor="middle" dy="0.35em">[1]</text>
    </g>
  </g>
  <g transform="translate(25.61,84.22)">
    <g class="primitive">
      <text text-anchor="middle" dy="0.35em">[2]</text>
    </g>
  </g>
  <g transform="translate(68.12,90.96)">
    <g class="primitive">
      <text text-anchor="middle" dy="0.35em">[4]</text>
    </g>
  </g>
  <g transform="translate(84.72,29.56)">
    <g class="primitive">
      <text text-anchor="middle" dy="0.35em">[3]</text>
    </g>
  </g>
  <g transform="translate(58.04,52.83)">
    <g class="primitive">
      <text text-anchor="middle" dy="0.35em">[4, 5, 6]</text>
    </g>
  </g>
  <g transform="translate(107.66,50.39)">
    <g class="primitive">
      <text text-anchor="middle" dy="0.35em">[5]</text>
    </g>
  </g>
  <g transform="translate(38.99,15.42)">
    <g class="primitive">
      <text text-anchor="middle" dy="0.35em">[6]</text>
    </g>
  </g>
</g>
<g stroke-width="0" stroke="#000000" stroke-opacity="0.000" fill="#40E0D0" id="img-48a46f41-4">
  <g transform="translate(10,20.03)">
    <circle cx="0" cy="0" r="3.21" class="primitive"/>
  </g>
  <g transform="translate(47.61,45.83)">
    <circle cx="0" cy="0" r="3.21" class="primitive"/>
  </g>
  <g transform="translate(29.77,23.48)">
    <circle cx="0" cy="0" r="3.21" class="primitive"/>
  </g>
  <g transform="translate(43.91,83.25)">
    <circle cx="0" cy="0" r="3.21" class="primitive"/>
  </g>
  <g transform="translate(63.86,52.21)">
    <circle cx="0" cy="0" r="3.21" class="primitive"/>
  </g>
  <g transform="translate(12.48,46)">
    <circle cx="0" cy="0" r="3.21" class="primitive"/>
  </g>
  <g transform="translate(17.28,82.68)">
    <circle cx="0" cy="0" r="3.21" class="primitive"/>
  </g>
  <g transform="translate(89.45,20.15)">
    <circle cx="0" cy="0" r="3.21" class="primitive"/>
  </g>
  <g transform="translate(73.96,91.67)">
    <circle cx="0" cy="0" r="3.21" class="primitive"/>
  </g>
  <g transform="translate(82.67,68.25)">
    <circle cx="0" cy="0" r="3.21" class="primitive"/>
  </g>
  <g transform="translate(93.94,38.82)">
    <circle cx="0" cy="0" r="3.21" class="primitive"/>
  </g>
  <g transform="translate(110,52.39)">
    <circle cx="0" cy="0" r="3.21" class="primitive"/>
  </g>
  <g transform="translate(17.61,31.11)">
    <circle cx="0" cy="0" r="3.21" class="primitive"/>
  </g>
  <g transform="translate(43.89,8.33)">
    <circle cx="0" cy="0" r="3.21" class="primitive"/>
  </g>
</g>
<g font-size="4" stroke="#000000" stroke-opacity="0.000" fill="#000000" id="img-48a46f41-5">
  <g transform="translate(10,20.03)">
    <g class="primitive">
      <text text-anchor="middle" dy="0.35em">(:data=>(P = 1,))</text>
    </g>
  </g>
  <g transform="translate(47.61,45.83)">
    <g class="primitive">
      <text text-anchor="middle" dy="0.35em">(:data=>(alg = "alg1",))</text>
    </g>
  </g>
  <g transform="translate(29.77,23.48)">
    <g class="primitive">
      <text text-anchor="middle" dy="0.35em">(:data=>(x = 10.0,))</text>
    </g>
  </g>
  <g transform="translate(43.91,83.25)">
    <g class="primitive">
      <text text-anchor="middle" dy="0.35em">(:data=>(x = 20.0,))</text>
    </g>
  </g>
  <g transform="translate(63.86,52.21)">
    <g class="primitive">
      <text text-anchor="middle" dy="0.35em">(:data=>(x = 30.0,))</text>
    </g>
  </g>
  <g transform="translate(12.48,46)">
    <g class="primitive">
      <text text-anchor="middle" dy="0.35em">(:data=>(r = 12.0,))</text>
    </g>
  </g>
  <g transform="translate(17.28,82.68)">
    <g class="primitive">
      <text text-anchor="middle" dy="0.35em">(:data=>(r = 22.0,))</text>
    </g>
  </g>
  <g transform="translate(89.45,20.15)">
    <g class="primitive">
      <text text-anchor="middle" dy="0.35em">(:data=>(r = 32.0,))</text>
    </g>
  </g>
  <g transform="translate(73.96,91.67)">
    <g class="primitive">
      <text text-anchor="middle" dy="0.35em">(:data=>(r = 24.0,))</text>
    </g>
  </g>
  <g transform="translate(82.67,68.25)">
    <g class="primitive">
      <text text-anchor="middle" dy="0.35em">(:data=>(P = 2,))</text>
    </g>
  </g>
  <g transform="translate(93.94,38.82)">
    <g class="primitive">
      <text text-anchor="middle" dy="0.35em">(:data=>(x = 40.0,))</text>
    </g>
  </g>
  <g transform="translate(110,52.39)">
    <g class="primitive">
      <text text-anchor="middle" dy="0.35em">(:data=>(r = 44.0,))</text>
    </g>
  </g>
  <g transform="translate(17.61,31.11)">
    <g class="primitive">
      <text text-anchor="middle" dy="0.35em">(:data=>(x = 60.0,))</text>
    </g>
  </g>
  <g transform="translate(43.89,8.33)">
    <g class="primitive">
      <text text-anchor="middle" dy="0.35em">(:data=>(r = 64.0,))</text>
    </g>
  </g>
</g>
</svg>
