<?xml version="1.0" encoding="UTF-8"?>
<svg xmlns="http://www.w3.org/2000/svg"
     xmlns:xlink="http://www.w3.org/1999/xlink"
     version="1.2"
     width="120mm" height="40mm" viewBox="0 0 120 40"
     stroke="none"
     fill="#000000"
     stroke-width="0.3"
     font-size="3.88"
>
<defs>
  <marker id="arrow" markerWidth="15" markerHeight="7" refX="5" refY="3.5" orient="auto" markerUnits="strokeWidth">
    <path d="M0,0 L15,3.5 L0,7 z" stroke="context-stroke" fill="context-stroke"/>
  </marker>
</defs>
<g stroke-width="1.22" fill="#000000" fill-opacity="0.000" stroke="#D3D3D3" id="img-acc33f33-1">
  <g transform="translate(64.11,7.79)">
    <path fill="none" d="M32.57,0.02 L -32.57 -0.02" class="primitive"/>
  </g>
  <g transform="translate(37.12,34.37)">
    <path fill="none" d="M22.17,1.88 L -22.17 -1.88" class="primitive"/>
  </g>
  <g transform="translate(92.31,10.86)">
    <path fill="none" d="M14.55,6.19 L -14.55 -6.19" class="primitive"/>
  </g>
</g>
<g stroke-width="1.22" stroke="#D3D3D3" id="img-acc33f33-2">
  <g transform="translate(34.67,7.77)">
    <path fill="none" d="M1.56,0.57 L -3.13 -0 1.57 -0.57" class="primitive"/>
  </g>
  <g transform="translate(17.98,32.75)">
    <path fill="none" d="M1.1,0.68 L -3.04 -0.26 1.94 -0.42" class="primitive"/>
  </g>
  <g transform="translate(79.69,5.49)">
    <path fill="none" d="M-0.38,0.76 L -1.93 -0.82 2.31 0.06" class="primitive"/>
  </g>
</g>
<g font-size="4" stroke="#000000" stroke-opacity="0.000" fill="#000000" id="img-acc33f33-3">
  <g transform="translate(47.82,8.63)">
    <g class="primitive">
      <text text-anchor="middle" dy="0.35em">[1]</text>
    </g>
  </g>
  <g transform="translate(26.11,34.07)">
    <g class="primitive">
      <text text-anchor="middle" dy="0.35em">[2]</text>
    </g>
  </g>
  <g transform="translate(86.01,7.95)">
    <g class="primitive">
      <text text-anchor="middle" dy="0.35em">[3]</text>
    </g>
  </g>
</g>
<g stroke-width="0" stroke="#000000" stroke-opacity="0.000" fill="#40E0D0" id="img-acc33f33-4">
  <g transform="translate(101.78,7.81)">
    <circle cx="0" cy="0" r="4.9" class="primitive"/>
  </g>
  <g transform="translate(26.44,7.76)">
    <circle cx="0" cy="0" r="4.9" class="primitive"/>
  </g>
  <g transform="translate(64.24,36.67)">
    <circle cx="0" cy="0" r="4.9" class="primitive"/>
  </g>
  <g transform="translate(10,32.07)">
    <circle cx="0" cy="0" r="4.9" class="primitive"/>
  </g>
  <g transform="translate(110,18.39)">
    <circle cx="0" cy="0" r="4.9" class="primitive"/>
  </g>
  <g transform="translate(74.62,3.33)">
    <circle cx="0" cy="0" r="4.9" class="primitive"/>
  </g>
</g>
<g font-size="4" stroke="#000000" stroke-opacity="0.000" fill="#000000" id="img-acc33f33-5">
  <g transform="translate(101.78,7.81)">
    <g class="primitive">
      <text text-anchor="middle" dy="0.35em">(:x=>1)</text>
    </g>
  </g>
  <g transform="translate(26.44,7.76)">
    <g class="primitive">
      <text text-anchor="middle" dy="0.35em">(:y=>1)</text>
    </g>
  </g>
  <g transform="translate(64.24,36.67)">
    <g class="primitive">
      <text text-anchor="middle" dy="0.35em">(:x=>2)</text>
    </g>
  </g>
  <g transform="translate(10,32.07)">
    <g class="primitive">
      <text text-anchor="middle" dy="0.35em">(:y=>4)</text>
    </g>
  </g>
  <g transform="translate(110,18.39)">
    <g class="primitive">
      <text text-anchor="middle" dy="0.35em">(:x=>3)</text>
    </g>
  </g>
  <g transform="translate(74.62,3.33)">
    <g class="primitive">
      <text text-anchor="middle" dy="0.35em">(:y=>9)</text>
    </g>
  </g>
</g>
</svg>
