<?xml version="1.0" encoding="UTF-8"?>
<svg xmlns="http://www.w3.org/2000/svg"
     xmlns:xlink="http://www.w3.org/1999/xlink"
     version="1.2"
     width="120mm" height="40mm" viewBox="0 0 120 40"
     stroke="none"
     fill="#000000"
     stroke-width="0.3"
     font-size="3.88"
>
<defs>
  <marker id="arrow" markerWidth="15" markerHeight="7" refX="5" refY="3.5" orient="auto" markerUnits="strokeWidth">
    <path d="M0,0 L15,3.5 L0,7 z" stroke="context-stroke" fill="context-stroke"/>
  </marker>
</defs>
<g stroke-width="1.22" fill="#000000" fill-opacity="0.000" stroke="#D3D3D3" id="img-acc33f33-1">
  <g transform="translate(28.49,28.05)">
    <path fill="none" d="M-15.53,-7.24 L 15.53 7.24" class="primitive"/>
  </g>
  <g transform="translate(22.46,15.47)">
    <path fill="none" d="M4.68,-10.46 L -4.68 10.46" class="primitive"/>
  </g>
  <g transform="translate(107.95,17.22)">
    <path fill="none" d="M1.67,7.55 L -1.67 -7.55" class="primitive"/>
  </g>
</g>
<g stroke-width="1.22" stroke="#D3D3D3" id="img-acc33f33-2">
  <g transform="translate(42.2,34.43)">
    <path fill="none" d="M0.48,-0.76 L 1.82 0.85 -2.3 -0.09" class="primitive"/>
  </g>
  <g transform="translate(18.24,24.9)">
    <path fill="none" d="M1.92,-0.43 L -0.46 1.03 -1.46 -0.6" class="primitive"/>
  </g>
  <g transform="translate(106.51,10.71)">
    <path fill="none" d="M-1.59,0.56 L -0.23 -1.04 1.82 0.48" class="primitive"/>
  </g>
</g>
<g font-size="4" stroke="#000000" stroke-opacity="0.000" fill="#000000" id="img-acc33f33-3">
  <g transform="translate(40.29,33.21)">
    <g class="primitive">
      <text text-anchor="middle" dy="0.35em">[1]</text>
    </g>
  </g>
  <g transform="translate(22.3,22.39)">
    <g class="primitive">
      <text text-anchor="middle" dy="0.35em">[2]</text>
    </g>
  </g>
  <g transform="translate(109.48,13.45)">
    <g class="primitive">
      <text text-anchor="middle" dy="0.35em">[3]</text>
    </g>
  </g>
</g>
<g stroke-width="0" stroke="#000000" stroke-opacity="0.000" fill="#40E0D0" id="img-acc33f33-4">
  <g transform="translate(10,19.42)">
    <circle cx="0" cy="0" r="4.9" class="primitive"/>
  </g>
  <g transform="translate(46.99,36.67)">
    <circle cx="0" cy="0" r="4.9" class="primitive"/>
  </g>
  <g transform="translate(27.9,3.33)">
    <circle cx="0" cy="0" r="4.9" class="primitive"/>
  </g>
  <g transform="translate(17.03,27.61)">
    <circle cx="0" cy="0" r="4.9" class="primitive"/>
  </g>
  <g transform="translate(110,26.47)">
    <circle cx="0" cy="0" r="4.9" class="primitive"/>
  </g>
  <g transform="translate(105.9,7.98)">
    <circle cx="0" cy="0" r="4.9" class="primitive"/>
  </g>
</g>
<g font-size="4" stroke="#000000" stroke-opacity="0.000" fill="#000000" id="img-acc33f33-5">
  <g transform="translate(10,19.42)">
    <g class="primitive">
      <text text-anchor="middle" dy="0.35em">(:data=>(x = 1,))</text>
    </g>
  </g>
  <g transform="translate(46.99,36.67)">
    <g class="primitive">
      <text text-anchor="middle" dy="0.35em">(:data=>(y = 1,))</text>
    </g>
  </g>
  <g transform="translate(27.9,3.33)">
    <g class="primitive">
      <text text-anchor="middle" dy="0.35em">(:data=>(x = 2,))</text>
    </g>
  </g>
  <g transform="translate(17.03,27.61)">
    <g class="primitive">
      <text text-anchor="middle" dy="0.35em">(:data=>(y = 4,))</text>
    </g>
  </g>
  <g transform="translate(110,26.47)">
    <g class="primitive">
      <text text-anchor="middle" dy="0.35em">(:data=>(x = 3,))</text>
    </g>
  </g>
  <g transform="translate(105.9,7.98)">
    <g class="primitive">
      <text text-anchor="middle" dy="0.35em">(:data=>(y = 9,))</text>
    </g>
  </g>
</g>
</svg>
