<?xml version="1.0" encoding="UTF-8"?>
<svg xmlns="http://www.w3.org/2000/svg"
     xmlns:xlink="http://www.w3.org/1999/xlink"
     version="1.2"
     width="100mm" height="40mm" viewBox="0 0 100 40"
     stroke="none"
     fill="#000000"
     stroke-width="0.3"
     font-size="3.88"
>
<defs>
  <marker id="arrow" markerWidth="15" markerHeight="7" refX="5" refY="3.5" orient="auto" markerUnits="strokeWidth">
    <path d="M0,0 L15,3.5 L0,7 z" stroke="context-stroke" fill="context-stroke"/>
  </marker>
</defs>
<g stroke-width="1.22" fill="#000000" fill-opacity="0.000" stroke="#D3D3D3" id="img-7428a761-1">
  <g transform="translate(69.74,5.71)">
    <path fill="none" d="M14.39,1.85 L -14.39 -1.85" class="primitive"/>
  </g>
  <g transform="translate(30.88,31.67)">
    <path fill="none" d="M18.83,4.17 L -18.83 -4.17" class="primitive"/>
  </g>
  <g transform="translate(63.33,33.34)">
    <path fill="none" d="M-24.18,2.1 L 24.18 -2.1" class="primitive"/>
  </g>
</g>
<g stroke-width="1.22" stroke="#D3D3D3" id="img-7428a761-2">
  <g transform="translate(57.83,4.17)">
    <path fill="none" d="M0.81,0.7 L -2.48 -0.32 1.68 -0.38" class="primitive"/>
  </g>
  <g transform="translate(14.34,28)">
    <path fill="none" d="M0.45,0.75 L -2.28 -0.51 1.83 -0.25" class="primitive"/>
  </g>
  <g transform="translate(84.96,31.46)">
    <path fill="none" d="M-1.58,-0.45 L 2.55 -0.22 -0.97 0.67" class="primitive"/>
  </g>
</g>
<g font-size="4" stroke="#000000" stroke-opacity="0.000" fill="#000000" id="img-7428a761-3">
  <g transform="translate(60.52,4.52)">
    <g class="primitive">
      <text text-anchor="middle" dy="0.35em">{1}</text>
    </g>
  </g>
  <g transform="translate(19.61,29.17)">
    <g class="primitive">
      <text text-anchor="middle" dy="0.35em">{2}</text>
    </g>
  </g>
  <g transform="translate(77.5,32.11)">
    <g class="primitive">
      <text text-anchor="middle" dy="0.35em">{3}</text>
    </g>
  </g>
</g>
<g stroke-width="0" stroke="#000000" stroke-opacity="0.000" fill="#40E0D0" id="img-7428a761-4">
  <g transform="translate(88.18,8.08)">
    <circle cx="0" cy="0" r="4.08" class="primitive"/>
  </g>
  <g transform="translate(53.43,36.67)">
    <circle cx="0" cy="0" r="4.08" class="primitive"/>
  </g>
  <g transform="translate(35,35.8)">
    <circle cx="0" cy="0" r="4.08" class="primitive"/>
  </g>
  <g transform="translate(51.3,3.33)">
    <circle cx="0" cy="0" r="4.08" class="primitive"/>
  </g>
  <g transform="translate(8.33,26.67)">
    <circle cx="0" cy="0" r="4.08" class="primitive"/>
  </g>
  <g transform="translate(91.67,30.88)">
    <circle cx="0" cy="0" r="4.08" class="primitive"/>
  </g>
</g>
<g font-size="4" stroke="#000000" stroke-opacity="0.000" fill="#000000" id="img-7428a761-5">
  <g transform="translate(88.18,8.08)">
    <g class="primitive">
      <text text-anchor="middle" dy="0.35em">(x = 1,)</text>
    </g>
  </g>
  <g transform="translate(53.43,36.67)">
    <g class="primitive">
      <text text-anchor="middle" dy="0.35em">(x = 2,)</text>
    </g>
  </g>
  <g transform="translate(35,35.8)">
    <g class="primitive">
      <text text-anchor="middle" dy="0.35em">(x = 3,)</text>
    </g>
  </g>
  <g transform="translate(51.3,3.33)">
    <g class="primitive">
      <text text-anchor="middle" dy="0.35em">(y = 1,)</text>
    </g>
  </g>
  <g transform="translate(8.33,26.67)">
    <g class="primitive">
      <text text-anchor="middle" dy="0.35em">(y = 4,)</text>
    </g>
  </g>
  <g transform="translate(91.67,30.88)">
    <g class="primitive">
      <text text-anchor="middle" dy="0.35em">(y = 9,)</text>
    </g>
  </g>
</g>
</svg>
