<?xml version="1.0" encoding="UTF-8"?>
<svg xmlns="http://www.w3.org/2000/svg"
     xmlns:xlink="http://www.w3.org/1999/xlink"
     version="1.2"
     width="120mm" height="40mm" viewBox="0 0 120 40"
     stroke="none"
     fill="#000000"
     stroke-width="0.3"
     font-size="3.88"
>
<defs>
  <marker id="arrow" markerWidth="15" markerHeight="7" refX="5" refY="3.5" orient="auto" markerUnits="strokeWidth">
    <path d="M0,0 L15,3.5 L0,7 z" stroke="context-stroke" fill="context-stroke"/>
  </marker>
</defs>
<g stroke-width="1.22" fill="#000000" fill-opacity="0.000" stroke="#D3D3D3" id="img-acc33f33-1">
  <g transform="translate(30.99,10.26)">
    <path fill="none" d="M17.36,-5.73 L -17.36 5.73" class="primitive"/>
  </g>
  <g transform="translate(21.38,22.23)">
    <path fill="none" d="M1.99,9.34 L -1.99 -9.34" class="primitive"/>
  </g>
  <g transform="translate(102.36,29.55)">
    <path fill="none" d="M5.92,-5.51 L -5.92 5.51" class="primitive"/>
  </g>
</g>
<g stroke-width="1.22" stroke="#D3D3D3" id="img-acc33f33-2">
  <g transform="translate(15.85,15.26)">
    <path fill="none" d="M2.32,0.04 L -2.23 0.73 -0.09 -0.77" class="primitive"/>
  </g>
  <g transform="translate(19.62,13.93)">
    <path fill="none" d="M-1.6,0.56 L -0.22 -1.04 1.82 0.48" class="primitive"/>
  </g>
  <g transform="translate(97.5,34.08)">
    <path fill="none" d="M2.14,-0.3 L -1.06 0.98 -1.08 -0.68" class="primitive"/>
  </g>
</g>
<g font-size="4" stroke="#000000" stroke-opacity="0.000" fill="#000000" id="img-acc33f33-3">
  <g transform="translate(23.04,14.58)">
    <g class="primitive">
      <text text-anchor="middle" dy="0.35em">[1]</text>
    </g>
  </g>
  <g transform="translate(22.76,17.56)">
    <g class="primitive">
      <text text-anchor="middle" dy="0.35em">[2]</text>
    </g>
  </g>
  <g transform="translate(101.09,33.96)">
    <g class="primitive">
      <text text-anchor="middle" dy="0.35em">[3]</text>
    </g>
  </g>
</g>
<g stroke-width="0" stroke="#000000" stroke-opacity="0.000" fill="#40E0D0" id="img-acc33f33-4">
  <g transform="translate(51.97,3.33)">
    <circle cx="0" cy="0" r="4.9" class="primitive"/>
  </g>
  <g transform="translate(10,17.19)">
    <circle cx="0" cy="0" r="4.9" class="primitive"/>
  </g>
  <g transform="translate(23.73,33.27)">
    <circle cx="0" cy="0" r="4.9" class="primitive"/>
  </g>
  <g transform="translate(19.04,11.19)">
    <circle cx="0" cy="0" r="4.9" class="primitive"/>
  </g>
  <g transform="translate(110,22.44)">
    <circle cx="0" cy="0" r="4.9" class="primitive"/>
  </g>
  <g transform="translate(94.72,36.67)">
    <circle cx="0" cy="0" r="4.9" class="primitive"/>
  </g>
</g>
<g font-size="4" stroke="#000000" stroke-opacity="0.000" fill="#000000" id="img-acc33f33-5">
  <g transform="translate(51.97,3.33)">
    <g class="primitive">
      <text text-anchor="middle" dy="0.35em">(x = 1,)</text>
    </g>
  </g>
  <g transform="translate(10,17.19)">
    <g class="primitive">
      <text text-anchor="middle" dy="0.35em">(y = 1,)</text>
    </g>
  </g>
  <g transform="translate(23.73,33.27)">
    <g class="primitive">
      <text text-anchor="middle" dy="0.35em">(x = 2,)</text>
    </g>
  </g>
  <g transform="translate(19.04,11.19)">
    <g class="primitive">
      <text text-anchor="middle" dy="0.35em">(y = 4,)</text>
    </g>
  </g>
  <g transform="translate(110,22.44)">
    <g class="primitive">
      <text text-anchor="middle" dy="0.35em">(x = 3,)</text>
    </g>
  </g>
  <g transform="translate(94.72,36.67)">
    <g class="primitive">
      <text text-anchor="middle" dy="0.35em">(y = 9,)</text>
    </g>
  </g>
</g>
</svg>
