<?xml version="1.0" encoding="UTF-8"?>
<svg xmlns="http://www.w3.org/2000/svg"
     xmlns:xlink="http://www.w3.org/1999/xlink"
     version="1.2"
     width="100mm" height="40mm" viewBox="0 0 100 40"
     stroke="none"
     fill="#000000"
     stroke-width="0.3"
     font-size="3.88"
>
<defs>
  <marker id="arrow" markerWidth="15" markerHeight="7" refX="5" refY="3.5" orient="auto" markerUnits="strokeWidth">
    <path d="M0,0 L15,3.5 L0,7 z" stroke="context-stroke" fill="context-stroke"/>
  </marker>
</defs>
<g stroke-width="1.22" fill="#000000" fill-opacity="0.000" stroke="#D3D3D3" id="img-6ba8b5ba-1">
  <g transform="translate(20.77,32.89)">
    <path fill="none" d="M9.05,2.75 L -9.05 -2.75" class="primitive"/>
  </g>
  <g transform="translate(31.95,14.86)">
    <path fill="none" d="M12.66,3.41 L -12.66 -3.41" class="primitive"/>
  </g>
  <g transform="translate(77.91,6.34)">
    <path fill="none" d="M10.03,2.19 L -10.03 -2.19" class="primitive"/>
  </g>
</g>
<g stroke-width="1.22" stroke="#D3D3D3" id="img-6ba8b5ba-2">
  <g transform="translate(13.8,30.77)">
    <path fill="none" d="M0.18,0.77 L -2.08 -0.63 1.9 -0.14" class="primitive"/>
  </g>
  <g transform="translate(21.45,12.03)">
    <path fill="none" d="M0.29,0.76 L -2.17 -0.58 1.88 -0.18" class="primitive"/>
  </g>
  <g transform="translate(70.17,4.65)">
    <path fill="none" d="M0.46,0.75 L -2.29 -0.5 1.83 -0.25" class="primitive"/>
  </g>
</g>
<g font-size="4" stroke="#000000" stroke-opacity="0.000" fill="#000000" id="img-6ba8b5ba-3">
  <g transform="translate(14.55,31)">
    <g class="primitive">
      <text text-anchor="middle" dy="0.35em">Set([1])</text>
    </g>
  </g>
  <g transform="translate(23.85,12.68)">
    <g class="primitive">
      <text text-anchor="middle" dy="0.35em">Set([2])</text>
    </g>
  </g>
  <g transform="translate(71.03,4.84)">
    <g class="primitive">
      <text text-anchor="middle" dy="0.35em">Set([3])</text>
    </g>
  </g>
</g>
<g stroke-width="0" stroke="#000000" stroke-opacity="0.000" fill="#40E0D0" id="img-6ba8b5ba-4">
  <g transform="translate(33.21,36.67)">
    <circle cx="0" cy="0" r="4.08" class="primitive"/>
  </g>
  <g transform="translate(48.14,19.22)">
    <circle cx="0" cy="0" r="4.08" class="primitive"/>
  </g>
  <g transform="translate(91.67,9.36)">
    <circle cx="0" cy="0" r="4.08" class="primitive"/>
  </g>
  <g transform="translate(8.33,29.11)">
    <circle cx="0" cy="0" r="4.08" class="primitive"/>
  </g>
  <g transform="translate(15.75,10.5)">
    <circle cx="0" cy="0" r="4.08" class="primitive"/>
  </g>
  <g transform="translate(64.15,3.33)">
    <circle cx="0" cy="0" r="4.08" class="primitive"/>
  </g>
</g>
<g font-size="4" stroke="#000000" stroke-opacity="0.000" fill="#000000" id="img-6ba8b5ba-5">
  <g transform="translate(33.21,36.67)">
    <g class="primitive">
      <text text-anchor="middle" dy="0.35em">(x = 1,)</text>
    </g>
  </g>
  <g transform="translate(48.14,19.22)">
    <g class="primitive">
      <text text-anchor="middle" dy="0.35em">(x = 2,)</text>
    </g>
  </g>
  <g transform="translate(91.67,9.36)">
    <g class="primitive">
      <text text-anchor="middle" dy="0.35em">(x = 3,)</text>
    </g>
  </g>
  <g transform="translate(8.33,29.11)">
    <g class="primitive">
      <text text-anchor="middle" dy="0.35em">(y = 1,)</text>
    </g>
  </g>
  <g transform="translate(15.75,10.5)">
    <g class="primitive">
      <text text-anchor="middle" dy="0.35em">(y = 4,)</text>
    </g>
  </g>
  <g transform="translate(64.15,3.33)">
    <g class="primitive">
      <text text-anchor="middle" dy="0.35em">(y = 9,)</text>
    </g>
  </g>
</g>
</svg>
