<?xml version="1.0" encoding="UTF-8"?>
<svg xmlns="http://www.w3.org/2000/svg"
     xmlns:xlink="http://www.w3.org/1999/xlink"
     version="1.2"
     width="100mm" height="40mm" viewBox="0 0 100 40"
     stroke="none"
     fill="#000000"
     stroke-width="0.3"
     font-size="3.88"
>
<defs>
  <marker id="arrow" markerWidth="15" markerHeight="7" refX="5" refY="3.5" orient="auto" markerUnits="strokeWidth">
    <path d="M0,0 L15,3.5 L0,7 z" stroke="context-stroke" fill="context-stroke"/>
  </marker>
</defs>
<g stroke-width="1.22" fill="#000000" fill-opacity="0.000" stroke="#D3D3D3" id="img-7428a761-1">
  <g transform="translate(15.69,22.51)">
    <path fill="none" d="M5.09,-6.99 L -5.09 6.99" class="primitive"/>
  </g>
  <g transform="translate(85.97,29.98)">
    <path fill="none" d="M-4.32,5.08 L 4.32 -5.08" class="primitive"/>
  </g>
  <g transform="translate(25.4,9)">
    <path fill="none" d="M-13.8,4.58 L 13.8 -4.58" class="primitive"/>
  </g>
</g>
<g stroke-width="1.22" stroke="#D3D3D3" id="img-7428a761-2">
  <g transform="translate(11.33,28.5)">
    <path fill="none" d="M1.73,-0.34 L -0.73 1 -1 -0.66" class="primitive"/>
  </g>
  <g transform="translate(89.45,25.88)">
    <path fill="none" d="M-1.77,0.31 L 0.84 -0.99 0.93 0.68" class="primitive"/>
  </g>
  <g transform="translate(37.19,5.09)">
    <path fill="none" d="M-1.91,-0.11 L 2.01 -0.67 -0.09 0.77" class="primitive"/>
  </g>
</g>
<g font-size="4" stroke="#000000" stroke-opacity="0.000" fill="#000000" id="img-7428a761-3">
  <g transform="translate(12.55,26.82)">
    <g class="primitive">
      <text text-anchor="middle" dy="0.35em">{1}</text>
    </g>
  </g>
  <g transform="translate(88.82,26.63)">
    <g class="primitive">
      <text text-anchor="middle" dy="0.35em">{2}</text>
    </g>
  </g>
  <g transform="translate(33.94,6.17)">
    <g class="primitive">
      <text text-anchor="middle" dy="0.35em">{3}</text>
    </g>
  </g>
</g>
<g stroke-width="0" stroke="#000000" stroke-opacity="0.000" fill="#40E0D0" id="img-7428a761-4">
  <g transform="translate(21.97,13.88)">
    <circle cx="0" cy="0" r="4.08" class="primitive"/>
  </g>
  <g transform="translate(80.28,36.67)">
    <circle cx="0" cy="0" r="4.08" class="primitive"/>
  </g>
  <g transform="translate(8.33,14.67)">
    <circle cx="0" cy="0" r="4.08" class="primitive"/>
  </g>
  <g transform="translate(9.41,31.13)">
    <circle cx="0" cy="0" r="4.08" class="primitive"/>
  </g>
  <g transform="translate(91.67,23.28)">
    <circle cx="0" cy="0" r="4.08" class="primitive"/>
  </g>
  <g transform="translate(42.47,3.33)">
    <circle cx="0" cy="0" r="4.08" class="primitive"/>
  </g>
</g>
<g font-size="4" stroke="#000000" stroke-opacity="0.000" fill="#000000" id="img-7428a761-5">
  <g transform="translate(21.97,13.88)">
    <g class="primitive">
      <text text-anchor="middle" dy="0.35em">(x = 1,)</text>
    </g>
  </g>
  <g transform="translate(80.28,36.67)">
    <g class="primitive">
      <text text-anchor="middle" dy="0.35em">(x = 2,)</text>
    </g>
  </g>
  <g transform="translate(8.33,14.67)">
    <g class="primitive">
      <text text-anchor="middle" dy="0.35em">(x = 3,)</text>
    </g>
  </g>
  <g transform="translate(9.41,31.13)">
    <g class="primitive">
      <text text-anchor="middle" dy="0.35em">(y = 1,)</text>
    </g>
  </g>
  <g transform="translate(91.67,23.28)">
    <g class="primitive">
      <text text-anchor="middle" dy="0.35em">(y = 4,)</text>
    </g>
  </g>
  <g transform="translate(42.47,3.33)">
    <g class="primitive">
      <text text-anchor="middle" dy="0.35em">(y = 9,)</text>
    </g>
  </g>
</g>
</svg>
