<?xml version="1.0" encoding="UTF-8"?>
<svg xmlns="http://www.w3.org/2000/svg"
     xmlns:xlink="http://www.w3.org/1999/xlink"
     version="1.2"
     width="100mm" height="40mm" viewBox="0 0 100 40"
     stroke="none"
     fill="#000000"
     stroke-width="0.3"
     font-size="3.88"
>
<defs>
  <marker id="arrow" markerWidth="15" markerHeight="7" refX="5" refY="3.5" orient="auto" markerUnits="strokeWidth">
    <path d="M0,0 L15,3.5 L0,7 z" stroke="context-stroke" fill="context-stroke"/>
  </marker>
</defs>
<g stroke-width="1.22" fill="#000000" fill-opacity="0.000" stroke="#D3D3D3" id="img-785b8c1a-1">
  <g transform="translate(64.42,3.49)">
    <path fill="none" d="M14.88,-0.12 L -14.88 0.12" class="primitive"/>
  </g>
  <g transform="translate(28.15,24.47)">
    <path fill="none" d="M-15.66,-1.38 L 15.66 1.38" class="primitive"/>
  </g>
  <g transform="translate(68.06,35.73)">
    <path fill="none" d="M-19.38,0.77 L 19.38 -0.77" class="primitive"/>
  </g>
</g>
<g stroke-width="1.22" stroke="#D3D3D3" id="img-785b8c1a-2">
  <g transform="translate(52.15,3.59)">
    <path fill="none" d="M1.33,0.56 L -2.61 0.02 1.28 -0.58" class="primitive"/>
  </g>
  <g transform="translate(41.27,25.63)">
    <path fill="none" d="M-0.97,-0.67 L 2.55 0.23 -1.58 0.44" class="primitive"/>
  </g>
  <g transform="translate(84.84,35.06)">
    <path fill="none" d="M-1.44,-0.52 L 2.6 -0.1 -1.16 0.62" class="primitive"/>
  </g>
</g>
<g font-size="4" stroke="#000000" stroke-opacity="0.000" fill="#000000" id="img-785b8c1a-3">
  <g transform="translate(54.85,3.57)">
    <g class="primitive">
      <text text-anchor="middle" dy="0.35em">[1]</text>
    </g>
  </g>
  <g transform="translate(38.06,25.35)">
    <g class="primitive">
      <text text-anchor="middle" dy="0.35em">[2]</text>
    </g>
  </g>
  <g transform="translate(79.86,35.26)">
    <g class="primitive">
      <text text-anchor="middle" dy="0.35em">[3]</text>
    </g>
  </g>
</g>
<g stroke-width="0" stroke="#000000" stroke-opacity="0.000" fill="#40E0D0" id="img-785b8c1a-4">
  <g transform="translate(83.54,3.33)">
    <circle cx="0" cy="0" r="4.08" class="primitive"/>
  </g>
  <g transform="translate(8.33,22.72)">
    <circle cx="0" cy="0" r="4.08" class="primitive"/>
  </g>
  <g transform="translate(44.45,36.67)">
    <circle cx="0" cy="0" r="4.08" class="primitive"/>
  </g>
  <g transform="translate(45.29,3.65)">
    <circle cx="0" cy="0" r="4.08" class="primitive"/>
  </g>
  <g transform="translate(47.97,26.22)">
    <circle cx="0" cy="0" r="4.08" class="primitive"/>
  </g>
  <g transform="translate(91.67,34.79)">
    <circle cx="0" cy="0" r="4.08" class="primitive"/>
  </g>
</g>
<g font-size="4" stroke="#000000" stroke-opacity="0.000" fill="#000000" id="img-785b8c1a-5">
  <g transform="translate(83.54,3.33)">
    <g class="primitive">
      <text text-anchor="middle" dy="0.35em">(x = 1,)</text>
    </g>
  </g>
  <g transform="translate(8.33,22.72)">
    <g class="primitive">
      <text text-anchor="middle" dy="0.35em">(x = 2,)</text>
    </g>
  </g>
  <g transform="translate(44.45,36.67)">
    <g class="primitive">
      <text text-anchor="middle" dy="0.35em">(x = 3,)</text>
    </g>
  </g>
  <g transform="translate(45.29,3.65)">
    <g class="primitive">
      <text text-anchor="middle" dy="0.35em">(y = 1,)</text>
    </g>
  </g>
  <g transform="translate(47.97,26.22)">
    <g class="primitive">
      <text text-anchor="middle" dy="0.35em">(y = 4,)</text>
    </g>
  </g>
  <g transform="translate(91.67,34.79)">
    <g class="primitive">
      <text text-anchor="middle" dy="0.35em">(y = 9,)</text>
    </g>
  </g>
</g>
</svg>
