<?xml version="1.0" encoding="UTF-8"?>
<svg xmlns="http://www.w3.org/2000/svg"
     xmlns:xlink="http://www.w3.org/1999/xlink"
     version="1.2"
     width="120mm" height="40mm" viewBox="0 0 120 40"
     stroke="none"
     fill="#000000"
     stroke-width="0.3"
     font-size="3.88"
>
<defs>
  <marker id="arrow" markerWidth="15" markerHeight="7" refX="5" refY="3.5" orient="auto" markerUnits="strokeWidth">
    <path d="M0,0 L15,3.5 L0,7 z" stroke="context-stroke" fill="context-stroke"/>
  </marker>
</defs>
<g stroke-width="1.22" fill="#000000" fill-opacity="0.000" stroke="#D3D3D3" id="img-c0168326-1">
  <g transform="translate(93.3,10.68)">
    <path fill="none" d="M-13.61,-5.99 L 13.61 5.99" class="primitive"/>
  </g>
  <g transform="translate(25.49,28.59)">
    <path fill="none" d="M-12.74,-6.64 L 12.74 6.64" class="primitive"/>
  </g>
  <g transform="translate(60.16,22.7)">
    <path fill="none" d="M9.28,-2.29 L -9.28 2.29" class="primitive"/>
  </g>
</g>
<g stroke-width="1.22" stroke="#D3D3D3" id="img-c0168326-2">
  <g transform="translate(105.03,15.83)">
    <path fill="none" d="M0.42,-0.76 L 1.89 0.83 -2.31 -0.07" class="primitive"/>
  </g>
  <g transform="translate(36.54,34.35)">
    <path fill="none" d="M0.6,-0.75 L 1.69 0.88 -2.28 -0.13" class="primitive"/>
  </g>
  <g transform="translate(53.39,24.37)">
    <path fill="none" d="M2.28,0.15 L -2.52 0.62 0.24 -0.77" class="primitive"/>
  </g>
</g>
<g font-size="4" stroke="#000000" stroke-opacity="0.000" fill="#000000" id="img-c0168326-3">
  <g transform="translate(104.2,15.2)">
    <g class="primitive">
      <text text-anchor="middle" dy="0.35em">[1]</text>
    </g>
  </g>
  <g transform="translate(35.78,33.48)">
    <g class="primitive">
      <text text-anchor="middle" dy="0.35em">[2]</text>
    </g>
  </g>
  <g transform="translate(56.02,25.2)">
    <g class="primitive">
      <text text-anchor="middle" dy="0.35em">[3]</text>
    </g>
  </g>
</g>
<g stroke-width="0" stroke="#000000" stroke-opacity="0.000" fill="#40E0D0" id="img-c0168326-4">
  <g transform="translate(76.61,3.33)">
    <circle cx="0" cy="0" r="4.9" class="primitive"/>
  </g>
  <g transform="translate(110,18.02)">
    <circle cx="0" cy="0" r="4.9" class="primitive"/>
  </g>
  <g transform="translate(10,20.51)">
    <circle cx="0" cy="0" r="4.9" class="primitive"/>
  </g>
  <g transform="translate(40.98,36.67)">
    <circle cx="0" cy="0" r="4.9" class="primitive"/>
  </g>
  <g transform="translate(73.54,19.39)">
    <circle cx="0" cy="0" r="4.9" class="primitive"/>
  </g>
  <g transform="translate(46.77,26)">
    <circle cx="0" cy="0" r="4.9" class="primitive"/>
  </g>
</g>
<g font-size="4" stroke="#000000" stroke-opacity="0.000" fill="#000000" id="img-c0168326-5">
  <g transform="translate(76.61,3.33)">
    <g class="primitive">
      <text text-anchor="middle" dy="0.35em">(:x=>1)</text>
    </g>
  </g>
  <g transform="translate(110,18.02)">
    <g class="primitive">
      <text text-anchor="middle" dy="0.35em">(:y=>1)</text>
    </g>
  </g>
  <g transform="translate(10,20.51)">
    <g class="primitive">
      <text text-anchor="middle" dy="0.35em">(:x=>2)</text>
    </g>
  </g>
  <g transform="translate(40.98,36.67)">
    <g class="primitive">
      <text text-anchor="middle" dy="0.35em">(:y=>4)</text>
    </g>
  </g>
  <g transform="translate(73.54,19.39)">
    <g class="primitive">
      <text text-anchor="middle" dy="0.35em">(:x=>3)</text>
    </g>
  </g>
  <g transform="translate(46.77,26)">
    <g class="primitive">
      <text text-anchor="middle" dy="0.35em">(:y=>9)</text>
    </g>
  </g>
</g>
</svg>
