<?xml version="1.0" encoding="UTF-8"?>
<svg xmlns="http://www.w3.org/2000/svg"
     xmlns:xlink="http://www.w3.org/1999/xlink"
     version="1.2"
     width="120mm" height="40mm" viewBox="0 0 120 40"
     stroke="none"
     fill="#000000"
     stroke-width="0.3"
     font-size="3.88"
>
<defs>
  <marker id="arrow" markerWidth="15" markerHeight="7" refX="5" refY="3.5" orient="auto" markerUnits="strokeWidth">
    <path d="M0,0 L15,3.5 L0,7 z" stroke="context-stroke" fill="context-stroke"/>
  </marker>
</defs>
<g stroke-width="1.22" fill="#000000" fill-opacity="0.000" stroke="#D3D3D3" id="img-acc33f33-1">
  <g transform="translate(90.64,29.13)">
    <path fill="none" d="M-16.04,6.25 L 16.04 -6.25" class="primitive"/>
  </g>
  <g transform="translate(25.73,11.68)">
    <path fill="none" d="M-13.02,6.91 L 13.02 -6.91" class="primitive"/>
  </g>
  <g transform="translate(63.39,18.55)">
    <path fill="none" d="M9.95,2.65 L -9.95 -2.65" class="primitive"/>
  </g>
</g>
<g stroke-width="1.22" stroke="#D3D3D3" id="img-acc33f33-2">
  <g transform="translate(104.65,23.67)">
    <path fill="none" d="M-2.32,0.03 L 2.04 -0.79 0.28 0.77" class="primitive"/>
  </g>
  <g transform="translate(37.08,5.66)">
    <path fill="none" d="M-2.28,0.14 L 1.67 -0.88 0.62 0.75" class="primitive"/>
  </g>
  <g transform="translate(55.89,16.55)">
    <path fill="none" d="M0.16,0.77 L -2.45 -0.65 2.29 -0.12" class="primitive"/>
  </g>
</g>
<g font-size="4" stroke="#000000" stroke-opacity="0.000" fill="#000000" id="img-acc33f33-3">
  <g transform="translate(102.87,26.21)">
    <g class="primitive">
      <text text-anchor="middle" dy="0.35em">[1]</text>
    </g>
  </g>
  <g transform="translate(36.15,8.36)">
    <g class="primitive">
      <text text-anchor="middle" dy="0.35em">[2]</text>
    </g>
  </g>
  <g transform="translate(58.97,17.54)">
    <g class="primitive">
      <text text-anchor="middle" dy="0.35em">[3]</text>
    </g>
  </g>
</g>
<g stroke-width="0" stroke="#000000" stroke-opacity="0.000" fill="#40E0D0" id="img-acc33f33-4">
  <g transform="translate(71.29,36.67)">
    <circle cx="0" cy="0" r="4.9" class="primitive"/>
  </g>
  <g transform="translate(110,21.59)">
    <circle cx="0" cy="0" r="4.9" class="primitive"/>
  </g>
  <g transform="translate(10,20.03)">
    <circle cx="0" cy="0" r="4.9" class="primitive"/>
  </g>
  <g transform="translate(41.46,3.33)">
    <circle cx="0" cy="0" r="4.9" class="primitive"/>
  </g>
  <g transform="translate(77.33,22.26)">
    <circle cx="0" cy="0" r="4.9" class="primitive"/>
  </g>
  <g transform="translate(49.45,14.83)">
    <circle cx="0" cy="0" r="4.9" class="primitive"/>
  </g>
</g>
<g font-size="4" stroke="#000000" stroke-opacity="0.000" fill="#000000" id="img-acc33f33-5">
  <g transform="translate(71.29,36.67)">
    <g class="primitive">
      <text text-anchor="middle" dy="0.35em">(x = 1,)</text>
    </g>
  </g>
  <g transform="translate(110,21.59)">
    <g class="primitive">
      <text text-anchor="middle" dy="0.35em">(y = 1,)</text>
    </g>
  </g>
  <g transform="translate(10,20.03)">
    <g class="primitive">
      <text text-anchor="middle" dy="0.35em">(x = 2,)</text>
    </g>
  </g>
  <g transform="translate(41.46,3.33)">
    <g class="primitive">
      <text text-anchor="middle" dy="0.35em">(y = 4,)</text>
    </g>
  </g>
  <g transform="translate(77.33,22.26)">
    <g class="primitive">
      <text text-anchor="middle" dy="0.35em">(x = 3,)</text>
    </g>
  </g>
  <g transform="translate(49.45,14.83)">
    <g class="primitive">
      <text text-anchor="middle" dy="0.35em">(y = 9,)</text>
    </g>
  </g>
</g>
</svg>
