<?xml version="1.0" encoding="UTF-8"?>
<svg xmlns="http://www.w3.org/2000/svg"
     xmlns:xlink="http://www.w3.org/1999/xlink"
     version="1.2"
     width="100mm" height="100mm" viewBox="0 0 100 100"
     stroke="none"
     fill="#000000"
     stroke-width="0.3"
     font-size="3.88"
>
<defs>
  <marker id="arrow" markerWidth="15" markerHeight="7" refX="5" refY="3.5" orient="auto" markerUnits="strokeWidth">
    <path d="M0,0 L15,3.5 L0,7 z" stroke="context-stroke" fill="context-stroke"/>
  </marker>
</defs>
<g stroke-width="0.8" fill="#000000" fill-opacity="0.000" stroke="#D3D3D3" id="img-acc33f33-1">
  <g transform="translate(73.32,33.93)">
    <path fill="none" d="M-0.85,-4.84 L 0.85 4.84" class="primitive"/>
  </g>
  <g transform="translate(67.35,35.07)">
    <path fill="none" d="M3.34,-6.27 L -3.34 6.27" class="primitive"/>
  </g>
  <g transform="translate(61.27,45.52)">
    <path fill="none" d="M10.71,-3.21 L -10.71 3.21" class="primitive"/>
  </g>
  <g transform="translate(82.84,45.67)">
    <path fill="none" d="M-5.7,-2.9 L 5.7 2.9" class="primitive"/>
  </g>
  <g transform="translate(83.16,37.92)">
    <path fill="none" d="M-5.94,2.51 L 5.94 -2.51" class="primitive"/>
  </g>
  <g transform="translate(74.92,17.34)">
    <path fill="none" d="M2.07,-6.36 L -2.07 6.36" class="primitive"/>
  </g>
  <g transform="translate(42.25,61.4)">
    <path fill="none" d="M4.45,-9.36 L -4.45 9.36" class="primitive"/>
  </g>
  <g transform="translate(36.71,43.32)">
    <path fill="none" d="M8.74,4.86 L -8.74 -4.86" class="primitive"/>
  </g>
  <g transform="translate(55.3,46.66)">
    <path fill="none" d="M4.81,-1.86 L -4.81 1.86" class="primitive"/>
  </g>
  <g transform="translate(65.97,51.97)">
    <path fill="none" d="M-2.23,-5.59 L 2.23 5.59" class="primitive"/>
  </g>
  <g transform="translate(36.52,82.47)">
    <path fill="none" d="M0.05,-6.41 L -0.05 6.41" class="primitive"/>
  </g>
  <g transform="translate(29.71,78.84)">
    <path fill="none" d="M4.73,-3.82 L -4.73 3.82" class="primitive"/>
  </g>
  <g transform="translate(20.32,29.7)">
    <path fill="none" d="M3.62,5.13 L -3.62 -5.13" class="primitive"/>
  </g>
  <g transform="translate(16.94,36.94)">
    <path fill="none" d="M5.82,0.11 L -5.82 -0.11" class="primitive"/>
  </g>
</g>
<g stroke-width="0.8" stroke="#D3D3D3" id="img-acc33f33-2">
  <g transform="translate(73.72,36.2)">
    <path fill="none" d="M1.18,-1.53 L 0.45 2.57 -1.63 -1.04" class="primitive"/>
  </g>
  <g transform="translate(65.24,39.03)">
    <path fill="none" d="M1.87,-0.48 L -1.23 2.3 -0.64 -1.82" class="primitive"/>
  </g>
  <g transform="translate(53.06,47.98)">
    <path fill="none" d="M1.66,0.99 L -2.5 0.75 0.84 -1.74" class="primitive"/>
  </g>
  <g transform="translate(86.21,47.38)">
    <path fill="none" d="M-0.52,-1.86 L 2.33 1.18 -1.81 0.68" class="primitive"/>
  </g>
  <g transform="translate(86.7,36.43)">
    <path fill="none" d="M-1.76,-0.81 L 2.41 -1.01 -0.65 1.82" class="primitive"/>
  </g>
  <g transform="translate(73.66,21.22)">
    <path fill="none" d="M1.76,-0.8 L -0.81 2.48 -0.95 -1.68" class="primitive"/>
  </g>
  <g transform="translate(38.92,68.4)">
    <path fill="none" d="M1.85,-0.57 L -1.12 2.36 -0.73 -1.79" class="primitive"/>
  </g>
  <g transform="translate(30.25,39.73)">
    <path fill="none" d="M0.45,1.88 L -2.28 -1.27 1.83 -0.61" class="primitive"/>
  </g>
  <g transform="translate(52.92,47.58)">
    <path fill="none" d="M1.73,0.86 L -2.43 0.94 0.7 -1.8" class="primitive"/>
  </g>
  <g transform="translate(67.24,55.14)">
    <path fill="none" d="M0.84,-1.74 L 0.97 2.42 -1.81 -0.68" class="primitive"/>
  </g>
  <g transform="translate(36.49,86.27)">
    <path fill="none" d="M1.44,-1.29 L -0.02 2.61 -1.41 -1.32" class="primitive"/>
  </g>
  <g transform="translate(27.01,81.02)">
    <path fill="none" d="M1.91,0.29 L -2.03 1.64 0.12 -1.93" class="primitive"/>
  </g>
  <g transform="translate(18.2,26.71)">
    <path fill="none" d="M-0.41,1.89 L -1.5 -2.13 1.92 0.25" class="primitive"/>
  </g>
  <g transform="translate(13.73,36.88)">
    <path fill="none" d="M1.28,1.45 L -2.61 -0.05 1.33 -1.4" class="primitive"/>
  </g>
</g>
<g font-size="4" stroke="#000000" stroke-opacity="0.000" fill="#000000" id="img-acc33f33-3">
  <g transform="translate(73.99,37.72)">
    <g class="primitive">
      <text text-anchor="middle" dy="0.35em">[1, 2, 3, 6, 7]</text>
    </g>
  </g>
  <g transform="translate(65.03,39.43)">
    <g class="primitive">
      <text text-anchor="middle" dy="0.35em">[4, 5]</text>
    </g>
  </g>
  <g transform="translate(54.58,47.53)">
    <g class="primitive">
      <text text-anchor="middle" dy="0.35em">[1, 6, 7]</text>
    </g>
  </g>
  <g transform="translate(86.93,47.75)">
    <g class="primitive">
      <text text-anchor="middle" dy="0.35em">[2]</text>
    </g>
  </g>
  <g transform="translate(87.41,36.13)">
    <g class="primitive">
      <text text-anchor="middle" dy="0.35em">[3]</text>
    </g>
  </g>
  <g transform="translate(73.46,21.85)">
    <g class="primitive">
      <text text-anchor="middle" dy="0.35em">[1, 2, 3, 4, 5, 6, 7]</text>
    </g>
  </g>
  <g transform="translate(39.42,67.34)">
    <g class="primitive">
      <text text-anchor="middle" dy="0.35em">[4, 5]</text>
    </g>
  </g>
  <g transform="translate(31.13,40.21)">
    <g class="primitive">
      <text text-anchor="middle" dy="0.35em">[6, 7]</text>
    </g>
  </g>
  <g transform="translate(51.59,48.1)">
    <g class="primitive">
      <text text-anchor="middle" dy="0.35em">[4, 5]</text>
    </g>
  </g>
  <g transform="translate(67.61,56.06)">
    <g class="primitive">
      <text text-anchor="middle" dy="0.35em">[5]</text>
    </g>
  </g>
  <g transform="translate(36.49,87.07)">
    <g class="primitive">
      <text text-anchor="middle" dy="0.35em">[4]</text>
    </g>
  </g>
  <g transform="translate(26.26,81.62)">
    <g class="primitive">
      <text text-anchor="middle" dy="0.35em">[5]</text>
    </g>
  </g>
  <g transform="translate(17.71,26)">
    <g class="primitive">
      <text text-anchor="middle" dy="0.35em">[6]</text>
    </g>
  </g>
  <g transform="translate(12.63,36.86)">
    <g class="primitive">
      <text text-anchor="middle" dy="0.35em">[7]</text>
    </g>
  </g>
</g>
<g stroke-width="0" stroke="#000000" stroke-opacity="0.000" fill="#40E0D0" id="img-acc33f33-4">
  <g transform="translate(72,26.35)">
    <circle cx="0" cy="0" r="2.67" class="primitive"/>
  </g>
  <g transform="translate(74.65,41.51)">
    <circle cx="0" cy="0" r="2.67" class="primitive"/>
  </g>
  <g transform="translate(77.85,8.33)">
    <circle cx="0" cy="0" r="2.67" class="primitive"/>
  </g>
  <g transform="translate(47.89,49.53)">
    <circle cx="0" cy="0" r="2.67" class="primitive"/>
  </g>
  <g transform="translate(91.02,49.82)">
    <circle cx="0" cy="0" r="2.67" class="primitive"/>
  </g>
  <g transform="translate(91.67,34.34)">
    <circle cx="0" cy="0" r="2.67" class="primitive"/>
  </g>
  <g transform="translate(62.71,43.8)">
    <circle cx="0" cy="0" r="2.67" class="primitive"/>
  </g>
  <g transform="translate(69.24,60.15)">
    <circle cx="0" cy="0" r="2.67" class="primitive"/>
  </g>
  <g transform="translate(36.6,73.27)">
    <circle cx="0" cy="0" r="2.67" class="primitive"/>
  </g>
  <g transform="translate(36.45,91.67)">
    <circle cx="0" cy="0" r="2.67" class="primitive"/>
  </g>
  <g transform="translate(22.82,84.41)">
    <circle cx="0" cy="0" r="2.67" class="primitive"/>
  </g>
  <g transform="translate(25.54,37.11)">
    <circle cx="0" cy="0" r="2.67" class="primitive"/>
  </g>
  <g transform="translate(15.1,22.3)">
    <circle cx="0" cy="0" r="2.67" class="primitive"/>
  </g>
  <g transform="translate(8.33,36.78)">
    <circle cx="0" cy="0" r="2.67" class="primitive"/>
  </g>
</g>
<g font-size="4" stroke="#000000" stroke-opacity="0.000" fill="#000000" id="img-acc33f33-5">
  <g transform="translate(72,26.35)">
    <g class="primitive">
      <text text-anchor="middle" dy="0.35em">(:D=>0.4)</text>
    </g>
  </g>
  <g transform="translate(74.65,41.51)">
    <g class="primitive">
      <text text-anchor="middle" dy="0.35em">(:B=>0.5)</text>
    </g>
  </g>
  <g transform="translate(77.85,8.33)">
    <g class="primitive">
      <text text-anchor="middle" dy="0.35em">(:A=>1)</text>
    </g>
  </g>
  <g transform="translate(47.89,49.53)">
    <g class="primitive">
      <text text-anchor="middle" dy="0.35em">(:E=>10.0)</text>
    </g>
  </g>
  <g transform="translate(91.02,49.82)">
    <g class="primitive">
      <text text-anchor="middle" dy="0.35em">(:E=>20.0)</text>
    </g>
  </g>
  <g transform="translate(91.67,34.34)">
    <g class="primitive">
      <text text-anchor="middle" dy="0.35em">(:E=>30.0)</text>
    </g>
  </g>
  <g transform="translate(62.71,43.8)">
    <g class="primitive">
      <text text-anchor="middle" dy="0.35em">(:B=>0.55)</text>
    </g>
  </g>
  <g transform="translate(69.24,60.15)">
    <g class="primitive">
      <text text-anchor="middle" dy="0.35em">(:E=>25.0)</text>
    </g>
  </g>
  <g transform="translate(36.6,73.27)">
    <g class="primitive">
      <text text-anchor="middle" dy="0.35em">(:ic_alg=>FirstAlg(2))</text>
    </g>
  </g>
  <g transform="translate(36.45,91.67)">
    <g class="primitive">
      <text text-anchor="middle" dy="0.35em">(:q₂=>[0.0815888, 0.771521],:q₀=>[0.00678638, 0.857805])</text>
    </g>
  </g>
  <g transform="translate(22.82,84.41)">
    <g class="primitive">
      <text text-anchor="middle" dy="0.35em">(:q₂=>[0.354879, 0.799923],:q₀=>[0.963564, 0.733028])</text>
    </g>
  </g>
  <g transform="translate(25.54,37.11)">
    <g class="primitive">
      <text text-anchor="middle" dy="0.35em">(:ic_alg=>SecondAlg(2, true))</text>
    </g>
  </g>
  <g transform="translate(15.1,22.3)">
    <g class="primitive">
      <text text-anchor="middle" dy="0.35em">(:q₂=>[0.547163, 0.122793],:q₀=>[0.393201, 0.961019])</text>
    </g>
  </g>
  <g transform="translate(8.33,36.78)">
    <g class="primitive">
      <text text-anchor="middle" dy="0.35em">(:q₂=>[0.0605999, 0.921585],:q₀=>[0.80965, 0.228397])</text>
    </g>
  </g>
</g>
</svg>
