<?xml version="1.0" encoding="UTF-8"?>
<svg xmlns="http://www.w3.org/2000/svg"
     xmlns:xlink="http://www.w3.org/1999/xlink"
     version="1.2"
     width="100mm" height="100mm" viewBox="0 0 100 100"
     stroke="none"
     fill="#000000"
     stroke-width="0.3"
     font-size="3.88"
>
<defs>
  <marker id="arrow" markerWidth="15" markerHeight="7" refX="5" refY="3.5" orient="auto" markerUnits="strokeWidth">
    <path d="M0,0 L15,3.5 L0,7 z" stroke="context-stroke" fill="context-stroke"/>
  </marker>
</defs>
<g stroke-width="0.8" fill="#000000" fill-opacity="0.000" stroke="#D3D3D3" id="img-acc33f33-1">
  <g transform="translate(23.87,57.69)">
    <path fill="none" d="M-1.58,7.36 L 1.58 -7.36" class="primitive"/>
  </g>
  <g transform="translate(29.95,69.81)">
    <path fill="none" d="M-5.55,-1.36 L 5.55 1.36" class="primitive"/>
  </g>
  <g transform="translate(38.69,49.88)">
    <path fill="none" d="M-9.91,-1.78 L 9.91 1.78" class="primitive"/>
  </g>
  <g transform="translate(21.81,38.98)">
    <path fill="none" d="M3,6.13 L -3 -6.13" class="primitive"/>
  </g>
  <g transform="translate(17.19,45.34)">
    <path fill="none" d="M6.16,1.58 L -6.16 -1.58" class="primitive"/>
  </g>
  <g transform="translate(15.48,73.84)">
    <path fill="none" d="M-4.22,4.12 L 4.22 -4.12" class="primitive"/>
  </g>
  <g transform="translate(62.72,58.55)">
    <path fill="none" d="M-8.95,-5.03 L 8.95 5.03" class="primitive"/>
  </g>
  <g transform="translate(56.92,39.65)">
    <path fill="none" d="M-4.44,9.96 L 4.44 -9.96" class="primitive"/>
  </g>
  <g transform="translate(44.77,62)">
    <path fill="none" d="M-5.03,7.52 L 5.03 -7.52" class="primitive"/>
  </g>
  <g transform="translate(37.36,81.75)">
    <path fill="none" d="M0.6,-7.14 L -0.6 7.14" class="primitive"/>
  </g>
  <g transform="translate(82.88,65.04)">
    <path fill="none" d="M-6,-0.07 L 6 0.07" class="primitive"/>
  </g>
  <g transform="translate(79.52,72.81)">
    <path fill="none" d="M-3.84,-5.57 L 3.84 5.57" class="primitive"/>
  </g>
  <g transform="translate(69.33,21.19)">
    <path fill="none" d="M-4.74,4.13 L 4.74 -4.13" class="primitive"/>
  </g>
  <g transform="translate(61.89,17.74)">
    <path fill="none" d="M0.43,6.63 L -0.43 -6.63" class="primitive"/>
  </g>
</g>
<g stroke-width="0.8" stroke="#D3D3D3" id="img-acc33f33-2">
  <g transform="translate(24.9,52.88)">
    <path fill="none" d="M-1.67,0.98 L 0.55 -2.55 1.12 1.58" class="primitive"/>
  </g>
  <g transform="translate(32.96,70.55)">
    <path fill="none" d="M-0.93,-1.7 L 2.53 0.62 -1.61 1.07" class="primitive"/>
  </g>
  <g transform="translate(46.03,51.2)">
    <path fill="none" d="M-1.03,-1.63 L 2.57 0.46 -1.54 1.17" class="primitive"/>
  </g>
  <g transform="translate(19.96,35.19)">
    <path fill="none" d="M-0.71,1.8 L -1.15 -2.34 1.85 0.55" class="primitive"/>
  </g>
  <g transform="translate(13.56,44.41)">
    <path fill="none" d="M0.91,1.7 L -2.53 -0.65 1.62 -1.06" class="primitive"/>
  </g>
  <g transform="translate(17.84,71.55)">
    <path fill="none" d="M-1.93,-0.11 L 1.87 -1.82 0.06 1.93" class="primitive"/>
  </g>
  <g transform="translate(69.4,62.31)">
    <path fill="none" d="M-0.44,-1.88 L 2.28 1.28 -1.84 0.6" class="primitive"/>
  </g>
  <g transform="translate(60.3,32.07)">
    <path fill="none" d="M-1.83,0.61 L 1.06 -2.38 0.77 1.77" class="primitive"/>
  </g>
  <g transform="translate(48.34,56.64)">
    <path fill="none" d="M-1.91,0.29 L 1.45 -2.17 0.46 1.88" class="primitive"/>
  </g>
  <g transform="translate(36.98,86.29)">
    <path fill="none" d="M1.53,-1.18 L -0.22 2.6 -1.31 -1.42" class="primitive"/>
  </g>
  <g transform="translate(86.27,65.08)">
    <path fill="none" d="M-1.29,-1.44 L 2.61 0.03 -1.32 1.41" class="primitive"/>
  </g>
  <g transform="translate(81.87,76.23)">
    <path fill="none" d="M0.43,-1.88 L 1.48 2.15 -1.91 -0.27" class="primitive"/>
  </g>
  <g transform="translate(72.1,18.77)">
    <path fill="none" d="M-1.92,-0.22 L 1.97 -1.72 -0.05 1.93" class="primitive"/>
  </g>
  <g transform="translate(61.63,13.72)">
    <path fill="none" d="M-1.34,1.39 L -0.17 -2.6 1.51 1.21" class="primitive"/>
  </g>
</g>
<g font-size="4" stroke="#000000" stroke-opacity="0.000" fill="#000000" id="img-acc33f33-3">
  <g transform="translate(24.95,52.65)">
    <g class="primitive">
      <text text-anchor="middle" dy="0.35em">[1, 2, 3, 6, 7]</text>
    </g>
  </g>
  <g transform="translate(34.07,70.82)">
    <g class="primitive">
      <text text-anchor="middle" dy="0.35em">[4, 5]</text>
    </g>
  </g>
  <g transform="translate(45.01,51.02)">
    <g class="primitive">
      <text text-anchor="middle" dy="0.35em">[1, 6, 7]</text>
    </g>
  </g>
  <g transform="translate(19.7,34.66)">
    <g class="primitive">
      <text text-anchor="middle" dy="0.35em">[2]</text>
    </g>
  </g>
  <g transform="translate(12.76,44.21)">
    <g class="primitive">
      <text text-anchor="middle" dy="0.35em">[3]</text>
    </g>
  </g>
  <g transform="translate(18.59,70.81)">
    <g class="primitive">
      <text text-anchor="middle" dy="0.35em">[1, 2, 3, 4, 5, 6, 7]</text>
    </g>
  </g>
  <g transform="translate(68.41,61.75)">
    <g class="primitive">
      <text text-anchor="middle" dy="0.35em">[4, 5]</text>
    </g>
  </g>
  <g transform="translate(59.71,33.4)">
    <g class="primitive">
      <text text-anchor="middle" dy="0.35em">[6, 7]</text>
    </g>
  </g>
  <g transform="translate(48.05,57.08)">
    <g class="primitive">
      <text text-anchor="middle" dy="0.35em">[4, 5]</text>
    </g>
  </g>
  <g transform="translate(36.95,86.71)">
    <g class="primitive">
      <text text-anchor="middle" dy="0.35em">[5]</text>
    </g>
  </g>
  <g transform="translate(87.28,65.09)">
    <g class="primitive">
      <text text-anchor="middle" dy="0.35em">[4]</text>
    </g>
  </g>
  <g transform="translate(82.23,76.74)">
    <g class="primitive">
      <text text-anchor="middle" dy="0.35em">[5]</text>
    </g>
  </g>
  <g transform="translate(72.75,18.21)">
    <g class="primitive">
      <text text-anchor="middle" dy="0.35em">[6]</text>
    </g>
  </g>
  <g transform="translate(61.58,13.04)">
    <g class="primitive">
      <text text-anchor="middle" dy="0.35em">[7]</text>
    </g>
  </g>
</g>
<g stroke-width="0" stroke="#000000" stroke-opacity="0.000" fill="#40E0D0" id="img-acc33f33-4">
  <g transform="translate(21.7,67.78)">
    <circle cx="0" cy="0" r="2.67" class="primitive"/>
  </g>
  <g transform="translate(26.04,47.61)">
    <circle cx="0" cy="0" r="2.67" class="primitive"/>
  </g>
  <g transform="translate(9.27,79.91)">
    <circle cx="0" cy="0" r="2.67" class="primitive"/>
  </g>
  <g transform="translate(51.34,52.16)">
    <circle cx="0" cy="0" r="2.67" class="primitive"/>
  </g>
  <g transform="translate(17.59,30.35)">
    <circle cx="0" cy="0" r="2.67" class="primitive"/>
  </g>
  <g transform="translate(8.33,43.08)">
    <circle cx="0" cy="0" r="2.67" class="primitive"/>
  </g>
  <g transform="translate(38.19,71.84)">
    <circle cx="0" cy="0" r="2.67" class="primitive"/>
  </g>
  <g transform="translate(36.53,91.67)">
    <circle cx="0" cy="0" r="2.67" class="primitive"/>
  </g>
  <g transform="translate(74.1,64.95)">
    <circle cx="0" cy="0" r="2.67" class="primitive"/>
  </g>
  <g transform="translate(91.67,65.14)">
    <circle cx="0" cy="0" r="2.67" class="primitive"/>
  </g>
  <g transform="translate(84.93,80.67)">
    <circle cx="0" cy="0" r="2.67" class="primitive"/>
  </g>
  <g transform="translate(62.5,27.15)">
    <circle cx="0" cy="0" r="2.67" class="primitive"/>
  </g>
  <g transform="translate(76.17,15.23)">
    <circle cx="0" cy="0" r="2.67" class="primitive"/>
  </g>
  <g transform="translate(61.28,8.33)">
    <circle cx="0" cy="0" r="2.67" class="primitive"/>
  </g>
</g>
<g font-size="4" stroke="#000000" stroke-opacity="0.000" fill="#000000" id="img-acc33f33-5">
  <g transform="translate(21.7,67.78)">
    <g class="primitive">
      <text text-anchor="middle" dy="0.35em">(:D=>0.4)</text>
    </g>
  </g>
  <g transform="translate(26.04,47.61)">
    <g class="primitive">
      <text text-anchor="middle" dy="0.35em">(:B=>0.5)</text>
    </g>
  </g>
  <g transform="translate(9.27,79.91)">
    <g class="primitive">
      <text text-anchor="middle" dy="0.35em">(:A=>1)</text>
    </g>
  </g>
  <g transform="translate(51.34,52.16)">
    <g class="primitive">
      <text text-anchor="middle" dy="0.35em">(:E=>10.0)</text>
    </g>
  </g>
  <g transform="translate(17.59,30.35)">
    <g class="primitive">
      <text text-anchor="middle" dy="0.35em">(:E=>20.0)</text>
    </g>
  </g>
  <g transform="translate(8.33,43.08)">
    <g class="primitive">
      <text text-anchor="middle" dy="0.35em">(:E=>30.0)</text>
    </g>
  </g>
  <g transform="translate(38.19,71.84)">
    <g class="primitive">
      <text text-anchor="middle" dy="0.35em">(:B=>0.55)</text>
    </g>
  </g>
  <g transform="translate(36.53,91.67)">
    <g class="primitive">
      <text text-anchor="middle" dy="0.35em">(:E=>25.0)</text>
    </g>
  </g>
  <g transform="translate(74.1,64.95)">
    <g class="primitive">
      <text text-anchor="middle" dy="0.35em">(:ic_alg=>FirstAlg(2))</text>
    </g>
  </g>
  <g transform="translate(91.67,65.14)">
    <g class="primitive">
      <text text-anchor="middle" dy="0.35em">(:q₂=>[0.775686, 0.489989],:q₀=>[0.20884, 0.0827676])</text>
    </g>
  </g>
  <g transform="translate(84.93,80.67)">
    <g class="primitive">
      <text text-anchor="middle" dy="0.35em">(:q₂=>[0.141311, 0.141301],:q₀=>[0.146882, 0.111318])</text>
    </g>
  </g>
  <g transform="translate(62.5,27.15)">
    <g class="primitive">
      <text text-anchor="middle" dy="0.35em">(:ic_alg=>SecondAlg(2, true))</text>
    </g>
  </g>
  <g transform="translate(76.17,15.23)">
    <g class="primitive">
      <text text-anchor="middle" dy="0.35em">(:q₂=>[0.288533, 0.563585],:q₀=>[0.544969, 0.104882])</text>
    </g>
  </g>
  <g transform="translate(61.28,8.33)">
    <g class="primitive">
      <text text-anchor="middle" dy="0.35em">(:q₂=>[0.0944024, 0.525192],:q₀=>[0.839121, 0.320536])</text>
    </g>
  </g>
</g>
</svg>
