<?xml version="1.0" encoding="UTF-8"?>
<svg xmlns="http://www.w3.org/2000/svg"
     xmlns:xlink="http://www.w3.org/1999/xlink"
     version="1.2"
     width="100mm" height="40mm" viewBox="0 0 100 40"
     stroke="none"
     fill="#000000"
     stroke-width="0.3"
     font-size="3.88"
>
<defs>
  <marker id="arrow" markerWidth="15" markerHeight="7" refX="5" refY="3.5" orient="auto" markerUnits="strokeWidth">
    <path d="M0,0 L15,3.5 L0,7 z" stroke="context-stroke" fill="context-stroke"/>
  </marker>
</defs>
<g stroke-width="1.34" fill="#000000" fill-opacity="0.000" stroke="#D3D3D3" id="img-2780fc1f-1">
  <g transform="translate(46.96,28.42)">
    <path fill="none" d="M-2.22,6.4 L 2.22 -6.4" class="primitive"/>
  </g>
  <g transform="translate(29.08,19.06)">
    <path fill="none" d="M16.13,0.86 L -16.13 -0.86" class="primitive"/>
  </g>
  <g transform="translate(70.74,21.66)">
    <path fill="none" d="M-16.34,-1.16 L 16.34 1.16" class="primitive"/>
  </g>
  <g transform="translate(51.25,11.75)">
    <path fill="none" d="M-1.11,6.56 L 1.11 -6.56" class="primitive"/>
  </g>
</g>
<g stroke-width="1.34" stroke="#D3D3D3" id="img-2780fc1f-2">
  <g transform="translate(48.82,23.05)">
    <path fill="none" d="M-1.59,0.44 L 0.36 -1.03 1.23 0.6" class="primitive"/>
  </g>
  <g transform="translate(15.54,18.34)">
    <path fill="none" d="M1.1,0.63 L -2.59 -0.14 1.48 -0.5" class="primitive"/>
  </g>
  <g transform="translate(84.51,22.63)">
    <path fill="none" d="M-1.04,-0.65 L 2.57 0.18 -1.53 0.47" class="primitive"/>
  </g>
  <g transform="translate(52.19,6.23)">
    <path fill="none" d="M-1.51,0.48 L 0.18 -1.04 1.33 0.56" class="primitive"/>
  </g>
</g>
<g font-size="4" stroke="#000000" stroke-opacity="0.000" fill="#000000" id="img-2780fc1f-3">
  <g transform="translate(48.39,24.3)">
    <g class="primitive">
      <text text-anchor="middle" dy="0.35em">{2, 3, 1}</text>
    </g>
  </g>
  <g transform="translate(18.71,18.51)">
    <g class="primitive">
      <text text-anchor="middle" dy="0.35em">{1}</text>
    </g>
  </g>
  <g transform="translate(81.21,22.4)">
    <g class="primitive">
      <text text-anchor="middle" dy="0.35em">{2}</text>
    </g>
  </g>
  <g transform="translate(51.96,7.54)">
    <g class="primitive">
      <text text-anchor="middle" dy="0.35em">{3}</text>
    </g>
  </g>
</g>
<g stroke-width="0" stroke="#000000" stroke-opacity="0.000" fill="#40E0D0" id="img-2780fc1f-4">
  <g transform="translate(44.09,36.67)">
    <circle cx="0" cy="0" r="4.47" class="primitive"/>
  </g>
  <g transform="translate(49.82,20.17)">
    <circle cx="0" cy="0" r="4.47" class="primitive"/>
  </g>
  <g transform="translate(8.33,17.95)">
    <circle cx="0" cy="0" r="4.47" class="primitive"/>
  </g>
  <g transform="translate(91.67,23.14)">
    <circle cx="0" cy="0" r="4.47" class="primitive"/>
  </g>
  <g transform="translate(52.68,3.33)">
    <circle cx="0" cy="0" r="4.47" class="primitive"/>
  </g>
</g>
<g font-size="4" stroke="#000000" stroke-opacity="0.000" fill="#000000" id="img-2780fc1f-5">
  <g transform="translate(44.09,36.67)">
    <g class="primitive">
      <text text-anchor="middle" dy="0.35em">(P = 1,)</text>
    </g>
  </g>
  <g transform="translate(49.82,20.17)">
    <g class="primitive">
      <text text-anchor="middle" dy="0.35em">(alg = "alg1",)</text>
    </g>
  </g>
  <g transform="translate(8.33,17.95)">
    <g class="primitive">
      <text text-anchor="middle" dy="0.35em">(x = 10.0,)</text>
    </g>
  </g>
  <g transform="translate(91.67,23.14)">
    <g class="primitive">
      <text text-anchor="middle" dy="0.35em">(x = 20.0,)</text>
    </g>
  </g>
  <g transform="translate(52.68,3.33)">
    <g class="primitive">
      <text text-anchor="middle" dy="0.35em">(x = 30.0,)</text>
    </g>
  </g>
</g>
</svg>
