<?xml version="1.0" encoding="UTF-8"?>
<svg xmlns="http://www.w3.org/2000/svg"
     xmlns:xlink="http://www.w3.org/1999/xlink"
     version="1.2"
     width="120mm" height="40mm" viewBox="0 0 120 40"
     stroke="none"
     fill="#000000"
     stroke-width="0.3"
     font-size="3.88"
>
<defs>
  <marker id="arrow" markerWidth="15" markerHeight="7" refX="5" refY="3.5" orient="auto" markerUnits="strokeWidth">
    <path d="M0,0 L15,3.5 L0,7 z" stroke="context-stroke" fill="context-stroke"/>
  </marker>
</defs>
<g stroke-width="1.34" fill="#000000" fill-opacity="0.000" stroke="#D3D3D3" id="img-107b4d75-1">
  <g transform="translate(85.86,17.11)">
    <path fill="none" d="M18.59,-0.75 L -18.59 0.75" class="primitive"/>
  </g>
  <g transform="translate(35.86,23.09)">
    <path fill="none" d="M21.03,-4.07 L -21.03 4.07" class="primitive"/>
  </g>
  <g transform="translate(44.41,10.71)">
    <path fill="none" d="M13.87,5.91 L -13.87 -5.91" class="primitive"/>
  </g>
  <g transform="translate(75.7,27.38)">
    <path fill="none" d="M-11.47,-7.62 L 11.47 7.62" class="primitive"/>
  </g>
</g>
<g stroke-width="1.34" stroke="#D3D3D3" id="img-107b4d75-2">
  <g transform="translate(70.38,17.74)">
    <path fill="none" d="M1.76,0.5 L -3.11 0.13 1.35 -0.63" class="primitive"/>
  </g>
  <g transform="translate(17.54,26.63)">
    <path fill="none" d="M2.21,0.23 L -2.71 0.52 0.5 -0.76" class="primitive"/>
  </g>
  <g transform="translate(32.48,5.62)">
    <path fill="none" d="M-0.38,0.76 L -1.93 -0.82 2.31 0.06" class="primitive"/>
  </g>
  <g transform="translate(85.76,34.07)">
    <path fill="none" d="M0.83,-0.72 L 1.4 0.93 -2.23 -0.21" class="primitive"/>
  </g>
</g>
<g font-size="4" stroke="#000000" stroke-opacity="0.000" fill="#000000" id="img-107b4d75-3">
  <g transform="translate(76.59,18.53)">
    <g class="primitive">
      <text text-anchor="middle" dy="0.35em">[1, 2, 3]</text>
    </g>
  </g>
  <g transform="translate(25.73,26.52)">
    <g class="primitive">
      <text text-anchor="middle" dy="0.35em">[1]</text>
    </g>
  </g>
  <g transform="translate(38.55,7.95)">
    <g class="primitive">
      <text text-anchor="middle" dy="0.35em">[2]</text>
    </g>
  </g>
  <g transform="translate(85.48,32.95)">
    <g class="primitive">
      <text text-anchor="middle" dy="0.35em">[3]</text>
    </g>
  </g>
</g>
<g stroke-width="0" stroke="#000000" stroke-opacity="0.000" fill="#40E0D0" id="img-107b4d75-4">
  <g transform="translate(110,16.14)">
    <circle cx="0" cy="0" r="5.37" class="primitive"/>
  </g>
  <g transform="translate(61.72,18.09)">
    <circle cx="0" cy="0" r="5.37" class="primitive"/>
  </g>
  <g transform="translate(10,28.09)">
    <circle cx="0" cy="0" r="5.37" class="primitive"/>
  </g>
  <g transform="translate(27.1,3.33)">
    <circle cx="0" cy="0" r="5.37" class="primitive"/>
  </g>
  <g transform="translate(89.67,36.67)">
    <circle cx="0" cy="0" r="5.37" class="primitive"/>
  </g>
</g>
<g font-size="4" stroke="#000000" stroke-opacity="0.000" fill="#000000" id="img-107b4d75-5">
  <g transform="translate(110,16.14)">
    <g class="primitive">
      <text text-anchor="middle" dy="0.35em">(:P=>1)</text>
    </g>
  </g>
  <g transform="translate(61.72,18.09)">
    <g class="primitive">
      <text text-anchor="middle" dy="0.35em">(:alg=>"alg1")</text>
    </g>
  </g>
  <g transform="translate(10,28.09)">
    <g class="primitive">
      <text text-anchor="middle" dy="0.35em">(:x=>10.0)</text>
    </g>
  </g>
  <g transform="translate(27.1,3.33)">
    <g class="primitive">
      <text text-anchor="middle" dy="0.35em">(:x=>20.0)</text>
    </g>
  </g>
  <g transform="translate(89.67,36.67)">
    <g class="primitive">
      <text text-anchor="middle" dy="0.35em">(:x=>30.0)</text>
    </g>
  </g>
</g>
</svg>
