<?xml version="1.0" encoding="UTF-8"?>
<svg xmlns="http://www.w3.org/2000/svg"
     xmlns:xlink="http://www.w3.org/1999/xlink"
     version="1.2"
     width="100mm" height="40mm" viewBox="0 0 100 40"
     stroke="none"
     fill="#000000"
     stroke-width="0.3"
     font-size="3.88"
>
<defs>
  <marker id="arrow" markerWidth="15" markerHeight="7" refX="5" refY="3.5" orient="auto" markerUnits="strokeWidth">
    <path d="M0,0 L15,3.5 L0,7 z" stroke="context-stroke" fill="context-stroke"/>
  </marker>
</defs>
<g stroke-width="1.34" fill="#000000" fill-opacity="0.000" stroke="#D3D3D3" id="img-71c95b2d-1">
  <g transform="translate(46.44,11.65)">
    <path fill="none" d="M-2.4,-6.48 L 2.4 6.48" class="primitive"/>
  </g>
  <g transform="translate(50.72,28.32)">
    <path fill="none" d="M-0.93,-6.49 L 0.93 6.49" class="primitive"/>
  </g>
  <g transform="translate(28.93,20.35)">
    <path fill="none" d="M15.94,-0.29 L -15.94 0.29" class="primitive"/>
  </g>
  <g transform="translate(70.59,19.81)">
    <path fill="none" d="M-16.41,0.13 L 16.41 -0.13" class="primitive"/>
  </g>
</g>
<g stroke-width="1.34" stroke="#D3D3D3" id="img-71c95b2d-2">
  <g transform="translate(48.46,17.1)">
    <path fill="none" d="M1.22,-0.6 L 0.38 1.03 -1.6 -0.43" class="primitive"/>
  </g>
  <g transform="translate(51.5,33.76)">
    <path fill="none" d="M1.35,-0.55 L 0.15 1.04 -1.5 -0.49" class="primitive"/>
  </g>
  <g transform="translate(15.59,20.59)">
    <path fill="none" d="M1.37,0.55 L -2.61 0.05 1.24 -0.59" class="primitive"/>
  </g>
  <g transform="translate(84.4,19.7)">
    <path fill="none" d="M-1.33,-0.56 L 2.61 -0.02 -1.28 0.58" class="primitive"/>
  </g>
</g>
<g font-size="4" stroke="#000000" stroke-opacity="0.000" fill="#000000" id="img-71c95b2d-3">
  <g transform="translate(47.98,15.81)">
    <g class="primitive">
      <text text-anchor="middle" dy="0.35em">{2, 3, 1}</text>
    </g>
  </g>
  <g transform="translate(51.32,32.49)">
    <g class="primitive">
      <text text-anchor="middle" dy="0.35em">{1}</text>
    </g>
  </g>
  <g transform="translate(18.63,20.54)">
    <g class="primitive">
      <text text-anchor="middle" dy="0.35em">{2}</text>
    </g>
  </g>
  <g transform="translate(81.13,19.73)">
    <g class="primitive">
      <text text-anchor="middle" dy="0.35em">{3}</text>
    </g>
  </g>
</g>
<g stroke-width="0" stroke="#000000" stroke-opacity="0.000" fill="#40E0D0" id="img-71c95b2d-4">
  <g transform="translate(43.37,3.33)">
    <circle cx="0" cy="0" r="4.47" class="primitive"/>
  </g>
  <g transform="translate(49.52,19.97)">
    <circle cx="0" cy="0" r="4.47" class="primitive"/>
  </g>
  <g transform="translate(51.91,36.67)">
    <circle cx="0" cy="0" r="4.47" class="primitive"/>
  </g>
  <g transform="translate(8.33,20.73)">
    <circle cx="0" cy="0" r="4.47" class="primitive"/>
  </g>
  <g transform="translate(91.67,19.65)">
    <circle cx="0" cy="0" r="4.47" class="primitive"/>
  </g>
</g>
<g font-size="4" stroke="#000000" stroke-opacity="0.000" fill="#000000" id="img-71c95b2d-5">
  <g transform="translate(43.37,3.33)">
    <g class="primitive">
      <text text-anchor="middle" dy="0.35em">(P = 1,)</text>
    </g>
  </g>
  <g transform="translate(49.52,19.97)">
    <g class="primitive">
      <text text-anchor="middle" dy="0.35em">(alg = "alg1",)</text>
    </g>
  </g>
  <g transform="translate(51.91,36.67)">
    <g class="primitive">
      <text text-anchor="middle" dy="0.35em">(x = 10.0,)</text>
    </g>
  </g>
  <g transform="translate(8.33,20.73)">
    <g class="primitive">
      <text text-anchor="middle" dy="0.35em">(x = 20.0,)</text>
    </g>
  </g>
  <g transform="translate(91.67,19.65)">
    <g class="primitive">
      <text text-anchor="middle" dy="0.35em">(x = 30.0,)</text>
    </g>
  </g>
</g>
</svg>
