<?xml version="1.0" encoding="UTF-8"?>
<svg xmlns="http://www.w3.org/2000/svg"
     xmlns:xlink="http://www.w3.org/1999/xlink"
     version="1.2"
     width="120mm" height="45mm" viewBox="0 0 120 45"
     stroke="none"
     fill="#000000"
     stroke-width="0.3"
     font-size="3.88"
>
<defs>
  <marker id="arrow" markerWidth="15" markerHeight="7" refX="5" refY="3.5" orient="auto" markerUnits="strokeWidth">
    <path d="M0,0 L15,3.5 L0,7 z" stroke="context-stroke" fill="context-stroke"/>
  </marker>
</defs>
<g stroke-width="1.34" fill="#000000" fill-opacity="0.000" stroke="#D3D3D3" id="img-107b4d75-1">
  <g transform="translate(86.46,32.42)">
    <path fill="none" d="M19.58,7.34 L -19.58 -7.34" class="primitive"/>
  </g>
  <g transform="translate(37.84,16.69)">
    <path fill="none" d="M20.58,5.66 L -20.58 -5.66" class="primitive"/>
  </g>
  <g transform="translate(36.46,30.19)">
    <path fill="none" d="M21.81,-5.43 L -21.81 5.43" class="primitive"/>
  </g>
  <g transform="translate(79.11,13.67)">
    <path fill="none" d="M-13.27,8.14 L 13.27 -8.14" class="primitive"/>
  </g>
</g>
<g stroke-width="1.34" stroke="#D3D3D3" id="img-107b4d75-2">
  <g transform="translate(69.1,25.91)">
    <path fill="none" d="M-0.1,0.87 L -2.21 -0.83 2.32 -0.04" class="primitive"/>
  </g>
  <g transform="translate(19.78,11.73)">
    <path fill="none" d="M0.25,0.86 L -2.53 -0.69 2.27 -0.17" class="primitive"/>
  </g>
  <g transform="translate(17.27,34.97)">
    <path fill="none" d="M2.25,0.21 L -2.61 0.65 0.36 -0.86" class="primitive"/>
  </g>
  <g transform="translate(90.75,6.54)">
    <path fill="none" d="M-2.28,0.17 L 1.63 -1 0.64 0.84" class="primitive"/>
  </g>
</g>
<g font-size="4" stroke="#000000" stroke-opacity="0.000" fill="#000000" id="img-107b4d75-3">
  <g transform="translate(77.49,29.06)">
    <g class="primitive">
      <text text-anchor="middle" dy="0.35em">[1, 2, 3]</text>
    </g>
  </g>
  <g transform="translate(28.09,14.29)">
    <g class="primitive">
      <text text-anchor="middle" dy="0.35em">[1]</text>
    </g>
  </g>
  <g transform="translate(26.03,34.53)">
    <g class="primitive">
      <text text-anchor="middle" dy="0.35em">[2]</text>
    </g>
  </g>
  <g transform="translate(90,9.76)">
    <g class="primitive">
      <text text-anchor="middle" dy="0.35em">[3]</text>
    </g>
  </g>
</g>
<g stroke-width="0" stroke="#000000" stroke-opacity="0.000" fill="#40E0D0" id="img-107b4d75-4">
  <g transform="translate(110,41.25)">
    <circle cx="0" cy="0" r="5.37" class="primitive"/>
  </g>
  <g transform="translate(62.93,23.6)">
    <circle cx="0" cy="0" r="5.37" class="primitive"/>
  </g>
  <g transform="translate(12.75,9.79)">
    <circle cx="0" cy="0" r="5.37" class="primitive"/>
  </g>
  <g transform="translate(10,36.78)">
    <circle cx="0" cy="0" r="5.37" class="primitive"/>
  </g>
  <g transform="translate(95.3,3.75)">
    <circle cx="0" cy="0" r="5.37" class="primitive"/>
  </g>
</g>
<g font-size="4" stroke="#000000" stroke-opacity="0.000" fill="#000000" id="img-107b4d75-5">
  <g transform="translate(110,41.25)">
    <g class="primitive">
      <text text-anchor="middle" dy="0.35em">(:data=>(P = 1,))</text>
    </g>
  </g>
  <g transform="translate(62.93,23.6)">
    <g class="primitive">
      <text text-anchor="middle" dy="0.35em">(:data=>(alg = "alg1",))</text>
    </g>
  </g>
  <g transform="translate(12.75,9.79)">
    <g class="primitive">
      <text text-anchor="middle" dy="0.35em">(:data=>(x = 10.0,))</text>
    </g>
  </g>
  <g transform="translate(10,36.78)">
    <g class="primitive">
      <text text-anchor="middle" dy="0.35em">(:data=>(x = 20.0,))</text>
    </g>
  </g>
  <g transform="translate(95.3,3.75)">
    <g class="primitive">
      <text text-anchor="middle" dy="0.35em">(:data=>(x = 30.0,))</text>
    </g>
  </g>
</g>
</svg>
