<?xml version="1.0" encoding="UTF-8"?>
<svg xmlns="http://www.w3.org/2000/svg"
     xmlns:xlink="http://www.w3.org/1999/xlink"
     version="1.2"
     width="100mm" height="40mm" viewBox="0 0 100 40"
     stroke="none"
     fill="#000000"
     stroke-width="0.3"
     font-size="3.88"
>
<defs>
  <marker id="arrow" markerWidth="15" markerHeight="7" refX="5" refY="3.5" orient="auto" markerUnits="strokeWidth">
    <path d="M0,0 L15,3.5 L0,7 z" stroke="context-stroke" fill="context-stroke"/>
  </marker>
</defs>
<g stroke-width="1.34" fill="#000000" fill-opacity="0.000" stroke="#D3D3D3" id="img-834f77c0-1">
  <g transform="translate(51.88,28.37)">
    <path fill="none" d="M1.37,6.44 L -1.37 -6.44" class="primitive"/>
  </g>
  <g transform="translate(70.89,19.43)">
    <path fill="none" d="M-16.13,0.5 L 16.13 -0.5" class="primitive"/>
  </g>
  <g transform="translate(49.02,11.71)">
    <path fill="none" d="M0.85,6.51 L -0.85 -6.51" class="primitive"/>
  </g>
  <g transform="translate(29.22,21.08)">
    <path fill="none" d="M16.26,-0.78 L -16.26 0.78" class="primitive"/>
  </g>
</g>
<g stroke-width="1.34" stroke="#D3D3D3" id="img-834f77c0-2">
  <g transform="translate(50.73,22.98)">
    <path fill="none" d="M-1.31,0.57 L -0.22 -1.04 1.53 0.47" class="primitive"/>
  </g>
  <g transform="translate(84.42,19.01)">
    <path fill="none" d="M-1.41,-0.53 L 2.6 -0.08 -1.19 0.61" class="primitive"/>
  </g>
  <g transform="translate(48.3,6.24)">
    <path fill="none" d="M-1.36,0.55 L -0.14 -1.04 1.49 0.49" class="primitive"/>
  </g>
  <g transform="translate(15.55,21.73)">
    <path fill="none" d="M1.46,0.5 L -2.59 0.12 1.13 -0.63" class="primitive"/>
  </g>
</g>
<g font-size="4" stroke="#000000" stroke-opacity="0.000" fill="#000000" id="img-834f77c0-3">
  <g transform="translate(51,24.23)">
    <g class="primitive">
      <text text-anchor="middle" dy="0.35em">{2, 3, 1}</text>
    </g>
  </g>
  <g transform="translate(81.28,19.11)">
    <g class="primitive">
      <text text-anchor="middle" dy="0.35em">{1}</text>
    </g>
  </g>
  <g transform="translate(48.47,7.52)">
    <g class="primitive">
      <text text-anchor="middle" dy="0.35em">{2}</text>
    </g>
  </g>
  <g transform="translate(18.78,21.58)">
    <g class="primitive">
      <text text-anchor="middle" dy="0.35em">{3}</text>
    </g>
  </g>
</g>
<g stroke-width="0" stroke="#000000" stroke-opacity="0.000" fill="#40E0D0" id="img-834f77c0-4">
  <g transform="translate(53.64,36.67)">
    <circle cx="0" cy="0" r="4.47" class="primitive"/>
  </g>
  <g transform="translate(50.11,20.08)">
    <circle cx="0" cy="0" r="4.47" class="primitive"/>
  </g>
  <g transform="translate(91.67,18.78)">
    <circle cx="0" cy="0" r="4.47" class="primitive"/>
  </g>
  <g transform="translate(47.93,3.33)">
    <circle cx="0" cy="0" r="4.47" class="primitive"/>
  </g>
  <g transform="translate(8.33,22.08)">
    <circle cx="0" cy="0" r="4.47" class="primitive"/>
  </g>
</g>
<g font-size="4" stroke="#000000" stroke-opacity="0.000" fill="#000000" id="img-834f77c0-5">
  <g transform="translate(53.64,36.67)">
    <g class="primitive">
      <text text-anchor="middle" dy="0.35em">(P = 1,)</text>
    </g>
  </g>
  <g transform="translate(50.11,20.08)">
    <g class="primitive">
      <text text-anchor="middle" dy="0.35em">(alg = "alg1",)</text>
    </g>
  </g>
  <g transform="translate(91.67,18.78)">
    <g class="primitive">
      <text text-anchor="middle" dy="0.35em">(x = 10.0,)</text>
    </g>
  </g>
  <g transform="translate(47.93,3.33)">
    <g class="primitive">
      <text text-anchor="middle" dy="0.35em">(x = 20.0,)</text>
    </g>
  </g>
  <g transform="translate(8.33,22.08)">
    <g class="primitive">
      <text text-anchor="middle" dy="0.35em">(x = 30.0,)</text>
    </g>
  </g>
</g>
</svg>
