<?xml version="1.0" encoding="UTF-8"?>
<svg xmlns="http://www.w3.org/2000/svg"
     xmlns:xlink="http://www.w3.org/1999/xlink"
     version="1.2"
     width="120mm" height="45mm" viewBox="0 0 120 45"
     stroke="none"
     fill="#000000"
     stroke-width="0.3"
     font-size="3.88"
>
<defs>
  <marker id="arrow" markerWidth="15" markerHeight="7" refX="5" refY="3.5" orient="auto" markerUnits="strokeWidth">
    <path d="M0,0 L15,3.5 L0,7 z" stroke="context-stroke" fill="context-stroke"/>
  </marker>
</defs>
<g stroke-width="1.34" fill="#000000" fill-opacity="0.000" stroke="#D3D3D3" id="img-107b4d75-1">
  <g transform="translate(65.21,30.9)">
    <path fill="none" d="M9.08,8.41 L -9.08 -8.41" class="primitive"/>
  </g>
  <g transform="translate(32.7,12.15)">
    <path fill="none" d="M17.47,6.88 L -17.47 -6.88" class="primitive"/>
  </g>
  <g transform="translate(82.02,18.32)">
    <path fill="none" d="M-22.52,1.79 L 22.52 -1.79" class="primitive"/>
  </g>
  <g transform="translate(32.02,26.28)">
    <path fill="none" d="M17.43,-4.54 L -17.43 4.54" class="primitive"/>
  </g>
</g>
<g stroke-width="1.34" stroke="#D3D3D3" id="img-107b4d75-2">
  <g transform="translate(57.31,23.58)">
    <path fill="none" d="M-1,0.79 L -1.18 -1.09 2.17 0.3" class="primitive"/>
  </g>
  <g transform="translate(17.39,6.12)">
    <path fill="none" d="M-0.16,0.87 L -2.16 -0.85 2.32 -0.02" class="primitive"/>
  </g>
  <g transform="translate(101.47,16.77)">
    <path fill="none" d="M-1.89,-0.51 L 3.06 -0.24 -1.18 0.75" class="primitive"/>
  </g>
  <g transform="translate(17.16,30.16)">
    <path fill="none" d="M2.26,0.19 L -2.57 0.67 0.31 -0.86" class="primitive"/>
  </g>
</g>
<g font-size="4" stroke="#000000" stroke-opacity="0.000" fill="#000000" id="img-107b4d75-3">
  <g transform="translate(62.42,26.77)">
    <g class="primitive">
      <text text-anchor="middle" dy="0.35em">[1, 2, 3]</text>
    </g>
  </g>
  <g transform="translate(24.83,9)">
    <g class="primitive">
      <text text-anchor="middle" dy="0.35em">[1]</text>
    </g>
  </g>
  <g transform="translate(98.8,18.25)">
    <g class="primitive">
      <text text-anchor="middle" dy="0.35em">[2]</text>
    </g>
  </g>
  <g transform="translate(23.8,30.2)">
    <g class="primitive">
      <text text-anchor="middle" dy="0.35em">[3]</text>
    </g>
  </g>
</g>
<g stroke-width="0" stroke="#000000" stroke-opacity="0.000" fill="#40E0D0" id="img-107b4d75-4">
  <g transform="translate(76.4,41.25)">
    <circle cx="0" cy="0" r="5.37" class="primitive"/>
  </g>
  <g transform="translate(54.03,20.54)">
    <circle cx="0" cy="0" r="5.37" class="primitive"/>
  </g>
  <g transform="translate(11.37,3.75)">
    <circle cx="0" cy="0" r="5.37" class="primitive"/>
  </g>
  <g transform="translate(110,16.09)">
    <circle cx="0" cy="0" r="5.37" class="primitive"/>
  </g>
  <g transform="translate(10,32.02)">
    <circle cx="0" cy="0" r="5.37" class="primitive"/>
  </g>
</g>
<g font-size="4" stroke="#000000" stroke-opacity="0.000" fill="#000000" id="img-107b4d75-5">
  <g transform="translate(76.4,41.25)">
    <g class="primitive">
      <text text-anchor="middle" dy="0.35em">(P = 1,)</text>
    </g>
  </g>
  <g transform="translate(54.03,20.54)">
    <g class="primitive">
      <text text-anchor="middle" dy="0.35em">(alg = "alg1",)</text>
    </g>
  </g>
  <g transform="translate(11.37,3.75)">
    <g class="primitive">
      <text text-anchor="middle" dy="0.35em">(x = 10.0,)</text>
    </g>
  </g>
  <g transform="translate(110,16.09)">
    <g class="primitive">
      <text text-anchor="middle" dy="0.35em">(x = 20.0,)</text>
    </g>
  </g>
  <g transform="translate(10,32.02)">
    <g class="primitive">
      <text text-anchor="middle" dy="0.35em">(x = 30.0,)</text>
    </g>
  </g>
</g>
</svg>
