<?xml version="1.0" encoding="UTF-8"?>
<svg xmlns="http://www.w3.org/2000/svg"
     xmlns:xlink="http://www.w3.org/1999/xlink"
     version="1.2"
     width="100mm" height="40mm" viewBox="0 0 100 40"
     stroke="none"
     fill="#000000"
     stroke-width="0.3"
     font-size="3.88"
>
<defs>
  <marker id="arrow" markerWidth="15" markerHeight="7" refX="5" refY="3.5" orient="auto" markerUnits="strokeWidth">
    <path d="M0,0 L15,3.5 L0,7 z" stroke="context-stroke" fill="context-stroke"/>
  </marker>
</defs>
<g stroke-width="1.34" fill="#000000" fill-opacity="0.000" stroke="#D3D3D3" id="img-fdd3990e-1">
  <g transform="translate(70.84,20.83)">
    <path fill="none" d="M16.23,1.03 L -16.23 -1.03" class="primitive"/>
  </g>
  <g transform="translate(29.17,17.13)">
    <path fill="none" d="M16.36,1.87 L -16.36 -1.87" class="primitive"/>
  </g>
  <g transform="translate(57.54,11.42)">
    <path fill="none" d="M-5.9,6.34 L 5.9 -6.34" class="primitive"/>
  </g>
  <g transform="translate(44.6,28.09)">
    <path fill="none" d="M4.28,-6.77 L -4.28 6.77" class="primitive"/>
  </g>
</g>
<g stroke-width="1.34" stroke="#D3D3D3" id="img-fdd3990e-2">
  <g transform="translate(57.19,19.96)">
    <path fill="none" d="M1.07,0.64 L -2.58 -0.16 1.51 -0.48" class="primitive"/>
  </g>
  <g transform="translate(15.32,15.55)">
    <path fill="none" d="M0.86,0.69 L -2.51 -0.29 1.65 -0.4" class="primitive"/>
  </g>
  <g transform="translate(62.54,6.06)">
    <path fill="none" d="M-1.79,0.29 L 0.91 -0.98 0.88 0.69" class="primitive"/>
  </g>
  <g transform="translate(40.96,33.85)">
    <path fill="none" d="M1.7,-0.37 L -0.64 1.01 -1.06 -0.65" class="primitive"/>
  </g>
</g>
<g font-size="4" stroke="#000000" stroke-opacity="0.000" fill="#000000" id="img-fdd3990e-3">
  <g transform="translate(60.43,20.17)">
    <g class="primitive">
      <text text-anchor="middle" dy="0.35em">{2, 3, 1}</text>
    </g>
  </g>
  <g transform="translate(18.75,15.94)">
    <g class="primitive">
      <text text-anchor="middle" dy="0.35em">{1}</text>
    </g>
  </g>
  <g transform="translate(61.31,7.38)">
    <g class="primitive">
      <text text-anchor="middle" dy="0.35em">{2}</text>
    </g>
  </g>
  <g transform="translate(41.89,32.38)">
    <g class="primitive">
      <text text-anchor="middle" dy="0.35em">{3}</text>
    </g>
  </g>
</g>
<g stroke-width="0" stroke="#000000" stroke-opacity="0.000" fill="#40E0D0" id="img-fdd3990e-4">
  <g transform="translate(91.67,22.15)">
    <circle cx="0" cy="0" r="4.47" class="primitive"/>
  </g>
  <g transform="translate(50.01,19.51)">
    <circle cx="0" cy="0" r="4.47" class="primitive"/>
  </g>
  <g transform="translate(8.33,14.75)">
    <circle cx="0" cy="0" r="4.47" class="primitive"/>
  </g>
  <g transform="translate(65.07,3.33)">
    <circle cx="0" cy="0" r="4.47" class="primitive"/>
  </g>
  <g transform="translate(39.18,36.67)">
    <circle cx="0" cy="0" r="4.47" class="primitive"/>
  </g>
</g>
<g font-size="4" stroke="#000000" stroke-opacity="0.000" fill="#000000" id="img-fdd3990e-5">
  <g transform="translate(91.67,22.15)">
    <g class="primitive">
      <text text-anchor="middle" dy="0.35em">(P = 1,)</text>
    </g>
  </g>
  <g transform="translate(50.01,19.51)">
    <g class="primitive">
      <text text-anchor="middle" dy="0.35em">(alg = "alg1",)</text>
    </g>
  </g>
  <g transform="translate(8.33,14.75)">
    <g class="primitive">
      <text text-anchor="middle" dy="0.35em">(x = 10.0,)</text>
    </g>
  </g>
  <g transform="translate(65.07,3.33)">
    <g class="primitive">
      <text text-anchor="middle" dy="0.35em">(x = 20.0,)</text>
    </g>
  </g>
  <g transform="translate(39.18,36.67)">
    <g class="primitive">
      <text text-anchor="middle" dy="0.35em">(x = 30.0,)</text>
    </g>
  </g>
</g>
</svg>
