<?xml version="1.0" encoding="UTF-8"?>
<svg xmlns="http://www.w3.org/2000/svg"
     xmlns:xlink="http://www.w3.org/1999/xlink"
     version="1.2"
     width="100mm" height="100mm" viewBox="0 0 100 100"
     stroke="none"
     fill="#000000"
     stroke-width="0.3"
     font-size="3.88"
>
<defs>
  <marker id="arrow" markerWidth="15" markerHeight="7" refX="5" refY="3.5" orient="auto" markerUnits="strokeWidth">
    <path d="M0,0 L15,3.5 L0,7 z" stroke="context-stroke" fill="context-stroke"/>
  </marker>
</defs>
<g stroke-width="0.8" fill="#000000" fill-opacity="0.000" stroke="#D3D3D3" id="img-cefbc779-1">
  <g transform="translate(68.01,28.67)">
    <path fill="none" d="M3.96,1.75 L -3.96 -1.75" class="primitive"/>
  </g>
  <g transform="translate(65.35,34.15)">
    <path fill="none" d="M6.49,-1.84 L -6.49 1.84" class="primitive"/>
  </g>
  <g transform="translate(55.15,38)">
    <path fill="none" d="M5.07,-9.73 L -5.07 9.73" class="primitive"/>
  </g>
  <g transform="translate(59.6,17.06)">
    <path fill="none" d="M1.31,6.01 L -1.31 -6.01" class="primitive"/>
  </g>
  <g transform="translate(66.66,18.34)">
    <path fill="none" d="M-3.57,5.16 L 3.57 -5.16" class="primitive"/>
  </g>
  <g transform="translate(83.09,30.56)">
    <path fill="none" d="M5.81,-0.67 L -5.81 0.67" class="primitive"/>
  </g>
  <g transform="translate(52.08,62.47)">
    <path fill="none" d="M-2.57,-9.58 L 2.57 9.58" class="primitive"/>
  </g>
  <g transform="translate(36.74,52.77)">
    <path fill="none" d="M9.33,-1.99 L -9.33 1.99" class="primitive"/>
  </g>
  <g transform="translate(52.49,43.48)">
    <path fill="none" d="M2.36,-4.28 L -2.36 4.28" class="primitive"/>
  </g>
  <g transform="translate(48.92,32.77)">
    <path fill="none" d="M4.82,2.64 L -4.82 -2.64" class="primitive"/>
  </g>
  <g transform="translate(53.73,83.2)">
    <path fill="none" d="M1.11,-5.73 L -1.11 5.73" class="primitive"/>
  </g>
  <g transform="translate(60.95,81.22)">
    <path fill="none" d="M-3.76,-4.37 L 3.76 4.37" class="primitive"/>
  </g>
  <g transform="translate(16.51,53.27)">
    <path fill="none" d="M5.48,1.38 L -5.48 -1.38" class="primitive"/>
  </g>
  <g transform="translate(18.35,60.53)">
    <path fill="none" d="M4.18,-3.42 L -4.18 3.42" class="primitive"/>
  </g>
</g>
<g stroke-width="0.8" stroke="#D3D3D3" id="img-cefbc779-2">
  <g transform="translate(66.44,27.98)">
    <path fill="none" d="M0.62,1.83 L -2.39 -1.06 1.77 -0.78" class="primitive"/>
  </g>
  <g transform="translate(61.38,35.28)">
    <path fill="none" d="M1.64,1.01 L -2.51 0.71 0.87 -1.73" class="primitive"/>
  </g>
  <g transform="translate(51.29,45.42)">
    <path fill="none" d="M1.87,-0.5 L -1.21 2.32 -0.66 -1.82" class="primitive"/>
  </g>
  <g transform="translate(58.85,13.6)">
    <path fill="none" d="M-1.11,1.58 L -0.56 -2.55 1.67 0.97" class="primitive"/>
  </g>
  <g transform="translate(68.74,15.33)">
    <path fill="none" d="M-1.91,0.26 L 1.48 -2.15 0.43 1.88" class="primitive"/>
  </g>
  <g transform="translate(79.88,30.93)">
    <path fill="none" d="M1.46,1.27 L -2.59 0.3 1.13 -1.56" class="primitive"/>
  </g>
  <g transform="translate(53.98,69.53)">
    <path fill="none" d="M1.04,-1.63 L 0.68 2.52 -1.71 -0.89" class="primitive"/>
  </g>
  <g transform="translate(29.96,54.22)">
    <path fill="none" d="M1.57,1.12 L -2.55 0.54 0.98 -1.67" class="primitive"/>
  </g>
  <g transform="translate(51.39,45.47)">
    <path fill="none" d="M1.88,-0.46 L -1.26 2.29 -0.62 -1.83" class="primitive"/>
  </g>
  <g transform="translate(46.39,31.38)">
    <path fill="none" d="M0.46,1.88 L -2.29 -1.25 1.83 -0.62" class="primitive"/>
  </g>
  <g transform="translate(53.12,86.37)">
    <path fill="none" d="M1.65,-1.01 L -0.5 2.56 -1.15 -1.55" class="primitive"/>
  </g>
  <g transform="translate(63.01,83.6)">
    <path fill="none" d="M0.23,-1.92 L 1.7 1.98 -1.93 -0.06" class="primitive"/>
  </g>
  <g transform="translate(13.56,52.53)">
    <path fill="none" d="M0.92,1.7 L -2.53 -0.64 1.61 -1.06" class="primitive"/>
  </g>
  <g transform="translate(16.19,62.3)">
    <path fill="none" d="M1.91,0.28 L -2.02 1.65 0.11 -1.93" class="primitive"/>
  </g>
</g>
<g font-size="4" stroke="#000000" stroke-opacity="0.000" fill="#000000" id="img-cefbc779-3">
  <g transform="translate(64.76,27.23)">
    <g class="primitive">
      <text text-anchor="middle" dy="0.35em">[1, 2, 3, 6, 7]</text>
    </g>
  </g>
  <g transform="translate(60.77,35.45)">
    <g class="primitive">
      <text text-anchor="middle" dy="0.35em">[4, 5]</text>
    </g>
  </g>
  <g transform="translate(51.97,44.1)">
    <g class="primitive">
      <text text-anchor="middle" dy="0.35em">[1, 6, 7]</text>
    </g>
  </g>
  <g transform="translate(58.65,12.7)">
    <g class="primitive">
      <text text-anchor="middle" dy="0.35em">[2]</text>
    </g>
  </g>
  <g transform="translate(69.23,14.62)">
    <g class="primitive">
      <text text-anchor="middle" dy="0.35em">[3]</text>
    </g>
  </g>
  <g transform="translate(78.81,31.06)">
    <g class="primitive">
      <text text-anchor="middle" dy="0.35em">[1, 2, 3, 4, 5, 6, 7]</text>
    </g>
  </g>
  <g transform="translate(53.73,68.6)">
    <g class="primitive">
      <text text-anchor="middle" dy="0.35em">[4, 5]</text>
    </g>
  </g>
  <g transform="translate(30.71,54.06)">
    <g class="primitive">
      <text text-anchor="middle" dy="0.35em">[6, 7]</text>
    </g>
  </g>
  <g transform="translate(50.64,46.84)">
    <g class="primitive">
      <text text-anchor="middle" dy="0.35em">[4, 5]</text>
    </g>
  </g>
  <g transform="translate(45.29,30.78)">
    <g class="primitive">
      <text text-anchor="middle" dy="0.35em">[5]</text>
    </g>
  </g>
  <g transform="translate(52.91,87.44)">
    <g class="primitive">
      <text text-anchor="middle" dy="0.35em">[4]</text>
    </g>
  </g>
  <g transform="translate(63.74,84.45)">
    <g class="primitive">
      <text text-anchor="middle" dy="0.35em">[5]</text>
    </g>
  </g>
  <g transform="translate(12.42,52.24)">
    <g class="primitive">
      <text text-anchor="middle" dy="0.35em">[6]</text>
    </g>
  </g>
  <g transform="translate(15.19,63.12)">
    <g class="primitive">
      <text text-anchor="middle" dy="0.35em">[7]</text>
    </g>
  </g>
</g>
<g stroke-width="0" stroke="#000000" stroke-opacity="0.000" fill="#40E0D0" id="img-cefbc779-4">
  <g transform="translate(74.52,31.55)">
    <circle cx="0" cy="0" r="2.67" class="primitive"/>
  </g>
  <g transform="translate(61.51,25.79)">
    <circle cx="0" cy="0" r="2.67" class="primitive"/>
  </g>
  <g transform="translate(91.67,29.58)">
    <circle cx="0" cy="0" r="2.67" class="primitive"/>
  </g>
  <g transform="translate(48.79,50.2)">
    <circle cx="0" cy="0" r="2.67" class="primitive"/>
  </g>
  <g transform="translate(57.7,8.33)">
    <circle cx="0" cy="0" r="2.67" class="primitive"/>
  </g>
  <g transform="translate(71.81,10.89)">
    <circle cx="0" cy="0" r="2.67" class="primitive"/>
  </g>
  <g transform="translate(56.19,36.75)">
    <circle cx="0" cy="0" r="2.67" class="primitive"/>
  </g>
  <g transform="translate(41.66,28.79)">
    <circle cx="0" cy="0" r="2.67" class="primitive"/>
  </g>
  <g transform="translate(55.37,74.74)">
    <circle cx="0" cy="0" r="2.67" class="primitive"/>
  </g>
  <g transform="translate(52.1,91.67)">
    <circle cx="0" cy="0" r="2.67" class="primitive"/>
  </g>
  <g transform="translate(66.53,87.69)">
    <circle cx="0" cy="0" r="2.67" class="primitive"/>
  </g>
  <g transform="translate(24.69,55.34)">
    <circle cx="0" cy="0" r="2.67" class="primitive"/>
  </g>
  <g transform="translate(8.33,51.21)">
    <circle cx="0" cy="0" r="2.67" class="primitive"/>
  </g>
  <g transform="translate(12.02,65.72)">
    <circle cx="0" cy="0" r="2.67" class="primitive"/>
  </g>
</g>
<g font-size="4" stroke="#000000" stroke-opacity="0.000" fill="#000000" id="img-cefbc779-5">
  <g transform="translate(74.52,31.55)">
    <g class="primitive">
      <text text-anchor="middle" dy="0.35em">(:D=>0.4)</text>
    </g>
  </g>
  <g transform="translate(61.51,25.79)">
    <g class="primitive">
      <text text-anchor="middle" dy="0.35em">(:B=>0.5)</text>
    </g>
  </g>
  <g transform="translate(91.67,29.58)">
    <g class="primitive">
      <text text-anchor="middle" dy="0.35em">(:A=>1)</text>
    </g>
  </g>
  <g transform="translate(48.79,50.2)">
    <g class="primitive">
      <text text-anchor="middle" dy="0.35em">(:E=>10.0)</text>
    </g>
  </g>
  <g transform="translate(57.7,8.33)">
    <g class="primitive">
      <text text-anchor="middle" dy="0.35em">(:E=>20.0)</text>
    </g>
  </g>
  <g transform="translate(71.81,10.89)">
    <g class="primitive">
      <text text-anchor="middle" dy="0.35em">(:E=>30.0)</text>
    </g>
  </g>
  <g transform="translate(56.19,36.75)">
    <g class="primitive">
      <text text-anchor="middle" dy="0.35em">(:B=>0.55)</text>
    </g>
  </g>
  <g transform="translate(41.66,28.79)">
    <g class="primitive">
      <text text-anchor="middle" dy="0.35em">(:E=>25.0)</text>
    </g>
  </g>
  <g transform="translate(55.37,74.74)">
    <g class="primitive">
      <text text-anchor="middle" dy="0.35em">(:ic_alg=>FirstAlg(2))</text>
    </g>
  </g>
  <g transform="translate(52.1,91.67)">
    <g class="primitive">
      <text text-anchor="middle" dy="0.35em">(:q₂=>[0.692668, 0.247871],:q₀=>[0.835541, 0.0531103])</text>
    </g>
  </g>
  <g transform="translate(66.53,87.69)">
    <g class="primitive">
      <text text-anchor="middle" dy="0.35em">(:q₂=>[0.291946, 0.760945],:q₀=>[0.11318, 0.381615])</text>
    </g>
  </g>
  <g transform="translate(24.69,55.34)">
    <g class="primitive">
      <text text-anchor="middle" dy="0.35em">(:ic_alg=>SecondAlg(2, true))</text>
    </g>
  </g>
  <g transform="translate(8.33,51.21)">
    <g class="primitive">
      <text text-anchor="middle" dy="0.35em">(:q₂=>[0.375588, 0.968911],:q₀=>[0.432617, 0.222666])</text>
    </g>
  </g>
  <g transform="translate(12.02,65.72)">
    <g class="primitive">
      <text text-anchor="middle" dy="0.35em">(:q₂=>[0.639423, 0.0360983],:q₀=>[0.669903, 0.579489])</text>
    </g>
  </g>
</g>
</svg>
