<?xml version="1.0" encoding="UTF-8"?>
<svg xmlns="http://www.w3.org/2000/svg"
     xmlns:xlink="http://www.w3.org/1999/xlink"
     version="1.2"
     width="100mm" height="40mm" viewBox="0 0 100 40"
     stroke="none"
     fill="#000000"
     stroke-width="0.3"
     font-size="3.88"
>
<defs>
  <marker id="arrow" markerWidth="15" markerHeight="7" refX="5" refY="3.5" orient="auto" markerUnits="strokeWidth">
    <path d="M0,0 L15,3.5 L0,7 z" stroke="context-stroke" fill="context-stroke"/>
  </marker>
</defs>
<g stroke-width="1.34" fill="#000000" fill-opacity="0.000" stroke="#D3D3D3" id="img-9f0737b3-1">
  <g transform="translate(41.9,28.35)">
    <path fill="none" d="M-6.46,6.58 L 6.46 -6.58" class="primitive"/>
  </g>
  <g transform="translate(29.2,16.76)">
    <path fill="none" d="M16.53,2.6 L -16.53 -2.6" class="primitive"/>
  </g>
  <g transform="translate(70.86,23.28)">
    <path fill="none" d="M-16.46,-2.57 L 16.46 2.57" class="primitive"/>
  </g>
  <g transform="translate(58.21,11.68)">
    <path fill="none" d="M-6.46,6.61 L 6.46 -6.61" class="primitive"/>
  </g>
</g>
<g stroke-width="1.34" stroke="#D3D3D3" id="img-9f0737b3-2">
  <g transform="translate(47.4,22.74)">
    <path fill="none" d="M-1.8,0.28 L 0.95 -0.97 0.85 0.69" class="primitive"/>
  </g>
  <g transform="translate(15.1,14.54)">
    <path fill="none" d="M0.69,0.72 L -2.43 -0.38 1.74 -0.34" class="primitive"/>
  </g>
  <g transform="translate(84.9,25.48)">
    <path fill="none" d="M-0.7,-0.72 L 2.43 0.38 -1.73 0.34" class="primitive"/>
  </g>
  <g transform="translate(63.72,6.04)">
    <path fill="none" d="M-1.8,0.28 L 0.95 -0.97 0.85 0.69" class="primitive"/>
  </g>
</g>
<g font-size="4" stroke="#000000" stroke-opacity="0.000" fill="#000000" id="img-9f0737b3-3">
  <g transform="translate(45.98,24.19)">
    <g class="primitive">
      <text text-anchor="middle" dy="0.35em">[1, 2, 3]</text>
    </g>
  </g>
  <g transform="translate(18.76,15.12)">
    <g class="primitive">
      <text text-anchor="middle" dy="0.35em">[1]</text>
    </g>
  </g>
  <g transform="translate(81.26,24.91)">
    <g class="primitive">
      <text text-anchor="middle" dy="0.35em">[2]</text>
    </g>
  </g>
  <g transform="translate(62.29,7.51)">
    <g class="primitive">
      <text text-anchor="middle" dy="0.35em">[3]</text>
    </g>
  </g>
</g>
<g stroke-width="0" stroke="#000000" stroke-opacity="0.000" fill="#40E0D0" id="img-9f0737b3-4">
  <g transform="translate(33.74,36.67)">
    <circle cx="0" cy="0" r="4.47" class="primitive"/>
  </g>
  <g transform="translate(50.06,20.03)">
    <circle cx="0" cy="0" r="4.47" class="primitive"/>
  </g>
  <g transform="translate(8.33,13.48)">
    <circle cx="0" cy="0" r="4.47" class="primitive"/>
  </g>
  <g transform="translate(91.67,26.53)">
    <circle cx="0" cy="0" r="4.47" class="primitive"/>
  </g>
  <g transform="translate(66.36,3.33)">
    <circle cx="0" cy="0" r="4.47" class="primitive"/>
  </g>
</g>
<g font-size="4" stroke="#000000" stroke-opacity="0.000" fill="#000000" id="img-9f0737b3-5">
  <g transform="translate(33.74,36.67)">
    <g class="primitive">
      <text text-anchor="middle" dy="0.35em">(P = 1,)</text>
    </g>
  </g>
  <g transform="translate(50.06,20.03)">
    <g class="primitive">
      <text text-anchor="middle" dy="0.35em">(alg = "alg1",)</text>
    </g>
  </g>
  <g transform="translate(8.33,13.48)">
    <g class="primitive">
      <text text-anchor="middle" dy="0.35em">(x = 10.0,)</text>
    </g>
  </g>
  <g transform="translate(91.67,26.53)">
    <g class="primitive">
      <text text-anchor="middle" dy="0.35em">(x = 20.0,)</text>
    </g>
  </g>
  <g transform="translate(66.36,3.33)">
    <g class="primitive">
      <text text-anchor="middle" dy="0.35em">(x = 30.0,)</text>
    </g>
  </g>
</g>
</svg>
