<?xml version="1.0" encoding="UTF-8"?>
<svg xmlns="http://www.w3.org/2000/svg"
     xmlns:xlink="http://www.w3.org/1999/xlink"
     version="1.2"
     width="120mm" height="45mm" viewBox="0 0 120 45"
     stroke="none"
     fill="#000000"
     stroke-width="0.3"
     font-size="3.88"
>
<defs>
  <marker id="arrow" markerWidth="15" markerHeight="7" refX="5" refY="3.5" orient="auto" markerUnits="strokeWidth">
    <path d="M0,0 L15,3.5 L0,7 z" stroke="context-stroke" fill="context-stroke"/>
  </marker>
</defs>
<g stroke-width="1.34" fill="#000000" fill-opacity="0.000" stroke="#D3D3D3" id="img-f14bdd5b-1">
  <g transform="translate(62.69,13.14)">
    <path fill="none" d="M3.28,-7.32 L -3.28 7.32" class="primitive"/>
  </g>
  <g transform="translate(34.24,19.25)">
    <path fill="none" d="M18.99,2.57 L -18.99 -2.57" class="primitive"/>
  </g>
  <g transform="translate(84.24,23.91)">
    <path fill="none" d="M-20.22,-1.08 L 20.22 1.08" class="primitive"/>
  </g>
  <g transform="translate(60.7,31.89)">
    <path fill="none" d="M-1.72,-7.27 L 1.72 7.27" class="primitive"/>
  </g>
</g>
<g stroke-width="1.34" stroke="#D3D3D3" id="img-f14bdd5b-2">
  <g transform="translate(59.93,19.31)">
    <path fill="none" d="M1.95,-0.47 L -0.52 1.16 -1.43 -0.69" class="primitive"/>
  </g>
  <g transform="translate(18.2,17.08)">
    <path fill="none" d="M0.89,0.8 L -2.95 -0.4 2.05 -0.4" class="primitive"/>
  </g>
  <g transform="translate(101.37,24.83)">
    <path fill="none" d="M-1.31,-0.72 L 3.1 0.17 -1.79 0.55" class="primitive"/>
  </g>
  <g transform="translate(62.14,37.99)">
    <path fill="none" d="M1.57,-0.64 L 0.28 1.17 -1.84 -0.53" class="primitive"/>
  </g>
</g>
<g font-size="4" stroke="#000000" stroke-opacity="0.000" fill="#000000" id="img-f14bdd5b-3">
  <g transform="translate(63.38,18.89)">
    <g class="primitive">
      <text text-anchor="middle" dy="0.35em">[1, 2, 3]</text>
    </g>
  </g>
  <g transform="translate(24.92,18.66)">
    <g class="primitive">
      <text text-anchor="middle" dy="0.35em">[1]</text>
    </g>
  </g>
  <g transform="translate(99.92,25.65)">
    <g class="primitive">
      <text text-anchor="middle" dy="0.35em">[2]</text>
    </g>
  </g>
  <g transform="translate(64.6,37.62)">
    <g class="primitive">
      <text text-anchor="middle" dy="0.35em">[3]</text>
    </g>
  </g>
</g>
<g stroke-width="0" stroke="#000000" stroke-opacity="0.000" fill="#40E0D0" id="img-f14bdd5b-4">
  <g transform="translate(66.9,3.75)">
    <circle cx="0" cy="0" r="5.37" class="primitive"/>
  </g>
  <g transform="translate(58.49,22.53)">
    <circle cx="0" cy="0" r="5.37" class="primitive"/>
  </g>
  <g transform="translate(10,15.97)">
    <circle cx="0" cy="0" r="5.37" class="primitive"/>
  </g>
  <g transform="translate(110,25.29)">
    <circle cx="0" cy="0" r="5.37" class="primitive"/>
  </g>
  <g transform="translate(62.9,41.25)">
    <circle cx="0" cy="0" r="5.37" class="primitive"/>
  </g>
</g>
<g font-size="4" stroke="#000000" stroke-opacity="0.000" fill="#000000" id="img-f14bdd5b-5">
  <g transform="translate(66.9,3.75)">
    <g class="primitive">
      <text text-anchor="middle" dy="0.35em">(:P=>1)</text>
    </g>
  </g>
  <g transform="translate(58.49,22.53)">
    <g class="primitive">
      <text text-anchor="middle" dy="0.35em">(:alg=>"alg1")</text>
    </g>
  </g>
  <g transform="translate(10,15.97)">
    <g class="primitive">
      <text text-anchor="middle" dy="0.35em">(:x=>10.0)</text>
    </g>
  </g>
  <g transform="translate(110,25.29)">
    <g class="primitive">
      <text text-anchor="middle" dy="0.35em">(:x=>20.0)</text>
    </g>
  </g>
  <g transform="translate(62.9,41.25)">
    <g class="primitive">
      <text text-anchor="middle" dy="0.35em">(:x=>30.0)</text>
    </g>
  </g>
</g>
</svg>
