<?xml version="1.0" encoding="UTF-8"?>
<svg xmlns="http://www.w3.org/2000/svg"
     xmlns:xlink="http://www.w3.org/1999/xlink"
     version="1.2"
     width="100mm" height="40mm" viewBox="0 0 100 40"
     stroke="none"
     fill="#000000"
     stroke-width="0.3"
     font-size="3.88"
>
<defs>
  <marker id="arrow" markerWidth="15" markerHeight="7" refX="5" refY="3.5" orient="auto" markerUnits="strokeWidth">
    <path d="M0,0 L15,3.5 L0,7 z" stroke="context-stroke" fill="context-stroke"/>
  </marker>
</defs>
<g stroke-width="1.34" fill="#000000" fill-opacity="0.000" stroke="#D3D3D3" id="img-fdd3990e-1">
  <g transform="translate(54.85,11.66)">
    <path fill="none" d="M4.25,-6.52 L -4.25 6.52" class="primitive"/>
  </g>
  <g transform="translate(70.55,21.71)">
    <path fill="none" d="M-16.56,-1.35 L 16.56 1.35" class="primitive"/>
  </g>
  <g transform="translate(28.88,17.71)">
    <path fill="none" d="M16.06,1.78 L -16.06 -1.78" class="primitive"/>
  </g>
  <g transform="translate(42.74,28.33)">
    <path fill="none" d="M5.26,-6.56 L -5.26 6.56" class="primitive"/>
  </g>
</g>
<g stroke-width="1.34" stroke="#D3D3D3" id="img-fdd3990e-2">
  <g transform="translate(51.26,17.17)">
    <path fill="none" d="M1.71,-0.36 L -0.66 1.01 -1.05 -0.65" class="primitive"/>
  </g>
  <g transform="translate(84.54,22.85)">
    <path fill="none" d="M-0.99,-0.66 L 2.56 0.21 -1.56 0.45" class="primitive"/>
  </g>
  <g transform="translate(15.34,16.2)">
    <path fill="none" d="M0.88,0.69 L -2.52 -0.28 1.64 -0.41" class="primitive"/>
  </g>
  <g transform="translate(38.28,33.9)">
    <path fill="none" d="M1.76,-0.32 L -0.8 0.99 -0.96 -0.67" class="primitive"/>
  </g>
</g>
<g font-size="4" stroke="#000000" stroke-opacity="0.000" fill="#000000" id="img-fdd3990e-3">
  <g transform="translate(52.14,15.82)">
    <g class="primitive">
      <text text-anchor="middle" dy="0.35em">{2, 3, 1}</text>
    </g>
  </g>
  <g transform="translate(81.11,22.57)">
    <g class="primitive">
      <text text-anchor="middle" dy="0.35em">{1}</text>
    </g>
  </g>
  <g transform="translate(18.61,16.56)">
    <g class="primitive">
      <text text-anchor="middle" dy="0.35em">{2}</text>
    </g>
  </g>
  <g transform="translate(39.4,32.5)">
    <g class="primitive">
      <text text-anchor="middle" dy="0.35em">{3}</text>
    </g>
  </g>
</g>
<g stroke-width="0" stroke="#000000" stroke-opacity="0.000" fill="#40E0D0" id="img-fdd3990e-4">
  <g transform="translate(60.28,3.33)">
    <circle cx="0" cy="0" r="4.47" class="primitive"/>
  </g>
  <g transform="translate(49.43,19.99)">
    <circle cx="0" cy="0" r="4.47" class="primitive"/>
  </g>
  <g transform="translate(91.67,23.43)">
    <circle cx="0" cy="0" r="4.47" class="primitive"/>
  </g>
  <g transform="translate(8.33,15.42)">
    <circle cx="0" cy="0" r="4.47" class="primitive"/>
  </g>
  <g transform="translate(36.06,36.67)">
    <circle cx="0" cy="0" r="4.47" class="primitive"/>
  </g>
</g>
<g font-size="4" stroke="#000000" stroke-opacity="0.000" fill="#000000" id="img-fdd3990e-5">
  <g transform="translate(60.28,3.33)">
    <g class="primitive">
      <text text-anchor="middle" dy="0.35em">(P = 1,)</text>
    </g>
  </g>
  <g transform="translate(49.43,19.99)">
    <g class="primitive">
      <text text-anchor="middle" dy="0.35em">(alg = "alg1",)</text>
    </g>
  </g>
  <g transform="translate(91.67,23.43)">
    <g class="primitive">
      <text text-anchor="middle" dy="0.35em">(x = 10.0,)</text>
    </g>
  </g>
  <g transform="translate(8.33,15.42)">
    <g class="primitive">
      <text text-anchor="middle" dy="0.35em">(x = 20.0,)</text>
    </g>
  </g>
  <g transform="translate(36.06,36.67)">
    <g class="primitive">
      <text text-anchor="middle" dy="0.35em">(x = 30.0,)</text>
    </g>
  </g>
</g>
</svg>
