<?xml version="1.0" encoding="UTF-8"?>
<svg xmlns="http://www.w3.org/2000/svg"
     xmlns:xlink="http://www.w3.org/1999/xlink"
     version="1.2"
     width="100mm" height="40mm" viewBox="0 0 100 40"
     stroke="none"
     fill="#000000"
     stroke-width="0.3"
     font-size="3.88"
>
<defs>
  <marker id="arrow" markerWidth="15" markerHeight="7" refX="5" refY="3.5" orient="auto" markerUnits="strokeWidth">
    <path d="M0,0 L15,3.5 L0,7 z" stroke="context-stroke" fill="context-stroke"/>
  </marker>
</defs>
<g stroke-width="1.34" fill="#000000" fill-opacity="0.000" stroke="#D3D3D3" id="img-834f77c0-1">
  <g transform="translate(51.85,11.22)">
    <path fill="none" d="M2.46,-6.04 L -2.46 6.04" class="primitive"/>
  </g>
  <g transform="translate(46.4,27.88)">
    <path fill="none" d="M1.78,-6.93 L -1.78 6.93" class="primitive"/>
  </g>
  <g transform="translate(28.49,15.42)">
    <path fill="none" d="M15.92,2.91 L -15.92 -2.91" class="primitive"/>
  </g>
  <g transform="translate(70.16,19.63)">
    <path fill="none" d="M-16.86,-0.41 L 16.86 0.41" class="primitive"/>
  </g>
</g>
<g stroke-width="1.34" stroke="#D3D3D3" id="img-834f77c0-2">
  <g transform="translate(49.82,16.23)">
    <path fill="none" d="M1.62,-0.42 L -0.42 1.03 -1.2 -0.61" class="primitive"/>
  </g>
  <g transform="translate(44.88,33.77)">
    <path fill="none" d="M1.55,-0.46 L -0.27 1.04 -1.28 -0.58" class="primitive"/>
  </g>
  <g transform="translate(14.95,12.94)">
    <path fill="none" d="M0.6,0.74 L -2.37 -0.43 1.78 -0.3" class="primitive"/>
  </g>
  <g transform="translate(84.41,19.97)">
    <path fill="none" d="M-1.22,-0.6 L 2.61 0.06 -1.39 0.54" class="primitive"/>
  </g>
</g>
<g font-size="4" stroke="#000000" stroke-opacity="0.000" fill="#000000" id="img-834f77c0-3">
  <g transform="translate(50.25,15.16)">
    <g class="primitive">
      <text text-anchor="middle" dy="0.35em">Set([2, 3, 1])</text>
    </g>
  </g>
  <g transform="translate(45.27,32.27)">
    <g class="primitive">
      <text text-anchor="middle" dy="0.35em">Set([1])</text>
    </g>
  </g>
  <g transform="translate(18.41,13.58)">
    <g class="primitive">
      <text text-anchor="middle" dy="0.35em">Set([2])</text>
    </g>
  </g>
  <g transform="translate(80.91,19.89)">
    <g class="primitive">
      <text text-anchor="middle" dy="0.35em">Set([3])</text>
    </g>
  </g>
</g>
<g stroke-width="0" stroke="#000000" stroke-opacity="0.000" fill="#40E0D0" id="img-834f77c0-4">
  <g transform="translate(55.06,3.33)">
    <circle cx="0" cy="0" r="4.47" class="primitive"/>
  </g>
  <g transform="translate(48.65,19.1)">
    <circle cx="0" cy="0" r="4.47" class="primitive"/>
  </g>
  <g transform="translate(44.14,36.67)">
    <circle cx="0" cy="0" r="4.47" class="primitive"/>
  </g>
  <g transform="translate(8.33,11.74)">
    <circle cx="0" cy="0" r="4.47" class="primitive"/>
  </g>
  <g transform="translate(91.67,20.15)">
    <circle cx="0" cy="0" r="4.47" class="primitive"/>
  </g>
</g>
<g font-size="4" stroke="#000000" stroke-opacity="0.000" fill="#000000" id="img-834f77c0-5">
  <g transform="translate(55.06,3.33)">
    <g class="primitive">
      <text text-anchor="middle" dy="0.35em">(P = 1,)</text>
    </g>
  </g>
  <g transform="translate(48.65,19.1)">
    <g class="primitive">
      <text text-anchor="middle" dy="0.35em">(alg = "alg1",)</text>
    </g>
  </g>
  <g transform="translate(44.14,36.67)">
    <g class="primitive">
      <text text-anchor="middle" dy="0.35em">(x = 10.0,)</text>
    </g>
  </g>
  <g transform="translate(8.33,11.74)">
    <g class="primitive">
      <text text-anchor="middle" dy="0.35em">(x = 20.0,)</text>
    </g>
  </g>
  <g transform="translate(91.67,20.15)">
    <g class="primitive">
      <text text-anchor="middle" dy="0.35em">(x = 30.0,)</text>
    </g>
  </g>
</g>
</svg>
