<?xml version="1.0" encoding="UTF-8"?>
<svg xmlns="http://www.w3.org/2000/svg"
     xmlns:xlink="http://www.w3.org/1999/xlink"
     version="1.2"
     width="100mm" height="40mm" viewBox="0 0 100 40"
     stroke="none"
     fill="#000000"
     stroke-width="0.3"
     font-size="3.88"
>
<defs>
  <marker id="arrow" markerWidth="15" markerHeight="7" refX="5" refY="3.5" orient="auto" markerUnits="strokeWidth">
    <path d="M0,0 L15,3.5 L0,7 z" stroke="context-stroke" fill="context-stroke"/>
  </marker>
</defs>
<g stroke-width="1.34" fill="#000000" fill-opacity="0.000" stroke="#D3D3D3" id="img-fdd3990e-1">
  <g transform="translate(40.21,11.69)">
    <path fill="none" d="M-7.76,-6.67 L 7.76 6.67" class="primitive"/>
  </g>
  <g transform="translate(70.8,16.13)">
    <path fill="none" d="M-16.65,3.12 L 16.65 -3.12" class="primitive"/>
  </g>
  <g transform="translate(59.67,28.35)">
    <path fill="none" d="M-7.76,-6.62 L 7.76 6.62" class="primitive"/>
  </g>
  <g transform="translate(29.14,23.92)">
    <path fill="none" d="M16.58,-3.09 L -16.58 3.09" class="primitive"/>
  </g>
</g>
<g stroke-width="1.34" stroke="#D3D3D3" id="img-fdd3990e-2">
  <g transform="translate(46.87,17.41)">
    <path fill="none" d="M0.74,-0.71 L 1.1 0.95 -1.84 -0.23" class="primitive"/>
  </g>
  <g transform="translate(85.08,13.46)">
    <path fill="none" d="M-1.79,-0.29 L 2.36 -0.44 -0.58 0.74" class="primitive"/>
  </g>
  <g transform="translate(66.33,34.03)">
    <path fill="none" d="M0.74,-0.71 L 1.11 0.95 -1.84 -0.23" class="primitive"/>
  </g>
  <g transform="translate(14.92,26.58)">
    <path fill="none" d="M1.79,0.3 L -2.37 0.44 0.58 -0.74" class="primitive"/>
  </g>
</g>
<g font-size="4" stroke="#000000" stroke-opacity="0.000" fill="#000000" id="img-fdd3990e-3">
  <g transform="translate(45.07,15.86)">
    <g class="primitive">
      <text text-anchor="middle" dy="0.35em">{2, 3, 1}</text>
    </g>
  </g>
  <g transform="translate(81.23,14.18)">
    <g class="primitive">
      <text text-anchor="middle" dy="0.35em">{1}</text>
    </g>
  </g>
  <g transform="translate(64.54,32.51)">
    <g class="primitive">
      <text text-anchor="middle" dy="0.35em">{2}</text>
    </g>
  </g>
  <g transform="translate(18.73,25.87)">
    <g class="primitive">
      <text text-anchor="middle" dy="0.35em">{3}</text>
    </g>
  </g>
</g>
<g stroke-width="0" stroke="#000000" stroke-opacity="0.000" fill="#40E0D0" id="img-fdd3990e-4">
  <g transform="translate(30.48,3.33)">
    <circle cx="0" cy="0" r="4.47" class="primitive"/>
  </g>
  <g transform="translate(49.94,20.04)">
    <circle cx="0" cy="0" r="4.47" class="primitive"/>
  </g>
  <g transform="translate(91.67,12.23)">
    <circle cx="0" cy="0" r="4.47" class="primitive"/>
  </g>
  <g transform="translate(69.41,36.67)">
    <circle cx="0" cy="0" r="4.47" class="primitive"/>
  </g>
  <g transform="translate(8.33,27.81)">
    <circle cx="0" cy="0" r="4.47" class="primitive"/>
  </g>
</g>
<g font-size="4" stroke="#000000" stroke-opacity="0.000" fill="#000000" id="img-fdd3990e-5">
  <g transform="translate(30.48,3.33)">
    <g class="primitive">
      <text text-anchor="middle" dy="0.35em">(P = 1,)</text>
    </g>
  </g>
  <g transform="translate(49.94,20.04)">
    <g class="primitive">
      <text text-anchor="middle" dy="0.35em">(alg = "alg1",)</text>
    </g>
  </g>
  <g transform="translate(91.67,12.23)">
    <g class="primitive">
      <text text-anchor="middle" dy="0.35em">(x = 10.0,)</text>
    </g>
  </g>
  <g transform="translate(69.41,36.67)">
    <g class="primitive">
      <text text-anchor="middle" dy="0.35em">(x = 20.0,)</text>
    </g>
  </g>
  <g transform="translate(8.33,27.81)">
    <g class="primitive">
      <text text-anchor="middle" dy="0.35em">(x = 30.0,)</text>
    </g>
  </g>
</g>
</svg>
