<?xml version="1.0" encoding="UTF-8"?>
<svg xmlns="http://www.w3.org/2000/svg"
     xmlns:xlink="http://www.w3.org/1999/xlink"
     version="1.2"
     width="100mm" height="100mm" viewBox="0 0 100 100"
     stroke="none"
     fill="#000000"
     stroke-width="0.3"
     font-size="3.88"
>
<defs>
  <marker id="arrow" markerWidth="15" markerHeight="7" refX="5" refY="3.5" orient="auto" markerUnits="strokeWidth">
    <path d="M0,0 L15,3.5 L0,7 z" stroke="context-stroke" fill="context-stroke"/>
  </marker>
</defs>
<g stroke-width="1.06" fill="#000000" fill-opacity="0.000" stroke="#D3D3D3" id="img-7cfd2186-1">
  <g transform="translate(46.48,48.24)">
    <path fill="none" d="M9.17,6.15 L -9.17 -6.15" class="primitive"/>
  </g>
  <g transform="translate(65.35,40.93)">
    <path fill="none" d="M-5.19,12.13 L 5.19 -12.13" class="primitive"/>
  </g>
  <g transform="translate(42.59,28.7)">
    <path fill="none" d="M-6.16,8.37 L 6.16 -8.37" class="primitive"/>
  </g>
  <g transform="translate(21.29,40.08)">
    <path fill="none" d="M9.27,-0.03 L -9.27 0.03" class="primitive"/>
  </g>
  <g transform="translate(33.83,51.41)">
    <path fill="none" d="M0.28,-7.69 L -0.28 7.69" class="primitive"/>
  </g>
  <g transform="translate(61.04,74.06)">
    <path fill="none" d="M1.85,13.96 L -1.85 -13.96" class="primitive"/>
  </g>
  <g transform="translate(61.46,21.39)">
    <path fill="none" d="M7.09,2.71 L -7.09 -2.71" class="primitive"/>
  </g>
  <g transform="translate(81.83,16.88)">
    <path fill="none" d="M-7.06,6.13 L 7.06 -6.13" class="primitive"/>
  </g>
</g>
<g stroke-width="1.06" stroke="#D3D3D3" id="img-7cfd2186-2">
  <g transform="translate(39.47,43.55)">
    <path fill="none" d="M0.29,1.91 L -2.17 -1.45 1.88 -0.46" class="primitive"/>
  </g>
  <g transform="translate(69.52,31.2)">
    <path fill="none" d="M-1.82,0.64 L 1.03 -2.4 0.8 1.76" class="primitive"/>
  </g>
  <g transform="translate(47.2,22.43)">
    <path fill="none" d="M-1.92,0.21 L 1.55 -2.1 0.37 1.9" class="primitive"/>
  </g>
  <g transform="translate(14.63,40.1)">
    <path fill="none" d="M1.31,1.42 L -2.61 0.01 1.3 -1.43" class="primitive"/>
  </g>
  <g transform="translate(33.65,56.49)">
    <path fill="none" d="M1.47,-1.25 L -0.09 2.61 -1.38 -1.36" class="primitive"/>
  </g>
  <g transform="translate(59.53,62.69)">
    <path fill="none" d="M-1.24,1.48 L -0.34 -2.59 1.58 1.11" class="primitive"/>
  </g>
  <g transform="translate(56.81,19.61)">
    <path fill="none" d="M0.71,1.8 L -2.44 -0.93 1.73 -0.86" class="primitive"/>
  </g>
  <g transform="translate(86.92,12.46)">
    <path fill="none" d="M-1.92,-0.22 L 1.97 -1.71 -0.05 1.93" class="primitive"/>
  </g>
</g>
<g font-size="4" stroke="#000000" stroke-opacity="0.000" fill="#000000" id="img-7cfd2186-3">
  <g transform="translate(40.36,44.14)">
    <g class="primitive">
      <text text-anchor="middle" dy="0.35em">[1, 2, 3]</text>
    </g>
  </g>
  <g transform="translate(68.67,33.18)">
    <g class="primitive">
      <text text-anchor="middle" dy="0.35em">[4, 5]</text>
    </g>
  </g>
  <g transform="translate(46.76,23.03)">
    <g class="primitive">
      <text text-anchor="middle" dy="0.35em">[1]</text>
    </g>
  </g>
  <g transform="translate(14.81,40.1)">
    <g class="primitive">
      <text text-anchor="middle" dy="0.35em">[2]</text>
    </g>
  </g>
  <g transform="translate(33.63,57.1)">
    <g class="primitive">
      <text text-anchor="middle" dy="0.35em">[3]</text>
    </g>
  </g>
  <g transform="translate(59.87,65.25)">
    <g class="primitive">
      <text text-anchor="middle" dy="0.35em">[1, 2, 3, 4, 5]</text>
    </g>
  </g>
  <g transform="translate(56.2,19.38)">
    <g class="primitive">
      <text text-anchor="middle" dy="0.35em">[4]</text>
    </g>
  </g>
  <g transform="translate(86.75,12.6)">
    <g class="primitive">
      <text text-anchor="middle" dy="0.35em">[5]</text>
    </g>
  </g>
</g>
<g stroke-width="0" stroke="#000000" stroke-opacity="0.000" fill="#40E0D0" id="img-7cfd2186-4">
  <g transform="translate(58.71,56.45)">
    <circle cx="0" cy="0" r="3.54" class="primitive"/>
  </g>
  <g transform="translate(34.24,40.04)">
    <circle cx="0" cy="0" r="3.54" class="primitive"/>
  </g>
  <g transform="translate(63.37,91.67)">
    <circle cx="0" cy="0" r="3.54" class="primitive"/>
  </g>
  <g transform="translate(50.93,17.36)">
    <circle cx="0" cy="0" r="3.54" class="primitive"/>
  </g>
  <g transform="translate(8.33,40.12)">
    <circle cx="0" cy="0" r="3.54" class="primitive"/>
  </g>
  <g transform="translate(33.43,62.78)">
    <circle cx="0" cy="0" r="3.54" class="primitive"/>
  </g>
  <g transform="translate(71.99,25.42)">
    <circle cx="0" cy="0" r="3.54" class="primitive"/>
  </g>
  <g transform="translate(91.67,8.33)">
    <circle cx="0" cy="0" r="3.54" class="primitive"/>
  </g>
</g>
<g font-size="4" stroke="#000000" stroke-opacity="0.000" fill="#000000" id="img-7cfd2186-5">
  <g transform="translate(58.71,56.45)">
    <g class="primitive">
      <text text-anchor="middle" dy="0.35em">(:D=>0.4)</text>
    </g>
  </g>
  <g transform="translate(34.24,40.04)">
    <g class="primitive">
      <text text-anchor="middle" dy="0.35em">(:B=>0.5)</text>
    </g>
  </g>
  <g transform="translate(63.37,91.67)">
    <g class="primitive">
      <text text-anchor="middle" dy="0.35em">(:A=>1)</text>
    </g>
  </g>
  <g transform="translate(50.93,17.36)">
    <g class="primitive">
      <text text-anchor="middle" dy="0.35em">(:E=>10.0)</text>
    </g>
  </g>
  <g transform="translate(8.33,40.12)">
    <g class="primitive">
      <text text-anchor="middle" dy="0.35em">(:E=>20.0)</text>
    </g>
  </g>
  <g transform="translate(33.43,62.78)">
    <g class="primitive">
      <text text-anchor="middle" dy="0.35em">(:E=>30.0)</text>
    </g>
  </g>
  <g transform="translate(71.99,25.42)">
    <g class="primitive">
      <text text-anchor="middle" dy="0.35em">(:B=>0.55)</text>
    </g>
  </g>
  <g transform="translate(91.67,8.33)">
    <g class="primitive">
      <text text-anchor="middle" dy="0.35em">(:E=>25.0)</text>
    </g>
  </g>
</g>
</svg>
