<?xml version="1.0" encoding="UTF-8"?>
<svg xmlns="http://www.w3.org/2000/svg"
     xmlns:xlink="http://www.w3.org/1999/xlink"
     version="1.2"
     width="100mm" height="100mm" viewBox="0 0 100 100"
     stroke="none"
     fill="#000000"
     stroke-width="0.3"
     font-size="3.88"
>
<defs>
  <marker id="arrow" markerWidth="15" markerHeight="7" refX="5" refY="3.5" orient="auto" markerUnits="strokeWidth">
    <path d="M0,0 L15,3.5 L0,7 z" stroke="context-stroke" fill="context-stroke"/>
  </marker>
</defs>
<g stroke-width="1.06" fill="#000000" fill-opacity="0.000" stroke="#D3D3D3" id="img-8e2a86a6-1">
  <g transform="translate(60.64,57.49)">
    <path fill="none" d="M-8.7,-8.53 L 8.7 8.53" class="primitive"/>
  </g>
  <g transform="translate(40.19,60.6)">
    <path fill="none" d="M7.13,-11.13 L -7.13 11.13" class="primitive"/>
  </g>
  <g transform="translate(61.64,78.25)">
    <path fill="none" d="M7.64,-7.14 L -7.64 7.14" class="primitive"/>
  </g>
  <g transform="translate(80.07,55.8)">
    <path fill="none" d="M-6.14,9.7 L 6.14 -9.7" class="primitive"/>
  </g>
  <g transform="translate(81.82,80.13)">
    <path fill="none" d="M-7.46,-8.73 L 7.46 8.73" class="primitive"/>
  </g>
  <g transform="translate(49.28,27.35)">
    <path fill="none" d="M-0.03,-15.34 L 0.03 15.34" class="primitive"/>
  </g>
  <g transform="translate(41.19,81.36)">
    <path fill="none" d="M-7.03,-4.54 L 7.03 4.54" class="primitive"/>
  </g>
  <g transform="translate(19.7,80.95)">
    <path fill="none" d="M8.13,-4.38 L -8.13 4.38" class="primitive"/>
  </g>
</g>
<g stroke-width="1.06" stroke="#D3D3D3" id="img-8e2a86a6-2">
  <g transform="translate(67.47,64.19)">
    <path fill="none" d="M0.07,-1.93 L 1.86 1.83 -1.93 0.1" class="primitive"/>
  </g>
  <g transform="translate(34.47,69.53)">
    <path fill="none" d="M1.9,-0.33 L -1.41 2.2 -0.5 -1.87" class="primitive"/>
  </g>
  <g transform="translate(55.91,83.61)">
    <path fill="none" d="M1.93,0.15 L -1.91 1.78 -0.02 -1.93" class="primitive"/>
  </g>
  <g transform="translate(84.81,48.3)">
    <path fill="none" d="M-1.9,0.34 L 1.4 -2.21 0.51 1.86" class="primitive"/>
  </g>
  <g transform="translate(87.58,86.88)">
    <path fill="none" d="M0.24,-1.92 L 1.7 1.98 -1.93 -0.07" class="primitive"/>
  </g>
  <g transform="translate(49.3,40.08)">
    <path fill="none" d="M1.42,-1.31 L 0.01 2.61 -1.43 -1.3" class="primitive"/>
  </g>
  <g transform="translate(46.03,84.49)">
    <path fill="none" d="M-0.32,-1.91 L 2.19 1.42 -1.87 0.49" class="primitive"/>
  </g>
  <g transform="translate(13.87,84.1)">
    <path fill="none" d="M1.83,0.64 L -2.3 1.24 0.47 -1.87" class="primitive"/>
  </g>
</g>
<g font-size="4" stroke="#000000" stroke-opacity="0.000" fill="#000000" id="img-8e2a86a6-3">
  <g transform="translate(66.3,63.05)">
    <g class="primitive">
      <text text-anchor="middle" dy="0.35em">[1, 2, 3]</text>
    </g>
  </g>
  <g transform="translate(35.63,67.71)">
    <g class="primitive">
      <text text-anchor="middle" dy="0.35em">[4, 5]</text>
    </g>
  </g>
  <g transform="translate(56.48,83.08)">
    <g class="primitive">
      <text text-anchor="middle" dy="0.35em">[1]</text>
    </g>
  </g>
  <g transform="translate(84.13,49.39)">
    <g class="primitive">
      <text text-anchor="middle" dy="0.35em">[2]</text>
    </g>
  </g>
  <g transform="translate(86.74,85.9)">
    <g class="primitive">
      <text text-anchor="middle" dy="0.35em">[3]</text>
    </g>
  </g>
  <g transform="translate(49.3,36.86)">
    <g class="primitive">
      <text text-anchor="middle" dy="0.35em">[1, 2, 3, 4, 5]</text>
    </g>
  </g>
  <g transform="translate(46.25,84.63)">
    <g class="primitive">
      <text text-anchor="middle" dy="0.35em">[4]</text>
    </g>
  </g>
  <g transform="translate(14.02,84.02)">
    <g class="primitive">
      <text text-anchor="middle" dy="0.35em">[5]</text>
    </g>
  </g>
</g>
<g stroke-width="0" stroke="#000000" stroke-opacity="0.000" fill="#40E0D0" id="img-8e2a86a6-4">
  <g transform="translate(49.32,46.37)">
    <circle cx="0" cy="0" r="3.54" class="primitive"/>
  </g>
  <g transform="translate(71.97,68.6)">
    <circle cx="0" cy="0" r="3.54" class="primitive"/>
  </g>
  <g transform="translate(49.24,8.33)">
    <circle cx="0" cy="0" r="3.54" class="primitive"/>
  </g>
  <g transform="translate(51.31,87.9)">
    <circle cx="0" cy="0" r="3.54" class="primitive"/>
  </g>
  <g transform="translate(88.18,42.99)">
    <circle cx="0" cy="0" r="3.54" class="primitive"/>
  </g>
  <g transform="translate(91.67,91.67)">
    <circle cx="0" cy="0" r="3.54" class="primitive"/>
  </g>
  <g transform="translate(31.07,74.83)">
    <circle cx="0" cy="0" r="3.54" class="primitive"/>
  </g>
  <g transform="translate(8.33,87.08)">
    <circle cx="0" cy="0" r="3.54" class="primitive"/>
  </g>
</g>
<g font-size="4" stroke="#000000" stroke-opacity="0.000" fill="#000000" id="img-8e2a86a6-5">
  <g transform="translate(49.32,46.37)">
    <g class="primitive">
      <text text-anchor="middle" dy="0.35em">(:D=>0.4)</text>
    </g>
  </g>
  <g transform="translate(71.97,68.6)">
    <g class="primitive">
      <text text-anchor="middle" dy="0.35em">(:B=>0.5)</text>
    </g>
  </g>
  <g transform="translate(49.24,8.33)">
    <g class="primitive">
      <text text-anchor="middle" dy="0.35em">(:A=>1)</text>
    </g>
  </g>
  <g transform="translate(51.31,87.9)">
    <g class="primitive">
      <text text-anchor="middle" dy="0.35em">(:E=>10.0)</text>
    </g>
  </g>
  <g transform="translate(88.18,42.99)">
    <g class="primitive">
      <text text-anchor="middle" dy="0.35em">(:E=>20.0)</text>
    </g>
  </g>
  <g transform="translate(91.67,91.67)">
    <g class="primitive">
      <text text-anchor="middle" dy="0.35em">(:E=>30.0)</text>
    </g>
  </g>
  <g transform="translate(31.07,74.83)">
    <g class="primitive">
      <text text-anchor="middle" dy="0.35em">(:B=>0.55)</text>
    </g>
  </g>
  <g transform="translate(8.33,87.08)">
    <g class="primitive">
      <text text-anchor="middle" dy="0.35em">(:E=>25.0)</text>
    </g>
  </g>
</g>
</svg>
