<?xml version="1.0" encoding="UTF-8"?>
<svg xmlns="http://www.w3.org/2000/svg"
     xmlns:xlink="http://www.w3.org/1999/xlink"
     version="1.2"
     width="100mm" height="100mm" viewBox="0 0 100 100"
     stroke="none"
     fill="#000000"
     stroke-width="0.3"
     font-size="3.88"
>
<defs>
  <marker id="arrow" markerWidth="15" markerHeight="7" refX="5" refY="3.5" orient="auto" markerUnits="strokeWidth">
    <path d="M0,0 L15,3.5 L0,7 z" stroke="context-stroke" fill="context-stroke"/>
  </marker>
</defs>
<g stroke-width="1.06" fill="#000000" fill-opacity="0.000" stroke="#D3D3D3" id="img-cefbc779-1">
  <g transform="translate(52.2,37.06)">
    <path fill="none" d="M12.09,2.64 L -12.09 -2.64" class="primitive"/>
  </g>
  <g transform="translate(68.24,54.46)">
    <path fill="none" d="M-0.26,-10.3 L 0.26 10.3" class="primitive"/>
  </g>
  <g transform="translate(40.8,45.98)">
    <path fill="none" d="M-3.08,-8.86 L 3.08 8.86" class="primitive"/>
  </g>
  <g transform="translate(31.71,20.99)">
    <path fill="none" d="M3.49,9.21 L -3.49 -9.21" class="primitive"/>
  </g>
  <g transform="translate(22.42,33.16)">
    <path fill="none" d="M10.41,0.35 L -10.41 -0.35" class="primitive"/>
  </g>
  <g transform="translate(79.77,33.79)">
    <path fill="none" d="M8.68,-4.89 L -8.68 4.89" class="primitive"/>
  </g>
  <g transform="translate(56.84,63.38)">
    <path fill="none" d="M8.36,3.61 L -8.36 -3.61" class="primitive"/>
  </g>
  <g transform="translate(74.95,80.05)">
    <path fill="none" d="M-4.59,-8.38 L 4.59 8.38" class="primitive"/>
  </g>
</g>
<g stroke-width="1.06" stroke="#D3D3D3" id="img-cefbc779-2">
  <g transform="translate(42.66,34.98)">
    <path fill="none" d="M0.97,1.67 L -2.55 -0.56 1.58 -1.11" class="primitive"/>
  </g>
  <g transform="translate(68.43,62.15)">
    <path fill="none" d="M1.39,-1.34 L 0.07 2.61 -1.46 -1.27" class="primitive"/>
  </g>
  <g transform="translate(43.03,52.37)">
    <path fill="none" d="M0.92,-1.7 L 0.86 2.47 -1.77 -0.76" class="primitive"/>
  </g>
  <g transform="translate(29.14,14.22)">
    <path fill="none" d="M-0.87,1.73 L -0.93 -2.44 1.8 0.71" class="primitive"/>
  </g>
  <g transform="translate(14.62,32.9)">
    <path fill="none" d="M1.26,1.47 L -2.61 -0.09 1.35 -1.38" class="primitive"/>
  </g>
  <g transform="translate(73.36,37.4)">
    <path fill="none" d="M1.84,0.6 L -2.27 1.28 0.44 -1.88" class="primitive"/>
  </g>
  <g transform="translate(50.88,60.8)">
    <path fill="none" d="M0.63,1.83 L -2.4 -1.03 1.76 -0.79" class="primitive"/>
  </g>
  <g transform="translate(78.29,86.15)">
    <path fill="none" d="M0.62,-1.83 L 1.25 2.29 -1.88 -0.46" class="primitive"/>
  </g>
</g>
<g font-size="4" stroke="#000000" stroke-opacity="0.000" fill="#000000" id="img-cefbc779-3">
  <g transform="translate(44.35,35.35)">
    <g class="primitive">
      <text text-anchor="middle" dy="0.35em">[1, 2, 3, 4]</text>
    </g>
  </g>
  <g transform="translate(68.41,61.45)">
    <g class="primitive">
      <text text-anchor="middle" dy="0.35em">[5, 6]</text>
    </g>
  </g>
  <g transform="translate(42.95,52.14)">
    <g class="primitive">
      <text text-anchor="middle" dy="0.35em">[2]</text>
    </g>
  </g>
  <g transform="translate(29.31,14.66)">
    <g class="primitive">
      <text text-anchor="middle" dy="0.35em">[3]</text>
    </g>
  </g>
  <g transform="translate(15.38,32.92)">
    <g class="primitive">
      <text text-anchor="middle" dy="0.35em">[4]</text>
    </g>
  </g>
  <g transform="translate(73.83,37.14)">
    <g class="primitive">
      <text text-anchor="middle" dy="0.35em">[1, 2, 3, 4, 5, 6]</text>
    </g>
  </g>
  <g transform="translate(50.97,60.84)">
    <g class="primitive">
      <text text-anchor="middle" dy="0.35em">[5]</text>
    </g>
  </g>
  <g transform="translate(78.13,85.86)">
    <g class="primitive">
      <text text-anchor="middle" dy="0.35em">[6]</text>
    </g>
  </g>
</g>
<g stroke-width="0" stroke="#000000" stroke-opacity="0.000" fill="#40E0D0" id="img-cefbc779-4">
  <g transform="translate(67.88,40.48)">
    <circle cx="0" cy="0" r="3.54" class="primitive"/>
  </g>
  <g transform="translate(36.51,33.64)">
    <circle cx="0" cy="0" r="3.54" class="primitive"/>
  </g>
  <g transform="translate(91.67,27.09)">
    <circle cx="0" cy="0" r="3.54" class="primitive"/>
  </g>
  <g transform="translate(45.1,58.31)">
    <circle cx="0" cy="0" r="3.54" class="primitive"/>
  </g>
  <g transform="translate(26.91,8.33)">
    <circle cx="0" cy="0" r="3.54" class="primitive"/>
  </g>
  <g transform="translate(8.33,32.68)">
    <circle cx="0" cy="0" r="3.54" class="primitive"/>
  </g>
  <g transform="translate(68.59,68.44)">
    <circle cx="0" cy="0" r="3.54" class="primitive"/>
  </g>
  <g transform="translate(81.31,91.67)">
    <circle cx="0" cy="0" r="3.54" class="primitive"/>
  </g>
</g>
<g font-size="4" stroke="#000000" stroke-opacity="0.000" fill="#000000" id="img-cefbc779-5">
  <g transform="translate(67.88,40.48)">
    <g class="primitive">
      <text text-anchor="middle" dy="0.35em">(:D=>0.4)</text>
    </g>
  </g>
  <g transform="translate(36.51,33.64)">
    <g class="primitive">
      <text text-anchor="middle" dy="0.35em">(:B=>0.5)</text>
    </g>
  </g>
  <g transform="translate(91.67,27.09)">
    <g class="primitive">
      <text text-anchor="middle" dy="0.35em">(:A=>1)</text>
    </g>
  </g>
  <g transform="translate(45.1,58.31)">
    <g class="primitive">
      <text text-anchor="middle" dy="0.35em">(:E=>10.0)</text>
    </g>
  </g>
  <g transform="translate(26.91,8.33)">
    <g class="primitive">
      <text text-anchor="middle" dy="0.35em">(:E=>20.0)</text>
    </g>
  </g>
  <g transform="translate(8.33,32.68)">
    <g class="primitive">
      <text text-anchor="middle" dy="0.35em">(:E=>30.0)</text>
    </g>
  </g>
  <g transform="translate(68.59,68.44)">
    <g class="primitive">
      <text text-anchor="middle" dy="0.35em">(:B=>0.55)</text>
    </g>
  </g>
  <g transform="translate(81.31,91.67)">
    <g class="primitive">
      <text text-anchor="middle" dy="0.35em">(:E=>25.0)</text>
    </g>
  </g>
</g>
</svg>
