<?xml version="1.0" encoding="UTF-8"?>
<svg xmlns="http://www.w3.org/2000/svg"
     xmlns:xlink="http://www.w3.org/1999/xlink"
     version="1.2"
     width="100mm" height="100mm" viewBox="0 0 100 100"
     stroke="none"
     fill="#000000"
     stroke-width="0.3"
     font-size="3.88"
>
<defs>
  <marker id="arrow" markerWidth="15" markerHeight="7" refX="5" refY="3.5" orient="auto" markerUnits="strokeWidth">
    <path d="M0,0 L15,3.5 L0,7 z" stroke="context-stroke" fill="context-stroke"/>
  </marker>
</defs>
<g stroke-width="1.06" fill="#000000" fill-opacity="0.000" stroke="#D3D3D3" id="img-8e2a86a6-1">
  <g transform="translate(61.2,50.85)">
    <path fill="none" d="M-5.92,-10.76 L 5.92 10.76" class="primitive"/>
  </g>
  <g transform="translate(42.13,42.19)">
    <path fill="none" d="M8.03,-3.76 L -8.03 3.76" class="primitive"/>
  </g>
  <g transform="translate(57.53,65.52)">
    <path fill="none" d="M7.69,-0.46 L -7.69 0.46" class="primitive"/>
  </g>
  <g transform="translate(80.28,64.29)">
    <path fill="none" d="M-7.71,0.38 L 7.71 -0.38" class="primitive"/>
  </g>
  <g transform="translate(73.52,78.26)">
    <path fill="none" d="M-3.42,-9.93 L 3.42 9.93" class="primitive"/>
  </g>
  <g transform="translate(55.22,22.6)">
    <path fill="none" d="M1.28,-10.61 L -1.28 10.61" class="primitive"/>
  </g>
  <g transform="translate(38.46,56.86)">
    <path fill="none" d="M-5.36,-6.5 L 5.36 6.5" class="primitive"/>
  </g>
  <g transform="translate(19.54,45.95)">
    <path fill="none" d="M7.56,1.06 L -7.56 -1.06" class="primitive"/>
  </g>
</g>
<g stroke-width="1.06" stroke="#D3D3D3" id="img-8e2a86a6-2">
  <g transform="translate(65.86,59.33)">
    <path fill="none" d="M0.62,-1.83 L 1.26 2.29 -1.88 -0.46" class="primitive"/>
  </g>
  <g transform="translate(36.46,44.84)">
    <path fill="none" d="M1.79,0.74 L -2.36 1.11 0.58 -1.84" class="primitive"/>
  </g>
  <g transform="translate(52.44,65.83)">
    <path fill="none" d="M1.39,1.34 L -2.61 0.16 1.22 -1.5" class="primitive"/>
  </g>
  <g transform="translate(85.38,64.04)">
    <path fill="none" d="M-1.37,-1.36 L 2.61 -0.13 -1.23 1.49" class="primitive"/>
  </g>
  <g transform="translate(76.09,85.72)">
    <path fill="none" d="M0.92,-1.7 L 0.85 2.47 -1.77 -0.77" class="primitive"/>
  </g>
  <g transform="translate(54.25,30.62)">
    <path fill="none" d="M1.57,-1.12 L -0.31 2.59 -1.26 -1.47" class="primitive"/>
  </g>
  <g transform="translate(42.16,61.34)">
    <path fill="none" d="M0.27,-1.91 L 1.66 2.01 -1.93 -0.1" class="primitive"/>
  </g>
  <g transform="translate(14.57,45.25)">
    <path fill="none" d="M1.1,1.59 L -2.59 -0.36 1.49 -1.23" class="primitive"/>
  </g>
</g>
<g font-size="4" stroke="#000000" stroke-opacity="0.000" fill="#000000" id="img-8e2a86a6-3">
  <g transform="translate(65.04,57.85)">
    <g class="primitive">
      <text text-anchor="middle" dy="0.35em">[1, 2, 3]</text>
    </g>
  </g>
  <g transform="translate(36.44,44.85)">
    <g class="primitive">
      <text text-anchor="middle" dy="0.35em">[4, 5]</text>
    </g>
  </g>
  <g transform="translate(51.84,65.86)">
    <g class="primitive">
      <text text-anchor="middle" dy="0.35em">[1]</text>
    </g>
  </g>
  <g transform="translate(85.97,64.01)">
    <g class="primitive">
      <text text-anchor="middle" dy="0.35em">[2]</text>
    </g>
  </g>
  <g transform="translate(75.83,84.96)">
    <g class="primitive">
      <text text-anchor="middle" dy="0.35em">[3]</text>
    </g>
  </g>
  <g transform="translate(54.36,29.73)">
    <g class="primitive">
      <text text-anchor="middle" dy="0.35em">[1, 2, 3, 4, 5]</text>
    </g>
  </g>
  <g transform="translate(42.31,61.53)">
    <g class="primitive">
      <text text-anchor="middle" dy="0.35em">[4]</text>
    </g>
  </g>
  <g transform="translate(13.94,45.16)">
    <g class="primitive">
      <text text-anchor="middle" dy="0.35em">[5]</text>
    </g>
  </g>
</g>
<g stroke-width="0" stroke="#000000" stroke-opacity="0.000" fill="#40E0D0" id="img-8e2a86a6-4">
  <g transform="translate(53.5,36.87)">
    <circle cx="0" cy="0" r="3.54" class="primitive"/>
  </g>
  <g transform="translate(68.89,64.84)">
    <circle cx="0" cy="0" r="3.54" class="primitive"/>
  </g>
  <g transform="translate(56.95,8.33)">
    <circle cx="0" cy="0" r="3.54" class="primitive"/>
  </g>
  <g transform="translate(46.16,66.2)">
    <circle cx="0" cy="0" r="3.54" class="primitive"/>
  </g>
  <g transform="translate(91.67,63.74)">
    <circle cx="0" cy="0" r="3.54" class="primitive"/>
  </g>
  <g transform="translate(78.14,91.67)">
    <circle cx="0" cy="0" r="3.54" class="primitive"/>
  </g>
  <g transform="translate(30.76,47.51)">
    <circle cx="0" cy="0" r="3.54" class="primitive"/>
  </g>
  <g transform="translate(8.33,44.38)">
    <circle cx="0" cy="0" r="3.54" class="primitive"/>
  </g>
</g>
<g font-size="4" stroke="#000000" stroke-opacity="0.000" fill="#000000" id="img-8e2a86a6-5">
  <g transform="translate(53.5,36.87)">
    <g class="primitive">
      <text text-anchor="middle" dy="0.35em">(:D=>0.4)</text>
    </g>
  </g>
  <g transform="translate(68.89,64.84)">
    <g class="primitive">
      <text text-anchor="middle" dy="0.35em">(:B=>0.5)</text>
    </g>
  </g>
  <g transform="translate(56.95,8.33)">
    <g class="primitive">
      <text text-anchor="middle" dy="0.35em">(:A=>1)</text>
    </g>
  </g>
  <g transform="translate(46.16,66.2)">
    <g class="primitive">
      <text text-anchor="middle" dy="0.35em">(:E=>10.0)</text>
    </g>
  </g>
  <g transform="translate(91.67,63.74)">
    <g class="primitive">
      <text text-anchor="middle" dy="0.35em">(:E=>20.0)</text>
    </g>
  </g>
  <g transform="translate(78.14,91.67)">
    <g class="primitive">
      <text text-anchor="middle" dy="0.35em">(:E=>30.0)</text>
    </g>
  </g>
  <g transform="translate(30.76,47.51)">
    <g class="primitive">
      <text text-anchor="middle" dy="0.35em">(:B=>0.55)</text>
    </g>
  </g>
  <g transform="translate(8.33,44.38)">
    <g class="primitive">
      <text text-anchor="middle" dy="0.35em">(:E=>25.0)</text>
    </g>
  </g>
</g>
</svg>
