<?xml version="1.0" encoding="UTF-8"?>
<svg xmlns="http://www.w3.org/2000/svg"
     xmlns:xlink="http://www.w3.org/1999/xlink"
     version="1.2"
     width="100mm" height="60mm" viewBox="0 0 100 60"
     stroke="none"
     fill="#000000"
     stroke-width="0.3"
     font-size="3.88"
>
<defs>
  <marker id="arrow" markerWidth="15" markerHeight="7" refX="5" refY="3.5" orient="auto" markerUnits="strokeWidth">
    <path d="M0,0 L15,3.5 L0,7 z" stroke="context-stroke" fill="context-stroke"/>
  </marker>
</defs>
<g stroke-width="1.06" fill="#000000" fill-opacity="0.000" stroke="#D3D3D3" id="img-e1192fff-1">
  <g transform="translate(32.11,22.58)">
    <path fill="none" d="M-20.12,-1.38 L 20.12 1.38" class="primitive"/>
  </g>
  <g transform="translate(52.22,14.61)">
    <path fill="none" d="M2.85,7.45 L -2.85 -7.45" class="primitive"/>
  </g>
  <g transform="translate(62.39,33.7)">
    <path fill="none" d="M-5.1,-7.45 L 5.1 7.45" class="primitive"/>
  </g>
  <g transform="translate(73.78,28.73)">
    <path fill="none" d="M-14.49,-3.66 L 14.49 3.66" class="primitive"/>
  </g>
  <g transform="translate(41.11,11.94)">
    <path fill="none" d="M5.44,-5.09 L -5.44 5.09" class="primitive"/>
  </g>
  <g transform="translate(53.08,49.1)">
    <path fill="none" d="M12.68,-4.74 L -12.68 4.74" class="primitive"/>
  </g>
  <g transform="translate(84.5,43.22)">
    <path fill="none" d="M5.7,-7.93 L -5.7 7.93" class="primitive"/>
  </g>
</g>
<g stroke-width="1.06" stroke="#D3D3D3" id="img-e1192fff-2">
  <g transform="translate(49.64,23.78)">
    <path fill="none" d="M-1.13,-0.94 L 2.59 0.18 -1.46 0.76" class="primitive"/>
  </g>
  <g transform="translate(49.95,8.68)">
    <path fill="none" d="M-1.1,0.95 L -0.58 -1.53 1.68 0.57" class="primitive"/>
  </g>
  <g transform="translate(66.5,39.7)">
    <path fill="none" d="M0.82,-1.05 L 0.99 1.45 -1.81 -0.4" class="primitive"/>
  </g>
  <g transform="translate(85.87,31.79)">
    <path fill="none" d="M-0.65,-1.09 L 2.41 0.61 -1.76 0.48" class="primitive"/>
  </g>
  <g transform="translate(37.08,15.71)">
    <path fill="none" d="M1.9,-0.2 L -1.41 1.32 -0.49 -1.12" class="primitive"/>
  </g>
  <g transform="translate(42.61,53)">
    <path fill="none" d="M1.86,0.31 L -2.22 0.83 0.35 -1.14" class="primitive"/>
  </g>
  <g transform="translate(79.83,49.71)">
    <path fill="none" d="M1.83,-0.38 L -1.03 1.44 -0.79 -1.06" class="primitive"/>
  </g>
</g>
<g font-size="4" stroke="#000000" stroke-opacity="0.000" fill="#000000" id="img-e1192fff-3">
  <g transform="translate(44,23.39)">
    <g class="primitive">
      <text text-anchor="middle" dy="0.35em">{2, 3, 1}</text>
    </g>
  </g>
  <g transform="translate(50.38,9.8)">
    <g class="primitive">
      <text text-anchor="middle" dy="0.35em">{1}</text>
    </g>
  </g>
  <g transform="translate(65.64,38.45)">
    <g class="primitive">
      <text text-anchor="middle" dy="0.35em">{2}</text>
    </g>
  </g>
  <g transform="translate(82.72,30.99)">
    <g class="primitive">
      <text text-anchor="middle" dy="0.35em">{3}</text>
    </g>
  </g>
  <g transform="translate(37.4,15.42)">
    <g class="primitive">
      <text text-anchor="middle" dy="0.35em">{1}</text>
    </g>
  </g>
  <g transform="translate(45.18,52.05)">
    <g class="primitive">
      <text text-anchor="middle" dy="0.35em">{2}</text>
    </g>
  </g>
  <g transform="translate(80.92,48.2)">
    <g class="primitive">
      <text text-anchor="middle" dy="0.35em">{3}</text>
    </g>
  </g>
</g>
<g stroke-width="0" stroke="#000000" stroke-opacity="0.000" fill="#40E0D0" id="img-e1192fff-4">
  <g transform="translate(8.33,20.94)">
    <circle cx="0" cy="0" r="3.54" class="primitive"/>
  </g>
  <g transform="translate(55.89,24.21)">
    <circle cx="0" cy="0" r="3.54" class="primitive"/>
  </g>
  <g transform="translate(48.54,5)">
    <circle cx="0" cy="0" r="3.54" class="primitive"/>
  </g>
  <g transform="translate(68.89,43.19)">
    <circle cx="0" cy="0" r="3.54" class="primitive"/>
  </g>
  <g transform="translate(91.67,33.25)">
    <circle cx="0" cy="0" r="3.54" class="primitive"/>
  </g>
  <g transform="translate(33.68,18.89)">
    <circle cx="0" cy="0" r="3.54" class="primitive"/>
  </g>
  <g transform="translate(37.27,55)">
    <circle cx="0" cy="0" r="3.54" class="primitive"/>
  </g>
  <g transform="translate(77.34,53.18)">
    <circle cx="0" cy="0" r="3.54" class="primitive"/>
  </g>
</g>
<g font-size="4" stroke="#000000" stroke-opacity="0.000" fill="#000000" id="img-e1192fff-5">
  <g transform="translate(8.33,20.94)">
    <g class="primitive">
      <text text-anchor="middle" dy="0.35em">(P = 1,)</text>
    </g>
  </g>
  <g transform="translate(55.89,24.21)">
    <g class="primitive">
      <text text-anchor="middle" dy="0.35em">(alg = "alg1",)</text>
    </g>
  </g>
  <g transform="translate(48.54,5)">
    <g class="primitive">
      <text text-anchor="middle" dy="0.35em">(x = 10.0,)</text>
    </g>
  </g>
  <g transform="translate(68.89,43.19)">
    <g class="primitive">
      <text text-anchor="middle" dy="0.35em">(x = 20.0,)</text>
    </g>
  </g>
  <g transform="translate(91.67,33.25)">
    <g class="primitive">
      <text text-anchor="middle" dy="0.35em">(x = 30.0,)</text>
    </g>
  </g>
  <g transform="translate(33.68,18.89)">
    <g class="primitive">
      <text text-anchor="middle" dy="0.35em">(r = 12.0,)</text>
    </g>
  </g>
  <g transform="translate(37.27,55)">
    <g class="primitive">
      <text text-anchor="middle" dy="0.35em">(r = 22.0,)</text>
    </g>
  </g>
  <g transform="translate(77.34,53.18)">
    <g class="primitive">
      <text text-anchor="middle" dy="0.35em">(r = 32.0,)</text>
    </g>
  </g>
</g>
</svg>
