<?xml version="1.0" encoding="UTF-8"?>
<svg xmlns="http://www.w3.org/2000/svg"
     xmlns:xlink="http://www.w3.org/1999/xlink"
     version="1.2"
     width="120mm" height="40mm" viewBox="0 0 120 40"
     stroke="none"
     fill="#000000"
     stroke-width="0.3"
     font-size="3.88"
>
<defs>
  <marker id="arrow" markerWidth="15" markerHeight="7" refX="5" refY="3.5" orient="auto" markerUnits="strokeWidth">
    <path d="M0,0 L15,3.5 L0,7 z" stroke="context-stroke" fill="context-stroke"/>
  </marker>
</defs>
<g stroke-width="1.06" fill="#000000" fill-opacity="0.000" stroke="#D3D3D3" id="img-9f0737b3-1">
  <g transform="translate(81.2,16.79)">
    <path fill="none" d="M24.69,3.23 L -24.69 -3.23" class="primitive"/>
  </g>
  <g transform="translate(31.2,18.15)">
    <path fill="none" d="M17.62,-4.26 L -17.62 4.26" class="primitive"/>
  </g>
  <g transform="translate(53.07,8.18)">
    <path fill="none" d="M-0.47,3.37 L 0.47 -3.37" class="primitive"/>
  </g>
  <g transform="translate(53.65,16.07)">
    <path fill="none" d="M-0.66,-1.59 L 0.66 1.59" class="primitive"/>
  </g>
  <g transform="translate(20.37,29.97)">
    <path fill="none" d="M-8.34,-5.39 L 8.34 5.39" class="primitive"/>
  </g>
  <g transform="translate(65.22,13.01)">
    <path fill="none" d="M-9.86,-8.31 L 9.86 8.31" class="primitive"/>
  </g>
  <g transform="translate(75.06,13.03)">
    <path fill="none" d="M-16.87,5.1 L 16.87 -5.1" class="primitive"/>
  </g>
</g>
<g stroke-width="1.06" stroke="#D3D3D3" id="img-9f0737b3-2">
  <g transform="translate(59.42,13.94)">
    <path fill="none" d="M0.83,0.72 L -2.92 -0.38 2.08 -0.34" class="primitive"/>
  </g>
  <g transform="translate(16.11,21.79)">
    <path fill="none" d="M2.27,0.16 L -2.54 0.61 0.26 -0.77" class="primitive"/>
  </g>
  <g transform="translate(53.39,5.85)">
    <path fill="none" d="M-1.78,0.5 L 0.14 -1.04 1.64 0.55" class="primitive"/>
  </g>
  <g transform="translate(53.88,16.63)">
    <path fill="none" d="M1.48,-0.59 L 0.43 1.03 -1.91 -0.44" class="primitive"/>
  </g>
  <g transform="translate(27.27,34.43)">
    <path fill="none" d="M0.8,-0.73 L 1.44 0.93 -2.24 -0.2" class="primitive"/>
  </g>
  <g transform="translate(73.93,20.35)">
    <path fill="none" d="M1.01,-0.7 L 1.15 0.97 -2.17 -0.28" class="primitive"/>
  </g>
  <g transform="translate(89.6,8.63)">
    <path fill="none" d="M-2.31,-0.07 L 2.32 -0.7 -0.01 0.77" class="primitive"/>
  </g>
</g>
<g font-size="4" stroke="#000000" stroke-opacity="0.000" fill="#000000" id="img-9f0737b3-3">
  <g transform="translate(69.01,15.65)">
    <g class="primitive">
      <text text-anchor="middle" dy="0.35em">[1, 2, 3]</text>
    </g>
  </g>
  <g transform="translate(22.81,21.44)">
    <g class="primitive">
      <text text-anchor="middle" dy="0.35em">[1]</text>
    </g>
  </g>
  <g transform="translate(55.61,6.49)">
    <g class="primitive">
      <text text-anchor="middle" dy="0.35em">[2]</text>
    </g>
  </g>
  <g transform="translate(56.49,18.33)">
    <g class="primitive">
      <text text-anchor="middle" dy="0.35em">[3]</text>
    </g>
  </g>
  <g transform="translate(27.76,34.05)">
    <g class="primitive">
      <text text-anchor="middle" dy="0.35em">[1]</text>
    </g>
  </g>
  <g transform="translate(73.18,18.59)">
    <g class="primitive">
      <text text-anchor="middle" dy="0.35em">[2]</text>
    </g>
  </g>
  <g transform="translate(87.34,10.72)">
    <g class="primitive">
      <text text-anchor="middle" dy="0.35em">[3]</text>
    </g>
  </g>
</g>
<g stroke-width="0" stroke="#000000" stroke-opacity="0.000" fill="#40E0D0" id="img-9f0737b3-4">
  <g transform="translate(110,20.57)">
    <circle cx="0" cy="0" r="4.24" class="primitive"/>
  </g>
  <g transform="translate(52.4,13.02)">
    <circle cx="0" cy="0" r="4.24" class="primitive"/>
  </g>
  <g transform="translate(10,23.27)">
    <circle cx="0" cy="0" r="4.24" class="primitive"/>
  </g>
  <g transform="translate(53.74,3.33)">
    <circle cx="0" cy="0" r="4.24" class="primitive"/>
  </g>
  <g transform="translate(54.91,19.12)">
    <circle cx="0" cy="0" r="4.24" class="primitive"/>
  </g>
  <g transform="translate(30.74,36.67)">
    <circle cx="0" cy="0" r="4.24" class="primitive"/>
  </g>
  <g transform="translate(76.71,22.69)">
    <circle cx="0" cy="0" r="4.24" class="primitive"/>
  </g>
  <g transform="translate(95.2,6.94)">
    <circle cx="0" cy="0" r="4.24" class="primitive"/>
  </g>
</g>
<g font-size="4" stroke="#000000" stroke-opacity="0.000" fill="#000000" id="img-9f0737b3-5">
  <g transform="translate(110,20.57)">
    <g class="primitive">
      <text text-anchor="middle" dy="0.35em">(:P=>1)</text>
    </g>
  </g>
  <g transform="translate(52.4,13.02)">
    <g class="primitive">
      <text text-anchor="middle" dy="0.35em">(:alg=>"alg1")</text>
    </g>
  </g>
  <g transform="translate(10,23.27)">
    <g class="primitive">
      <text text-anchor="middle" dy="0.35em">(:x=>10.0)</text>
    </g>
  </g>
  <g transform="translate(53.74,3.33)">
    <g class="primitive">
      <text text-anchor="middle" dy="0.35em">(:x=>20.0)</text>
    </g>
  </g>
  <g transform="translate(54.91,19.12)">
    <g class="primitive">
      <text text-anchor="middle" dy="0.35em">(:x=>30.0)</text>
    </g>
  </g>
  <g transform="translate(30.74,36.67)">
    <g class="primitive">
      <text text-anchor="middle" dy="0.35em">(:r=>12.0)</text>
    </g>
  </g>
  <g transform="translate(76.71,22.69)">
    <g class="primitive">
      <text text-anchor="middle" dy="0.35em">(:r=>22.0)</text>
    </g>
  </g>
  <g transform="translate(95.2,6.94)">
    <g class="primitive">
      <text text-anchor="middle" dy="0.35em">(:r=>32.0)</text>
    </g>
  </g>
</g>
</svg>
