<?xml version="1.0" encoding="UTF-8"?>
<svg xmlns="http://www.w3.org/2000/svg"
     xmlns:xlink="http://www.w3.org/1999/xlink"
     version="1.2"
     width="100mm" height="60mm" viewBox="0 0 100 60"
     stroke="none"
     fill="#000000"
     stroke-width="0.3"
     font-size="3.88"
>
<defs>
  <marker id="arrow" markerWidth="15" markerHeight="7" refX="5" refY="3.5" orient="auto" markerUnits="strokeWidth">
    <path d="M0,0 L15,3.5 L0,7 z" stroke="context-stroke" fill="context-stroke"/>
  </marker>
</defs>
<g stroke-width="1.06" fill="#000000" fill-opacity="0.000" stroke="#D3D3D3" id="img-b6e09bd9-1">
  <g transform="translate(72.81,44.31)">
    <path fill="none" d="M-0.9,8.48 L 0.9 -8.48" class="primitive"/>
  </g>
  <g transform="translate(63.26,22.24)">
    <path fill="none" d="M8.87,9.46 L -8.87 -9.46" class="primitive"/>
  </g>
  <g transform="translate(66.78,27.46)">
    <path fill="none" d="M5.06,4.35 L -5.06 -4.35" class="primitive"/>
  </g>
  <g transform="translate(82.81,40.69)">
    <path fill="none" d="M-6.65,-5.3 L 6.65 5.3" class="primitive"/>
  </g>
  <g transform="translate(63.28,7.92)">
    <path fill="none" d="M-7.34,2.01 L 7.34 -2.01" class="primitive"/>
  </g>
  <g transform="translate(33.97,19.96)">
    <path fill="none" d="M21.97,1.15 L -21.97 -1.15" class="primitive"/>
  </g>
  <g transform="translate(66.64,51.21)">
    <path fill="none" d="M21.43,-2.96 L -21.43 2.96" class="primitive"/>
  </g>
</g>
<g stroke-width="1.06" stroke="#D3D3D3" id="img-b6e09bd9-2">
  <g transform="translate(73.55,37.39)">
    <path fill="none" d="M-1.5,0.73 L 0.17 -1.56 1.34 0.84" class="primitive"/>
  </g>
  <g transform="translate(55.67,14.14)">
    <path fill="none" d="M-0.6,1.1 L -1.28 -1.36 1.88 0.26" class="primitive"/>
  </g>
  <g transform="translate(63.21,24.4)">
    <path fill="none" d="M-0.42,1.13 L -1.49 -1.28 1.92 0.15" class="primitive"/>
  </g>
  <g transform="translate(87.88,44.74)">
    <path fill="none" d="M0.35,-1.14 L 1.57 1.25 -1.92 -0.11" class="primitive"/>
  </g>
  <g transform="translate(68.24,6.57)">
    <path fill="none" d="M-1.78,-0.45 L 2.38 -0.65 -0.6 1.1" class="primitive"/>
  </g>
  <g transform="translate(14.6,18.95)">
    <path fill="none" d="M1.18,0.92 L -2.6 -0.14 1.42 -0.78" class="primitive"/>
  </g>
  <g transform="translate(47.75,53.82)">
    <path fill="none" d="M1.59,0.66 L -2.54 0.35 0.95 -1.01" class="primitive"/>
  </g>
</g>
<g font-size="4" stroke="#000000" stroke-opacity="0.000" fill="#000000" id="img-b6e09bd9-3">
  <g transform="translate(73.38,38.97)">
    <g class="primitive">
      <text text-anchor="middle" dy="0.35em">Set([2, 3, 1])</text>
    </g>
  </g>
  <g transform="translate(57.92,16.54)">
    <g class="primitive">
      <text text-anchor="middle" dy="0.35em">Set([1])</text>
    </g>
  </g>
  <g transform="translate(63.19,24.38)">
    <g class="primitive">
      <text text-anchor="middle" dy="0.35em">Set([2])</text>
    </g>
  </g>
  <g transform="translate(87.24,44.22)">
    <g class="primitive">
      <text text-anchor="middle" dy="0.35em">Set([3])</text>
    </g>
  </g>
  <g transform="translate(68.62,6.46)">
    <g class="primitive">
      <text text-anchor="middle" dy="0.35em">Set([1])</text>
    </g>
  </g>
  <g transform="translate(21.15,19.29)">
    <g class="primitive">
      <text text-anchor="middle" dy="0.35em">Set([2])</text>
    </g>
  </g>
  <g transform="translate(54.13,52.94)">
    <g class="primitive">
      <text text-anchor="middle" dy="0.35em">Set([3])</text>
    </g>
  </g>
</g>
<g stroke-width="0" stroke="#000000" stroke-opacity="0.000" fill="#40E0D0" id="img-b6e09bd9-4">
  <g transform="translate(71.68,55)">
    <circle cx="0" cy="0" r="3.54" class="primitive"/>
  </g>
  <g transform="translate(73.94,33.62)">
    <circle cx="0" cy="0" r="3.54" class="primitive"/>
  </g>
  <g transform="translate(52.58,10.85)">
    <circle cx="0" cy="0" r="3.54" class="primitive"/>
  </g>
  <g transform="translate(59.61,21.3)">
    <circle cx="0" cy="0" r="3.54" class="primitive"/>
  </g>
  <g transform="translate(91.67,47.76)">
    <circle cx="0" cy="0" r="3.54" class="primitive"/>
  </g>
  <g transform="translate(73.97,5)">
    <circle cx="0" cy="0" r="3.54" class="primitive"/>
  </g>
  <g transform="translate(8.33,18.62)">
    <circle cx="0" cy="0" r="3.54" class="primitive"/>
  </g>
  <g transform="translate(41.62,54.67)">
    <circle cx="0" cy="0" r="3.54" class="primitive"/>
  </g>
</g>
<g font-size="4" stroke="#000000" stroke-opacity="0.000" fill="#000000" id="img-b6e09bd9-5">
  <g transform="translate(71.68,55)">
    <g class="primitive">
      <text text-anchor="middle" dy="0.35em">(P = 1,)</text>
    </g>
  </g>
  <g transform="translate(73.94,33.62)">
    <g class="primitive">
      <text text-anchor="middle" dy="0.35em">(alg = "alg1",)</text>
    </g>
  </g>
  <g transform="translate(52.58,10.85)">
    <g class="primitive">
      <text text-anchor="middle" dy="0.35em">(x = 10.0,)</text>
    </g>
  </g>
  <g transform="translate(59.61,21.3)">
    <g class="primitive">
      <text text-anchor="middle" dy="0.35em">(x = 20.0,)</text>
    </g>
  </g>
  <g transform="translate(91.67,47.76)">
    <g class="primitive">
      <text text-anchor="middle" dy="0.35em">(x = 30.0,)</text>
    </g>
  </g>
  <g transform="translate(73.97,5)">
    <g class="primitive">
      <text text-anchor="middle" dy="0.35em">(r = 12.0,)</text>
    </g>
  </g>
  <g transform="translate(8.33,18.62)">
    <g class="primitive">
      <text text-anchor="middle" dy="0.35em">(r = 22.0,)</text>
    </g>
  </g>
  <g transform="translate(41.62,54.67)">
    <g class="primitive">
      <text text-anchor="middle" dy="0.35em">(r = 32.0,)</text>
    </g>
  </g>
</g>
</svg>
