<?xml version="1.0" encoding="UTF-8"?>
<svg xmlns="http://www.w3.org/2000/svg"
     xmlns:xlink="http://www.w3.org/1999/xlink"
     version="1.2"
     width="100mm" height="100mm" viewBox="0 0 100 100"
     stroke="none"
     fill="#000000"
     stroke-width="0.3"
     font-size="3.88"
>
<defs>
  <marker id="arrow" markerWidth="15" markerHeight="7" refX="5" refY="3.5" orient="auto" markerUnits="strokeWidth">
    <path d="M0,0 L15,3.5 L0,7 z" stroke="context-stroke" fill="context-stroke"/>
  </marker>
</defs>
<g stroke-width="0.69" fill="#000000" fill-opacity="0.000" stroke="#D3D3D3" id="img-107b4d75-1">
  <g transform="translate(78.23,26.23)">
    <path fill="none" d="M0.8,-4.03 L -0.8 4.03" class="primitive"/>
  </g>
  <g transform="translate(72.85,21.73)">
    <path fill="none" d="M4.36,-1.22 L -4.36 1.22" class="primitive"/>
  </g>
  <g transform="translate(65.98,34.79)">
    <path fill="none" d="M8.64,-1.72 L -8.64 1.72" class="primitive"/>
  </g>
  <g transform="translate(82.76,36.11)">
    <path fill="none" d="M-3.76,-2.27 L 3.76 2.27" class="primitive"/>
  </g>
  <g transform="translate(84.31,31.78)">
    <path fill="none" d="M-4.98,0.56 L 4.98 -0.56" class="primitive"/>
  </g>
  <g transform="translate(82.96,14.1)">
    <path fill="none" d="M2.23,-3.72 L -2.23 3.72" class="primitive"/>
  </g>
  <g transform="translate(49.22,47.46)">
    <path fill="none" d="M4.62,-8.39 L -4.62 8.39" class="primitive"/>
  </g>
  <g transform="translate(46.82,31.04)">
    <path fill="none" d="M6.24,4.53 L -6.24 -4.53" class="primitive"/>
  </g>
  <g transform="translate(60.59,30.29)">
    <path fill="none" d="M4.06,-4.86 L -4.06 4.86" class="primitive"/>
  </g>
  <g transform="translate(68.51,18.15)">
    <path fill="none" d="M-1.38,3.25 L 1.38 -3.25" class="primitive"/>
  </g>
  <g transform="translate(49.13,59.87)">
    <path fill="none" d="M-3.42,-1.16 L 3.42 1.16" class="primitive"/>
  </g>
  <g transform="translate(45.73,63.09)">
    <path fill="none" d="M-1.31,-2.96 L 1.31 2.96" class="primitive"/>
  </g>
  <g transform="translate(35.86,62.87)">
    <path fill="none" d="M5.58,-3.62 L -5.58 3.62" class="primitive"/>
  </g>
  <g transform="translate(38.48,64.65)">
    <path fill="none" d="M3.54,-4.78 L -3.54 4.78" class="primitive"/>
  </g>
  <g transform="translate(35.62,19.77)">
    <path fill="none" d="M1.85,3.26 L -1.85 -3.26" class="primitive"/>
  </g>
  <g transform="translate(31.93,23.35)">
    <path fill="none" d="M4.4,1.15 L -4.4 -1.15" class="primitive"/>
  </g>
  <g transform="translate(14.82,82.45)">
    <path fill="none" d="M4.29,-1.84 L -4.29 1.84" class="primitive"/>
  </g>
  <g transform="translate(19.53,85.67)">
    <path fill="none" d="M1.09,-3.7 L -1.09 3.7" class="primitive"/>
  </g>
  <g transform="translate(24.79,73.73)">
    <path fill="none" d="M2.28,-3.88 L -2.28 3.88" class="primitive"/>
  </g>
  <g transform="translate(27.41,75.52)">
    <path fill="none" d="M4.13,-2.81 L -4.13 2.81" class="primitive"/>
  </g>
</g>
<g stroke-width="0.69" stroke="#D3D3D3" id="img-107b4d75-2">
  <g transform="translate(77.94,27.7)">
    <path fill="none" d="M1.65,-1 L -0.51 2.56 -1.14 -1.56" class="primitive"/>
  </g>
  <g transform="translate(71,22.25)">
    <path fill="none" d="M1.64,1.02 L -2.51 0.7 0.87 -1.72" class="primitive"/>
  </g>
  <g transform="translate(59.9,36)">
    <path fill="none" d="M1.56,1.14 L -2.56 0.51 1 -1.65" class="primitive"/>
  </g>
  <g transform="translate(84.29,37.03)">
    <path fill="none" d="M-0.38,-1.89 L 2.23 1.35 -1.85 0.54" class="primitive"/>
  </g>
  <g transform="translate(86.7,31.51)">
    <path fill="none" d="M-1.46,-1.27 L 2.59 -0.29 -1.14 1.56" class="primitive"/>
  </g>
  <g transform="translate(82.08,15.57)">
    <path fill="none" d="M1.89,-0.39 L -1.34 2.24 -0.55 -1.85" class="primitive"/>
  </g>
  <g transform="translate(45.86,53.57)">
    <path fill="none" d="M1.88,-0.46 L -1.26 2.29 -0.62 -1.83" class="primitive"/>
  </g>
  <g transform="translate(42.69,28.05)">
    <path fill="none" d="M0.22,1.92 L -2.11 -1.53 1.89 -0.39" class="primitive"/>
  </g>
  <g transform="translate(58.21,33.14)">
    <path fill="none" d="M1.93,-0.09 L -1.67 2 -0.26 -1.92" class="primitive"/>
  </g>
  <g transform="translate(68.87,17.3)">
    <path fill="none" d="M-1.82,0.64 L 1.02 -2.4 0.8 1.76" class="primitive"/>
  </g>
  <g transform="translate(50.08,60.19)">
    <path fill="none" d="M-0.78,-1.77 L 2.47 0.84 -1.69 0.93" class="primitive"/>
  </g>
  <g transform="translate(45.98,63.66)">
    <path fill="none" d="M0.77,-1.77 L 1.06 2.39 -1.83 -0.61" class="primitive"/>
  </g>
  <g transform="translate(32.48,65.07)">
    <path fill="none" d="M1.87,0.48 L -2.19 1.42 0.32 -1.91" class="primitive"/>
  </g>
  <g transform="translate(36.49,67.34)">
    <path fill="none" d="M1.92,-0.2 L -1.55 2.1 -0.37 -1.9" class="primitive"/>
  </g>
  <g transform="translate(35.06,18.78)">
    <path fill="none" d="M-0.6,1.84 L -1.29 -2.27 1.88 0.43" class="primitive"/>
  </g>
  <g transform="translate(30.06,22.86)">
    <path fill="none" d="M0.9,1.71 L -2.52 -0.66 1.62 -1.05" class="primitive"/>
  </g>
  <g transform="translate(12.93,83.26)">
    <path fill="none" d="M1.76,0.8 L -2.4 1.03 0.64 -1.82" class="primitive"/>
  </g>
  <g transform="translate(19.18,86.87)">
    <path fill="none" d="M1.74,-0.85 L -0.74 2.5 -1 -1.65" class="primitive"/>
  </g>
  <g transform="translate(23.83,75.36)">
    <path fill="none" d="M1.89,-0.4 L -1.32 2.25 -0.57 -1.85" class="primitive"/>
  </g>
  <g transform="translate(25.43,76.86)">
    <path fill="none" d="M1.88,0.44 L -2.16 1.47 0.28 -1.91" class="primitive"/>
  </g>
</g>
<g font-size="4" stroke="#000000" stroke-opacity="0.000" fill="#000000" id="img-107b4d75-3">
  <g transform="translate(77.59,29.42)">
    <g class="primitive">
      <text text-anchor="middle" dy="0.35em">[1, 2, 3, 6, 7]</text>
    </g>
  </g>
  <g transform="translate(69.52,22.66)">
    <g class="primitive">
      <text text-anchor="middle" dy="0.35em">[4, 5, 8, 9]</text>
    </g>
  </g>
  <g transform="translate(60.49,35.88)">
    <g class="primitive">
      <text text-anchor="middle" dy="0.35em">[1, 6, 7]</text>
    </g>
  </g>
  <g transform="translate(85.66,37.87)">
    <g class="primitive">
      <text text-anchor="middle" dy="0.35em">[2]</text>
    </g>
  </g>
  <g transform="translate(87.99,31.37)">
    <g class="primitive">
      <text text-anchor="middle" dy="0.35em">[3]</text>
    </g>
  </g>
  <g transform="translate(81.23,16.98)">
    <g class="primitive">
      <text text-anchor="middle" dy="0.35em">[1, 2, 3, 4, 5, 6, 7, 8, 9]</text>
    </g>
  </g>
  <g transform="translate(46.33,52.7)">
    <g class="primitive">
      <text text-anchor="middle" dy="0.35em">[4, 5, 8, 9]</text>
    </g>
  </g>
  <g transform="translate(42.73,28.08)">
    <g class="primitive">
      <text text-anchor="middle" dy="0.35em">[6, 7]</text>
    </g>
  </g>
  <g transform="translate(57.8,33.63)">
    <g class="primitive">
      <text text-anchor="middle" dy="0.35em">[4, 5, 8, 9]</text>
    </g>
  </g>
  <g transform="translate(69.67,15.42)">
    <g class="primitive">
      <text text-anchor="middle" dy="0.35em">[5]</text>
    </g>
  </g>
  <g transform="translate(51.97,60.83)">
    <g class="primitive">
      <text text-anchor="middle" dy="0.35em">[4]</text>
    </g>
  </g>
  <g transform="translate(46.87,65.66)">
    <g class="primitive">
      <text text-anchor="middle" dy="0.35em">[5]</text>
    </g>
  </g>
  <g transform="translate(32.07,65.33)">
    <g class="primitive">
      <text text-anchor="middle" dy="0.35em">[8]</text>
    </g>
  </g>
  <g transform="translate(36,68)">
    <g class="primitive">
      <text text-anchor="middle" dy="0.35em">[9]</text>
    </g>
  </g>
  <g transform="translate(34.1,17.1)">
    <g class="primitive">
      <text text-anchor="middle" dy="0.35em">[6]</text>
    </g>
  </g>
  <g transform="translate(28.58,22.47)">
    <g class="primitive">
      <text text-anchor="middle" dy="0.35em">[7]</text>
    </g>
  </g>
  <g transform="translate(11.58,83.84)">
    <g class="primitive">
      <text text-anchor="middle" dy="0.35em">[8]</text>
    </g>
  </g>
  <g transform="translate(18.65,88.67)">
    <g class="primitive">
      <text text-anchor="middle" dy="0.35em">[9]</text>
    </g>
  </g>
  <g transform="translate(23.05,76.7)">
    <g class="primitive">
      <text text-anchor="middle" dy="0.35em">[8]</text>
    </g>
  </g>
  <g transform="translate(24.36,77.6)">
    <g class="primitive">
      <text text-anchor="middle" dy="0.35em">[9]</text>
    </g>
  </g>
</g>
<g stroke-width="0" stroke="#000000" stroke-opacity="0.000" fill="#40E0D0" id="img-107b4d75-4">
  <g transform="translate(79.5,19.86)">
    <circle cx="0" cy="0" r="2.29" class="primitive"/>
  </g>
  <g transform="translate(76.96,32.61)">
    <circle cx="0" cy="0" r="2.29" class="primitive"/>
  </g>
  <g transform="translate(86.42,8.33)">
    <circle cx="0" cy="0" r="2.29" class="primitive"/>
  </g>
  <g transform="translate(55,36.98)">
    <circle cx="0" cy="0" r="2.29" class="primitive"/>
  </g>
  <g transform="translate(88.56,39.62)">
    <circle cx="0" cy="0" r="2.29" class="primitive"/>
  </g>
  <g transform="translate(91.67,30.96)">
    <circle cx="0" cy="0" r="2.29" class="primitive"/>
  </g>
  <g transform="translate(66.19,23.6)">
    <circle cx="0" cy="0" r="2.29" class="primitive"/>
  </g>
  <g transform="translate(70.83,12.7)">
    <circle cx="0" cy="0" r="2.29" class="primitive"/>
  </g>
  <g transform="translate(43.44,57.95)">
    <circle cx="0" cy="0" r="2.29" class="primitive"/>
  </g>
  <g transform="translate(54.81,61.79)">
    <circle cx="0" cy="0" r="2.29" class="primitive"/>
  </g>
  <g transform="translate(48.01,68.23)">
    <circle cx="0" cy="0" r="2.29" class="primitive"/>
  </g>
  <g transform="translate(38.64,25.11)">
    <circle cx="0" cy="0" r="2.29" class="primitive"/>
  </g>
  <g transform="translate(32.59,14.43)">
    <circle cx="0" cy="0" r="2.29" class="primitive"/>
  </g>
  <g transform="translate(25.22,21.59)">
    <circle cx="0" cy="0" r="2.29" class="primitive"/>
  </g>
  <g transform="translate(21.3,79.68)">
    <circle cx="0" cy="0" r="2.29" class="primitive"/>
  </g>
  <g transform="translate(8.33,85.23)">
    <circle cx="0" cy="0" r="2.29" class="primitive"/>
  </g>
  <g transform="translate(28.28,67.79)">
    <circle cx="0" cy="0" r="2.29" class="primitive"/>
  </g>
  <g transform="translate(17.76,91.67)">
    <circle cx="0" cy="0" r="2.29" class="primitive"/>
  </g>
  <g transform="translate(33.52,71.36)">
    <circle cx="0" cy="0" r="2.29" class="primitive"/>
  </g>
</g>
<g font-size="4" stroke="#000000" stroke-opacity="0.000" fill="#000000" id="img-107b4d75-5">
  <g transform="translate(79.5,19.86)">
    <g class="primitive">
      <text text-anchor="middle" dy="0.35em">(:D=>0.4)</text>
    </g>
  </g>
  <g transform="translate(76.96,32.61)">
    <g class="primitive">
      <text text-anchor="middle" dy="0.35em">(:B=>0.5)</text>
    </g>
  </g>
  <g transform="translate(86.42,8.33)">
    <g class="primitive">
      <text text-anchor="middle" dy="0.35em">(:A=>1)</text>
    </g>
  </g>
  <g transform="translate(55,36.98)">
    <g class="primitive">
      <text text-anchor="middle" dy="0.35em">(:E=>10.0)</text>
    </g>
  </g>
  <g transform="translate(88.56,39.62)">
    <g class="primitive">
      <text text-anchor="middle" dy="0.35em">(:E=>20.0)</text>
    </g>
  </g>
  <g transform="translate(91.67,30.96)">
    <g class="primitive">
      <text text-anchor="middle" dy="0.35em">(:E=>30.0)</text>
    </g>
  </g>
  <g transform="translate(66.19,23.6)">
    <g class="primitive">
      <text text-anchor="middle" dy="0.35em">(:B=>0.55)</text>
    </g>
  </g>
  <g transform="translate(70.83,12.7)">
    <g class="primitive">
      <text text-anchor="middle" dy="0.35em">(:E=>25.0)</text>
    </g>
  </g>
  <g transform="translate(43.44,57.95)">
    <g class="primitive">
      <text text-anchor="middle" dy="0.35em">(:ic_alg=>FirstAlg(2))</text>
    </g>
  </g>
  <g transform="translate(54.81,61.79)">
    <g class="primitive">
      <text text-anchor="middle" dy="0.35em">(:q₂=>[0.775686, 0.489989],:q₀=>[0.20884, 0.0827676])</text>
    </g>
  </g>
  <g transform="translate(48.01,68.23)">
    <g class="primitive">
      <text text-anchor="middle" dy="0.35em">(:q₂=>[0.141311, 0.141301],:q₀=>[0.146882, 0.111318])</text>
    </g>
  </g>
  <g transform="translate(38.64,25.11)">
    <g class="primitive">
      <text text-anchor="middle" dy="0.35em">(:ic_alg=>SecondAlg(2, true))</text>
    </g>
  </g>
  <g transform="translate(32.59,14.43)">
    <g class="primitive">
      <text text-anchor="middle" dy="0.35em">(:q₂=>[0.288533, 0.563585],:q₀=>[0.544969, 0.104882])</text>
    </g>
  </g>
  <g transform="translate(25.22,21.59)">
    <g class="primitive">
      <text text-anchor="middle" dy="0.35em">(:q₂=>[0.0944024, 0.525192],:q₀=>[0.839121, 0.320536])</text>
    </g>
  </g>
  <g transform="translate(21.3,79.68)">
    <g class="primitive">
      <text text-anchor="middle" dy="0.35em">(:alg=>Alg1{Float64}(10.0, 0.1))</text>
    </g>
  </g>
  <g transform="translate(8.33,85.23)">
    <g class="primitive">
      <text text-anchor="middle" dy="0.35em">(:l=>0.949248)</text>
    </g>
  </g>
  <g transform="translate(28.28,67.79)">
    <g class="primitive">
      <text text-anchor="middle" dy="0.35em">(:q₂=>[0.839056, 0.66414],:q₀=>[0.971835, 0.201499])</text>
    </g>
  </g>
  <g transform="translate(17.76,91.67)">
    <g class="primitive">
      <text text-anchor="middle" dy="0.35em">(:l=>0.163116)</text>
    </g>
  </g>
  <g transform="translate(33.52,71.36)">
    <g class="primitive">
      <text text-anchor="middle" dy="0.35em">(:q₂=>[0.271006, 0.236839],:q₀=>[0.0848174, 0.59167])</text>
    </g>
  </g>
</g>
</svg>
