<?xml version="1.0" encoding="UTF-8"?>
<svg xmlns="http://www.w3.org/2000/svg"
     xmlns:xlink="http://www.w3.org/1999/xlink"
     version="1.2"
     width="100mm" height="60mm" viewBox="0 0 100 60"
     stroke="none"
     fill="#000000"
     stroke-width="0.3"
     font-size="3.88"
>
<defs>
  <marker id="arrow" markerWidth="15" markerHeight="7" refX="5" refY="3.5" orient="auto" markerUnits="strokeWidth">
    <path d="M0,0 L15,3.5 L0,7 z" stroke="context-stroke" fill="context-stroke"/>
  </marker>
</defs>
<g stroke-width="1.06" fill="#000000" fill-opacity="0.000" stroke="#D3D3D3" id="img-48a46f41-1">
  <g transform="translate(18.31,36.64)">
    <path fill="none" d="M-8.15,8.57 L 8.15 -8.57" class="primitive"/>
  </g>
  <g transform="translate(34.46,33.24)">
    <path fill="none" d="M-4.47,-5.13 L 4.47 5.13" class="primitive"/>
  </g>
  <g transform="translate(48.6,28.41)">
    <path fill="none" d="M-16.7,-1.85 L 16.7 1.85" class="primitive"/>
  </g>
  <g transform="translate(38.08,15.57)">
    <path fill="none" d="M-8.01,8.64 L 8.01 -8.64" class="primitive"/>
  </g>
  <g transform="translate(66.15,42.9)">
    <path fill="none" d="M-21.88,-2.2 L 21.88 2.2" class="primitive"/>
  </g>
  <g transform="translate(73.7,42.83)">
    <path fill="none" d="M-3.94,-10.02 L 3.94 10.02" class="primitive"/>
  </g>
  <g transform="translate(68.55,6.38)">
    <path fill="none" d="M-17.02,-1.14 L 17.02 1.14" class="primitive"/>
  </g>
</g>
<g stroke-width="1.06" stroke="#D3D3D3" id="img-48a46f41-2">
  <g transform="translate(25.17,29.43)">
    <path fill="none" d="M-1.88,0.26 L 1.29 -1.36 0.59 1.1" class="primitive"/>
  </g>
  <g transform="translate(37.73,36.98)">
    <path fill="none" d="M0.66,-1.09 L 1.21 1.39 -1.87 -0.3" class="primitive"/>
  </g>
  <g transform="translate(62.73,29.97)">
    <path fill="none" d="M-1.02,-0.98 L 2.57 0.29 -1.54 0.7" class="primitive"/>
  </g>
  <g transform="translate(44.82,8.3)">
    <path fill="none" d="M-1.88,0.27 L 1.27 -1.37 0.61 1.1" class="primitive"/>
  </g>
  <g transform="translate(85.46,44.85)">
    <path fill="none" d="M-1.05,-0.97 L 2.57 0.26 -1.52 0.71" class="primitive"/>
  </g>
  <g transform="translate(77.04,51.32)">
    <path fill="none" d="M1.09,-0.96 L 0.6 1.52 -1.69 -0.57" class="primitive"/>
  </g>
  <g transform="translate(82.98,7.35)">
    <path fill="none" d="M-1.14,-0.94 L 2.59 0.17 -1.45 0.76" class="primitive"/>
  </g>
</g>
<g font-size="4" stroke="#000000" stroke-opacity="0.000" fill="#000000" id="img-48a46f41-3">
  <g transform="translate(23.3,31.4)">
    <g class="primitive">
      <text text-anchor="middle" dy="0.35em">[1, 2, 3]</text>
    </g>
  </g>
  <g transform="translate(37.55,36.79)">
    <g class="primitive">
      <text text-anchor="middle" dy="0.35em">[1]</text>
    </g>
  </g>
  <g transform="translate(58.76,29.53)">
    <g class="primitive">
      <text text-anchor="middle" dy="0.35em">[2]</text>
    </g>
  </g>
  <g transform="translate(42.98,10.29)">
    <g class="primitive">
      <text text-anchor="middle" dy="0.35em">[3]</text>
    </g>
  </g>
  <g transform="translate(78.91,44.19)">
    <g class="primitive">
      <text text-anchor="middle" dy="0.35em">[1]</text>
    </g>
  </g>
  <g transform="translate(76.09,48.92)">
    <g class="primitive">
      <text text-anchor="middle" dy="0.35em">[2]</text>
    </g>
  </g>
  <g transform="translate(78.89,7.07)">
    <g class="primitive">
      <text text-anchor="middle" dy="0.35em">[3]</text>
    </g>
  </g>
</g>
<g stroke-width="0" stroke="#000000" stroke-opacity="0.000" fill="#40E0D0" id="img-48a46f41-4">
  <g transform="translate(8.33,47.14)">
    <circle cx="0" cy="0" r="3.54" class="primitive"/>
  </g>
  <g transform="translate(28.28,26.15)">
    <circle cx="0" cy="0" r="3.54" class="primitive"/>
  </g>
  <g transform="translate(40.64,40.33)">
    <circle cx="0" cy="0" r="3.54" class="primitive"/>
  </g>
  <g transform="translate(68.92,30.66)">
    <circle cx="0" cy="0" r="3.54" class="primitive"/>
  </g>
  <g transform="translate(47.87,5)">
    <circle cx="0" cy="0" r="3.54" class="primitive"/>
  </g>
  <g transform="translate(91.67,45.47)">
    <circle cx="0" cy="0" r="3.54" class="primitive"/>
  </g>
  <g transform="translate(78.48,55)">
    <circle cx="0" cy="0" r="3.54" class="primitive"/>
  </g>
  <g transform="translate(89.23,7.77)">
    <circle cx="0" cy="0" r="3.54" class="primitive"/>
  </g>
</g>
<g font-size="4" stroke="#000000" stroke-opacity="0.000" fill="#000000" id="img-48a46f41-5">
  <g transform="translate(8.33,47.14)">
    <g class="primitive">
      <text text-anchor="middle" dy="0.35em">(P = 1,)</text>
    </g>
  </g>
  <g transform="translate(28.28,26.15)">
    <g class="primitive">
      <text text-anchor="middle" dy="0.35em">(alg = "alg1",)</text>
    </g>
  </g>
  <g transform="translate(40.64,40.33)">
    <g class="primitive">
      <text text-anchor="middle" dy="0.35em">(x = 10.0,)</text>
    </g>
  </g>
  <g transform="translate(68.92,30.66)">
    <g class="primitive">
      <text text-anchor="middle" dy="0.35em">(x = 20.0,)</text>
    </g>
  </g>
  <g transform="translate(47.87,5)">
    <g class="primitive">
      <text text-anchor="middle" dy="0.35em">(x = 30.0,)</text>
    </g>
  </g>
  <g transform="translate(91.67,45.47)">
    <g class="primitive">
      <text text-anchor="middle" dy="0.35em">(r = 12.0,)</text>
    </g>
  </g>
  <g transform="translate(78.48,55)">
    <g class="primitive">
      <text text-anchor="middle" dy="0.35em">(r = 22.0,)</text>
    </g>
  </g>
  <g transform="translate(89.23,7.77)">
    <g class="primitive">
      <text text-anchor="middle" dy="0.35em">(r = 32.0,)</text>
    </g>
  </g>
</g>
</svg>
