<?xml version="1.0" encoding="UTF-8"?>
<svg xmlns="http://www.w3.org/2000/svg"
     xmlns:xlink="http://www.w3.org/1999/xlink"
     version="1.2"
     width="100mm" height="60mm" viewBox="0 0 100 60"
     stroke="none"
     fill="#000000"
     stroke-width="0.3"
     font-size="3.88"
>
<defs>
  <marker id="arrow" markerWidth="15" markerHeight="7" refX="5" refY="3.5" orient="auto" markerUnits="strokeWidth">
    <path d="M0,0 L15,3.5 L0,7 z" stroke="context-stroke" fill="context-stroke"/>
  </marker>
</defs>
<g stroke-width="1.06" fill="#000000" fill-opacity="0.000" stroke="#D3D3D3" id="img-10ede7fe-1">
  <g transform="translate(25.61,35.54)">
    <path fill="none" d="M-14.07,4.76 L 14.07 -4.76" class="primitive"/>
  </g>
  <g transform="translate(60.57,35.8)">
    <path fill="none" d="M-14.49,-5 L 14.49 5" class="primitive"/>
  </g>
  <g transform="translate(57.6,28.6)">
    <path fill="none" d="M-11.06,0.83 L 11.06 -0.83" class="primitive"/>
  </g>
  <g transform="translate(37.31,17.35)">
    <path fill="none" d="M4.61,10.22 L -4.61 -10.22" class="primitive"/>
  </g>
  <g transform="translate(67.17,48.45)">
    <path fill="none" d="M8.46,-5 L -8.46 5" class="primitive"/>
  </g>
  <g transform="translate(81.99,18.76)">
    <path fill="none" d="M-7.64,6.9 L 7.64 -6.9" class="primitive"/>
  </g>
  <g transform="translate(21.16,6.39)">
    <path fill="none" d="M6.98,-0.92 L -6.98 0.92" class="primitive"/>
  </g>
</g>
<g stroke-width="1.06" stroke="#D3D3D3" id="img-10ede7fe-2">
  <g transform="translate(37.4,31.56)">
    <path fill="none" d="M-1.84,-0.36 L 2.27 -0.77 -0.44 1.13" class="primitive"/>
  </g>
  <g transform="translate(72.8,40.02)">
    <path fill="none" d="M-0.42,-1.13 L 2.26 0.78 -1.84 0.35" class="primitive"/>
  </g>
  <g transform="translate(66.07,27.97)">
    <path fill="none" d="M-1.47,-0.75 L 2.59 -0.19 -1.12 0.95" class="primitive"/>
  </g>
  <g transform="translate(33.39,8.64)">
    <path fill="none" d="M-1.03,0.98 L -0.68 -1.51 1.72 0.53" class="primitive"/>
  </g>
  <g transform="translate(60.56,52.35)">
    <path fill="none" d="M1.93,0.06 L -1.86 1.1 -0.07 -1.16" class="primitive"/>
  </g>
  <g transform="translate(88.19,13.16)">
    <path fill="none" d="M-1.91,0.18 L 1.44 -1.3 0.47 1.13" class="primitive"/>
  </g>
  <g transform="translate(16.73,6.97)">
    <path fill="none" d="M1.58,0.67 L -2.55 0.34 0.97 -1" class="primitive"/>
  </g>
</g>
<g font-size="4" stroke="#000000" stroke-opacity="0.000" fill="#000000" id="img-10ede7fe-3">
  <g transform="translate(34.24,32.62)">
    <g class="primitive">
      <text text-anchor="middle" dy="0.35em">{2, 3, 1}</text>
    </g>
  </g>
  <g transform="translate(69.41,38.85)">
    <g class="primitive">
      <text text-anchor="middle" dy="0.35em">{1}</text>
    </g>
  </g>
  <g transform="translate(64.96,28.05)">
    <g class="primitive">
      <text text-anchor="middle" dy="0.35em">{2}</text>
    </g>
  </g>
  <g transform="translate(34.53,11.18)">
    <g class="primitive">
      <text text-anchor="middle" dy="0.35em">{3}</text>
    </g>
  </g>
  <g transform="translate(61.62,51.72)">
    <g class="primitive">
      <text text-anchor="middle" dy="0.35em">{1}</text>
    </g>
  </g>
  <g transform="translate(86.83,14.39)">
    <g class="primitive">
      <text text-anchor="middle" dy="0.35em">{2}</text>
    </g>
  </g>
  <g transform="translate(15.87,7.09)">
    <g class="primitive">
      <text text-anchor="middle" dy="0.35em">{3}</text>
    </g>
  </g>
</g>
<g stroke-width="0" stroke="#000000" stroke-opacity="0.000" fill="#40E0D0" id="img-10ede7fe-4">
  <g transform="translate(8.33,41.38)">
    <circle cx="0" cy="0" r="3.54" class="primitive"/>
  </g>
  <g transform="translate(42.88,29.7)">
    <circle cx="0" cy="0" r="3.54" class="primitive"/>
  </g>
  <g transform="translate(78.25,41.9)">
    <circle cx="0" cy="0" r="3.54" class="primitive"/>
  </g>
  <g transform="translate(72.31,27.5)">
    <circle cx="0" cy="0" r="3.54" class="primitive"/>
  </g>
  <g transform="translate(31.74,5)">
    <circle cx="0" cy="0" r="3.54" class="primitive"/>
  </g>
  <g transform="translate(56.08,55)">
    <circle cx="0" cy="0" r="3.54" class="primitive"/>
  </g>
  <g transform="translate(91.67,10.02)">
    <circle cx="0" cy="0" r="3.54" class="primitive"/>
  </g>
  <g transform="translate(10.58,7.78)">
    <circle cx="0" cy="0" r="3.54" class="primitive"/>
  </g>
</g>
<g font-size="4" stroke="#000000" stroke-opacity="0.000" fill="#000000" id="img-10ede7fe-5">
  <g transform="translate(8.33,41.38)">
    <g class="primitive">
      <text text-anchor="middle" dy="0.35em">(P = 1,)</text>
    </g>
  </g>
  <g transform="translate(42.88,29.7)">
    <g class="primitive">
      <text text-anchor="middle" dy="0.35em">(alg = "alg1",)</text>
    </g>
  </g>
  <g transform="translate(78.25,41.9)">
    <g class="primitive">
      <text text-anchor="middle" dy="0.35em">(x = 10.0,)</text>
    </g>
  </g>
  <g transform="translate(72.31,27.5)">
    <g class="primitive">
      <text text-anchor="middle" dy="0.35em">(x = 20.0,)</text>
    </g>
  </g>
  <g transform="translate(31.74,5)">
    <g class="primitive">
      <text text-anchor="middle" dy="0.35em">(x = 30.0,)</text>
    </g>
  </g>
  <g transform="translate(56.08,55)">
    <g class="primitive">
      <text text-anchor="middle" dy="0.35em">(r = 12.0,)</text>
    </g>
  </g>
  <g transform="translate(91.67,10.02)">
    <g class="primitive">
      <text text-anchor="middle" dy="0.35em">(r = 22.0,)</text>
    </g>
  </g>
  <g transform="translate(10.58,7.78)">
    <g class="primitive">
      <text text-anchor="middle" dy="0.35em">(r = 32.0,)</text>
    </g>
  </g>
</g>
</svg>
