<?xml version="1.0" encoding="UTF-8"?>
<svg xmlns="http://www.w3.org/2000/svg"
     xmlns:xlink="http://www.w3.org/1999/xlink"
     version="1.2"
     width="100mm" height="60mm" viewBox="0 0 100 60"
     stroke="none"
     fill="#000000"
     stroke-width="0.3"
     font-size="3.88"
>
<defs>
  <marker id="arrow" markerWidth="15" markerHeight="7" refX="5" refY="3.5" orient="auto" markerUnits="strokeWidth">
    <path d="M0,0 L15,3.5 L0,7 z" stroke="context-stroke" fill="context-stroke"/>
  </marker>
</defs>
<g stroke-width="1.06" fill="#000000" fill-opacity="0.000" stroke="#D3D3D3" id="img-10ede7fe-1">
  <g transform="translate(71.02,38.8)">
    <path fill="none" d="M17.05,2.21 L -17.05 -2.21" class="primitive"/>
  </g>
  <g transform="translate(52.04,27.42)">
    <path fill="none" d="M-1.25,6.51 L 1.25 -6.51" class="primitive"/>
  </g>
  <g transform="translate(43.54,45.56)">
    <path fill="none" d="M5.36,-7.41 L -5.36 7.41" class="primitive"/>
  </g>
  <g transform="translate(33.25,28.59)">
    <path fill="none" d="M14.15,6.23 L -14.15 -6.23" class="primitive"/>
  </g>
  <g transform="translate(67.83,14.63)">
    <path fill="none" d="M-10.8,3.13 L 10.8 -3.13" class="primitive"/>
  </g>
  <g transform="translate(22.52,52.61)">
    <path fill="none" d="M10.64,1.79 L -10.64 -1.79" class="primitive"/>
  </g>
  <g transform="translate(18.89,13.03)">
    <path fill="none" d="M-2.02,5.87 L 2.02 -5.87" class="primitive"/>
  </g>
</g>
<g stroke-width="1.06" stroke="#D3D3D3" id="img-10ede7fe-2">
  <g transform="translate(56.52,36.92)">
    <path fill="none" d="M0.97,1 L -2.55 -0.33 1.58 -0.67" class="primitive"/>
  </g>
  <g transform="translate(53,22.47)">
    <path fill="none" d="M-1.57,0.68 L 0.3 -1.56 1.27 0.88" class="primitive"/>
  </g>
  <g transform="translate(39.21,51.54)">
    <path fill="none" d="M1.83,-0.38 L -1.04 1.44 -0.79 -1.06" class="primitive"/>
  </g>
  <g transform="translate(21.2,23.29)">
    <path fill="none" d="M0.21,1.15 L -2.1 -0.93 1.9 -0.23" class="primitive"/>
  </g>
  <g transform="translate(76.28,12.17)">
    <path fill="none" d="M-1.8,-0.43 L 2.35 -0.68 -0.55 1.11" class="primitive"/>
  </g>
  <g transform="translate(14.39,51.24)">
    <path fill="none" d="M0.87,1.03 L -2.51 -0.42 1.64 -0.61" class="primitive"/>
  </g>
  <g transform="translate(20.39,8.7)">
    <path fill="none" d="M-1.66,0.59 L 0.53 -1.53 1.13 0.94" class="primitive"/>
  </g>
</g>
<g font-size="4" stroke="#000000" stroke-opacity="0.000" fill="#000000" id="img-10ede7fe-3">
  <g transform="translate(60.69,37.47)">
    <g class="primitive">
      <text text-anchor="middle" dy="0.35em">{2, 3, 1}</text>
    </g>
  </g>
  <g transform="translate(52.88,23.07)">
    <g class="primitive">
      <text text-anchor="middle" dy="0.35em">{1}</text>
    </g>
  </g>
  <g transform="translate(40.12,50.28)">
    <g class="primitive">
      <text text-anchor="middle" dy="0.35em">{2}</text>
    </g>
  </g>
  <g transform="translate(24.69,24.83)">
    <g class="primitive">
      <text text-anchor="middle" dy="0.35em">{3}</text>
    </g>
  </g>
  <g transform="translate(74.89,12.58)">
    <g class="primitive">
      <text text-anchor="middle" dy="0.35em">{1}</text>
    </g>
  </g>
  <g transform="translate(15.43,51.41)">
    <g class="primitive">
      <text text-anchor="middle" dy="0.35em">{2}</text>
    </g>
  </g>
  <g transform="translate(20.28,9.02)">
    <g class="primitive">
      <text text-anchor="middle" dy="0.35em">{3}</text>
    </g>
  </g>
</g>
<g stroke-width="0" stroke="#000000" stroke-opacity="0.000" fill="#40E0D0" id="img-10ede7fe-4">
  <g transform="translate(91.67,41.48)">
    <circle cx="0" cy="0" r="3.54" class="primitive"/>
  </g>
  <g transform="translate(50.37,36.13)">
    <circle cx="0" cy="0" r="3.54" class="primitive"/>
  </g>
  <g transform="translate(53.72,18.72)">
    <circle cx="0" cy="0" r="3.54" class="primitive"/>
  </g>
  <g transform="translate(36.71,55)">
    <circle cx="0" cy="0" r="3.54" class="primitive"/>
  </g>
  <g transform="translate(16.13,21.06)">
    <circle cx="0" cy="0" r="3.54" class="primitive"/>
  </g>
  <g transform="translate(81.95,10.53)">
    <circle cx="0" cy="0" r="3.54" class="primitive"/>
  </g>
  <g transform="translate(8.33,50.22)">
    <circle cx="0" cy="0" r="3.54" class="primitive"/>
  </g>
  <g transform="translate(21.66,5)">
    <circle cx="0" cy="0" r="3.54" class="primitive"/>
  </g>
</g>
<g font-size="4" stroke="#000000" stroke-opacity="0.000" fill="#000000" id="img-10ede7fe-5">
  <g transform="translate(91.67,41.48)">
    <g class="primitive">
      <text text-anchor="middle" dy="0.35em">(P = 1,)</text>
    </g>
  </g>
  <g transform="translate(50.37,36.13)">
    <g class="primitive">
      <text text-anchor="middle" dy="0.35em">(alg = "alg1",)</text>
    </g>
  </g>
  <g transform="translate(53.72,18.72)">
    <g class="primitive">
      <text text-anchor="middle" dy="0.35em">(x = 10.0,)</text>
    </g>
  </g>
  <g transform="translate(36.71,55)">
    <g class="primitive">
      <text text-anchor="middle" dy="0.35em">(x = 20.0,)</text>
    </g>
  </g>
  <g transform="translate(16.13,21.06)">
    <g class="primitive">
      <text text-anchor="middle" dy="0.35em">(x = 30.0,)</text>
    </g>
  </g>
  <g transform="translate(81.95,10.53)">
    <g class="primitive">
      <text text-anchor="middle" dy="0.35em">(r = 12.0,)</text>
    </g>
  </g>
  <g transform="translate(8.33,50.22)">
    <g class="primitive">
      <text text-anchor="middle" dy="0.35em">(r = 22.0,)</text>
    </g>
  </g>
  <g transform="translate(21.66,5)">
    <g class="primitive">
      <text text-anchor="middle" dy="0.35em">(r = 32.0,)</text>
    </g>
  </g>
</g>
</svg>
