<?xml version="1.0" encoding="UTF-8"?>
<svg xmlns="http://www.w3.org/2000/svg"
     xmlns:xlink="http://www.w3.org/1999/xlink"
     version="1.2"
     width="100mm" height="60mm" viewBox="0 0 100 60"
     stroke="none"
     fill="#000000"
     stroke-width="0.3"
     font-size="3.88"
>
<defs>
  <marker id="arrow" markerWidth="15" markerHeight="7" refX="5" refY="3.5" orient="auto" markerUnits="strokeWidth">
    <path d="M0,0 L15,3.5 L0,7 z" stroke="context-stroke" fill="context-stroke"/>
  </marker>
</defs>
<g stroke-width="1.5" fill="#000000" fill-opacity="0.000" stroke="#D3D3D3" id="img-10ede7fe-1">
  <g transform="translate(38.15,33.64)">
    <path fill="none" d="M-17.99,-2.77 L 17.99 2.77" class="primitive"/>
  </g>
  <g transform="translate(76.42,46.09)">
    <path fill="none" d="M-11.51,-6.73 L 11.51 6.73" class="primitive"/>
  </g>
  <g transform="translate(11.72,17.55)">
    <path fill="none" d="M-2.56,-9.46 L 2.56 9.46" class="primitive"/>
  </g>
</g>
<g stroke-width="1.5" stroke="#D3D3D3" id="img-10ede7fe-2">
  <g transform="translate(53.61,36.01)">
    <path fill="none" d="M-0.91,-1.02 L 2.53 0.39 -1.62 0.63" class="primitive"/>
  </g>
  <g transform="translate(86.07,51.73)">
    <path fill="none" d="M0.06,-1.16 L 1.87 1.09 -1.93 0.07" class="primitive"/>
  </g>
  <g transform="translate(13.86,25.46)">
    <path fill="none" d="M1.2,-0.91 L 0.42 1.55 -1.62 -0.64" class="primitive"/>
  </g>
</g>
<g font-size="4" stroke="#000000" stroke-opacity="0.000" fill="#000000" id="img-10ede7fe-3">
  <g transform="translate(49.66,35.41)">
    <g class="primitive">
      <text text-anchor="middle" dy="0.35em">{1}</text>
    </g>
  </g>
  <g transform="translate(84.05,50.54)">
    <g class="primitive">
      <text text-anchor="middle" dy="0.35em">{1}</text>
    </g>
  </g>
  <g transform="translate(13.42,23.82)">
    <g class="primitive">
      <text text-anchor="middle" dy="0.35em">{1}</text>
    </g>
  </g>
</g>
<g stroke-width="0" stroke="#000000" stroke-opacity="0.000" fill="#40E0D0" id="img-10ede7fe-4">
  <g transform="translate(15.11,30.09)">
    <circle cx="0" cy="0" r="5" class="primitive"/>
  </g>
  <g transform="translate(61.18,37.18)">
    <circle cx="0" cy="0" r="5" class="primitive"/>
  </g>
  <g transform="translate(8.33,5)">
    <circle cx="0" cy="0" r="5" class="primitive"/>
  </g>
  <g transform="translate(91.67,55)">
    <circle cx="0" cy="0" r="5" class="primitive"/>
  </g>
</g>
<g font-size="4" stroke="#000000" stroke-opacity="0.000" fill="#000000" id="img-10ede7fe-5">
  <g transform="translate(15.11,30.09)">
    <g class="primitive">
      <text text-anchor="middle" dy="0.35em">(alg = "alg1",)</text>
    </g>
  </g>
  <g transform="translate(61.18,37.18)">
    <g class="primitive">
      <text text-anchor="middle" dy="0.35em">(x = [10.0, 20.0, 30.0],)</text>
    </g>
  </g>
  <g transform="translate(8.33,5)">
    <g class="primitive">
      <text text-anchor="middle" dy="0.35em">(P = 1,)</text>
    </g>
  </g>
  <g transform="translate(91.67,55)">
    <g class="primitive">
      <text text-anchor="middle" dy="0.35em">(r = [12.0, 22.0, 32.0],)</text>
    </g>
  </g>
</g>
</svg>
