<?xml version="1.0" encoding="UTF-8"?>
<svg xmlns="http://www.w3.org/2000/svg"
     xmlns:xlink="http://www.w3.org/1999/xlink"
     version="1.2"
     width="120mm" height="60mm" viewBox="0 0 120 60"
     stroke="none"
     fill="#000000"
     stroke-width="0.3"
     font-size="3.88"
>
<defs>
  <marker id="arrow" markerWidth="15" markerHeight="7" refX="5" refY="3.5" orient="auto" markerUnits="strokeWidth">
    <path d="M0,0 L15,3.5 L0,7 z" stroke="context-stroke" fill="context-stroke"/>
  </marker>
</defs>
<g stroke-width="1.06" fill="#000000" fill-opacity="0.000" stroke="#D3D3D3" id="img-9f0737b3-1">
  <g transform="translate(91.82,39.7)">
    <path fill="none" d="M14.9,6.69 L -14.9 -6.69" class="primitive"/>
  </g>
  <g transform="translate(68.37,18.4)">
    <path fill="none" d="M4.39,10.97 L -4.39 -10.97" class="primitive"/>
  </g>
  <g transform="translate(89.78,26.12)">
    <path fill="none" d="M-12.48,4.19 L 12.48 -4.19" class="primitive"/>
  </g>
  <g transform="translate(41.82,37.85)">
    <path fill="none" d="M27.71,-5.5 L -27.71 5.5" class="primitive"/>
  </g>
  <g transform="translate(37.29,5.13)">
    <path fill="none" d="M21.41,0.11 L -21.41 -0.11" class="primitive"/>
  </g>
  <g transform="translate(71.27,21.44)">
    <path fill="none" d="M30.24,-0.65 L -30.24 0.65" class="primitive"/>
  </g>
  <g transform="translate(18.84,49.58)">
    <path fill="none" d="M-6.05,-3.7 L 6.05 3.7" class="primitive"/>
  </g>
</g>
<g stroke-width="1.06" stroke="#D3D3D3" id="img-9f0737b3-2">
  <g transform="translate(79.25,34.06)">
    <path fill="none" d="M0.02,1.16 L -2.33 -1.05 2.31 -0.11" class="primitive"/>
  </g>
  <g transform="translate(64.6,8.96)">
    <path fill="none" d="M-1.37,0.94 L -0.61 -1.54 1.98 0.6" class="primitive"/>
  </g>
  <g transform="translate(99.66,22.81)">
    <path fill="none" d="M-2.25,-0.27 L 2.6 -0.87 -0.35 1.15" class="primitive"/>
  </g>
  <g transform="translate(17.02,42.77)">
    <path fill="none" d="M2.09,0.51 L -2.91 0.58 0.82 -1.08" class="primitive"/>
  </g>
  <g transform="translate(19.01,5.04)">
    <path fill="none" d="M1.55,0.86 L -3.13 -0.02 1.58 -0.85" class="primitive"/>
  </g>
  <g transform="translate(44.16,22.02)">
    <path fill="none" d="M1.64,0.82 L -3.13 0.07 1.49 -0.89" class="primitive"/>
  </g>
  <g transform="translate(22.91,52.07)">
    <path fill="none" d="M0.33,-1.15 L 1.98 1.21 -2.32 -0.07" class="primitive"/>
  </g>
</g>
<g font-size="4" stroke="#000000" stroke-opacity="0.000" fill="#000000" id="img-9f0737b3-3">
  <g transform="translate(84.93,36.73)">
    <g class="primitive">
      <text text-anchor="middle" dy="0.35em">[1, 2, 3]</text>
    </g>
  </g>
  <g transform="translate(67.95,12.94)">
    <g class="primitive">
      <text text-anchor="middle" dy="0.35em">[1]</text>
    </g>
  </g>
  <g transform="translate(100.06,24.52)">
    <g class="primitive">
      <text text-anchor="middle" dy="0.35em">[2]</text>
    </g>
  </g>
  <g transform="translate(28.12,42.11)">
    <g class="primitive">
      <text text-anchor="middle" dy="0.35em">[3]</text>
    </g>
  </g>
  <g transform="translate(26.59,6.17)">
    <g class="primitive">
      <text text-anchor="middle" dy="0.35em">[1]</text>
    </g>
  </g>
  <g transform="translate(56.15,22.92)">
    <g class="primitive">
      <text text-anchor="middle" dy="0.35em">[2]</text>
    </g>
  </g>
  <g transform="translate(25.47,53.4)">
    <g class="primitive">
      <text text-anchor="middle" dy="0.35em">[3]</text>
    </g>
  </g>
</g>
<g stroke-width="0" stroke="#000000" stroke-opacity="0.000" fill="#40E0D0" id="img-9f0737b3-4">
  <g transform="translate(110,47.87)">
    <circle cx="0" cy="0" r="4.24" class="primitive"/>
  </g>
  <g transform="translate(73.63,31.54)">
    <circle cx="0" cy="0" r="4.24" class="primitive"/>
  </g>
  <g transform="translate(63.11,5.26)">
    <circle cx="0" cy="0" r="4.24" class="primitive"/>
  </g>
  <g transform="translate(105.93,20.7)">
    <circle cx="0" cy="0" r="4.24" class="primitive"/>
  </g>
  <g transform="translate(10,44.17)">
    <circle cx="0" cy="0" r="4.24" class="primitive"/>
  </g>
  <g transform="translate(11.46,5)">
    <circle cx="0" cy="0" r="4.24" class="primitive"/>
  </g>
  <g transform="translate(36.61,22.18)">
    <circle cx="0" cy="0" r="4.24" class="primitive"/>
  </g>
  <g transform="translate(27.68,55)">
    <circle cx="0" cy="0" r="4.24" class="primitive"/>
  </g>
</g>
<g font-size="4" stroke="#000000" stroke-opacity="0.000" fill="#000000" id="img-9f0737b3-5">
  <g transform="translate(110,47.87)">
    <g class="primitive">
      <text text-anchor="middle" dy="0.35em">(P = 1,)</text>
    </g>
  </g>
  <g transform="translate(73.63,31.54)">
    <g class="primitive">
      <text text-anchor="middle" dy="0.35em">(alg = "alg1",)</text>
    </g>
  </g>
  <g transform="translate(63.11,5.26)">
    <g class="primitive">
      <text text-anchor="middle" dy="0.35em">(x = 10.0,)</text>
    </g>
  </g>
  <g transform="translate(105.93,20.7)">
    <g class="primitive">
      <text text-anchor="middle" dy="0.35em">(x = 20.0,)</text>
    </g>
  </g>
  <g transform="translate(10,44.17)">
    <g class="primitive">
      <text text-anchor="middle" dy="0.35em">(x = 30.0,)</text>
    </g>
  </g>
  <g transform="translate(11.46,5)">
    <g class="primitive">
      <text text-anchor="middle" dy="0.35em">(r = 12.0,)</text>
    </g>
  </g>
  <g transform="translate(36.61,22.18)">
    <g class="primitive">
      <text text-anchor="middle" dy="0.35em">(r = 22.0,)</text>
    </g>
  </g>
  <g transform="translate(27.68,55)">
    <g class="primitive">
      <text text-anchor="middle" dy="0.35em">(r = 32.0,)</text>
    </g>
  </g>
</g>
</svg>
