<?xml version="1.0" encoding="UTF-8"?>
<svg xmlns="http://www.w3.org/2000/svg"
     xmlns:xlink="http://www.w3.org/1999/xlink"
     version="1.2"
     width="100mm" height="60mm" viewBox="0 0 100 60"
     stroke="none"
     fill="#000000"
     stroke-width="0.3"
     font-size="3.88"
>
<defs>
  <marker id="arrow" markerWidth="15" markerHeight="7" refX="5" refY="3.5" orient="auto" markerUnits="strokeWidth">
    <path d="M0,0 L15,3.5 L0,7 z" stroke="context-stroke" fill="context-stroke"/>
  </marker>
</defs>
<g stroke-width="1.06" fill="#000000" fill-opacity="0.000" stroke="#D3D3D3" id="img-fed09c9d-1">
  <g transform="translate(74.32,34.63)">
    <path fill="none" d="M13.76,-1.88 L -13.76 1.88" class="primitive"/>
  </g>
  <g transform="translate(40.87,35.04)">
    <path fill="none" d="M12.49,1.53 L -12.49 -1.53" class="primitive"/>
  </g>
  <g transform="translate(49.74,46)">
    <path fill="none" d="M5.63,-7.01 L -5.63 7.01" class="primitive"/>
  </g>
  <g transform="translate(46.19,28.24)">
    <path fill="none" d="M8.6,6.99 L -8.6 -6.99" class="primitive"/>
  </g>
  <g transform="translate(16.55,22.85)">
    <path fill="none" d="M6.62,8.23 L -6.62 -8.23" class="primitive"/>
  </g>
  <g transform="translate(25.78,50.46)">
    <path fill="none" d="M13.37,3.63 L -13.37 -3.63" class="primitive"/>
  </g>
  <g transform="translate(46,12.24)">
    <path fill="none" d="M-8.17,5.58 L 8.17 -5.58" class="primitive"/>
  </g>
</g>
<g stroke-width="1.06" stroke="#D3D3D3" id="img-fed09c9d-2">
  <g transform="translate(63.11,36.17)">
    <path fill="none" d="M1.59,0.66 L -2.54 0.35 0.96 -1.01" class="primitive"/>
  </g>
  <g transform="translate(30.93,33.82)">
    <path fill="none" d="M0.99,0.99 L -2.56 -0.31 1.56 -0.68" class="primitive"/>
  </g>
  <g transform="translate(45.24,51.6)">
    <path fill="none" d="M1.85,-0.33 L -1.13 1.41 -0.72 -1.08" class="primitive"/>
  </g>
  <g transform="translate(39.14,22.51)">
    <path fill="none" d="M-0.37,1.14 L -1.55 -1.26 1.92 0.12" class="primitive"/>
  </g>
  <g transform="translate(11.07,16.04)">
    <path fill="none" d="M-0.72,1.08 L -1.13 -1.41 1.85 0.33" class="primitive"/>
  </g>
  <g transform="translate(14.79,47.47)">
    <path fill="none" d="M0.6,1.1 L -2.38 -0.65 1.78 -0.46" class="primitive"/>
  </g>
  <g transform="translate(52.45,7.84)">
    <path fill="none" d="M-1.93,0.02 L 1.72 -1.18 0.21 1.15" class="primitive"/>
  </g>
</g>
<g font-size="4" stroke="#000000" stroke-opacity="0.000" fill="#000000" id="img-fed09c9d-3">
  <g transform="translate(65.64,35.82)">
    <g class="primitive">
      <text text-anchor="middle" dy="0.35em">{2, 3, 1}</text>
    </g>
  </g>
  <g transform="translate(32.82,34.05)">
    <g class="primitive">
      <text text-anchor="middle" dy="0.35em">{1}</text>
    </g>
  </g>
  <g transform="translate(46.12,50.5)">
    <g class="primitive">
      <text text-anchor="middle" dy="0.35em">{2}</text>
    </g>
  </g>
  <g transform="translate(40.79,23.86)">
    <g class="primitive">
      <text text-anchor="middle" dy="0.35em">{3}</text>
    </g>
  </g>
  <g transform="translate(12.44,17.74)">
    <g class="primitive">
      <text text-anchor="middle" dy="0.35em">{1}</text>
    </g>
  </g>
  <g transform="translate(17.42,48.18)">
    <g class="primitive">
      <text text-anchor="middle" dy="0.35em">{2}</text>
    </g>
  </g>
  <g transform="translate(51.31,8.62)">
    <g class="primitive">
      <text text-anchor="middle" dy="0.35em">{3}</text>
    </g>
  </g>
</g>
<g stroke-width="0" stroke="#000000" stroke-opacity="0.000" fill="#40E0D0" id="img-fed09c9d-4">
  <g transform="translate(91.67,32.26)">
    <circle cx="0" cy="0" r="3.54" class="primitive"/>
  </g>
  <g transform="translate(56.97,37.01)">
    <circle cx="0" cy="0" r="3.54" class="primitive"/>
  </g>
  <g transform="translate(24.77,33.07)">
    <circle cx="0" cy="0" r="3.54" class="primitive"/>
  </g>
  <g transform="translate(42.5,55)">
    <circle cx="0" cy="0" r="3.54" class="primitive"/>
  </g>
  <g transform="translate(35.4,19.48)">
    <circle cx="0" cy="0" r="3.54" class="primitive"/>
  </g>
  <g transform="translate(8.33,12.64)">
    <circle cx="0" cy="0" r="3.54" class="primitive"/>
  </g>
  <g transform="translate(9.06,45.91)">
    <circle cx="0" cy="0" r="3.54" class="primitive"/>
  </g>
  <g transform="translate(56.61,5)">
    <circle cx="0" cy="0" r="3.54" class="primitive"/>
  </g>
</g>
<g font-size="4" stroke="#000000" stroke-opacity="0.000" fill="#000000" id="img-fed09c9d-5">
  <g transform="translate(91.67,32.26)">
    <g class="primitive">
      <text text-anchor="middle" dy="0.35em">(P = 1,)</text>
    </g>
  </g>
  <g transform="translate(56.97,37.01)">
    <g class="primitive">
      <text text-anchor="middle" dy="0.35em">(alg = "alg1",)</text>
    </g>
  </g>
  <g transform="translate(24.77,33.07)">
    <g class="primitive">
      <text text-anchor="middle" dy="0.35em">(x = 10.0,)</text>
    </g>
  </g>
  <g transform="translate(42.5,55)">
    <g class="primitive">
      <text text-anchor="middle" dy="0.35em">(x = 20.0,)</text>
    </g>
  </g>
  <g transform="translate(35.4,19.48)">
    <g class="primitive">
      <text text-anchor="middle" dy="0.35em">(x = 30.0,)</text>
    </g>
  </g>
  <g transform="translate(8.33,12.64)">
    <g class="primitive">
      <text text-anchor="middle" dy="0.35em">(r = 12.0,)</text>
    </g>
  </g>
  <g transform="translate(9.06,45.91)">
    <g class="primitive">
      <text text-anchor="middle" dy="0.35em">(r = 22.0,)</text>
    </g>
  </g>
  <g transform="translate(56.61,5)">
    <g class="primitive">
      <text text-anchor="middle" dy="0.35em">(r = 32.0,)</text>
    </g>
  </g>
</g>
</svg>
