<?xml version="1.0" encoding="UTF-8"?>
<svg xmlns="http://www.w3.org/2000/svg"
     xmlns:xlink="http://www.w3.org/1999/xlink"
     version="1.2"
     width="100mm" height="60mm" viewBox="0 0 100 60"
     stroke="none"
     fill="#000000"
     stroke-width="0.3"
     font-size="3.88"
>
<defs>
  <marker id="arrow" markerWidth="15" markerHeight="7" refX="5" refY="3.5" orient="auto" markerUnits="strokeWidth">
    <path d="M0,0 L15,3.5 L0,7 z" stroke="context-stroke" fill="context-stroke"/>
  </marker>
</defs>
<g stroke-width="1.06" fill="#000000" fill-opacity="0.000" stroke="#D3D3D3" id="img-b6e09bd9-1">
  <g transform="translate(27.98,21.79)">
    <path fill="none" d="M-16.09,-2.62 L 16.09 2.62" class="primitive"/>
  </g>
  <g transform="translate(60.3,24.8)">
    <path fill="none" d="M-9,0.14 L 9 -0.14" class="primitive"/>
  </g>
  <g transform="translate(32.55,27.68)">
    <path fill="none" d="M11.54,-2.06 L -11.54 2.06" class="primitive"/>
  </g>
  <g transform="translate(69.64,29.1)">
    <path fill="none" d="M-18.51,-3.45 L 18.51 3.45" class="primitive"/>
  </g>
  <g transform="translate(68.18,39.8)">
    <path fill="none" d="M4.12,-13.03 L -4.12 13.03" class="primitive"/>
  </g>
  <g transform="translate(20.62,17.69)">
    <path fill="none" d="M-2.6,10.5 L 2.6 -10.5" class="primitive"/>
  </g>
  <g transform="translate(90,43.89)">
    <path fill="none" d="M1.33,-8.49 L -1.33 8.49" class="primitive"/>
  </g>
</g>
<g stroke-width="1.06" stroke="#D3D3D3" id="img-b6e09bd9-2">
  <g transform="translate(41.54,24)">
    <path fill="none" d="M-0.89,-1.03 L 2.52 0.41 -1.63 0.62" class="primitive"/>
  </g>
  <g transform="translate(66.69,24.7)">
    <path fill="none" d="M-1.34,-0.83 L 2.61 -0.04 -1.27 0.88" class="primitive"/>
  </g>
  <g transform="translate(23.51,29.3)">
    <path fill="none" d="M1.66,0.6 L -2.5 0.45 0.84 -1.04" class="primitive"/>
  </g>
  <g transform="translate(85.66,32.08)">
    <path fill="none" d="M-0.82,-1.05 L 2.49 0.46 -1.67 0.58" class="primitive"/>
  </g>
  <g transform="translate(64.55,51.29)">
    <path fill="none" d="M1.64,-0.61 L -0.49 1.54 -1.16 -0.93" class="primitive"/>
  </g>
  <g transform="translate(22.84,8.73)">
    <path fill="none" d="M-1.6,0.65 L 0.38 -1.55 1.22 0.9" class="primitive"/>
  </g>
  <g transform="translate(88.92,50.83)">
    <path fill="none" d="M1.54,-0.7 L -0.24 1.56 -1.3 -0.86" class="primitive"/>
  </g>
</g>
<g font-size="4" stroke="#000000" stroke-opacity="0.000" fill="#000000" id="img-b6e09bd9-3">
  <g transform="translate(37.8,23.39)">
    <g class="primitive">
      <text text-anchor="middle" dy="0.35em">{2, 3, 1}</text>
    </g>
  </g>
  <g transform="translate(66.64,24.7)">
    <g class="primitive">
      <text text-anchor="middle" dy="0.35em">{1}</text>
    </g>
  </g>
  <g transform="translate(25.01,29.03)">
    <g class="primitive">
      <text text-anchor="middle" dy="0.35em">{2}</text>
    </g>
  </g>
  <g transform="translate(80.65,31.15)">
    <g class="primitive">
      <text text-anchor="middle" dy="0.35em">{3}</text>
    </g>
  </g>
  <g transform="translate(65.78,47.4)">
    <g class="primitive">
      <text text-anchor="middle" dy="0.35em">{1}</text>
    </g>
  </g>
  <g transform="translate(22.2,11.34)">
    <g class="primitive">
      <text text-anchor="middle" dy="0.35em">{2}</text>
    </g>
  </g>
  <g transform="translate(89.16,49.24)">
    <g class="primitive">
      <text text-anchor="middle" dy="0.35em">{3}</text>
    </g>
  </g>
</g>
<g stroke-width="0" stroke="#000000" stroke-opacity="0.000" fill="#40E0D0" id="img-b6e09bd9-4">
  <g transform="translate(8.33,18.59)">
    <circle cx="0" cy="0" r="3.54" class="primitive"/>
  </g>
  <g transform="translate(47.62,24.99)">
    <circle cx="0" cy="0" r="3.54" class="primitive"/>
  </g>
  <g transform="translate(72.99,24.6)">
    <circle cx="0" cy="0" r="3.54" class="primitive"/>
  </g>
  <g transform="translate(17.48,30.37)">
    <circle cx="0" cy="0" r="3.54" class="primitive"/>
  </g>
  <g transform="translate(91.67,33.2)">
    <circle cx="0" cy="0" r="3.54" class="primitive"/>
  </g>
  <g transform="translate(63.38,55)">
    <circle cx="0" cy="0" r="3.54" class="primitive"/>
  </g>
  <g transform="translate(23.77,5)">
    <circle cx="0" cy="0" r="3.54" class="primitive"/>
  </g>
  <g transform="translate(88.33,54.59)">
    <circle cx="0" cy="0" r="3.54" class="primitive"/>
  </g>
</g>
<g font-size="4" stroke="#000000" stroke-opacity="0.000" fill="#000000" id="img-b6e09bd9-5">
  <g transform="translate(8.33,18.59)">
    <g class="primitive">
      <text text-anchor="middle" dy="0.35em">(P = 1,)</text>
    </g>
  </g>
  <g transform="translate(47.62,24.99)">
    <g class="primitive">
      <text text-anchor="middle" dy="0.35em">(alg = "alg1",)</text>
    </g>
  </g>
  <g transform="translate(72.99,24.6)">
    <g class="primitive">
      <text text-anchor="middle" dy="0.35em">(x = 10.0,)</text>
    </g>
  </g>
  <g transform="translate(17.48,30.37)">
    <g class="primitive">
      <text text-anchor="middle" dy="0.35em">(x = 20.0,)</text>
    </g>
  </g>
  <g transform="translate(91.67,33.2)">
    <g class="primitive">
      <text text-anchor="middle" dy="0.35em">(x = 30.0,)</text>
    </g>
  </g>
  <g transform="translate(63.38,55)">
    <g class="primitive">
      <text text-anchor="middle" dy="0.35em">(r = 12.0,)</text>
    </g>
  </g>
  <g transform="translate(23.77,5)">
    <g class="primitive">
      <text text-anchor="middle" dy="0.35em">(r = 22.0,)</text>
    </g>
  </g>
  <g transform="translate(88.33,54.59)">
    <g class="primitive">
      <text text-anchor="middle" dy="0.35em">(r = 32.0,)</text>
    </g>
  </g>
</g>
</svg>
