<?xml version="1.0" encoding="UTF-8"?>
<svg xmlns="http://www.w3.org/2000/svg"
     xmlns:xlink="http://www.w3.org/1999/xlink"
     version="1.2"
     width="100mm" height="60mm" viewBox="0 0 100 60"
     stroke="none"
     fill="#000000"
     stroke-width="0.3"
     font-size="3.88"
>
<defs>
  <marker id="arrow" markerWidth="15" markerHeight="7" refX="5" refY="3.5" orient="auto" markerUnits="strokeWidth">
    <path d="M0,0 L15,3.5 L0,7 z" stroke="context-stroke" fill="context-stroke"/>
  </marker>
</defs>
<g stroke-width="1.5" fill="#000000" fill-opacity="0.000" stroke="#D3D3D3" id="img-516cd0cf-1">
  <g transform="translate(34,47.02)">
    <path fill="none" d="M-17.11,-6.34 L 17.11 6.34" class="primitive"/>
  </g>
  <g transform="translate(73.6,45.44)">
    <path fill="none" d="M-14.16,7.5 L 14.16 -7.5" class="primitive"/>
  </g>
  <g transform="translate(10.4,22.02)">
    <path fill="none" d="M-1.69,-13.9 L 1.69 13.9" class="primitive"/>
  </g>
</g>
<g stroke-width="1.5" stroke="#D3D3D3" id="img-516cd0cf-2">
  <g transform="translate(48.88,52.54)">
    <path fill="none" d="M-0.36,-1.14 L 2.22 0.82 -1.86 0.32" class="primitive"/>
  </g>
  <g transform="translate(85.8,38.98)">
    <path fill="none" d="M-1.92,-0.12 L 1.96 -1.04 -0.04 1.16" class="primitive"/>
  </g>
  <g transform="translate(11.9,34.36)">
    <path fill="none" d="M1.33,-0.84 L 0.19 1.56 -1.52 -0.72" class="primitive"/>
  </g>
</g>
<g font-size="4" stroke="#000000" stroke-opacity="0.000" fill="#000000" id="img-516cd0cf-3">
  <g transform="translate(44.77,51.01)">
    <g class="primitive">
      <text text-anchor="middle" dy="0.35em">{1}</text>
    </g>
  </g>
  <g transform="translate(82.63,40.65)">
    <g class="primitive">
      <text text-anchor="middle" dy="0.35em">{1}</text>
    </g>
  </g>
  <g transform="translate(11.43,30.53)">
    <g class="primitive">
      <text text-anchor="middle" dy="0.35em">{1}</text>
    </g>
  </g>
</g>
<g stroke-width="0" stroke="#000000" stroke-opacity="0.000" fill="#40E0D0" id="img-516cd0cf-4">
  <g transform="translate(12.46,39.04)">
    <circle cx="0" cy="0" r="5" class="primitive"/>
  </g>
  <g transform="translate(55.54,55)">
    <circle cx="0" cy="0" r="5" class="primitive"/>
  </g>
  <g transform="translate(8.33,5)">
    <circle cx="0" cy="0" r="5" class="primitive"/>
  </g>
  <g transform="translate(91.67,35.87)">
    <circle cx="0" cy="0" r="5" class="primitive"/>
  </g>
</g>
<g font-size="4" stroke="#000000" stroke-opacity="0.000" fill="#000000" id="img-516cd0cf-5">
  <g transform="translate(12.46,39.04)">
    <g class="primitive">
      <text text-anchor="middle" dy="0.35em">(alg = "alg1",)</text>
    </g>
  </g>
  <g transform="translate(55.54,55)">
    <g class="primitive">
      <text text-anchor="middle" dy="0.35em">(x = [10.0, 20.0, 30.0],)</text>
    </g>
  </g>
  <g transform="translate(8.33,5)">
    <g class="primitive">
      <text text-anchor="middle" dy="0.35em">(P = 1,)</text>
    </g>
  </g>
  <g transform="translate(91.67,35.87)">
    <g class="primitive">
      <text text-anchor="middle" dy="0.35em">(r = [12.0, 22.0, 32.0],)</text>
    </g>
  </g>
</g>
</svg>
