<?xml version="1.0" encoding="UTF-8"?>
<svg xmlns="http://www.w3.org/2000/svg"
     xmlns:xlink="http://www.w3.org/1999/xlink"
     version="1.2"
     width="100mm" height="100mm" viewBox="0 0 100 100"
     stroke="none"
     fill="#000000"
     stroke-width="0.3"
     font-size="3.88"
>
<defs>
  <marker id="arrow" markerWidth="15" markerHeight="7" refX="5" refY="3.5" orient="auto" markerUnits="strokeWidth">
    <path d="M0,0 L15,3.5 L0,7 z" stroke="context-stroke" fill="context-stroke"/>
  </marker>
</defs>
<g stroke-width="0.69" fill="#000000" fill-opacity="0.000" stroke="#D3D3D3" id="img-2b27dd52-1">
  <g transform="translate(75.96,27.66)">
    <path fill="none" d="M-2.42,-4.09 L 2.42 4.09" class="primitive"/>
  </g>
  <g transform="translate(68.59,24.41)">
    <path fill="none" d="M1.85,-1.44 L -1.85 1.44" class="primitive"/>
  </g>
  <g transform="translate(72.65,41.6)">
    <path fill="none" d="M5.35,-6.01 L -5.35 6.01" class="primitive"/>
  </g>
  <g transform="translate(85.63,34.2)">
    <path fill="none" d="M-3.65,-0.23 L 3.65 0.23" class="primitive"/>
  </g>
  <g transform="translate(84.36,28.5)">
    <path fill="none" d="M-3.17,3.53 L 3.17 -3.53" class="primitive"/>
  </g>
  <g transform="translate(68.32,17.49)">
    <path fill="none" d="M-2.32,-2.33 L 2.32 2.33" class="primitive"/>
  </g>
  <g transform="translate(55.81,56.14)">
    <path fill="none" d="M7.92,-5.41 L -7.92 5.41" class="primitive"/>
  </g>
  <g transform="translate(70.96,58.75)">
    <path fill="none" d="M-4.08,-7.27 L 4.08 7.27" class="primitive"/>
  </g>
  <g transform="translate(65.28,38.35)">
    <path fill="none" d="M-0.34,-8.65 L 0.34 8.65" class="primitive"/>
  </g>
  <g transform="translate(63.61,17.82)">
    <path fill="none" d="M0.93,7.12 L -0.93 -7.12" class="primitive"/>
  </g>
  <g transform="translate(47.19,69.24)">
    <path fill="none" d="M-0.8,-4.01 L 0.8 4.01" class="primitive"/>
  </g>
  <g transform="translate(45.13,56.92)">
    <path fill="none" d="M0.47,3.61 L -0.47 -3.61" class="primitive"/>
  </g>
  <g transform="translate(38.43,65.59)">
    <path fill="none" d="M5.24,-1.89 L -5.24 1.89" class="primitive"/>
  </g>
  <g transform="translate(39.65,68.89)">
    <path fill="none" d="M4.54,-4.35 L -4.54 4.35" class="primitive"/>
  </g>
  <g transform="translate(81.15,72.73)">
    <path fill="none" d="M-3.19,-2.99 L 3.19 2.99" class="primitive"/>
  </g>
  <g transform="translate(77.33,75.62)">
    <path fill="none" d="M-0.76,-5.15 L 0.76 5.15" class="primitive"/>
  </g>
  <g transform="translate(16.78,85.54)">
    <path fill="none" d="M2.39,-4.07 L -2.39 4.07" class="primitive"/>
  </g>
  <g transform="translate(14.36,79.84)">
    <path fill="none" d="M3.64,-0.26 L -3.64 0.26" class="primitive"/>
  </g>
  <g transform="translate(25.67,73.85)">
    <path fill="none" d="M3.63,-3.82 L -3.63 3.82" class="primitive"/>
  </g>
  <g transform="translate(26.89,77.15)">
    <path fill="none" d="M4.24,-1.47 L -4.24 1.47" class="primitive"/>
  </g>
</g>
<g stroke-width="0.69" stroke="#D3D3D3" id="img-2b27dd52-2">
  <g transform="translate(77.05,29.51)">
    <path fill="none" d="M0.56,-1.85 L 1.33 2.25 -1.89 -0.4" class="primitive"/>
  </g>
  <g transform="translate(68.8,24.25)">
    <path fill="none" d="M1.9,0.33 L -2.06 1.6 0.16 -1.93" class="primitive"/>
  </g>
  <g transform="translate(69.04,45.66)">
    <path fill="none" d="M1.93,-0.03 L -1.74 1.95 -0.2 -1.92" class="primitive"/>
  </g>
  <g transform="translate(86.68,34.27)">
    <path fill="none" d="M-1.21,-1.51 L 2.6 0.17 -1.39 1.34" class="primitive"/>
  </g>
  <g transform="translate(85.79,26.92)">
    <path fill="none" d="M-1.93,0.02 L 1.74 -1.94 0.19 1.92" class="primitive"/>
  </g>
  <g transform="translate(68.8,17.97)">
    <path fill="none" d="M0.09,-1.93 L 1.84 1.85 -1.93 0.08" class="primitive"/>
  </g>
  <g transform="translate(50.05,60.08)">
    <path fill="none" d="M1.88,0.44 L -2.16 1.47 0.27 -1.91" class="primitive"/>
  </g>
  <g transform="translate(73.77,63.75)">
    <path fill="none" d="M0.6,-1.84 L 1.28 2.28 -1.88 -0.44" class="primitive"/>
  </g>
  <g transform="translate(65.52,44.39)">
    <path fill="none" d="M1.37,-1.36 L 0.1 2.61 -1.47 -1.25" class="primitive"/>
  </g>
  <g transform="translate(63.02,13.29)">
    <path fill="none" d="M-1.24,1.48 L -0.34 -2.59 1.58 1.11" class="primitive"/>
  </g>
  <g transform="translate(47.48,70.69)">
    <path fill="none" d="M1.14,-1.56 L 0.51 2.56 -1.65 -1" class="primitive"/>
  </g>
  <g transform="translate(45,55.9)">
    <path fill="none" d="M-1.24,1.48 L -0.34 -2.59 1.58 1.11" class="primitive"/>
  </g>
  <g transform="translate(35.65,66.6)">
    <path fill="none" d="M1.71,0.9 L -2.46 0.89 0.74 -1.78" class="primitive"/>
  </g>
  <g transform="translate(37,71.44)">
    <path fill="none" d="M1.93,0.13 L -1.89 1.81 -0.04 -1.93" class="primitive"/>
  </g>
  <g transform="translate(82.43,73.93)">
    <path fill="none" d="M0.02,-1.93 L 1.9 1.79 -1.93 0.15" class="primitive"/>
  </g>
  <g transform="translate(77.71,78.19)">
    <path fill="none" d="M1.22,-1.5 L 0.38 2.58 -1.6 -1.08" class="primitive"/>
  </g>
  <g transform="translate(15.71,87.36)">
    <path fill="none" d="M1.89,-0.4 L -1.32 2.25 -0.57 -1.85" class="primitive"/>
  </g>
  <g transform="translate(13.32,79.92)">
    <path fill="none" d="M1.4,1.33 L -2.6 0.19 1.2 -1.52" class="primitive"/>
  </g>
  <g transform="translate(23.83,75.78)">
    <path fill="none" d="M1.93,0.04 L -1.8 1.89 -0.13 -1.93" class="primitive"/>
  </g>
  <g transform="translate(25.11,77.77)">
    <path fill="none" d="M1.7,0.92 L -2.47 0.86 0.77 -1.77" class="primitive"/>
  </g>
</g>
<g font-size="4" stroke="#000000" stroke-opacity="0.000" fill="#000000" id="img-2b27dd52-3">
  <g transform="translate(77.78,30.74)">
    <g class="primitive">
      <text text-anchor="middle" dy="0.35em">[1, 2, 3, 6, 7]</text>
    </g>
  </g>
  <g transform="translate(66.72,25.86)">
    <g class="primitive">
      <text text-anchor="middle" dy="0.35em">[4, 5, 8, 9]</text>
    </g>
  </g>
  <g transform="translate(69.18,45.49)">
    <g class="primitive">
      <text text-anchor="middle" dy="0.35em">[1, 6, 7]</text>
    </g>
  </g>
  <g transform="translate(88.65,34.39)">
    <g class="primitive">
      <text text-anchor="middle" dy="0.35em">[2]</text>
    </g>
  </g>
  <g transform="translate(86.75,25.85)">
    <g class="primitive">
      <text text-anchor="middle" dy="0.35em">[3]</text>
    </g>
  </g>
  <g transform="translate(70.32,19.5)">
    <g class="primitive">
      <text text-anchor="middle" dy="0.35em">[1, 2, 3, 4, 5, 6, 7, 8, 9]</text>
    </g>
  </g>
  <g transform="translate(50.86,59.52)">
    <g class="primitive">
      <text text-anchor="middle" dy="0.35em">[4, 5, 8, 9]</text>
    </g>
  </g>
  <g transform="translate(73.59,63.43)">
    <g class="primitive">
      <text text-anchor="middle" dy="0.35em">[6, 7]</text>
    </g>
  </g>
  <g transform="translate(65.49,43.87)">
    <g class="primitive">
      <text text-anchor="middle" dy="0.35em">[4, 5, 8, 9]</text>
    </g>
  </g>
  <g transform="translate(62.99,13.08)">
    <g class="primitive">
      <text text-anchor="middle" dy="0.35em">[5]</text>
    </g>
  </g>
  <g transform="translate(47.83,72.42)">
    <g class="primitive">
      <text text-anchor="middle" dy="0.35em">[4]</text>
    </g>
  </g>
  <g transform="translate(44.74,53.93)">
    <g class="primitive">
      <text text-anchor="middle" dy="0.35em">[5]</text>
    </g>
  </g>
  <g transform="translate(34.69,66.94)">
    <g class="primitive">
      <text text-anchor="middle" dy="0.35em">[8]</text>
    </g>
  </g>
  <g transform="translate(36.52,71.89)">
    <g class="primitive">
      <text text-anchor="middle" dy="0.35em">[9]</text>
    </g>
  </g>
  <g transform="translate(83.61,75.04)">
    <g class="primitive">
      <text text-anchor="middle" dy="0.35em">[6]</text>
    </g>
  </g>
  <g transform="translate(77.88,79.38)">
    <g class="primitive">
      <text text-anchor="middle" dy="0.35em">[7]</text>
    </g>
  </g>
  <g transform="translate(14.98,88.6)">
    <g class="primitive">
      <text text-anchor="middle" dy="0.35em">[8]</text>
    </g>
  </g>
  <g transform="translate(11.35,80.06)">
    <g class="primitive">
      <text text-anchor="middle" dy="0.35em">[9]</text>
    </g>
  </g>
  <g transform="translate(23.03,76.63)">
    <g class="primitive">
      <text text-anchor="middle" dy="0.35em">[8]</text>
    </g>
  </g>
  <g transform="translate(23.64,78.28)">
    <g class="primitive">
      <text text-anchor="middle" dy="0.35em">[9]</text>
    </g>
  </g>
</g>
<g stroke-width="0" stroke="#000000" stroke-opacity="0.000" fill="#40E0D0" id="img-2b27dd52-4">
  <g transform="translate(72.32,21.51)">
    <circle cx="0" cy="0" r="2.29" class="primitive"/>
  </g>
  <g transform="translate(79.6,33.81)">
    <circle cx="0" cy="0" r="2.29" class="primitive"/>
  </g>
  <g transform="translate(64.32,13.47)">
    <circle cx="0" cy="0" r="2.29" class="primitive"/>
  </g>
  <g transform="translate(65.71,49.39)">
    <circle cx="0" cy="0" r="2.29" class="primitive"/>
  </g>
  <g transform="translate(91.67,34.59)">
    <circle cx="0" cy="0" r="2.29" class="primitive"/>
  </g>
  <g transform="translate(89.13,23.2)">
    <circle cx="0" cy="0" r="2.29" class="primitive"/>
  </g>
  <g transform="translate(64.85,27.31)">
    <circle cx="0" cy="0" r="2.29" class="primitive"/>
  </g>
  <g transform="translate(62.37,8.33)">
    <circle cx="0" cy="0" r="2.29" class="primitive"/>
  </g>
  <g transform="translate(45.92,62.89)">
    <circle cx="0" cy="0" r="2.29" class="primitive"/>
  </g>
  <g transform="translate(48.47,75.6)">
    <circle cx="0" cy="0" r="2.29" class="primitive"/>
  </g>
  <g transform="translate(44.34,50.94)">
    <circle cx="0" cy="0" r="2.29" class="primitive"/>
  </g>
  <g transform="translate(76.22,68.11)">
    <circle cx="0" cy="0" r="2.29" class="primitive"/>
  </g>
  <g transform="translate(86.08,77.36)">
    <circle cx="0" cy="0" r="2.29" class="primitive"/>
  </g>
  <g transform="translate(78.44,83.13)">
    <circle cx="0" cy="0" r="2.29" class="primitive"/>
  </g>
  <g transform="translate(20.38,79.41)">
    <circle cx="0" cy="0" r="2.29" class="primitive"/>
  </g>
  <g transform="translate(13.18,91.67)">
    <circle cx="0" cy="0" r="2.29" class="primitive"/>
  </g>
  <g transform="translate(30.95,68.3)">
    <circle cx="0" cy="0" r="2.29" class="primitive"/>
  </g>
  <g transform="translate(8.33,80.28)">
    <circle cx="0" cy="0" r="2.29" class="primitive"/>
  </g>
  <g transform="translate(33.39,74.9)">
    <circle cx="0" cy="0" r="2.29" class="primitive"/>
  </g>
</g>
<g font-size="4" stroke="#000000" stroke-opacity="0.000" fill="#000000" id="img-2b27dd52-5">
  <g transform="translate(72.32,21.51)">
    <g class="primitive">
      <text text-anchor="middle" dy="0.35em">(:D=>0.4)</text>
    </g>
  </g>
  <g transform="translate(79.6,33.81)">
    <g class="primitive">
      <text text-anchor="middle" dy="0.35em">(:B=>0.5)</text>
    </g>
  </g>
  <g transform="translate(64.32,13.47)">
    <g class="primitive">
      <text text-anchor="middle" dy="0.35em">(:A=>1)</text>
    </g>
  </g>
  <g transform="translate(65.71,49.39)">
    <g class="primitive">
      <text text-anchor="middle" dy="0.35em">(:E=>10.0)</text>
    </g>
  </g>
  <g transform="translate(91.67,34.59)">
    <g class="primitive">
      <text text-anchor="middle" dy="0.35em">(:E=>20.0)</text>
    </g>
  </g>
  <g transform="translate(89.13,23.2)">
    <g class="primitive">
      <text text-anchor="middle" dy="0.35em">(:E=>30.0)</text>
    </g>
  </g>
  <g transform="translate(64.85,27.31)">
    <g class="primitive">
      <text text-anchor="middle" dy="0.35em">(:B=>0.55)</text>
    </g>
  </g>
  <g transform="translate(62.37,8.33)">
    <g class="primitive">
      <text text-anchor="middle" dy="0.35em">(:E=>25.0)</text>
    </g>
  </g>
  <g transform="translate(45.92,62.89)">
    <g class="primitive">
      <text text-anchor="middle" dy="0.35em">(:ic_alg=>FirstAlg(2))</text>
    </g>
  </g>
  <g transform="translate(48.47,75.6)">
    <g class="primitive">
      <text text-anchor="middle" dy="0.35em">(:q₂=>[0.692668, 0.247871],:q₀=>[0.835541, 0.0531103])</text>
    </g>
  </g>
  <g transform="translate(44.34,50.94)">
    <g class="primitive">
      <text text-anchor="middle" dy="0.35em">(:q₂=>[0.291946, 0.760945],:q₀=>[0.11318, 0.381615])</text>
    </g>
  </g>
  <g transform="translate(76.22,68.11)">
    <g class="primitive">
      <text text-anchor="middle" dy="0.35em">(:ic_alg=>SecondAlg(2, true))</text>
    </g>
  </g>
  <g transform="translate(86.08,77.36)">
    <g class="primitive">
      <text text-anchor="middle" dy="0.35em">(:q₂=>[0.375588, 0.968911],:q₀=>[0.432617, 0.222666])</text>
    </g>
  </g>
  <g transform="translate(78.44,83.13)">
    <g class="primitive">
      <text text-anchor="middle" dy="0.35em">(:q₂=>[0.639423, 0.0360983],:q₀=>[0.669903, 0.579489])</text>
    </g>
  </g>
  <g transform="translate(20.38,79.41)">
    <g class="primitive">
      <text text-anchor="middle" dy="0.35em">(:alg=>Alg1{Float64}(10.0, 0.1))</text>
    </g>
  </g>
  <g transform="translate(13.18,91.67)">
    <g class="primitive">
      <text text-anchor="middle" dy="0.35em">(:l=>0.341903)</text>
    </g>
  </g>
  <g transform="translate(30.95,68.3)">
    <g class="primitive">
      <text text-anchor="middle" dy="0.35em">(:q₂=>[0.878493, 0.876749],:q₀=>[0.348069, 0.0412054])</text>
    </g>
  </g>
  <g transform="translate(8.33,80.28)">
    <g class="primitive">
      <text text-anchor="middle" dy="0.35em">(:l=>0.131253)</text>
    </g>
  </g>
  <g transform="translate(33.39,74.9)">
    <g class="primitive">
      <text text-anchor="middle" dy="0.35em">(:q₂=>[0.761369, 0.1244],:q₀=>[0.064688, 0.659171])</text>
    </g>
  </g>
</g>
</svg>
