<?xml version="1.0" encoding="UTF-8"?>
<svg xmlns="http://www.w3.org/2000/svg"
     xmlns:xlink="http://www.w3.org/1999/xlink"
     version="1.2"
     width="120mm" height="60mm" viewBox="0 0 120 60"
     stroke="none"
     fill="#000000"
     stroke-width="0.3"
     font-size="3.88"
>
<defs>
  <marker id="arrow" markerWidth="15" markerHeight="7" refX="5" refY="3.5" orient="auto" markerUnits="strokeWidth">
    <path d="M0,0 L15,3.5 L0,7 z" stroke="context-stroke" fill="context-stroke"/>
  </marker>
</defs>
<g stroke-width="1.06" fill="#000000" fill-opacity="0.000" stroke="#D3D3D3" id="img-9f0737b3-1">
  <g transform="translate(40.5,17.04)">
    <path fill="none" d="M-12.92,-9.26 L 12.92 9.26" class="primitive"/>
  </g>
  <g transform="translate(79.66,21.03)">
    <path fill="none" d="M-19.92,5.95 L 19.92 -5.95" class="primitive"/>
  </g>
  <g transform="translate(32.98,32.27)">
    <path fill="none" d="M18.82,-3.41 L -18.82 3.41" class="primitive"/>
  </g>
  <g transform="translate(68.88,40.69)">
    <path fill="none" d="M-10.91,-10.61 L 10.91 10.61" class="primitive"/>
  </g>
  <g transform="translate(92.65,9.47)">
    <path fill="none" d="M7.32,3.06 L -7.32 -3.06" class="primitive"/>
  </g>
  <g transform="translate(17.96,45.72)">
    <path fill="none" d="M-6.22,-7.25 L 6.22 7.25" class="primitive"/>
  </g>
  <g transform="translate(95.9,49.59)">
    <path fill="none" d="M-10.18,2.66 L 10.18 -2.66" class="primitive"/>
  </g>
</g>
<g stroke-width="1.06" stroke="#D3D3D3" id="img-9f0737b3-2">
  <g transform="translate(51.63,25.01)">
    <path fill="none" d="M0.51,-1.13 L 1.79 1.28 -2.3 -0.15" class="primitive"/>
  </g>
  <g transform="translate(96.89,15.88)">
    <path fill="none" d="M-2.22,-0.33 L 2.69 -0.8 -0.47 1.14" class="primitive"/>
  </g>
  <g transform="translate(17.1,35.15)">
    <path fill="none" d="M2.06,0.54 L -2.94 0.53 0.89 -1.07" class="primitive"/>
  </g>
  <g transform="translate(78.35,49.91)">
    <path fill="none" d="M0.81,-1.09 L 1.43 1.39 -2.24 -0.31" class="primitive"/>
  </g>
  <g transform="translate(87.74,7.42)">
    <path fill="none" d="M0.11,1.16 L -2.4 -1 2.3 -0.15" class="primitive"/>
  </g>
  <g transform="translate(22.95,51.53)">
    <path fill="none" d="M0.95,-1.06 L 1.23 1.44 -2.19 -0.38" class="primitive"/>
  </g>
  <g transform="translate(103.31,47.65)">
    <path fill="none" d="M-2.18,-0.4 L 2.78 -0.72 -0.6 1.12" class="primitive"/>
  </g>
</g>
<g font-size="4" stroke="#000000" stroke-opacity="0.000" fill="#000000" id="img-9f0737b3-3">
  <g transform="translate(50.44,23.68)">
    <g class="primitive">
      <text text-anchor="middle" dy="0.35em">[1, 2, 3]</text>
    </g>
  </g>
  <g transform="translate(93.73,18.59)">
    <g class="primitive">
      <text text-anchor="middle" dy="0.35em">[1]</text>
    </g>
  </g>
  <g transform="translate(23.7,35.46)">
    <g class="primitive">
      <text text-anchor="middle" dy="0.35em">[2]</text>
    </g>
  </g>
  <g transform="translate(77.55,48.08)">
    <g class="primitive">
      <text text-anchor="middle" dy="0.35em">[3]</text>
    </g>
  </g>
  <g transform="translate(89.51,8.34)">
    <g class="primitive">
      <text text-anchor="middle" dy="0.35em">[1]</text>
    </g>
  </g>
  <g transform="translate(24.15,51.46)">
    <g class="primitive">
      <text text-anchor="middle" dy="0.35em">[2]</text>
    </g>
  </g>
  <g transform="translate(105.16,48.85)">
    <g class="primitive">
      <text text-anchor="middle" dy="0.35em">[3]</text>
    </g>
  </g>
</g>
<g stroke-width="0" stroke="#000000" stroke-opacity="0.000" fill="#40E0D0" id="img-9f0737b3-4">
  <g transform="translate(25.05,5.97)">
    <circle cx="0" cy="0" r="4.24" class="primitive"/>
  </g>
  <g transform="translate(55.95,28.11)">
    <circle cx="0" cy="0" r="4.24" class="primitive"/>
  </g>
  <g transform="translate(103.37,13.95)">
    <circle cx="0" cy="0" r="4.24" class="primitive"/>
  </g>
  <g transform="translate(10,36.44)">
    <circle cx="0" cy="0" r="4.24" class="primitive"/>
  </g>
  <g transform="translate(81.8,53.27)">
    <circle cx="0" cy="0" r="4.24" class="primitive"/>
  </g>
  <g transform="translate(81.94,5)">
    <circle cx="0" cy="0" r="4.24" class="primitive"/>
  </g>
  <g transform="translate(25.92,55)">
    <circle cx="0" cy="0" r="4.24" class="primitive"/>
  </g>
  <g transform="translate(110,45.91)">
    <circle cx="0" cy="0" r="4.24" class="primitive"/>
  </g>
</g>
<g font-size="4" stroke="#000000" stroke-opacity="0.000" fill="#000000" id="img-9f0737b3-5">
  <g transform="translate(25.05,5.97)">
    <g class="primitive">
      <text text-anchor="middle" dy="0.35em">(:data=>(P = 1,))</text>
    </g>
  </g>
  <g transform="translate(55.95,28.11)">
    <g class="primitive">
      <text text-anchor="middle" dy="0.35em">(:data=>(alg = "alg1",))</text>
    </g>
  </g>
  <g transform="translate(103.37,13.95)">
    <g class="primitive">
      <text text-anchor="middle" dy="0.35em">(:data=>(x = 10.0,))</text>
    </g>
  </g>
  <g transform="translate(10,36.44)">
    <g class="primitive">
      <text text-anchor="middle" dy="0.35em">(:data=>(x = 20.0,))</text>
    </g>
  </g>
  <g transform="translate(81.8,53.27)">
    <g class="primitive">
      <text text-anchor="middle" dy="0.35em">(:data=>(x = 30.0,))</text>
    </g>
  </g>
  <g transform="translate(81.94,5)">
    <g class="primitive">
      <text text-anchor="middle" dy="0.35em">(:data=>(r = 12.0,))</text>
    </g>
  </g>
  <g transform="translate(25.92,55)">
    <g class="primitive">
      <text text-anchor="middle" dy="0.35em">(:data=>(r = 22.0,))</text>
    </g>
  </g>
  <g transform="translate(110,45.91)">
    <g class="primitive">
      <text text-anchor="middle" dy="0.35em">(:data=>(r = 32.0,))</text>
    </g>
  </g>
</g>
</svg>
