<?xml version="1.0" encoding="UTF-8"?>
<svg xmlns="http://www.w3.org/2000/svg"
     xmlns:xlink="http://www.w3.org/1999/xlink"
     version="1.2"
     width="120mm" height="60mm" viewBox="0 0 120 60"
     stroke="none"
     fill="#000000"
     stroke-width="0.3"
     font-size="3.88"
>
<defs>
  <marker id="arrow" markerWidth="15" markerHeight="7" refX="5" refY="3.5" orient="auto" markerUnits="strokeWidth">
    <path d="M0,0 L15,3.5 L0,7 z" stroke="context-stroke" fill="context-stroke"/>
  </marker>
</defs>
<g stroke-width="1.06" fill="#000000" fill-opacity="0.000" stroke="#D3D3D3" id="img-9f0737b3-1">
  <g transform="translate(37.76,38.79)">
    <path fill="none" d="M-18.71,-0.18 L 18.71 0.18" class="primitive"/>
  </g>
  <g transform="translate(85.44,30.62)">
    <path fill="none" d="M-20.91,7.14 L 20.91 -7.14" class="primitive"/>
  </g>
  <g transform="translate(69.92,34.9)">
    <path fill="none" d="M-5.77,2.63 L 5.77 -2.63" class="primitive"/>
  </g>
  <g transform="translate(42.51,43.96)">
    <path fill="none" d="M14.48,-3.9 L -14.48 3.9" class="primitive"/>
  </g>
  <g transform="translate(104.72,13.62)">
    <path fill="none" d="M3.99,6.51 L -3.99 -6.51" class="primitive"/>
  </g>
  <g transform="translate(87.32,42.89)">
    <path fill="none" d="M-6.93,-10.02 L 6.93 10.02" class="primitive"/>
  </g>
  <g transform="translate(17.07,35.97)">
    <path fill="none" d="M5.91,10.8 L -5.91 -10.8" class="primitive"/>
  </g>
</g>
<g stroke-width="1.06" stroke="#D3D3D3" id="img-9f0737b3-2">
  <g transform="translate(53.33,38.94)">
    <path fill="none" d="M-1.53,-0.87 L 3.13 0.03 -1.6 0.84" class="primitive"/>
  </g>
  <g transform="translate(103.76,24.37)">
    <path fill="none" d="M-2.26,-0.26 L 2.59 -0.88 -0.33 1.15" class="primitive"/>
  </g>
  <g transform="translate(73.37,33.32)">
    <path fill="none" d="M-2.31,-0.1 L 2.32 -1.05 -0.01 1.16" class="primitive"/>
  </g>
  <g transform="translate(30.79,47.11)">
    <path fill="none" d="M2.19,0.38 L -2.76 0.74 0.57 -1.12" class="primitive"/>
  </g>
  <g transform="translate(101.65,8.61)">
    <path fill="none" d="M-1.18,1 L -0.92 -1.5 2.09 0.5" class="primitive"/>
  </g>
  <g transform="translate(93.23,51.43)">
    <path fill="none" d="M1.1,-1.02 L 1.02 1.48 -2.13 -0.46" class="primitive"/>
  </g>
  <g transform="translate(11.99,26.67)">
    <path fill="none" d="M-1.24,0.98 L -0.83 -1.51 2.06 0.53" class="primitive"/>
  </g>
</g>
<g font-size="4" stroke="#000000" stroke-opacity="0.000" fill="#000000" id="img-9f0737b3-3">
  <g transform="translate(51.53,40.01)">
    <g class="primitive">
      <text text-anchor="middle" dy="0.35em">[1, 2, 3]</text>
    </g>
  </g>
  <g transform="translate(99.93,27.54)">
    <g class="primitive">
      <text text-anchor="middle" dy="0.35em">[1]</text>
    </g>
  </g>
  <g transform="translate(76.64,33.94)">
    <g class="primitive">
      <text text-anchor="middle" dy="0.35em">[2]</text>
    </g>
  </g>
  <g transform="translate(35.54,47.53)">
    <g class="primitive">
      <text text-anchor="middle" dy="0.35em">[3]</text>
    </g>
  </g>
  <g transform="translate(104.28,10.41)">
    <g class="primitive">
      <text text-anchor="middle" dy="0.35em">[1]</text>
    </g>
  </g>
  <g transform="translate(93.72,50.05)">
    <g class="primitive">
      <text text-anchor="middle" dy="0.35em">[2]</text>
    </g>
  </g>
  <g transform="translate(15.75,30.6)">
    <g class="primitive">
      <text text-anchor="middle" dy="0.35em">[3]</text>
    </g>
  </g>
</g>
<g stroke-width="0" stroke="#000000" stroke-opacity="0.000" fill="#40E0D0" id="img-9f0737b3-4">
  <g transform="translate(14.63,38.57)">
    <circle cx="0" cy="0" r="4.24" class="primitive"/>
  </g>
  <g transform="translate(60.88,39.01)">
    <circle cx="0" cy="0" r="4.24" class="primitive"/>
  </g>
  <g transform="translate(110,22.24)">
    <circle cx="0" cy="0" r="4.24" class="primitive"/>
  </g>
  <g transform="translate(78.95,30.78)">
    <circle cx="0" cy="0" r="4.24" class="primitive"/>
  </g>
  <g transform="translate(24.14,48.9)">
    <circle cx="0" cy="0" r="4.24" class="primitive"/>
  </g>
  <g transform="translate(99.43,5)">
    <circle cx="0" cy="0" r="4.24" class="primitive"/>
  </g>
  <g transform="translate(95.69,55)">
    <circle cx="0" cy="0" r="4.24" class="primitive"/>
  </g>
  <g transform="translate(10,23.03)">
    <circle cx="0" cy="0" r="4.24" class="primitive"/>
  </g>
</g>
<g font-size="4" stroke="#000000" stroke-opacity="0.000" fill="#000000" id="img-9f0737b3-5">
  <g transform="translate(14.63,38.57)">
    <g class="primitive">
      <text text-anchor="middle" dy="0.35em">(P = 1,)</text>
    </g>
  </g>
  <g transform="translate(60.88,39.01)">
    <g class="primitive">
      <text text-anchor="middle" dy="0.35em">(alg = "alg1",)</text>
    </g>
  </g>
  <g transform="translate(110,22.24)">
    <g class="primitive">
      <text text-anchor="middle" dy="0.35em">(x = 10.0,)</text>
    </g>
  </g>
  <g transform="translate(78.95,30.78)">
    <g class="primitive">
      <text text-anchor="middle" dy="0.35em">(x = 20.0,)</text>
    </g>
  </g>
  <g transform="translate(24.14,48.9)">
    <g class="primitive">
      <text text-anchor="middle" dy="0.35em">(x = 30.0,)</text>
    </g>
  </g>
  <g transform="translate(99.43,5)">
    <g class="primitive">
      <text text-anchor="middle" dy="0.35em">(r = 12.0,)</text>
    </g>
  </g>
  <g transform="translate(95.69,55)">
    <g class="primitive">
      <text text-anchor="middle" dy="0.35em">(r = 22.0,)</text>
    </g>
  </g>
  <g transform="translate(10,23.03)">
    <g class="primitive">
      <text text-anchor="middle" dy="0.35em">(r = 32.0,)</text>
    </g>
  </g>
</g>
</svg>
