<?xml version="1.0" encoding="UTF-8"?>
<svg xmlns="http://www.w3.org/2000/svg"
     xmlns:xlink="http://www.w3.org/1999/xlink"
     version="1.2"
     width="50mm" height="50mm" viewBox="0 0 50 50"
     stroke="none"
     fill="#000000"
     stroke-width="0.3"
     font-size="3.88"
>
<defs>
  <marker id="arrow" markerWidth="15" markerHeight="7" refX="5" refY="3.5" orient="auto" markerUnits="strokeWidth">
    <path d="M0,0 L15,3.5 L0,7 z" stroke="context-stroke" fill="context-stroke"/>
  </marker>
</defs>
<g stroke-width="1.34" fill="#000000" fill-opacity="0.000" stroke="#D3D3D3" id="img-2e06f85b-1">
  <g transform="translate(13.51,18.55)">
    <path fill="none" d="M-7.02,-0.52 L 7.02 0.52" class="primitive"/>
  </g>
  <g transform="translate(40.47,39.63)">
    <path fill="none" d="M-3.84,-4.44 L 3.84 4.44" class="primitive"/>
  </g>
  <g transform="translate(13.51,18.55)">
    <path fill="none" d="M7.02,0.52 L -7.02 -0.52" class="primitive"/>
  </g>
  <g transform="translate(28.99,26.34)">
    <path fill="none" d="M-4.61,-5.33 L 4.61 5.33" class="primitive"/>
  </g>
  <g transform="translate(25.09,11.71)">
    <path fill="none" d="M-1.57,5.31 L 1.57 -5.31" class="primitive"/>
  </g>
</g>
<g stroke-width="1.34" stroke="#D3D3D3" id="img-2e06f85b-2">
  <g transform="translate(19.23,18.98)">
    <path fill="none" d="M-0.6,-0.76 L 1.3 0.1 -0.7 0.66" class="primitive"/>
  </g>
  <g transform="translate(43.46,43.08)">
    <path fill="none" d="M0.11,-0.96 L 0.85 0.99 -0.97 -0.03" class="primitive"/>
  </g>
  <g transform="translate(7.79,18.13)">
    <path fill="none" d="M0.6,0.76 L -1.3 -0.1 0.7 -0.66" class="primitive"/>
  </g>
  <g transform="translate(32.74,30.68)">
    <path fill="none" d="M0.11,-0.96 L 0.85 0.99 -0.97 -0.03" class="primitive"/>
  </g>
  <g transform="translate(26.3,7.65)">
    <path fill="none" d="M-0.87,0.42 L 0.37 -1.25 0.5 0.83" class="primitive"/>
  </g>
</g>
<g font-size="4" stroke="#000000" stroke-opacity="0.000" fill="#000000" id="img-2e06f85b-3">
</g>
<g stroke-width="0" stroke="#000000" stroke-opacity="0.000" fill="#40E0D0" id="img-2e06f85b-4">
  <g transform="translate(4.17,17.86)">
    <circle cx="0" cy="0" r="2.24" class="primitive"/>
  </g>
  <g transform="translate(35.12,33.43)">
    <circle cx="0" cy="0" r="2.24" class="primitive"/>
  </g>
  <g transform="translate(22.86,19.25)">
    <circle cx="0" cy="0" r="2.24" class="primitive"/>
  </g>
  <g transform="translate(45.83,45.83)">
    <circle cx="0" cy="0" r="2.24" class="primitive"/>
  </g>
  <g transform="translate(27.33,4.17)">
    <circle cx="0" cy="0" r="2.24" class="primitive"/>
  </g>
</g>
<g font-size="4" stroke="#000000" stroke-opacity="0.000" fill="#000000" id="img-2e06f85b-5">
</g>
</svg>
